<svg  viewBox="0 0 34 46" fill="none" xmlns="http://www.w3.org/2000/svg">
<path fill-rule="evenodd" clip-rule="evenodd" d="M17.556 6.02098C17.8729 6.16358 18.1422 6.3062 18.4591 6.43295C18.776 6.55971 19.0453 6.70233 19.3464 6.84493L19.7584 6.02098C19.5862 5.94752 19.4217 5.85733 19.2672 5.75164C19.0649 5.67756 18.8689 5.58747 18.6809 5.48226C18.5819 5.42518 18.4751 5.38252 18.364 5.35552C18.7285 4.48406 19.0929 3.67596 19.3939 2.75697C19.7584 2.9471 20.1228 3.07387 20.4397 3.26401C20.8402 3.4467 21.2268 3.65852 21.5964 3.89779C22.1509 4.20463 22.6807 4.55428 23.1808 4.94355C22.5154 5.9893 21.8341 6.98752 21.1686 8.01743C21.4493 8.21938 21.7191 8.43624 21.9766 8.66706C22.2299 8.86012 22.4682 9.07197 22.6897 9.30084L23.3234 8.61953L23.2284 8.52447C23.1016 8.38187 22.9115 8.25509 22.7372 8.06496C22.5629 7.87482 22.3252 7.74807 22.1034 7.57378C22.6421 6.84492 23.1808 6.11607 23.7671 5.35552C23.8805 5.47005 24.0024 5.57595 24.1315 5.67239L25.1614 6.57555L25.6526 7.06673C26.0487 7.47869 26.4607 7.92237 26.8568 8.38187L26.1438 9.01565L24.2424 10.8853C24.4801 11.1547 24.6544 11.4241 24.8762 11.6934L25.4149 12.5173L26.1755 12.0103C26.1755 12.0103 26.1755 12.0103 26.1755 11.9311C26.0012 11.6459 25.7794 11.3289 25.6051 11.0596C25.5539 10.976 25.4897 10.9011 25.4149 10.8378V10.7427C26.0804 10.204 26.7934 9.66528 27.5223 9.15825C27.9184 9.71281 28.3304 10.204 28.6948 10.7427L29.6296 12.5173C29.7025 12.6645 29.7608 12.8184 29.8039 12.9768C28.7265 13.468 27.6966 14.0067 26.635 14.5613L27.047 15.4645C27.1737 15.7814 27.2687 16.0982 27.3638 16.4151L28.2036 16.1458C28.2036 16.0032 28.1244 15.8289 28.0768 15.6863C27.988 15.5077 27.9138 15.3223 27.855 15.1317C27.803 14.9792 27.7394 14.8309 27.6649 14.688L30.1842 13.6423C30.2389 13.7937 30.3024 13.9419 30.3744 14.0859C30.5962 14.7197 30.818 15.4011 30.9923 16.0349C31.175 16.6794 31.3126 17.3359 31.4043 17.9996L27.9026 18.6809C27.9026 19.0295 27.9818 19.3464 28.0293 19.7108C28.0542 20.0431 28.0542 20.3768 28.0293 20.7091H28.9325V20.1228C28.9325 19.7583 28.9325 19.4415 28.8374 19.0771C29.693 18.9503 30.5961 18.8552 31.4835 18.7601C31.4835 18.9027 31.4835 19.0771 31.4835 19.2672C31.5386 19.5813 31.5704 19.8991 31.5785 20.2179C31.6031 20.6559 31.6031 21.0949 31.5785 21.533V22.1667V23.0382H27.8867V25.3832H29.0117V23.5611H31.5785V24.0681V27.6015V27.6965H27.8867V30.0099H29.0117V28.3145H31.5785V28.8216V32.3549V32.45H25.7318C25.7318 32.5292 25.6367 32.5767 25.5892 32.6718C25.3671 32.9317 25.1113 33.1608 24.8287 33.3531C24.7269 33.5499 24.6675 33.7658 24.6544 33.9869C24.6451 34.3143 24.7613 34.6329 24.9793 34.8774C25.1973 35.1219 25.5005 35.2739 25.8269 35.302H27.4114C27.6866 35.3041 27.9588 35.3608 28.212 35.4691C28.4651 35.5773 28.6942 35.7347 28.8859 35.9323C29.0776 36.1299 29.228 36.3637 29.3285 36.62C29.429 36.8763 29.4775 37.15 29.4712 37.4252C29.475 37.8277 29.3651 38.2232 29.1543 38.566H31.7686C32.1889 38.566 32.5919 38.733 32.8891 39.0301C33.1862 39.3272 33.3531 39.7303 33.3531 40.1505V41.735V45.5536H32.5451V41.735H30.2159V42.9233H31.8004V45.5536H27.8867V41.735H25.5575V42.9233H27.142V45.5536H23.1808V41.735H20.9309V42.9233H22.5153V45.5536H18.5542V41.735H16.2725V42.9233H17.857V45.5536H13.8958V41.735H11.6142V42.9233H13.1987V45.5536H9.2375V41.735H7.03506V42.9233H8.61953V45.5536H4.65835V41.735H2.37671V42.9233H3.96118V45.5536H0V40.1505C0 39.7303 0.166958 39.3272 0.464104 39.0301C0.76125 38.733 1.16424 38.566 1.58447 38.566H3.5492C3.39547 38.3001 3.29665 38.006 3.25854 37.7012C3.22044 37.3964 3.24386 37.0871 3.3274 36.7914C3.43051 36.4612 3.59738 36.1543 3.81858 35.8883C4.15625 35.6009 4.55858 35.3997 4.99108 35.302C5.25992 35.2784 5.53033 35.2784 5.79917 35.302H7.03506C7.35721 35.2634 7.65417 35.1084 7.87009 34.8663C8.08601 34.6241 8.206 34.3114 8.20755 33.9869C8.21808 33.7602 8.15102 33.5366 8.01743 33.3531C7.72284 33.157 7.46537 32.9103 7.25691 32.6243V32.5292C7.00199 32.1907 6.80886 31.8099 6.68647 31.4043C6.57794 30.9897 6.5142 30.5648 6.49635 30.1366C6.50293 29.5272 6.62667 28.9247 6.86079 28.362C7.12997 27.8278 7.47706 27.3365 7.89069 26.9043C7.89069 26.9043 7.89069 26.9043 7.98575 26.8251C8.38187 26.4607 8.84138 26.1438 9.28503 25.7793C11.5699 24.252 13.1676 21.8924 13.7374 19.2038V19.1087H13.8166C14.008 19.0246 14.1888 18.9182 14.3553 18.7918C14.9232 18.3582 15.3616 17.7773 15.6229 17.1123C15.7778 16.7062 15.8686 16.2786 15.8923 15.8447H15.6546C15.6556 16.2461 15.5803 16.644 15.4327 17.0172C15.2541 17.4708 14.9966 17.8892 14.6722 18.2531C14.4558 18.4637 14.2166 18.6497 13.9592 18.8077C13.5709 18.9944 13.1612 19.1328 12.7392 19.2197C12.3243 19.2832 11.9023 19.2832 11.4874 19.2197C11.1314 19.1886 10.7832 19.0975 10.4575 18.9503C10.152 18.8675 9.8627 18.7335 9.6019 18.5542C8.49464 18.8795 7.50801 19.5244 6.76568 20.408C5.97438 21.297 5.46195 22.399 5.29213 23.577V23.8146L2.64609 23.4502L0.126785 19.9485L5.97344 9.28498L6.14776 8.96812L9.64943 6.89246L10.7744 0H10.9487C11.6637 0.032658 12.3388 0.339014 12.8342 0.855628C13.3544 1.36558 13.6891 2.03485 13.7849 2.75697L14.3712 5.11781C14.7673 5.21288 15.306 5.26044 15.6705 5.33966L15.8447 4.4365H15.7497C15.427 4.35408 15.0986 4.29584 14.7673 4.26223C14.6405 4.26223 14.4979 4.26224 14.3236 4.16717C14.4504 3.26402 14.593 2.34502 14.7198 1.44188C15.1793 1.44188 15.6229 1.58447 16.0666 1.632C16.5102 1.67954 16.7479 1.80627 17.1123 1.85381C17.7302 2.0281 18.364 2.26581 18.9978 2.48763C18.5858 3.66014 18.1897 4.80093 17.8253 5.97344L17.556 6.02098ZM13.3729 6.89246C12.4526 6.77142 11.5204 6.77142 10.6001 6.89246L11.2656 1.26756C12.66 1.71121 12.755 4.30977 13.3729 6.89246ZM26.0487 31.6102H30.6279V29.2493H29.7722V30.8338H26.936V26.7617H30.6279V24.4484H29.7722V26.0329H26.936V21.9766H30.5328C30.5577 21.8085 30.5577 21.6377 30.5328 21.4696C30.5328 21.0101 30.5328 20.5665 30.5328 20.107C30.5066 19.9869 30.5066 19.8626 30.5328 19.7425L29.6772 19.8851V20.2971C29.6772 20.2971 29.6772 20.4238 29.6772 20.4714V21.6122H26.9836V20.9467C27.0073 20.551 27.0073 20.1541 26.9836 19.7584C26.9404 19.331 26.8663 18.9074 26.7618 18.4908L26.6825 17.9045L30.2318 17.1757C30.1304 16.8809 30.051 16.579 29.994 16.2725C29.8514 15.813 29.7247 15.3694 29.5346 14.9099L28.7265 15.2268C28.7365 15.2492 28.7417 15.2735 28.7417 15.2981C28.7417 15.3227 28.7365 15.3469 28.7265 15.3694C28.7265 15.3694 28.7265 15.3694 28.7265 15.4486C28.8533 15.7743 28.9591 16.1077 29.0434 16.4468C29.0434 16.5894 29.1226 16.7162 29.1701 16.9063C28.267 17.1281 27.4272 17.3975 26.524 17.6827L26.3498 17.0331C26.2474 16.6522 26.1257 16.2767 25.9853 15.9081C25.8427 15.5437 25.716 15.2268 25.5734 14.9099L25.2248 14.181L28.3938 12.5965C28.2512 12.3747 28.1719 12.137 28.0293 11.9627C27.8867 11.7885 27.9343 11.8202 27.9026 11.7409C27.6725 11.3116 27.413 10.8987 27.1262 10.5051L26.4607 11.0596C26.4607 11.0596 26.4607 11.1388 26.5399 11.1864C26.73 11.5033 26.9043 11.7726 27.0786 12.0895C27.2529 12.4064 27.2212 12.3747 27.3163 12.5015C26.5399 12.9134 25.7318 13.4522 24.9713 13.9117L24.7019 13.4046C24.4801 13.056 24.2108 12.6916 23.9889 12.3747C23.7671 12.0578 23.5452 11.7726 23.3076 11.4557L22.8798 10.8853L25.5734 8.4294C25.4389 8.25408 25.2905 8.08983 25.1298 7.93822L24.591 7.38365C24.3692 7.16182 24.1474 6.98754 23.9097 6.74987L23.3393 7.43118C23.5136 7.57378 23.6879 7.74804 23.8305 7.89064C24.1112 8.12126 24.3662 8.3816 24.591 8.66706C23.9572 9.30085 23.3393 9.98214 22.7055 10.6635L22.2143 10.204C21.9481 9.92501 21.6622 9.66551 21.3587 9.42758C20.9943 9.15822 20.6774 8.88889 20.3288 8.66706L19.8693 8.35015L21.8499 5.26046C21.4679 4.97843 21.0592 4.73429 20.6298 4.53157C20.3605 4.35972 20.08 4.20624 19.79 4.0721L19.4732 4.89601C19.4732 4.89601 19.4732 4.89601 19.5524 4.89601L20.5031 5.3872C20.6577 5.47128 20.806 5.56659 20.9467 5.67239L19.5999 8.11249L19.0137 7.79558L18.0313 7.25686C17.6958 7.11438 17.3519 6.99271 17.0014 6.89246L16.32 6.62308L17.4451 3.12141L16.5419 2.85203C16.099 2.7222 15.6494 2.61644 15.1951 2.53517L15.0683 3.43828C15.6071 3.53335 16.1458 3.67597 16.6528 3.80272L16.5578 4.26223L16.019 6.52802L15.306 6.35375C15.0366 6.35375 14.6247 6.21111 14.2761 6.16357V6.25864V6.74987C17.4536 7.25069 20.3505 8.86196 22.452 11.2973C24.651 13.7962 25.9066 16.9856 26.0012 20.3129C26.0012 20.8675 26.0012 21.5013 26.0012 22.04V30.4377C25.9988 30.8348 25.9401 31.2296 25.8269 31.6102H26.0487ZM5.87838 38.6453H9.69696C10.0391 38.6086 10.3557 38.4468 10.5857 38.1909C10.8157 37.9349 10.9429 37.6029 10.9429 37.2588C10.9429 36.9147 10.8157 36.5828 10.5857 36.3269C10.3557 36.0709 10.0391 35.9091 9.69696 35.8724H5.92591C5.58376 35.9091 5.26726 36.0709 5.03726 36.3269C4.80725 36.5828 4.68001 36.9147 4.68001 37.2588C4.68001 37.6029 4.80725 37.9349 5.03726 38.1909C5.26726 38.4468 5.58376 38.6086 5.92591 38.6453H5.87838ZM14.2286 38.6453H14.3236C14.4832 38.6392 14.64 38.6014 14.7848 38.5342C14.9297 38.4669 15.0597 38.3716 15.1673 38.2536C15.275 38.1357 15.3581 37.9975 15.4118 37.8471C15.4655 37.6967 15.4888 37.5372 15.4803 37.3777V37.1083C15.4824 36.9481 15.4529 36.7891 15.3935 36.6402C15.3341 36.4914 15.246 36.3557 15.1342 36.241C15.0224 36.1262 14.889 36.0346 14.7418 35.9714C14.5946 35.9081 14.4363 35.8745 14.2761 35.8724C13.9469 35.8724 13.6308 36.0021 13.3965 36.2334C13.1623 36.4648 13.0285 36.7791 13.0244 37.1083V37.3777C13.018 37.5405 13.0443 37.703 13.1018 37.8555C13.1592 38.008 13.2467 38.1475 13.3589 38.2656C13.4712 38.3838 13.606 38.4783 13.7553 38.5435C13.9047 38.6087 14.0656 38.6433 14.2286 38.6453ZM2.55103 23.0382C3.31157 16.2409 9.42762 14.0067 6.14776 9.33252C4.56329 12.6441 2.15489 16.6845 0.301054 19.996L2.55103 23.0382ZM9.33256 11.4716C9.46705 11.4597 9.59212 11.3977 9.68308 11.2979C9.77405 11.1982 9.82427 11.0679 9.82375 10.9328C9.83699 10.8577 9.83361 10.7805 9.81383 10.7067C9.79406 10.633 9.75837 10.5645 9.70929 10.506C9.66021 10.4475 9.5989 10.4005 9.52971 10.3683C9.46051 10.336 9.38512 10.3193 9.30877 10.3193C9.23243 10.3193 9.15703 10.336 9.08784 10.3683C9.01865 10.4005 8.95733 10.4475 8.90826 10.506C8.85918 10.5645 8.82353 10.633 8.80376 10.7067C8.78399 10.7805 8.78056 10.8577 8.7938 10.9328C8.7938 11.0757 8.8506 11.2128 8.95163 11.3138C9.05266 11.4148 9.18969 11.4716 9.33256 11.4716ZM30.1366 43.8582H29.3286V41.8142H28.6473V44.7613H30.9447V43.8582H30.1366ZM20.8833 43.8582H20.0753V41.8142H19.3939V44.7613H21.6914V43.8582H20.8833ZM25.51 43.8582H24.7019V41.8142H24.0206V44.7613H26.3181V43.8582H25.51ZM11.63 43.8582H10.822V41.8142H10.204V44.7613H12.549V43.8582H11.63ZM16.2567 43.8582H15.4486V41.8142H14.7198V44.7613H17.0647V43.8582H16.2567ZM2.37671 43.8582H1.52108V41.8142H0.839768V44.7613H3.13727V43.8582H2.37671ZM7.00339 43.8582H6.14776V41.8142H5.45059V44.7613H7.74809V43.8582H7.00339Z" fill="#0C3E96"/>
</svg>
