<svg  viewBox="0 0 58 78" fill="none" xmlns="http://www.w3.org/2000/svg">
<path fill-rule="evenodd" clip-rule="evenodd" d="M30.5795 10.5104C31.1162 10.6776 31.632 10.9056 32.1168 11.19C32.647 11.374 33.1611 11.6014 33.6541 11.8696L34.3337 10.5104C34.0247 10.388 33.7336 10.2247 33.468 10.0249C33.1767 9.9278 32.8855 9.73364 32.5052 9.63655C32.3571 9.51819 32.1938 9.42023 32.0197 9.34529H31.9226C32.5052 7.88892 33.0796 6.52153 33.6541 4.96808C34.2366 5.25935 34.8111 5.55064 35.4826 5.84191C36.1542 6.13318 36.7367 6.52155 37.4083 6.90991C38.394 7.40227 39.329 7.99033 40.1996 8.66563C39.0507 10.4133 37.9908 12.1609 36.8338 13.9166C37.2222 14.2079 37.6995 14.5963 38.185 14.9846C38.6704 15.373 38.9536 15.6643 39.431 16.0526L40.4909 14.8875C40.3938 14.8875 40.3938 14.7905 40.2967 14.7905C40.0365 14.492 39.7464 14.2208 39.431 13.9814C39.0997 13.6619 38.7455 13.3672 38.3711 13.0995C39.3339 11.8373 40.1996 10.5751 41.1625 9.31289C41.3566 9.50707 41.6479 9.70128 41.8421 9.89546C42.4165 10.3809 42.991 10.8664 43.5735 11.4489L43.6706 11.546C43.9309 11.8445 44.221 12.1156 44.5364 12.3551L46.5591 14.6934L45.4021 15.6643L41.9392 18.7712C42.266 19.2447 42.6171 19.7011 42.991 20.1385C43.2822 20.624 43.5735 21.1095 43.8567 21.5949L45.2079 20.7211L45.1108 20.624C44.8477 20.07 44.5248 19.5464 44.148 19.0625V19.0625C44.0281 18.9518 43.9294 18.8202 43.8567 18.6741L43.7677 18.577L43.6706 18.4799C44.8195 17.509 46.0979 16.5381 47.3277 15.6643C48.0216 16.5325 48.6646 17.4402 49.2534 18.3828C49.8278 19.3537 50.3133 20.4298 50.8716 21.4007C50.9859 21.6639 51.0832 21.9341 51.1628 22.2098C49.3343 23.0836 47.5057 23.9575 45.6772 24.9284C45.9373 25.452 46.1617 25.9926 46.3487 26.5466C46.5519 27.0498 46.7116 27.5695 46.8261 28.1L48.3714 27.6145C48.2571 27.3514 48.1598 27.0811 48.0802 26.8054V26.8054V26.7083C47.934 26.3917 47.8043 26.0676 47.6918 25.7375V25.7375C47.5823 25.4733 47.4878 25.2032 47.4086 24.9284C48.8488 24.3458 50.2 23.8604 51.6401 23.1807C51.7198 23.4564 51.8171 23.7266 51.9315 23.9898V23.9898C52.3825 25.0591 52.7372 26.1666 52.9914 27.299C53.2745 28.367 53.5658 29.5321 53.8005 30.6001C51.7777 30.9884 49.8521 31.4092 47.8294 31.7733C47.9419 32.3495 48.0069 32.934 48.0235 33.5209C48.1206 34.1035 48.1206 34.5889 48.2177 35.1391H49.6579V34.0711C49.5608 33.4886 49.5608 32.906 49.4637 32.3234L53.9946 31.7409C53.9946 32.0322 54.0917 32.3235 54.0917 32.6147C54.164 33.151 54.1937 33.692 54.1807 34.2329C54.2636 34.9742 54.2961 35.7203 54.2778 36.466V37.534V38.9984H47.9992V42.9792H49.9249V40.2606H54.2535V41.0697V47.0974V47.1945H47.9992V51.1833H49.9249V48.3596H54.2535V49.1687V55.1965V55.2935H43.8729L44.4554 53.8372H52.8295V49.8565H51.3813V52.6721H46.5753V45.7705H52.8295V41.717H51.3813V44.5407H46.5753V37.9304V37.6311H52.7325V36.5631C52.7486 35.7851 52.7162 35.0069 52.6354 34.2329V33.6504L51.1952 33.8445V34.5161V34.9044C51.2785 35.5156 51.311 36.1327 51.2922 36.7492C49.7469 36.7492 48.2096 36.8463 46.6643 36.8463L46.5753 35.6812C46.5914 35.0001 46.5589 34.3187 46.4781 33.6423C46.3811 32.9626 46.284 32.283 46.1869 31.4982L45.9927 30.5273L51.9638 29.3622C51.8667 28.7796 51.6725 28.2942 51.5755 27.8087V27.7117C51.3488 26.918 51.0787 26.1374 50.7664 25.3734L49.4151 25.964C49.4679 26.0164 49.502 26.0846 49.5122 26.1582V26.3523C49.7064 26.8378 49.9006 27.4203 50.0948 27.9705C50.1919 28.1647 50.1919 28.456 50.289 28.7796C48.7436 29.168 47.3035 29.6534 45.8552 30.0418L45.572 28.9738C45.3023 28.3425 45.0753 27.6937 44.8924 27.032C44.7063 26.5465 44.415 25.964 44.2208 25.4138L43.6463 24.2487L49.0349 21.4331C48.8407 21.0447 48.6465 20.624 48.4604 20.3651C48.4362 20.2191 48.3685 20.0837 48.2663 19.9768C47.8856 19.2722 47.467 18.5888 47.0122 17.9297L45.7581 18.8036H45.8552V18.9006C45.8552 18.9977 45.9523 19.0948 46.0494 19.1919L46.9151 20.6564C47.0805 20.8604 47.2116 21.09 47.3034 21.336C46.0493 22.1451 44.7062 22.9542 43.3551 23.7633L42.8777 22.8895C42.4894 22.3069 42.0686 21.7243 41.7207 21.1418C41.3728 20.5593 40.9116 20.0738 40.5637 19.5803L39.698 18.7065L44.3179 14.5315C44.0266 14.2403 43.8324 13.949 43.5088 13.6577C43.2107 13.3398 42.8888 13.045 42.546 12.7758C42.185 12.394 41.7984 12.0372 41.389 11.7078L40.4262 12.8729C40.7328 13.0754 41.0224 13.3028 41.2919 13.5526C41.734 13.9857 42.1526 14.4421 42.546 14.9199C41.4861 15.9879 40.4262 17.153 39.3663 18.3181L38.5572 17.509C38.0914 17.0057 37.5765 16.5503 37.0199 16.1497C36.5042 15.6995 35.9639 15.2782 35.4017 14.8875L34.536 14.305L37.9099 9.15111C37.2303 8.66566 36.5587 8.2773 35.8872 7.88893C35.4017 7.59766 34.9244 7.39539 34.4389 7.07984L33.8644 8.44721L34.0586 8.64138C34.6169 8.87151 35.1577 9.14192 35.6768 9.45047C35.8792 9.61386 36.1058 9.74486 36.3484 9.83882L34.1395 14.0218L33.0796 13.5283C32.5715 13.1825 32.0292 12.8897 31.4614 12.6544C30.901 12.3875 30.3224 12.1604 29.73 11.9748L28.573 11.4893L30.4986 5.55875C30.0131 5.46166 29.4387 5.26744 28.9533 5.17035L26.6474 4.58783L26.4531 6.14127C27.3607 6.28893 28.26 6.4834 29.1474 6.72384L28.9533 7.53293L28.0875 11.4247L26.9386 11.1333C26.1758 10.9574 25.4031 10.8277 24.6246 10.745L24.1392 8.99738C25.0799 9.11197 26.0142 9.27398 26.9386 9.48282L27.3189 7.92938H27.1247C26.593 7.79374 26.0522 7.69641 25.5065 7.63812V7.63812C25.2153 7.53293 25.0292 7.53293 24.6974 7.43584H24.6003C24.7945 5.88239 25.0777 4.42601 25.2719 2.87256C26.0562 2.90711 26.8333 3.03752 27.5859 3.26091L29.3174 3.55217C30.3773 3.94053 31.4372 4.23181 32.4971 4.62017C31.8174 6.56199 31.1459 8.51191 30.4744 10.5508L30.5795 10.5104Z" fill="#609603"/>
<path fill-rule="evenodd" clip-rule="evenodd" d="M24.9969 10.9958L25.183 11.9667C36.3566 13.5849 44.6011 23.3425 45.0138 34.7184V37.6311V51.8306C45.0532 53.1106 44.6818 54.3695 43.9539 55.423C43.5186 55.9824 42.9651 56.4386 42.3328 56.7589C41.7006 57.0792 41.0053 57.2558 40.2968 57.2758H17.1001C16.3758 57.2667 15.6627 57.0955 15.0131 56.7749C14.3635 56.4543 13.7939 55.9924 13.346 55.423C13.346 55.3259 13.2489 55.3259 13.2489 55.2288C12.4662 54.0873 12.0614 52.7289 12.0919 51.3452C12.0907 50.3804 12.2868 49.4255 12.668 48.5392C13.0493 47.6529 13.6076 46.8539 14.3088 46.1913C14.3088 46.0942 14.3088 46.0942 14.4059 46.0942C18.1601 42.6879 23.0713 40.0665 24.2202 32.9707C24.9014 32.6612 25.498 32.1922 25.9597 31.6034C26.5979 30.9706 27.0984 30.2127 27.4297 29.3773C27.7611 28.5419 27.9162 27.647 27.8853 26.7488H26.8254C26.8586 27.5125 26.739 28.2752 26.4736 28.9921C26.2083 29.7089 25.8025 30.3657 25.2801 30.9237C24.8816 31.2709 24.4657 31.5977 24.0341 31.9027C22.9072 32.4534 21.6552 32.6977 20.4039 32.6111C19.1527 32.5244 17.9462 32.1099 16.906 31.4092C14.9202 32.0106 13.1446 33.1604 11.7834 34.7263C10.4222 36.2921 9.5307 38.2105 9.21151 40.2606L5.2632 39.7752L1.12061 34.1115L10.943 16.2225L11.1372 15.7371L17.1973 12.2337L19.0258 0.663696C20.165 0.770487 21.2337 1.26232 22.0559 2.05803C22.8781 2.85373 23.4046 3.90583 23.5486 5.04091V5.04091L24.3577 8.4472C24.5388 9.30023 24.7657 10.1429 25.0373 10.9716L24.9969 10.9958Z" fill="#7DBD0D"/>
<path fill-rule="evenodd" clip-rule="evenodd" d="M5.2632 39.7752L1.12061 34.1115L10.943 16.2225L11.1372 15.7371C17.2943 23.9979 6.32311 27.6954 5.2632 39.7509V39.7752Z" fill="#8DD117"/>
<path fill-rule="evenodd" clip-rule="evenodd" d="M24.8999 57.2758H17.1002C16.3759 57.2666 15.6627 57.0954 15.0131 56.7748C14.3635 56.4542 13.7939 55.9923 13.3461 55.423C13.3461 55.3259 13.249 55.3258 13.249 55.2287C12.4662 54.0872 12.0615 52.7289 12.0919 51.3451C12.0908 50.3803 12.2869 49.4255 12.6681 48.5392C13.0493 47.6529 13.6077 46.8539 14.3089 46.1912C14.3089 46.0941 14.3089 46.0941 14.406 46.0941C18.1602 42.6878 23.0713 40.0664 24.2202 32.9707C24.9015 32.6612 25.4981 32.1921 25.9598 31.6033C26.5979 30.9705 27.0984 30.2126 27.4298 29.3772C27.7612 28.5418 27.9163 27.647 27.8854 26.7488C30.3855 33.0678 29.6169 44.2494 29.6169 50.9568V51.8306C29.6169 52.3161 29.5198 52.7044 29.5198 53.0928C29.2521 54.398 28.5366 55.5685 27.4971 56.4019C26.7332 56.9366 25.8315 57.2399 24.8999 57.2758V57.2758Z" fill="#8DD117"/>
<path fill-rule="evenodd" clip-rule="evenodd" d="M44.0508 55.3259C43.7581 55.77 43.4365 56.1943 43.0881 56.5962C42.762 56.9722 42.5913 57.4582 42.6107 57.9555V57.9555C42.6352 58.5049 42.8506 59.0287 43.2199 59.4363C43.5891 59.844 44.089 60.11 44.6334 60.1886H12.6743C13.2115 60.0752 13.6944 59.783 14.0442 59.3598C14.3939 58.9366 14.5898 58.4073 14.6 57.8584V57.8584C14.6 57.3332 14.4296 56.8222 14.1145 56.402V56.402C13.8216 56.0956 13.5512 55.7685 13.3054 55.4231C13.7533 55.9924 14.3229 56.4543 14.9725 56.7749C15.6221 57.0955 16.3352 57.2667 17.0596 57.2759H40.2562C40.9915 57.27 41.7148 57.0903 42.3673 56.7514C43.0198 56.4125 43.5828 55.924 44.0104 55.3259H44.0508Z" fill="#5A8C03"/>
<path fill-rule="evenodd" clip-rule="evenodd" d="M50.3456 65.7308H54.7713C55.4752 65.7541 56.1419 66.0529 56.6276 66.5628C57.1134 67.0728 57.3795 67.7532 57.3685 68.4575V71.0789V77.5516H55.9283V71.0789H52.0447V73.1178H54.7389V77.5921H48.0963V71.1194H44.148V73.1583H46.9393V77.6325H40.1996V71.1598H36.3564V73.1987H39.0183V77.673H32.3757V71.2003H28.5001V73.2392H31.2915V77.7135H24.5518V71.2407H20.7005V73.2796H23.3948V77.7539H16.7602V71.2812H12.9089V73.3201H15.5547V77.7944H8.81494V71.3216H4.96366V73.3606H7.75503V77.7377H0.991046V68.4979C0.980101 67.7923 1.24725 67.1108 1.73475 66.6006C2.22226 66.0904 2.89094 65.7925 3.59629 65.7713L50.3456 65.7308ZM52.0771 74.5823H50.6288V71.0789H49.4718V76.1357H53.4201V74.5823H52.0771ZM36.3888 74.5823H34.9405V71.0789H33.8806V76.1357H37.7318V74.5823H36.3888ZM44.1803 74.5823H42.8372V71.0789H41.6802V76.1357H45.491V74.5823H44.1803ZM20.7167 74.5823H19.2765V71.0789H18.2166V76.1357H22.0274V74.5823H20.7167ZM28.5163 74.5823H27.1651V71.0789H26.0162V76.1357H29.8675V74.5823H28.5163ZM5.0527 74.5823H3.61249V71.0789H2.4555V76.1357H6.40387V74.5823H5.0527ZM12.9494 74.5823H11.5011V71.0789H10.3441V76.1357H14.1954V74.5823H12.9494Z" fill="#609603"/>
<path fill-rule="evenodd" clip-rule="evenodd" d="M23.5486 11.9667C21.9824 11.7697 20.3977 11.7697 18.8315 11.9667L19.9885 2.44373C22.3025 3.25282 22.4886 7.59765 23.5486 11.9667V11.9667Z" fill="#FEFEFE"/>
<path fill-rule="evenodd" clip-rule="evenodd" d="M44.6333 67.4784H47.3276C48.2869 67.4551 49.1984 67.0548 49.8647 66.3642C50.531 65.6737 50.8985 64.7485 50.8876 63.7889V63.7889C50.8919 63.3183 50.803 62.8516 50.6261 62.4155C50.4492 61.9793 50.1878 61.5825 49.8569 61.2478C49.526 60.9132 49.1322 60.6473 48.6981 60.4655C48.264 60.2837 47.7982 60.1895 47.3276 60.1885H9.97994C9.51171 60.1899 9.04851 60.2851 8.61771 60.4685C8.18691 60.652 7.79727 60.9199 7.47178 61.2565C7.26295 61.4074 7.09814 61.6113 6.99439 61.8472V61.8472C6.60012 62.4163 6.39881 63.0969 6.41997 63.7889C6.39881 64.481 6.60012 65.1616 6.99439 65.7308V65.7308C7.09148 65.925 7.2857 66.1191 7.38279 66.3133L7.47178 66.4104C8.14359 67.0694 9.03925 67.4508 9.97994 67.4784H44.6333V67.4784Z" fill="#7DBD0D"/>
<path fill-rule="evenodd" clip-rule="evenodd" d="M19.7943 60.1885H12.6743C13.2115 60.0751 13.6944 59.783 14.0442 59.3597C14.3939 58.9365 14.5898 58.4072 14.6 57.8583C14.6 57.3331 14.4296 56.8221 14.1145 56.4019V56.4019C13.8216 56.0955 13.5512 55.7684 13.3054 55.423C13.7533 55.9923 14.3229 56.4542 14.9725 56.7748C15.6221 57.0954 16.3352 57.2666 17.0596 57.2758H24.9563C25.3378 57.2862 25.7005 57.4434 25.9689 57.7147C26.2372 57.9861 26.3904 58.3506 26.3965 58.7321C26.3904 59.1137 26.2372 59.4782 25.9689 59.7495C25.7005 60.0209 25.3378 60.1781 24.9563 60.1885H19.7943Z" fill="#68A303"/>
<path fill-rule="evenodd" clip-rule="evenodd" d="M10.9429 60.9652H17.4156C18.0423 60.9843 18.6361 61.2499 19.0679 61.7045C19.4997 62.159 19.7346 62.7657 19.7216 63.3925V63.3925C19.7154 64.0044 19.4712 64.5899 19.0408 65.0248C18.6103 65.4598 18.0274 65.7101 17.4156 65.7227H10.9429C10.3297 65.7122 9.74478 65.4628 9.31262 65.0276C8.88045 64.5924 8.63514 64.0058 8.62891 63.3925V63.3925C8.62823 62.7679 8.86835 62.1671 9.29933 61.715C9.73032 61.2629 10.319 60.9944 10.9429 60.9652V60.9652Z" fill="#8DD117"/>
<path fill-rule="evenodd" clip-rule="evenodd" d="M16.7197 19.6531C16.9608 19.6538 17.1933 19.5632 17.3704 19.3997C17.5474 19.2361 17.6561 19.0115 17.6745 18.7712C17.6595 18.5213 17.5546 18.2853 17.3791 18.1068C17.2036 17.9283 16.9693 17.8194 16.7197 17.8003C16.478 17.8208 16.2531 17.9325 16.0908 18.1129C15.9285 18.2932 15.8409 18.5286 15.8459 18.7712C15.8448 18.8866 15.8667 19.0011 15.9101 19.1081C15.9535 19.215 16.0177 19.3123 16.099 19.3943C16.1802 19.4763 16.2769 19.5414 16.3834 19.5858C16.49 19.6302 16.6043 19.6531 16.7197 19.6531Z" fill="#FEFEFE"/>
<path fill-rule="evenodd" clip-rule="evenodd" d="M25.0938 60.9652C25.6562 60.9758 26.1921 61.2061 26.5868 61.6068C26.9815 62.0075 27.2036 62.5469 27.2056 63.1093V63.5948C27.2036 64.1564 26.9811 64.6949 26.5863 65.0943C26.1914 65.4938 25.6555 65.7223 25.0938 65.7308V65.7308C24.8201 65.7256 24.5501 65.6659 24.2997 65.5553C24.0492 65.4447 23.8232 65.2854 23.635 65.0866C23.4467 64.8878 23.2999 64.6535 23.2031 64.3973C23.1063 64.1412 23.0614 63.8684 23.0711 63.5948V63.1093C23.0614 62.8353 23.1062 62.562 23.2029 62.3055C23.2996 62.0489 23.4463 61.814 23.6345 61.6146C23.8226 61.4151 24.0486 61.2551 24.2991 61.1436C24.5496 61.0321 24.8197 60.9715 25.0938 60.9652Z" fill="#8DD117"/>
</svg>
