<svg  viewBox="0 0 48 78" fill="none" xmlns="http://www.w3.org/2000/svg">
<path fill-rule="evenodd" clip-rule="evenodd" d="M38.1603 45.8837L23.4268 25.7617L47.7804 29.354C42.5096 33.3711 39.0495 39.3166 38.1603 45.8837V45.8837Z" fill="#AAB1B1"/>
<path fill-rule="evenodd" clip-rule="evenodd" d="M38.1603 45.8837L23.4268 25.7617L41.3319 36.6439C39.7069 39.4987 38.6311 42.6327 38.1603 45.8837V45.8837Z" fill="#939C9C"/>
<path fill-rule="evenodd" clip-rule="evenodd" d="M47.1089 18.852L23.4268 25.7617L35.3609 3.9162C37.1737 10.2474 41.3898 15.619 47.1089 18.8844V18.852Z" fill="#FFC00C"/>
<path fill-rule="evenodd" clip-rule="evenodd" d="M47.1089 18.852L23.4268 25.7617L39.7947 12.533C41.7673 15.1123 44.245 17.2624 47.0765 18.852H47.1089Z" fill="#FF9900"/>
<path fill-rule="evenodd" clip-rule="evenodd" d="M23.4271 0.671722V25.7535L6.00732 8.05873C9.25871 8.06384 12.4777 7.41218 15.471 6.14281C18.4644 4.87345 21.1705 3.01253 23.4271 0.671722V0.671722Z" fill="#AAB1B1"/>
<path fill-rule="evenodd" clip-rule="evenodd" d="M23.4271 0.671734V25.7536L15.4414 6.1088C18.4488 4.861 21.1671 3.00749 23.4271 0.663635V0.671734Z" fill="#939C9C"/>
<path fill-rule="evenodd" clip-rule="evenodd" d="M1.58147 37.2265L23.4269 25.7616L0.0361328 18.0753C3.01651 24.0167 3.57064 30.884 1.58147 37.2265V37.2265Z" fill="#FFC00C"/>
<path fill-rule="evenodd" clip-rule="evenodd" d="M1.58154 37.2265L23.427 25.7617L2.64145 27.5093C2.91654 30.7837 2.55665 34.0804 1.58154 37.2184V37.2265Z" fill="#FF9900"/>
<path fill-rule="evenodd" clip-rule="evenodd" d="M23.7183 26.5303L25.4497 51.515L23.9043 51.6121L22.27 26.6274L23.7183 26.5303Z" fill="#7DBD0D"/>
<path fill-rule="evenodd" clip-rule="evenodd" d="M24.0015 53.4649L15.6274 76.9933L16.9786 77.5758L25.3527 53.9504L24.0015 53.4649Z" fill="#7DBD0D"/>
<path fill-rule="evenodd" clip-rule="evenodd" d="M24.487 52.5911C21.2553 52.3911 18.0161 52.8385 14.9595 53.9069C11.9029 54.9753 9.09043 56.6433 6.68701 58.813C9.9214 59.0439 13.1688 58.6111 16.2298 57.5411C19.2908 56.4712 22.1008 54.7867 24.487 52.5911Z" fill="#68A303"/>
<path fill-rule="evenodd" clip-rule="evenodd" d="M7.44727 44.5245C10.6855 44.6582 13.8636 45.4436 16.7914 46.8338C19.7191 48.224 22.3364 50.1904 24.4867 52.6154C21.2532 52.4574 18.083 51.6611 15.1586 50.2725C12.2342 48.8839 9.61338 46.9304 7.44727 44.5245V44.5245Z" fill="#7DBD0D"/>
<path fill-rule="evenodd" clip-rule="evenodd" d="M42.392 46.4663C39.1486 46.225 35.8898 46.6433 32.8125 47.6959C29.7351 48.7486 26.903 50.4138 24.4868 52.5911C27.7296 52.8244 30.9863 52.4024 34.0625 51.3501C37.1387 50.2978 39.9715 48.6368 42.392 46.4663V46.4663Z" fill="#7DBD0D"/>
<path fill-rule="evenodd" clip-rule="evenodd" d="M24.4868 52.5911C27.7309 52.7317 30.913 53.5276 33.8413 54.9306C36.7697 56.3336 39.3838 58.3148 41.5263 60.7548C38.2819 60.6156 35.0994 59.8204 32.1708 58.4173C29.2422 57.0142 26.6283 55.0322 24.4868 52.5911Z" fill="#68A303"/>
</svg>
