<svg  viewBox="0 0 29 46" fill="none" xmlns="http://www.w3.org/2000/svg">
<path d="M22.4835 26.7894L13.864 14.9852C13.8463 14.9675 13.8322 14.9465 13.8226 14.9234C13.813 14.9002 13.8081 14.8755 13.8081 14.8505C13.8081 14.8255 13.813 14.8007 13.8226 14.7776C13.8322 14.7545 13.8463 14.7334 13.864 14.7158C13.92 14.6937 13.9823 14.6937 14.0383 14.7158L28.2986 16.8548C28.4253 16.8548 28.4728 16.9816 28.4728 17.0767C28.4728 17.1717 28.4728 17.1717 28.3778 17.2193C26.8866 18.3629 25.6235 19.7765 24.6543 21.3864C23.7199 23.0445 23.0969 24.8595 22.8163 26.7419C22.8163 26.837 22.6737 26.9162 22.5945 26.9162C22.5152 26.9162 22.4994 26.9162 22.4519 26.837L22.4835 26.7894ZM14.5612 15.1278L22.5945 26.2191C22.9215 24.4637 23.5429 22.7762 24.4325 21.228C25.3155 19.6684 26.4941 18.296 27.9025 17.1875L14.5612 15.1278Z" fill="#0C3E96"/>
<path fill-rule="evenodd" clip-rule="evenodd" d="M22.6104 26.6627L13.9751 14.8743L24.496 21.2122C23.5215 22.8732 22.881 24.7086 22.6104 26.6152V26.6627Z" fill="#0C3E96"/>
<path d="M27.9026 10.9923L14.0226 15.0803C13.9434 15.0803 13.8008 15.0803 13.8008 14.9377C13.8008 14.7951 13.8008 14.8109 13.8008 14.7633L20.8042 1.92915C20.8307 1.88412 20.8722 1.84988 20.9215 1.83249C20.9708 1.8151 21.0246 1.81562 21.0735 1.83404C21.0735 1.83404 21.1686 1.92915 21.1686 1.97668C21.6839 3.79493 22.5387 5.49916 23.6879 6.99943C24.8488 8.48459 26.2988 9.71895 27.9502 10.6279C27.9704 10.6457 27.9866 10.6677 27.9977 10.6922C28.0088 10.7168 28.0145 10.7435 28.0145 10.7705C28.0145 10.7975 28.0088 10.8241 27.9977 10.8487C27.9866 10.8733 27.9704 10.8952 27.9502 10.9131C27.9464 10.9355 27.9347 10.9558 27.9173 10.9703C27.8998 10.9848 27.8778 10.9926 27.8551 10.9923H27.9026ZM14.3871 14.5415L27.3163 10.7705C25.811 9.82409 24.477 8.62936 23.371 7.23709C22.2877 5.80873 21.4669 4.19924 20.9468 2.48368L14.3871 14.5415Z" fill="#0C3E96"/>
<path fill-rule="evenodd" clip-rule="evenodd" d="M27.8551 10.818L13.9751 14.8584L23.4819 7.09448C24.6409 8.62472 26.1094 9.89348 27.7917 10.818H27.8551Z" fill="#0C3E96"/>
<path d="M14.1653 0.154482V14.8584C14.1675 14.8854 14.1643 14.9127 14.1559 14.9385C14.1475 14.9643 14.134 14.9882 14.1164 15.0089C14.0987 15.0295 14.0771 15.0464 14.0529 15.0586C14.0286 15.0709 14.0022 15.0782 13.9752 15.0802C13.9752 15.0802 13.8959 15.0802 13.8484 14.9852L3.64438 4.60684C3.56516 4.60684 3.56516 4.41672 3.64438 4.32165C3.69079 4.30705 3.74061 4.30705 3.78702 4.32165C5.65268 4.31624 7.49913 3.94479 9.22175 3.22836C10.9401 2.45554 12.5068 1.38242 13.8484 0.0594177C13.8484 -0.0198059 14.0227 -0.0198059 14.1178 0.0594177C14.1278 0.0818437 14.133 0.106164 14.133 0.13074C14.133 0.155317 14.1278 0.179588 14.1178 0.202014L14.1653 0.154482ZM13.8009 14.4147V0.661525C12.5122 1.88076 11.0219 2.86719 9.39602 3.57695C7.77012 4.24542 6.03561 4.61057 4.27821 4.65438L13.8009 14.4147Z" fill="#0C3E96"/>
<path fill-rule="evenodd" clip-rule="evenodd" d="M13.9748 0.15448V14.8584L9.31641 3.37096C11.0559 2.61926 12.6367 1.54388 13.9748 0.202012V0.15448Z" fill="#0C3E96"/>
<path d="M1.48941 21.1963L13.4839 14.8584L0.633779 10.6437C1.38689 12.278 1.8481 14.0316 1.99645 15.8249C2.12367 17.6206 1.95233 19.4249 1.48941 21.1646V21.1963ZM14.0701 15.0327L1.22003 21.7508C1.20076 21.762 1.17893 21.7678 1.15668 21.7678C1.13443 21.7678 1.11256 21.762 1.09329 21.7508C1.04225 21.7247 1.00091 21.6829 0.975257 21.6316C0.949608 21.5803 0.941003 21.5222 0.950693 21.4656C1.54125 19.6531 1.75688 17.7393 1.58447 15.8408C1.42481 13.9415 0.886042 12.0935 0 10.406V10.2634C0 10.1367 0.126779 10.0891 0.269382 10.1367L13.9592 14.6207C13.9592 14.6207 14.0543 14.6207 14.1018 14.7158C14.1238 14.7643 14.1263 14.8194 14.1086 14.8696C14.0908 14.9199 14.0543 14.9613 14.0067 14.9852L14.0701 15.0327Z" fill="#0C3E96"/>
<path fill-rule="evenodd" clip-rule="evenodd" d="M1.14062 21.5607L13.9749 14.8584L1.80612 15.8883C1.9523 17.8044 1.7263 19.7306 1.14062 21.5607Z" fill="#0C3E96"/>
<path fill-rule="evenodd" clip-rule="evenodd" d="M14.1178 15.6348L15.1002 30.3228L14.2446 30.3703L13.2622 15.714L14.1178 15.6348Z" fill="#0C3E96"/>
<path fill-rule="evenodd" clip-rule="evenodd" d="M14.2442 31.4637L9.34814 45.2961L10.1562 45.5655L15.0522 31.733L14.2442 31.4637Z" fill="#0C3E96"/>
<path fill-rule="evenodd" clip-rule="evenodd" d="M14.5614 30.9091C12.669 30.7992 10.7736 31.0677 8.98621 31.6989C7.19879 32.33 5.55513 33.3113 4.15137 34.5851C6.04458 34.7041 7.94236 34.4398 9.73106 33.8082C11.5198 33.1765 13.1626 32.1905 14.5614 30.9091Z" fill="#0C3E96"/>
<path d="M14.07 31.0992C12.3594 31.0435 10.654 31.3179 9.04721 31.9073C7.43425 32.4567 5.93972 33.3061 4.64238 34.4108C8.08423 34.4976 11.4385 33.3194 14.07 31.0992ZM8.95214 31.4954C10.7522 30.8696 12.6595 30.611 14.5612 30.7348C14.5612 30.7348 14.6562 30.7348 14.7038 30.8141C14.7513 30.8933 14.783 31.0042 14.7038 31.0992C13.2497 32.3752 11.5742 33.374 9.76024 34.0464C7.93766 34.6462 6.01993 34.904 4.10366 34.807C4.10366 34.807 4.0086 34.8069 3.96106 34.7277C3.92753 34.6877 3.90918 34.6373 3.90918 34.5851C3.90918 34.5329 3.92753 34.4825 3.96106 34.4425C5.39463 33.1386 7.07582 32.1363 8.90461 31.4954H8.95214Z" fill="#0C3E96"/>
<path d="M4.54716 26.0131C6.46455 26.082 8.34711 26.5459 10.077 27.3757C11.8344 28.1856 13.4085 29.3447 14.7036 30.7824C14.7426 30.8259 14.7642 30.8823 14.7642 30.9408C14.7642 30.9993 14.7426 31.0556 14.7036 31.0992H14.561C12.6386 31.0069 10.7512 30.5499 8.99952 29.7525C7.24611 28.9378 5.68543 27.7604 4.42042 26.2983C4.32535 26.2983 4.32535 26.124 4.42042 26.0289C4.43969 26.0178 4.46156 26.012 4.48381 26.012C4.50607 26.012 4.52789 26.0178 4.54716 26.0289V26.0131ZM9.93435 27.7401C8.39833 27.0011 6.73793 26.5552 5.03834 26.4251C6.22027 27.6699 7.6224 28.6851 9.17384 29.4197C10.7164 30.1331 12.3749 30.5626 14.0699 30.6873C12.8801 29.4638 11.4791 28.4654 9.93435 27.7401Z" fill="#0C3E96"/>
<path d="M24.5433 27.5025C22.8314 27.4662 21.1263 27.7289 19.5047 28.2788C17.8786 28.831 16.369 29.6799 15.0523 30.7823C16.7642 30.8186 18.4693 30.5558 20.0909 30.0059C21.7122 29.443 23.22 28.5953 24.5433 27.5025ZM19.3779 27.8669C21.1985 27.2609 23.1204 27.0186 25.0344 27.1539C25.0344 27.1539 25.1137 27.1539 25.1612 27.2331C25.1842 27.2473 25.2031 27.2671 25.2162 27.2907C25.2293 27.3143 25.2362 27.3408 25.2362 27.3678C25.2362 27.3948 25.2293 27.4213 25.2162 27.4449C25.2031 27.4684 25.1842 27.4883 25.1612 27.5025C23.735 28.7978 22.0589 29.7879 20.2361 30.4119C18.4132 31.0359 16.482 31.2806 14.5611 31.1309C14.5611 31.1309 14.4344 31.1309 14.4344 31.0517C14.4114 31.0375 14.3925 31.0176 14.3794 30.9941C14.3663 30.9705 14.3594 30.944 14.3594 30.917C14.3594 30.89 14.3663 30.8635 14.3794 30.8399C14.3925 30.8164 14.4114 30.7965 14.4344 30.7823C15.875 29.4956 17.5547 28.5049 19.3779 27.8669Z" fill="#0C3E96"/>
<path fill-rule="evenodd" clip-rule="evenodd" d="M14.561 30.9091C16.4634 31.0144 18.3258 31.4973 20.0396 32.3297C21.7534 33.1621 23.2843 34.3274 24.5432 35.7575C22.6397 35.6575 20.7757 35.1769 19.0611 34.3441C17.3466 33.5114 15.8164 32.3433 14.561 30.9091Z" fill="#0C3E96"/>
<path d="M14.5611 30.7349C16.4807 30.8142 18.3632 31.2888 20.0909 32.1292C21.8343 32.9814 23.3908 34.1717 24.67 35.6309C24.693 35.6451 24.7119 35.6649 24.725 35.6885C24.7381 35.712 24.745 35.7386 24.745 35.7655C24.745 35.7925 24.7381 35.8191 24.725 35.8426C24.7119 35.8662 24.693 35.886 24.67 35.9002C24.6501 35.9089 24.6285 35.9135 24.6067 35.9135C24.5848 35.9135 24.5633 35.9089 24.5433 35.9002C22.6226 35.8155 20.7401 35.3355 19.0135 34.4901C17.2684 33.6476 15.711 32.462 14.4344 31.0042C14.4114 30.99 14.3925 30.9702 14.3794 30.9466C14.3663 30.923 14.3594 30.8965 14.3594 30.8695C14.3594 30.8426 14.3663 30.816 14.3794 30.7925C14.3925 30.7689 14.4114 30.7491 14.4344 30.7349C14.4541 30.7251 14.4757 30.72 14.4977 30.72C14.5197 30.72 14.5414 30.7251 14.5611 30.7349ZM19.9166 32.4936C18.3879 31.7651 16.7398 31.3196 15.0523 31.1785C16.222 32.4164 17.6072 33.4312 19.1403 34.1731C20.6831 34.9019 22.3388 35.3627 24.0363 35.5358C22.8651 34.2733 21.4678 33.2414 19.9166 32.4936Z" fill="#0C3E96"/>
</svg>
