<svg  viewBox="0 0 42 46" fill="none" xmlns="http://www.w3.org/2000/svg">
<path d="M20.5627 6.54613e-05C21.5749 -0.00414336 22.5777 0.194643 23.5117 0.584679C24.4457 0.974715 25.2921 1.54807 26.0007 2.27086C27.4449 3.7357 28.2524 5.71152 28.2476 7.7686C28.2559 8.49157 28.1511 9.21138 27.9369 9.90194L28.0265 9.80635C28.738 9.08788 29.5851 8.51774 30.5185 8.12897C31.452 7.74021 32.4533 7.54053 33.4645 7.54152C34.4664 7.54282 35.4581 7.74377 36.3815 8.13264C37.3049 8.5215 38.1416 9.09049 38.8427 9.80635C40.2858 11.2719 41.0931 13.2472 41.0896 15.3041C41.0929 17.3468 40.2847 19.3071 38.8427 20.754C37.8283 21.7743 36.5527 22.4958 35.1556 22.8396C36.5551 23.1533 37.835 23.8627 38.8427 24.8833C40.2858 26.3488 41.0931 28.3242 41.0896 30.381C41.1054 31.9035 40.6662 33.3959 39.8283 34.6671C38.9903 35.9383 37.7918 36.9303 36.3864 37.5159C34.9809 38.1014 33.4326 38.2538 31.94 37.9536C30.4473 37.6534 29.0784 36.9143 28.0086 35.8309L27.9189 35.7353C28.1299 36.443 28.2346 37.178 28.2297 37.9165C28.2367 38.9316 28.0434 39.9381 27.6608 40.8784C27.2781 41.8187 26.7136 42.6742 25.9997 43.3959C25.2858 44.1176 24.4365 44.6912 23.5004 45.0841C22.5643 45.4769 21.5599 45.6811 20.5448 45.685C18.524 45.6611 16.593 44.8459 15.1666 43.4142C14.19 42.4034 13.4969 41.1533 13.157 39.7895C12.8171 38.4258 12.8425 36.9965 13.2304 35.6457C13.1957 35.7275 13.1318 35.7935 13.0511 35.8309C12.3504 36.5476 11.5139 37.1175 10.5905 37.5074C9.66708 37.8973 8.67527 38.0993 7.67293 38.1017C5.63307 38.0907 3.68063 37.2722 2.24269 35.8253C0.804763 34.3784 -0.00159837 32.4209 1.17009e-05 30.381C-0.00354477 28.3242 0.803763 26.3488 2.24691 24.8833C3.26178 23.8722 4.5387 23.1644 5.93397 22.8396C4.54134 22.4847 3.26857 21.7647 2.24691 20.754C0.804935 19.3071 -0.00328395 17.3468 1.17009e-05 15.3041C-0.00354477 13.2472 0.803763 11.2719 2.24691 9.80635C2.95865 9.08815 3.80571 8.51818 4.73912 8.12943C5.67253 7.74068 6.67376 7.54086 7.68488 7.54152C8.68685 7.54282 9.6785 7.74377 10.6019 8.13264C11.5254 8.5215 12.362 9.09049 13.0631 9.80635C13.1347 9.85541 13.1957 9.91842 13.2424 9.99159C13.0248 9.27106 12.9199 8.52119 12.9316 7.7686C12.9268 5.71152 13.7343 3.7357 15.1785 2.27086C15.8793 1.55419 16.7158 0.984281 17.6392 0.594399C18.5626 0.204517 19.5544 0.00248036 20.5567 6.54613e-05H20.5627ZM38.0061 19.1226L29.5981 10.7206C29.994 10.3796 30.4318 10.0904 30.9008 9.86013L38.8427 17.7123L38.9323 17.6645C38.8922 17.7947 38.8317 17.9177 38.753 18.029C38.5671 18.4239 38.3256 18.7901 38.0359 19.1166L38.0061 19.1226ZM39.0399 17.3299L31.3072 9.65695C31.4244 9.6186 31.5443 9.58863 31.6657 9.5673C32.4072 9.33519 33.1851 9.24201 33.9604 9.29242C34.729 9.35143 35.4774 9.56699 36.1595 9.92585C36.866 10.2815 37.4939 10.7752 38.0061 11.378C38.4832 11.9975 38.8621 12.6868 39.1295 13.4217C39.3642 14.1953 39.4394 15.0085 39.3506 15.812C39.3129 16.337 39.2085 16.8551 39.0399 17.3538V17.3299ZM27.5305 15.0113C29.64 17.055 31.7136 19.1465 33.823 21.2321C33.5402 21.28 33.2513 21.28 32.9685 21.2321C32.1882 21.1761 31.4273 20.9624 30.7319 20.6039C30.0365 20.2454 29.4211 19.7496 28.9229 19.1465C28.4208 18.5436 28.0394 17.8497 27.7994 17.1028C27.5753 16.4296 27.484 15.7193 27.5305 15.0113ZM37.7372 19.4154L29.2814 11.0374C28.808 11.4713 28.426 11.9955 28.158 12.5791L28.1161 12.6269V12.6687C27.8411 13.2338 27.6575 13.8389 27.5723 14.4615L34.319 21.1842C35.6184 20.9607 36.8144 20.3334 37.7372 19.3915V19.4154ZM27.5305 11.0374C27.35 11.4593 27.1236 11.8602 26.8552 12.2325C26.3953 13.1966 26.1642 14.2539 26.18 15.322C26.1952 16.3867 26.4248 17.4375 26.8552 18.4115C27.1094 18.7633 27.3201 19.1445 27.4827 19.5469L28.2954 20.497C29.6679 21.8647 31.5269 22.632 33.4645 22.6304C34.4175 22.6299 35.361 22.4412 36.2409 22.0751C37.1207 21.709 37.9196 21.1727 38.5917 20.497C39.9455 19.1149 40.7029 17.2567 40.7011 15.322C40.7033 13.3731 39.9468 11.4999 38.5917 10.0992C37.9218 9.41805 37.1241 8.87583 36.2442 8.50359C35.3644 8.13136 34.4198 7.93642 33.4645 7.92994C31.5274 7.93096 29.6693 8.69782 28.2954 10.0633C28.0246 10.369 27.7693 10.6881 27.5305 11.0194V11.0374ZM26.0903 13.1229L26.0007 13.2125C24.9876 14.2358 23.7117 14.9595 22.3136 15.3041C23.7146 15.614 24.9955 16.3239 26.0007 17.3478L26.0903 17.4374C25.894 16.7428 25.7876 16.0258 25.7736 15.3041C25.7845 14.5664 25.891 13.8332 26.0903 13.1229ZM27.9369 20.6644C28.1544 21.3685 28.2593 22.1026 28.2476 22.8396C28.2568 23.5626 28.1519 24.2825 27.9369 24.9729L28.0265 24.8833C29.0396 23.8699 30.3173 23.1617 31.7136 22.8396C30.3198 22.4874 29.0464 21.7671 28.0265 20.754L27.9369 20.6644ZM27.172 19.7082C26.929 19.3652 26.717 19.0012 26.5385 18.6206C26.2696 18.2561 26.0007 17.9394 25.7318 17.6167C24.3788 16.3001 22.5812 15.5389 20.6942 15.4834H20.4731C19.5188 15.4943 18.5761 15.6933 17.699 16.0692C16.8218 16.445 16.0274 16.9902 15.3612 17.6735C14.6951 18.3569 14.1704 19.1649 13.817 20.0514C13.4637 20.9379 13.2887 21.8854 13.3021 22.8396C13.2845 24.0984 13.611 25.3381 14.2463 26.425L14.2941 26.5565C14.5919 27.0971 14.9708 27.5888 15.4176 28.0146C16.0861 28.704 16.8862 29.2521 17.7706 29.6264C18.6549 30.0008 19.6054 30.1936 20.5657 30.1936C21.526 30.1936 22.4765 30.0008 23.3609 29.6264C24.2452 29.2521 25.0454 28.704 25.7139 28.0146C25.9828 27.7397 26.2517 27.3752 26.5206 27.0585C26.688 26.6572 26.9005 26.2763 27.154 25.923C27.6077 24.957 27.8365 23.9007 27.8233 22.8336C27.8356 21.753 27.607 20.6833 27.154 19.7023L27.172 19.7082ZM26.4967 11.9875C26.6946 11.5935 26.9203 11.2141 27.172 10.8521C27.6212 9.88671 27.8498 8.83338 27.8412 7.7686C27.8434 5.81969 27.0868 3.94647 25.7318 2.54574C25.0559 1.86943 24.2533 1.33294 23.37 0.966901C22.4866 0.600864 21.5398 0.41247 20.5836 0.41247C19.6275 0.41247 18.6807 0.600864 17.7973 0.966901C16.914 1.33294 16.1114 1.86943 15.4355 2.54574C14.0788 3.94587 13.3201 5.81898 13.3201 7.7686C13.3143 9.00546 13.625 10.2232 14.2224 11.3063L14.2642 11.3541L14.312 11.4915C14.6358 12.0127 15.0123 12.4993 15.4355 12.9436C16.0929 13.6139 16.8765 14.1475 17.7411 14.5137C18.6057 14.8798 19.5342 15.0713 20.4731 15.077H20.6942C21.6331 15.0713 22.5616 14.8798 23.4262 14.5137C24.2907 14.1475 25.0743 13.6139 25.7318 12.9436C26.0207 12.6536 26.2771 12.333 26.4967 11.9875ZM12.1966 19.1166L3.74684 10.7147H3.78866C4.18563 10.3721 4.62557 10.0829 5.09736 9.85415L13.0093 17.7541L13.099 17.6645C13.0511 17.802 12.9615 17.8916 12.9197 18.029C12.7317 18.4241 12.4882 18.7904 12.1966 19.1166ZM13.2304 17.3239L5.49774 9.67488C5.58738 9.62707 5.72482 9.62706 5.81446 9.58523C6.57096 9.35635 7.36203 9.26329 8.151 9.31035C8.92042 9.37497 9.66965 9.59019 10.3561 9.94378C11.0532 10.29 11.6654 10.7858 12.1488 11.3959C12.6565 11.9949 13.0386 12.69 13.2723 13.4396C13.5437 14.2053 13.6357 15.0231 13.5412 15.8299C13.5014 16.3552 13.3949 16.8733 13.2244 17.3717L13.2304 17.3239ZM1.72104 15.0053L8.01953 21.2261C7.7367 21.274 7.44782 21.274 7.16499 21.2261C6.38023 21.1729 5.61509 20.9572 4.91809 20.5926C4.2258 20.2389 3.61515 19.7443 3.12535 19.1405C2.62118 18.5391 2.23954 17.8448 2.00191 17.0968C1.77887 16.4233 1.68559 15.7136 1.72702 15.0053H1.72104ZM11.9516 19.4333L3.47793 11.0374C3.00452 11.4713 2.62256 11.9955 2.35448 12.5791L2.30667 12.6269V12.6687C2.03626 13.2351 1.85485 13.8398 1.76885 14.4615L8.50955 21.1842C9.80899 20.9607 11.005 20.3334 11.9277 19.3915L11.9516 19.4333ZM9.38799 22.8396C10.788 23.152 12.0682 23.8616 13.0751 24.8833L13.2543 25.0685C13.0364 24.346 12.9316 23.5941 12.9436 22.8396C12.9324 22.0713 13.0372 21.3058 13.2543 20.5687C13.2076 20.6419 13.1467 20.7049 13.0751 20.754C12.0616 21.7756 10.7857 22.4973 9.38799 22.8396ZM15.0112 17.5749C15.0556 17.4882 15.1165 17.4111 15.1905 17.3478C16.1957 16.3239 17.4766 15.614 18.8775 15.3041C17.4794 14.9595 16.2036 14.2358 15.1905 13.2125C15.1186 13.1663 15.0575 13.1052 15.0112 13.0333C15.2288 13.7702 15.3336 14.5358 15.3219 15.3041C15.3302 16.0721 15.2255 16.8373 15.0112 17.5749ZM14.0192 11.7186L13.9296 11.5333C13.6078 11.0108 13.2312 10.524 12.8061 10.0812C12.1339 9.40581 11.3349 8.86969 10.4551 8.50361C9.57529 8.13753 8.63186 7.94867 7.67891 7.94787C5.74237 7.95147 3.88523 8.71795 2.50984 10.0812C1.15478 11.482 0.398207 13.3552 0.400389 15.3041C0.391667 16.2637 0.573754 17.2156 0.936073 18.1042C1.29839 18.9929 1.83372 19.8007 2.51094 20.4807C3.18816 21.1607 3.99377 21.6994 4.88096 22.0653C5.76815 22.4313 6.71922 22.6173 7.67891 22.6125C8.63206 22.613 9.57586 22.4247 10.4559 22.0585C11.3359 21.6924 12.1347 21.1556 12.8061 20.4791C14.1616 19.0976 14.9211 17.2395 14.9216 15.3041C14.9339 14.0512 14.6231 12.8164 14.0192 11.7186ZM12.2265 34.2414L3.78866 25.8573V25.8095C4.19609 25.4811 4.63437 25.1929 5.09736 24.949L13.0093 32.849L13.099 32.7594C13.0511 32.8968 12.9615 33.0283 12.9197 33.1239C12.7207 33.5275 12.4783 33.9083 12.1966 34.2593L12.2265 34.2414ZM13.2603 32.4486L5.49774 24.7936C5.58738 24.7458 5.72482 24.704 5.81446 24.6562C6.5713 24.4292 7.36238 24.3382 8.151 24.3873C8.92435 24.4638 9.67433 24.6955 10.3561 25.0685C11.0633 25.4203 11.69 25.9147 12.1966 26.5206C12.6953 27.1193 13.0636 27.8154 13.2782 28.5644C13.5464 29.3039 13.6384 30.0957 13.5471 30.877C13.5087 31.418 13.4022 31.9521 13.2304 32.4666L13.2603 32.4486ZM1.75092 30.0882C3.81854 32.1797 5.93398 34.2712 8.04941 36.3568H7.17097C6.38768 36.264 5.627 36.0334 4.92407 35.6755C3.52864 34.9393 2.47896 33.6836 2.00191 32.1797C1.77583 31.5069 1.68247 30.7966 1.72702 30.0882H1.75092ZM11.9516 34.5103L3.50183 26.1083C3.03895 26.5539 2.65859 27.0779 2.37838 27.656L2.33057 27.6979V27.7457C2.05766 28.3362 1.87631 28.965 1.79275 29.6101L8.53345 36.3269C9.19119 36.212 9.82782 35.9985 10.4218 35.6935C10.9887 35.3739 11.5044 34.971 11.9516 34.4983V34.5103ZM15.0112 32.6518C15.054 32.5641 15.1152 32.4867 15.1905 32.4247C16.1957 31.4009 17.4766 30.6909 18.8775 30.381C17.4658 30.0713 16.1807 29.3423 15.1905 28.2895C15.1502 28.273 15.1136 28.2486 15.0829 28.2178C15.0521 28.187 15.0277 28.1505 15.0112 28.1102C15.4257 29.5957 15.4257 31.1663 15.0112 32.6518ZM14.0192 26.7477L13.9774 26.6999L13.9296 26.6581C13.6338 26.1162 13.2547 25.6242 12.8061 25.2C12.1419 24.5111 11.3454 23.9633 10.4643 23.5896C9.58332 23.2158 8.63593 23.0237 7.67891 23.0248C6.71583 23.0245 5.7624 23.2168 4.87471 23.5904C3.98702 23.9639 3.18297 24.5112 2.50984 25.2C1.15751 26.5843 0.400416 28.4428 0.400416 30.378C0.400416 32.3133 1.15751 34.1717 2.50984 35.556C3.88002 36.933 5.73648 37.7164 7.67891 37.7372C9.61164 37.712 11.4564 36.9253 12.8125 35.548C14.1686 34.1706 14.9265 32.3139 14.9216 30.381C14.9286 29.1136 14.6184 27.8645 14.0192 26.7477ZM25.1701 41.7768L16.7203 33.3749L16.7621 33.333C17.156 33.0006 17.5945 32.7251 18.0648 32.5144L25.9828 40.3666L26.0724 40.2769C26.0246 40.4144 25.935 40.5518 25.8872 40.6892C25.6661 41.0478 25.439 41.4123 25.1701 41.7768ZM26.162 39.9841L18.4712 32.3052L18.7879 32.1737C19.5292 31.9506 20.3036 31.8575 21.0766 31.8988C21.8656 31.9727 22.6318 32.2044 23.3295 32.5801C24.0198 32.9369 24.6299 33.431 25.1222 34.0322C25.6489 34.618 26.0334 35.3173 26.2457 36.0759C26.4902 36.8229 26.5816 37.6114 26.5146 38.3945C26.4776 38.9397 26.3567 39.4759 26.1561 39.9841H26.162ZM14.6527 37.6237C16.7621 39.7092 18.8775 41.8067 20.9452 43.8863H20.0906C19.3176 43.808 18.568 43.5765 17.8856 43.2051C17.1881 42.8594 16.5758 42.3634 16.0928 41.7529C15.5661 41.1671 15.1817 40.4678 14.9694 39.7092C14.7517 39.0359 14.6467 38.3312 14.6586 37.6237H14.6527ZM24.9011 42.0278L16.4275 33.6259C15.9735 34.0783 15.5925 34.5984 15.298 35.1676L15.2562 35.2572C14.9618 35.8396 14.7794 36.472 14.7184 37.1217L21.4591 43.8444C22.1169 43.7265 22.7533 43.511 23.3474 43.2051C23.9145 42.8858 24.4302 42.4829 24.8772 42.0099L24.9011 42.0278ZM27.1959 34.7613C26.9416 34.4235 26.7289 34.0563 26.5624 33.6677C26.316 33.3326 26.0464 33.015 25.7557 32.7175C25.0872 32.0281 24.287 31.48 23.4027 31.1057C22.5184 30.7314 21.5678 30.5385 20.6075 30.5385C19.6472 30.5385 18.6967 30.7314 17.8124 31.1057C16.928 31.48 16.1279 32.0281 15.4594 32.7175C15.0231 33.1689 14.6475 33.6751 14.3419 34.2234L14.2941 34.2653C13.6799 35.3781 13.3552 36.6275 13.3499 37.8986C13.3413 39.8358 14.1022 41.6971 15.4654 43.0736C16.1339 43.763 16.934 44.3111 17.8184 44.6855C18.7027 45.0598 19.6532 45.2526 20.6135 45.2526C21.5738 45.2526 22.5243 45.0598 23.4087 44.6855C24.293 44.3111 25.0932 43.763 25.7617 43.0736C27.1232 41.6965 27.882 39.835 27.8711 37.8986C27.8791 36.8185 27.6507 35.7497 27.2018 34.7672L27.1959 34.7613ZM26.1142 32.4904C25.692 31.0833 25.692 29.5831 26.1142 28.1759L26.0246 28.2656C25.0344 29.3184 23.7492 30.0474 22.3375 30.3571C23.7385 30.667 25.0194 31.377 26.0246 32.4008L26.1142 32.4904ZM26.8791 33.4406C27.1286 33.804 27.3542 34.1833 27.5544 34.576C27.7721 34.9228 28.0288 35.2436 28.3193 35.5321C29.6884 36.9108 31.5455 37.6944 33.4884 37.7133C34.4458 37.7136 35.3935 37.5206 36.2745 37.1458C37.1555 36.771 37.9518 36.2221 38.6156 35.5321C39.9679 34.1478 40.725 32.2894 40.725 30.3541C40.725 28.4189 39.9679 26.5604 38.6156 25.1761C37.9507 24.488 37.1541 23.9408 36.2732 23.5671C35.3923 23.1934 34.4452 23.0008 33.4884 23.0009C32.5251 22.9996 31.5714 23.1915 30.6836 23.5651C29.7957 23.9387 28.9918 24.4865 28.3193 25.1761C28.0288 25.4646 27.7721 25.7854 27.5544 26.1322C27.3554 26.5103 27.1298 26.8738 26.8791 27.2198C26.4437 28.209 26.214 29.2764 26.2039 30.3571C26.2139 31.4205 26.4438 32.4704 26.8791 33.4406ZM38.0061 34.2234L29.5981 25.8573V25.8095C30.0044 25.4825 30.4406 25.1944 30.9008 24.949L38.8427 32.8311L38.9323 32.7415C38.9008 32.8749 38.8396 32.9995 38.753 33.106C38.5562 33.5095 38.3157 33.8903 38.0359 34.2414L38.0061 34.2234ZM39.0399 32.4307L31.3072 24.7578L31.6657 24.6203C32.4076 24.3902 33.1855 24.2991 33.9604 24.3514C34.7331 24.422 35.4823 24.6541 36.1595 25.0327C36.8685 25.3843 37.4972 25.8787 38.0061 26.4848C38.5024 27.0915 38.8832 27.7842 39.1295 28.5285C39.3617 29.2759 39.437 30.0633 39.3506 30.8412C39.3142 31.382 39.2098 31.916 39.0399 32.4307ZM27.5305 30.0703C29.64 32.1618 31.7554 34.2533 33.823 36.3389H32.9685C32.1812 36.2658 31.4169 36.0341 30.7216 35.6576C30.0326 35.2989 29.4228 34.805 28.9288 34.2055C28.4172 33.6091 28.0347 32.9133 27.8054 32.1618C27.5786 31.4892 27.4872 30.7783 27.5365 30.0703H27.5305ZM37.7372 34.4744L29.2814 26.1083C28.8335 26.5667 28.455 27.0881 28.158 27.656L28.1161 27.6979V27.7457C27.8385 28.3349 27.6551 28.9641 27.5723 29.6101L34.319 36.3269C34.9765 36.2111 35.613 35.9976 36.2074 35.6935C36.7813 35.3847 37.2987 34.9806 37.7372 34.4983V34.4744ZM25.1462 26.6222L16.6964 18.2561L16.7382 18.2143C17.1444 17.8854 17.5806 17.5953 18.0409 17.3478L25.9589 25.2538L26.0485 25.1581C25.9966 25.2844 25.9346 25.4063 25.8633 25.5227C25.6621 25.9107 25.4219 26.2771 25.1462 26.6162V26.6222ZM26.1381 24.8952L18.4473 17.2223C18.5369 17.1745 18.6744 17.1267 18.764 17.0849C19.5053 16.8617 20.2797 16.7687 21.0527 16.81C21.8375 16.9047 22.5998 17.1353 23.3056 17.4912C23.9765 17.8769 24.5817 18.3671 25.0983 18.9433C25.6176 19.5502 26.0007 20.2614 26.2218 21.0289C26.4691 21.7752 26.5606 22.5644 26.4907 23.3475C26.4544 23.8927 26.3334 24.429 26.1322 24.937L26.1381 24.8952ZM14.6288 22.5348C16.7322 24.6622 18.8536 26.6999 20.9153 28.8452C20.6298 28.851 20.3443 28.8371 20.0608 28.8034C19.2908 28.7377 18.5414 28.5204 17.8557 28.164C17.157 27.8201 16.5444 27.3239 16.063 26.7119C15.5438 26.1185 15.1604 25.419 14.9395 24.6622C14.7254 23.988 14.6205 23.2839 14.6288 22.5766V22.5348ZM24.8772 26.9389L16.4275 18.537C15.9642 18.9813 15.5819 19.503 15.298 20.0787L15.2562 20.1265V20.1743C14.961 20.7542 14.7785 21.3849 14.7184 22.0328L21.4591 28.7078C22.7756 28.5362 23.9876 27.9005 24.8772 26.915V26.9389ZM25.1462 11.5453L16.6964 3.14332H16.7322C17.1266 2.80025 17.5646 2.51089 18.035 2.28281L25.9529 10.1828L26.0425 10.0932C25.9947 10.2246 25.9051 10.3203 25.8573 10.4517C25.6576 10.8406 25.4172 11.2072 25.1402 11.5453H25.1462ZM26.1381 9.75255L18.4473 2.13341C18.5369 2.09158 18.6744 2.09158 18.764 2.04378C19.5051 1.82007 20.2799 1.72904 21.0527 1.77488C22.2282 1.8703 23.3486 2.31417 24.2704 3.04975C25.1923 3.78532 25.8738 4.77915 26.2278 5.90414C26.4726 6.66543 26.564 7.46773 26.4967 8.26458C26.4608 8.79443 26.3397 9.31503 26.1381 9.80635V9.75255ZM14.6288 7.43992C16.7382 9.48364 18.8536 11.5692 20.9213 13.6607C20.6384 13.7086 20.3496 13.7086 20.0667 13.6607C19.2977 13.594 18.5489 13.3789 17.8617 13.0273C17.1639 12.6794 16.5517 12.1814 16.0689 11.5692C15.5502 10.9801 15.1668 10.2845 14.9455 9.53145C14.7343 8.85454 14.6295 8.14897 14.6347 7.43992H14.6288ZM24.8772 11.8441L16.4275 3.44211C15.9627 3.88744 15.5804 4.41141 15.298 4.98984L15.2562 5.03167V5.07949C14.9641 5.63725 14.7816 6.24579 14.7184 6.87223L21.4591 13.589C22.122 13.4953 22.7621 13.2806 23.3474 12.9556C23.9209 12.6712 24.4389 12.2867 24.8772 11.8202V11.8441Z" fill="#0C3E96"/>
</svg>
