<svg viewBox="0 0 71 78" fill="none" xmlns="http://www.w3.org/2000/svg">
<path fill-rule="evenodd" clip-rule="evenodd" d="M35.3624 77.3813C37.8924 77.3989 40.3708 76.6654 42.4836 75.2736C44.5965 73.8818 46.2488 71.8943 47.2315 69.5629C48.2141 67.2314 48.4828 64.6608 48.0035 62.1765C47.5243 59.6922 46.3187 57.406 44.5393 55.6074C42.7599 53.8087 40.4869 52.5786 38.0079 52.0726C35.529 51.5666 32.9556 51.8076 30.6137 52.765C28.2718 53.7225 26.2666 55.3533 24.8521 57.451C23.4377 59.5488 22.6775 62.019 22.6678 64.5491C22.6561 66.2266 22.9757 67.89 23.6083 69.4437C24.2409 70.9974 25.1741 72.411 26.3543 73.6032C27.5345 74.7954 28.9385 75.7428 30.4857 76.3912C32.0329 77.0395 33.693 77.376 35.3705 77.3813H35.3624Z" fill="#CDCFD1"/>
<path fill-rule="evenodd" clip-rule="evenodd" d="M35.3626 75.1482C37.4479 75.1722 39.4933 74.5759 41.2389 73.4349C42.9845 72.2939 44.3515 70.6597 45.1663 68.74C45.981 66.8203 46.2067 64.7017 45.8146 62.6535C45.4226 60.6052 44.4306 58.7197 42.9645 57.2365C41.4985 55.7534 39.6246 54.7395 37.581 54.3237C35.5375 53.9079 33.4164 54.109 31.4874 54.9014C29.5584 55.6938 27.9084 57.0418 26.7472 58.774C25.586 60.5063 24.966 62.5446 24.9658 64.63C24.9656 67.3987 26.0571 70.0558 28.0035 72.0249C29.9499 73.994 32.5941 75.1162 35.3626 75.1482Z" fill="#84898F"/>
<path fill-rule="evenodd" clip-rule="evenodd" d="M35.3627 73.9832C37.3386 73.9944 39.2732 73.4181 40.921 72.3275C42.5687 71.2368 43.855 69.6811 44.6168 67.8579C45.3785 66.0347 45.5811 64.0262 45.199 62.0876C44.8168 60.1489 43.8671 58.3676 42.4705 56.9698C41.0739 55.572 39.2933 54.6209 37.355 54.2371C35.4166 53.8534 33.408 54.0544 31.5841 54.8146C29.7603 55.5748 28.2035 56.86 27.1115 58.5068C26.0196 60.1536 25.4417 62.0878 25.4513 64.0638C25.4502 65.366 25.7058 66.6557 26.2034 67.8591C26.701 69.0626 27.4309 70.1562 28.3514 71.0774C29.2719 71.9986 30.3648 72.7294 31.5679 73.228C32.7709 73.7266 34.0604 73.9832 35.3627 73.9832V73.9832Z" fill="#A9ADB0"/>
<path fill-rule="evenodd" clip-rule="evenodd" d="M28.2426 56.8628L43.0652 71.6368C41.387 73.4485 39.1515 74.6474 36.7138 75.043L24.9658 63.376C25.2714 60.9114 26.4139 58.6265 28.2022 56.9032L28.2426 56.8628Z" fill="#919599"/>
<path fill-rule="evenodd" clip-rule="evenodd" d="M33.437 54.2413L45.5734 66.3777C45.4243 67.2507 45.1661 68.1015 44.8047 68.9102L30.8398 55.1152C31.6683 54.723 32.54 54.4297 33.437 54.2413V54.2413Z" fill="#919599"/>
<path fill-rule="evenodd" clip-rule="evenodd" d="M28.3314 56.968L42.3853 70.8682C40.6087 72.7708 38.15 73.891 35.5485 73.9832L25.54 63.8695C25.5559 61.2971 26.5545 58.8281 28.3314 56.968V56.968Z" fill="#B4B6B8"/>
<path fill-rule="evenodd" clip-rule="evenodd" d="M33.4366 54.2413L44.9904 65.8113C44.7925 66.6721 44.5357 67.5182 44.2218 68.3438L30.9365 55.1152C31.7313 54.7233 32.5708 54.4299 33.4366 54.2413V54.2413Z" fill="#B4B6B8"/>
<path d="M40.2736 54.9209C41.5247 55.5789 42.6372 56.4717 43.5504 57.5505C45.3926 59.7786 46.2899 62.639 46.0505 65.5201C45.8222 68.3811 44.4729 71.0362 42.2964 72.9071C41.216 73.837 39.9615 74.5427 38.6057 74.983C37.25 75.4234 35.8202 75.5895 34.3996 75.4719C32.9869 75.3575 31.6113 74.9613 30.3542 74.3068C29.116 73.6471 28.017 72.7542 27.1178 71.6772C26.28 70.5445 25.5995 69.3034 25.0951 67.9878C24.6964 66.5981 24.535 65.1511 24.6177 63.7077C24.846 60.8467 26.1953 58.1916 28.3719 56.3207C29.4866 55.4131 30.7593 54.7191 32.1261 54.2737C33.4635 53.8629 34.8643 53.6984 36.2605 53.7883C37.6733 53.9024 39.0489 54.2986 40.306 54.9533L40.2736 54.9209ZM44.8935 61.5394C44.5086 60.2477 43.8521 59.0532 42.9679 58.036C42.1428 57.0018 41.0908 56.1713 39.8934 55.6087C38.7517 54.9277 37.4654 54.5257 36.1392 54.4355C33.4889 54.2693 30.8778 55.1397 28.8573 56.8628C27.819 57.6969 26.9882 58.7604 26.4301 59.9697C25.7596 61.1296 25.3639 62.4277 25.2731 63.7644C25.1895 65.0806 25.3542 66.4007 25.7585 67.6561C26.1454 68.9445 26.8018 70.1359 27.6842 71.1513C28.5119 72.1828 29.5632 73.0128 30.7587 73.5786C31.9083 74.2404 33.1906 74.6384 34.5129 74.7437C35.8159 74.8288 37.1231 74.6641 38.3642 74.2582C39.6441 73.8622 40.8248 73.1974 41.8271 72.3084C42.8619 71.4503 43.7147 70.3939 44.3353 69.2014C44.9317 68.0174 45.2918 66.7285 45.3952 65.4068C45.4797 64.0932 45.315 62.7755 44.9097 61.5232L44.8935 61.5394Z" fill="white"/>
<path fill-rule="evenodd" clip-rule="evenodd" d="M13.4199 38.9819C15.9534 38.9963 18.434 38.2576 20.5469 36.8595C22.6597 35.4615 24.3095 33.4672 25.2868 31.1297C26.2641 28.7923 26.5249 26.2172 26.0359 23.7313C25.547 21.2454 24.3304 18.9609 22.5406 17.1677C20.7509 15.3745 18.4687 14.1536 15.9837 13.6599C13.4987 13.1662 10.9231 13.422 8.58385 14.3948C6.24455 15.3677 4.24707 17.0136 2.845 19.1238C1.44293 21.234 0.699496 23.7132 0.709076 26.2467C0.70695 27.9177 1.03409 29.5727 1.67182 31.1172C2.30955 32.6617 3.24536 34.0653 4.42578 35.248C5.60619 36.4307 7.00807 37.3692 8.55132 38.0098C10.0946 38.6505 11.7489 38.9808 13.4199 38.9819V38.9819Z" fill="#CDCFD1"/>
<path fill-rule="evenodd" clip-rule="evenodd" d="M13.42 36.7407C16.2096 36.7407 18.885 35.6325 20.8575 33.66C22.8301 31.6875 23.9382 29.0121 23.9382 26.2225C23.9382 23.4329 22.8301 20.7576 20.8575 18.7851C18.885 16.8125 16.2096 15.7043 13.42 15.7043C10.6304 15.7043 7.95509 16.8125 5.98255 18.7851C4.01001 20.7576 2.90186 23.4329 2.90186 26.2225C2.90186 29.0121 4.01001 31.6875 5.98255 33.66C7.95509 35.6325 10.6304 36.7407 13.42 36.7407V36.7407Z" fill="#84898F"/>
<path fill-rule="evenodd" clip-rule="evenodd" d="M13.42 35.5756C15.3863 35.5948 17.3139 35.0293 18.958 33.9507C20.6022 32.8721 21.8887 31.3293 22.6541 29.518C23.4196 27.7068 23.6295 25.7089 23.2571 23.7782C22.8847 21.8474 21.9469 20.0709 20.5628 18.6742C19.1787 17.2776 17.4107 16.3238 15.4833 15.934C13.556 15.5442 11.5563 15.7361 9.73826 16.4852C7.92019 17.2343 6.36578 18.5067 5.27243 20.1411C4.17909 21.7754 3.59615 23.6979 3.59766 25.6642C3.59755 28.2775 4.62956 30.7852 6.46909 32.6414C8.30863 34.4976 10.8068 35.5521 13.42 35.5756V35.5756Z" fill="#A9ADB0"/>
<path fill-rule="evenodd" clip-rule="evenodd" d="M6.29167 18.4633L21.1223 33.2454C19.4939 35.1234 17.2291 36.3336 14.7629 36.6436L3.02295 24.9765C3.34339 22.5047 4.48283 20.2115 6.25931 18.4633H6.29167Z" fill="#919599"/>
<path fill-rule="evenodd" clip-rule="evenodd" d="M11.4941 15.939L23.6305 27.9944C23.5065 28.8758 23.2328 29.7295 22.8214 30.5188L8.91309 16.7157C9.73181 16.3134 10.6079 16.0405 11.5103 15.9066L11.4941 15.939Z" fill="#919599"/>
<path fill-rule="evenodd" clip-rule="evenodd" d="M6.48576 18.6575L20.4426 32.59C18.6323 34.4257 16.1902 35.5021 13.6139 35.5998L3.5973 25.5913C3.58254 24.3036 3.83115 23.0264 4.32786 21.8382C4.82457 20.65 5.5589 19.5758 6.48576 18.6817V18.6575Z" fill="#B4B6B8"/>
<path fill-rule="evenodd" clip-rule="evenodd" d="M11.4942 15.939L23.048 27.4119C22.8821 28.2831 22.6104 29.1308 22.239 29.9362L8.99414 16.8128C9.77053 16.3788 10.6165 16.0831 11.4942 15.939V15.939Z" fill="#B4B6B8"/>
<path d="M18.3309 16.5215C19.5721 17.2145 20.6704 18.137 21.5673 19.24C22.4783 20.3274 23.1657 21.5839 23.59 22.9376C24.4575 25.6728 24.2163 28.6392 22.9185 31.1984C22.2719 32.4594 21.3872 33.5831 20.3132 34.5076C19.2702 35.4636 18.0177 36.1619 16.6561 36.5465C15.2944 36.9995 13.8535 37.1648 12.4245 37.0319C11.012 36.9167 9.63659 36.5206 8.37909 35.8668C7.15893 35.1836 6.06441 34.2971 5.14272 33.2454C4.26262 32.1372 3.57851 30.8866 3.12 29.5478C2.71381 28.1595 2.5496 26.7117 2.63455 25.2678C2.73818 23.8746 3.13229 22.5187 3.79154 21.287C4.46562 20.0175 5.34295 18.8669 6.38873 17.8807C7.53034 17.016 8.79601 16.3286 10.1429 15.8418C11.4842 15.4363 12.8868 15.2719 14.2855 15.3564C15.6794 15.5647 17.0397 15.9565 18.3309 16.5215V16.5215ZM22.9508 23.1317C22.5453 21.8587 21.8999 20.675 21.0495 19.6446C20.2397 18.6309 19.2215 17.8031 18.0639 17.2173C16.8742 16.5826 15.5593 16.218 14.2126 16.1493C12.916 15.9886 11.5998 16.1213 10.3614 16.5376C9.09129 16.9525 7.91483 17.6122 6.89845 18.4795C5.88617 19.3421 5.06028 20.402 4.47118 21.5944C3.85455 22.7765 3.46486 24.0635 3.32227 25.3891C3.23901 26.734 3.40075 28.0828 3.79963 29.3698C4.19098 30.6297 4.84758 31.7912 5.72527 32.7761C6.54659 33.8419 7.60109 34.7054 8.80791 35.3004C9.98051 35.8906 11.2544 36.253 12.5621 36.3685C13.8661 36.5072 15.1846 36.341 16.4134 35.883C17.6864 35.5231 18.8673 34.894 19.8763 34.0383C20.8658 33.1355 21.7092 32.0847 22.3764 30.9233C23.5923 28.5108 23.8018 25.7146 22.9589 23.1479L22.9508 23.1317Z" fill="white"/>
<path fill-rule="evenodd" clip-rule="evenodd" d="M57.1189 38.9818C59.6566 39.0172 62.1474 38.2963 64.274 36.9111C66.4006 35.5259 68.0668 33.539 69.0603 31.2036C70.0538 28.8682 70.3296 26.2899 69.8527 23.7972C69.3758 21.3044 68.1677 19.0101 66.3823 17.2063C64.5969 15.4026 62.315 14.1711 59.8272 13.6687C57.3395 13.1663 54.7585 13.4159 52.413 14.3855C50.0676 15.355 48.0638 17.0008 46.657 19.1131C45.2501 21.2255 44.5039 23.7088 44.5133 26.2467C44.5131 29.6019 45.837 32.8217 48.1974 35.2063C50.5578 37.5909 53.7638 38.9477 57.1189 38.9818V38.9818Z" fill="#CDCFD1"/>
<path fill-rule="evenodd" clip-rule="evenodd" d="M57.1191 36.7406C59.2044 36.7647 61.2498 36.1683 62.9954 35.0273C64.741 33.8863 66.108 32.2521 66.9228 30.3324C67.7375 28.4127 67.9632 26.2941 67.5712 24.2458C67.1791 22.1976 66.1871 20.3121 64.721 18.8289C63.255 17.3458 61.3811 16.3319 59.3375 15.9161C57.294 15.5003 55.1729 15.7014 53.2439 16.4939C51.3149 17.2863 49.6649 18.6342 48.5037 20.3664C47.3425 22.0987 46.7225 24.137 46.7223 26.2225C46.7073 28.9956 47.7939 31.6613 49.7435 33.6337C51.693 35.606 54.3459 36.7235 57.1191 36.7406V36.7406Z" fill="#84898F"/>
<path fill-rule="evenodd" clip-rule="evenodd" d="M57.1189 35.5756C59.0855 35.5965 61.0139 35.0323 62.6591 33.9548C64.3043 32.8772 65.5921 31.3348 66.3588 29.5238C67.1255 27.7127 67.3365 25.7146 66.9651 23.7833C66.5936 21.852 65.6565 20.0747 64.2727 18.6772C62.8889 17.2798 61.1209 16.3252 59.1934 15.9348C57.2658 15.5443 55.2657 15.7356 53.4472 16.4845C51.6287 17.2333 50.0738 18.5058 48.9801 20.1404C47.8863 21.7749 47.3032 23.6976 47.3047 25.6643C47.3046 28.2762 48.3355 30.7826 50.1732 32.6386C52.011 34.4946 54.5071 35.5501 57.1189 35.5756V35.5756Z" fill="#A9ADB0"/>
<path fill-rule="evenodd" clip-rule="evenodd" d="M50.096 18.4633L64.9186 33.2454C63.2367 35.1156 60.9403 36.3212 58.4458 36.6436L46.7949 24.9765C47.0745 22.4925 48.2203 20.1863 50.0313 18.4633H50.096Z" fill="#919599"/>
<path fill-rule="evenodd" clip-rule="evenodd" d="M55.1935 15.939L67.4188 27.9944C67.2209 28.8525 66.9641 29.696 66.6502 30.5188L52.6934 16.7157C53.4726 16.301 54.319 16.0271 55.1935 15.9066V15.939Z" fill="#919599"/>
<path fill-rule="evenodd" clip-rule="evenodd" d="M50.177 18.6575L64.239 32.59C62.4287 34.4257 59.9865 35.5021 57.4102 35.5998L47.3047 25.5913C47.3568 23.0052 48.3892 20.5355 50.1931 18.6817L50.177 18.6575Z" fill="#B4B6B8"/>
<path fill-rule="evenodd" clip-rule="evenodd" d="M55.193 15.939L66.8439 27.4119C66.6545 28.2841 66.3639 29.1313 65.9782 29.9362L52.79 16.8128C53.5193 16.3349 54.3508 16.0356 55.2173 15.939H55.193Z" fill="#B4B6B8"/>
<path d="M62.0301 16.5215C63.3121 17.2093 64.4538 18.1314 65.3959 19.24C66.2744 20.3493 66.9584 21.5995 67.4186 22.9376C67.8204 24.2935 67.9846 25.7087 67.9041 27.1206C67.7513 28.5251 67.36 29.8932 66.7471 31.166C66.0713 32.4328 65.1563 33.5567 64.0528 34.4752C63.0076 35.4281 61.7558 36.126 60.3957 36.5141C59.0646 36.9665 57.6528 37.132 56.2532 36.9996C54.8382 36.8974 53.4603 36.5006 52.2077 35.8345C50.9708 35.1764 49.872 34.2864 48.9714 33.2131C48.0237 32.1512 47.3317 30.8863 46.9486 29.5155C46.5016 28.1358 46.3392 26.6797 46.4713 25.2354C46.5592 23.8473 46.9397 22.4934 47.5878 21.2628C48.2349 19.974 49.1187 18.8185 50.1931 17.8565C51.2848 16.9701 52.5222 16.2802 53.8502 15.8176C55.2219 15.4119 56.6537 15.2476 58.0817 15.3321C59.4474 15.5266 60.7775 15.9191 62.0301 16.4972V16.5215ZM66.7471 23.1318C66.3343 21.8569 65.6806 20.673 64.8215 19.6446C63.997 18.6065 62.9414 17.7753 61.7388 17.2173C60.5836 16.5836 59.3004 16.2185 57.9846 16.1493C56.6751 15.9998 55.3487 16.1302 54.0933 16.5319C52.838 16.9336 51.6823 17.5975 50.7028 18.4795C49.6943 19.3642 48.8482 20.4184 48.2027 21.5945C47.6136 22.7813 47.2539 24.0688 47.1428 25.3891C47.0595 26.734 47.2213 28.0828 47.6202 29.3699C47.9766 30.624 48.6004 31.786 49.4487 32.7761C50.3141 33.7982 51.3588 34.6536 52.5314 35.3005C53.7381 35.8914 55.0439 36.2535 56.3826 36.3685C57.6865 36.4955 59.0023 36.3297 60.2339 35.8831C61.4983 35.5019 62.675 34.875 63.6968 34.0383C64.6908 33.1583 65.5138 32.1023 66.1241 30.9233C66.7229 29.737 67.1116 28.4558 67.273 27.1368C67.3562 25.7893 67.1944 24.4378 66.7956 23.148L66.7471 23.1318Z" fill="white"/>
<path fill-rule="evenodd" clip-rule="evenodd" d="M35.3624 51.8141C37.8924 51.8317 40.3708 51.0981 42.4836 49.7063C44.5965 48.3145 46.2488 46.3271 47.2315 43.9956C48.2141 41.6641 48.4828 39.0935 48.0035 36.6093C47.5243 34.125 46.3187 31.8388 44.5393 30.0402C42.7599 28.2415 40.4869 27.0113 38.0079 26.5053C35.529 25.9993 32.9556 26.2403 30.6137 27.1978C28.2718 28.1552 26.2666 29.786 24.8521 31.8838C23.4377 33.9815 22.6775 36.4518 22.6678 38.9819C22.6561 40.6594 22.9757 42.3228 23.6083 43.8765C24.2409 45.4302 25.1741 46.8437 26.3543 48.0359C27.5345 49.2281 28.9385 50.1756 30.4857 50.824C32.0329 51.4723 33.693 51.8088 35.3705 51.8141H35.3624Z" fill="#CDCFD1"/>
<path fill-rule="evenodd" clip-rule="evenodd" d="M25.9041 30.4216L43.9063 48.4077C42.1051 50.1281 39.8214 51.2573 37.3608 51.6441L22.7324 37.1533C23.1255 34.6599 24.2264 32.3318 25.9041 30.4459V30.4216Z" fill="#DEDEDE"/>
<path fill-rule="evenodd" clip-rule="evenodd" d="M28.5338 28.1886L46.1316 45.6892C45.6461 46.3689 45.1687 47.0485 44.6833 47.6311L26.7134 29.645C27.2878 29.1595 27.8623 28.6741 28.5419 28.1886H28.5338Z" fill="#DEDEDE"/>
<path fill-rule="evenodd" clip-rule="evenodd" d="M34.5938 26.2467L47.9762 39.6614C47.9762 40.0498 47.8791 40.4705 47.8791 40.9236L33.3154 26.36C33.6957 26.36 34.0841 26.2629 34.5614 26.2629L34.5938 26.2467Z" fill="#DEDEDE"/>
<path fill-rule="evenodd" clip-rule="evenodd" d="M35.3623 49.4839C37.4476 49.508 39.493 48.9116 41.2385 47.7706C42.9841 46.6295 44.3512 44.9954 45.1659 43.0757C45.9806 41.156 46.2063 39.0374 45.8143 36.9891C45.4222 34.9409 44.4302 33.0554 42.9641 31.5722C41.4981 30.0891 39.6242 29.0752 37.5807 28.6594C35.5371 28.2436 33.4161 28.4447 31.487 29.2371C29.558 30.0295 27.9081 31.3775 26.7469 33.1097C25.5857 34.8419 24.9656 36.8803 24.9654 38.9657C24.9525 41.7383 26.0399 44.4028 27.989 46.3746C29.9381 48.3465 32.5898 49.4647 35.3623 49.4839Z" fill="#84898F"/>
<path fill-rule="evenodd" clip-rule="evenodd" d="M35.3624 48.4078C37.3345 48.419 39.2656 47.8449 40.9114 46.7582C42.5572 45.6715 43.8436 44.1211 44.6079 42.303C45.3722 40.485 45.5801 38.4811 45.2052 36.5449C44.8302 34.6087 43.8894 32.8273 42.5017 31.4259C41.1139 30.0246 39.3417 29.0664 37.4093 28.6727C35.4768 28.2789 33.471 28.4672 31.6456 29.2137C29.8202 29.9603 28.2573 31.2316 27.1546 32.8666C26.0519 34.5017 25.459 36.4272 25.451 38.3993C25.4403 39.7085 25.6887 41.0068 26.1818 42.2195C26.6749 43.4323 27.4031 44.5355 28.3243 45.4658C29.2455 46.396 30.3416 47.1349 31.5495 47.6398C32.7574 48.1447 34.0532 48.4057 35.3624 48.4078Z" fill="#A9ADB0"/>
<path fill-rule="evenodd" clip-rule="evenodd" d="M27.1823 32.4686L41.9078 47.1537C40.052 48.6489 37.7453 49.4729 35.3622 49.4919H34.3994L24.9654 40.155V38.9819C24.9568 36.6366 25.7376 34.3566 27.1823 32.5091V32.4686Z" fill="#919599"/>
<path fill-rule="evenodd" clip-rule="evenodd" d="M29.6825 30.1627L44.1248 44.5564C43.7545 45.2783 43.268 45.9344 42.6846 46.4983L27.854 31.7243C28.4177 31.1523 29.0294 30.6299 29.6825 30.1627V30.1627Z" fill="#919599"/>
<path fill-rule="evenodd" clip-rule="evenodd" d="M36.0421 28.5446L45.6622 38.1728C45.6622 38.464 45.7593 38.7553 45.7593 38.9819C45.7747 39.1811 45.7414 39.381 45.6622 39.5644L34.6909 28.5446C34.9037 28.4586 35.1341 28.4253 35.3625 28.4475C35.5934 28.4309 35.8251 28.464 36.0421 28.5446V28.5446Z" fill="#919599"/>
<path fill-rule="evenodd" clip-rule="evenodd" d="M27.3767 32.6628L41.1312 46.4659C39.4526 47.6947 37.4344 48.373 35.3543 48.4077C34.5361 48.4146 33.7204 48.3167 32.927 48.1165L25.8071 40.9236C25.6089 40.0969 25.5111 39.2494 25.5158 38.3993C25.5136 36.3434 26.1528 34.3382 27.3443 32.6628H27.3767Z" fill="#B4B6B8"/>
<path fill-rule="evenodd" clip-rule="evenodd" d="M29.7798 30.2275L43.5344 43.9416C43.0726 44.5993 42.5556 45.2164 41.989 45.7863L28.0483 31.7809C28.5551 31.1873 29.1372 30.6624 29.7798 30.2194V30.2275Z" fill="#B4B6B8"/>
<path fill-rule="evenodd" clip-rule="evenodd" d="M36.0421 28.5446L45.0877 37.5902C45.1655 37.8525 45.1983 38.1261 45.1848 38.3993C45.2003 38.5985 45.1669 38.7985 45.0877 38.9819L34.6909 28.5446C34.9037 28.4586 35.1341 28.4253 35.3625 28.4475C35.5934 28.4309 35.8251 28.464 36.0421 28.5446V28.5446Z" fill="#B4B6B8"/>
<path fill-rule="evenodd" clip-rule="evenodd" d="M40.1764 29.4508C42.6954 30.7689 44.593 33.0269 45.4579 35.7351C46.3227 38.4433 46.0851 41.3833 44.7963 43.9173C43.4876 46.4447 41.2433 48.3608 38.5421 49.2573C35.8442 50.0677 32.9352 49.7768 30.4512 48.4482C29.1973 47.8172 28.0825 46.9416 27.1723 45.8731C26.2622 44.8045 25.5751 43.5646 25.1516 42.2263C24.3515 39.5072 24.6267 36.5846 25.9203 34.0626C26.5397 32.8054 27.4043 31.6846 28.463 30.7662C29.5218 29.8478 30.7534 29.1502 32.0855 28.7145C34.767 27.8689 37.6736 28.113 40.1764 29.3941V29.4508ZM45.0876 35.8669C44.2136 33.2819 42.3882 31.1266 39.9822 29.8391C37.572 28.6088 34.7775 28.3651 32.1907 29.1595C29.6173 30.0555 27.482 31.8985 26.2196 34.3134C25.0169 36.753 24.806 39.5637 25.6312 42.1554C26.4564 44.7472 28.2535 46.9185 30.6453 48.2136C31.8378 48.8351 33.1443 49.2073 34.4852 49.3075C35.8262 49.4076 37.1735 49.2337 38.445 48.7962C39.7234 48.3886 40.9088 47.7329 41.9334 46.8665C42.958 46.0002 43.8017 44.9402 44.4161 43.7474C45.6322 41.301 45.8722 38.4837 45.0876 35.8669V35.8669Z" fill="white"/>
<path fill-rule="evenodd" clip-rule="evenodd" d="M35.3624 26.2468C37.8947 26.266 40.3757 25.5331 42.4911 24.1411C44.6066 22.749 46.2612 20.7604 47.2455 18.4272C48.2297 16.0939 48.4993 13.521 48.02 11.0344C47.5407 8.54783 46.3341 6.25945 44.5532 4.45918C42.7722 2.65891 40.497 1.42778 38.0157 0.921725C35.5344 0.415673 32.9587 0.657448 30.615 1.61649C28.2713 2.57554 26.2649 4.20866 24.8502 6.30896C23.4354 8.40927 22.6759 10.8822 22.6678 13.4146C22.6561 15.0921 22.9757 16.7555 23.6083 18.3092C24.2409 19.8629 25.1741 21.2764 26.3543 22.4687C27.5345 23.6609 28.9385 24.6083 30.4857 25.2567C32.0329 25.905 33.693 26.2415 35.3705 26.2468H35.3624Z" fill="#FFC800"/>
<path fill-rule="evenodd" clip-rule="evenodd" d="M35.3623 23.9085C37.4476 23.9325 39.493 23.3362 41.2385 22.1951C42.9841 21.0541 44.3512 19.4199 45.1659 17.5002C45.9806 15.5805 46.2063 13.462 45.8143 11.4137C45.4222 9.36544 44.4302 7.47993 42.9641 5.99677C41.4981 4.51362 39.6242 3.49975 37.5807 3.08397C35.5371 2.66819 33.4161 2.8693 31.487 3.6617C29.558 4.45411 27.9081 5.80203 26.7469 7.53426C25.5857 9.2665 24.9656 11.3049 24.9654 13.3903C24.9525 16.1628 26.0399 18.8273 27.989 20.7991C29.9381 22.771 32.5898 23.8892 35.3623 23.9085V23.9085Z" fill="#F59A17"/>
<path fill-rule="evenodd" clip-rule="evenodd" d="M35.3623 22.7434C37.3245 22.745 39.2432 22.1646 40.8755 21.0756C42.5078 19.9866 43.7804 18.438 44.5325 16.6256C45.2845 14.8132 45.4821 12.8185 45.1002 10.8938C44.7184 8.96904 43.7743 7.20081 42.3874 5.81274C41.0004 4.42467 39.233 3.47914 37.3086 3.09574C35.3842 2.71234 33.3893 2.90831 31.5763 3.65885C29.7633 4.40939 28.2136 5.68078 27.1232 7.3122C26.0329 8.94362 25.451 10.8618 25.451 12.824C25.4413 14.1286 25.691 15.4222 26.1855 16.6295C26.6801 17.8369 27.4097 18.9339 28.3319 19.8568C29.254 20.7797 30.3504 21.5102 31.5574 22.0058C32.7643 22.5013 34.0577 22.7521 35.3623 22.7434V22.7434Z" fill="#FFAE00"/>
<path fill-rule="evenodd" clip-rule="evenodd" d="M28.2426 5.72827L43.0652 20.4537C41.4402 22.3318 39.1779 23.5423 36.7138 23.8519L24.9658 12.2819C25.2664 9.80416 26.4089 7.50476 28.2022 5.76872L28.2426 5.72827Z" fill="#FFAE00"/>
<path fill-rule="evenodd" clip-rule="evenodd" d="M33.437 3.10681L45.5734 15.2432C45.4242 16.1136 45.1659 16.9617 44.8047 17.7675L30.8398 3.98064C31.6683 3.5885 32.54 3.2952 33.437 3.10681V3.10681Z" fill="#FFAE00"/>
<path fill-rule="evenodd" clip-rule="evenodd" d="M28.3316 5.82532L42.3855 19.7336C41.5142 20.6785 40.4573 21.4335 39.281 21.9513C38.1046 22.4692 36.8341 22.7389 35.5487 22.7434L25.5403 12.7269C25.5221 10.1479 26.5257 7.66653 28.3316 5.82532V5.82532Z" fill="#FCB80D"/>
<path fill-rule="evenodd" clip-rule="evenodd" d="M33.4366 3.10681L44.9904 14.6768C44.7925 15.5349 44.5357 16.3784 44.2218 17.2012L30.9365 3.98064C31.7313 3.58882 32.5708 3.29537 33.4366 3.10681V3.10681Z" fill="#FCB80D"/>
<path d="M40.2736 3.78639C41.5259 4.43882 42.6389 5.32926 43.5504 6.40784C44.4619 7.49359 45.1469 8.7508 45.565 10.1054C45.9712 11.4937 46.1354 12.9415 46.0505 14.3855C45.9304 15.7962 45.5375 17.1701 44.8935 18.4309C44.227 19.6768 43.348 20.7967 42.2963 21.7401C41.1772 22.5854 39.9465 23.2715 38.6392 23.779C37.2647 24.1847 35.8302 24.349 34.3996 24.2645C32.9868 24.1501 31.6113 23.7539 30.3541 23.0994C29.1371 22.4116 28.0433 21.5256 27.1177 20.4779C26.2588 19.3205 25.5771 18.0416 25.095 16.6833C24.6899 15.3281 24.5283 13.9119 24.6176 12.5003C24.8502 9.64042 26.1988 6.98693 28.3718 5.11327C29.4889 4.21111 30.7611 3.52021 32.126 3.07439C33.4634 2.66358 34.8643 2.49907 36.2605 2.58891C37.6732 2.70308 39.0488 3.09925 40.3059 3.754L40.2736 3.78639ZM44.8935 10.3967C44.5049 9.10653 43.8487 7.91279 42.9678 6.89328C42.1208 5.85596 41.0756 4.99781 39.8933 4.36892C38.7251 3.7674 37.4489 3.40434 36.1391 3.30091C34.8361 3.21578 33.5289 3.38058 32.2878 3.78639C31.0369 4.2055 29.8641 4.82881 28.8168 5.6311C27.8218 6.51017 26.9988 7.56645 26.3896 8.74613C25.7311 9.94326 25.3366 11.2675 25.2326 12.6298C25.1535 13.9458 25.3181 15.2652 25.718 16.5215C26.1282 17.8024 26.782 18.992 27.6436 20.0248C28.4688 21.059 29.5207 21.8895 30.7182 22.4521C31.8678 23.1139 33.1501 23.5119 34.4724 23.6172C35.7753 23.7023 37.0826 23.5375 38.3236 23.1317C39.6031 22.7386 40.7838 22.0765 41.7866 21.1899C42.8234 20.3306 43.6764 19.2712 44.2947 18.0749C44.879 16.8891 45.2384 15.6052 45.3546 14.2884C45.446 12.972 45.2812 11.6503 44.8692 10.3967H44.8935Z" fill="#FFEBA3"/>
<path fill-rule="evenodd" clip-rule="evenodd" d="M57.1189 64.5492C59.6566 64.5845 62.1474 63.8636 64.274 62.4785C66.4006 61.0933 68.0668 59.1064 69.0603 56.771C70.0538 54.4356 70.3296 51.8573 69.8527 49.3646C69.3758 46.8718 68.1677 44.5775 66.3823 42.7737C64.5969 40.97 62.315 39.7385 59.8272 39.2361C57.3395 38.7337 54.7585 38.9832 52.413 39.9528C50.0676 40.9224 48.0638 42.5682 46.657 44.6805C45.2501 46.7929 44.5039 49.2762 44.5133 51.8141C44.5131 55.1693 45.837 58.3891 48.1974 60.7737C50.5578 63.1583 53.7638 64.5151 57.1189 64.5492V64.5492Z" fill="#FFC800"/>
<path fill-rule="evenodd" clip-rule="evenodd" d="M57.1191 62.3161C59.2044 62.3401 61.2498 61.7438 62.9954 60.6027C64.741 59.4617 66.108 57.8275 66.9227 55.9078C67.7375 53.9881 67.9632 51.8695 67.5711 49.8213C67.1791 47.773 66.187 45.8876 64.721 44.4044C63.2549 42.9213 61.3811 41.9073 59.3375 41.4916C57.2939 41.0758 55.1729 41.2769 53.2439 42.0693C51.3148 42.8617 49.6649 44.2097 48.5037 45.9419C47.3425 47.6741 46.7224 49.7125 46.7223 51.7979C46.7094 54.5704 47.7967 57.2349 49.7458 59.2068C51.6949 61.1786 54.3466 62.2968 57.1191 62.3161V62.3161Z" fill="#F59A17"/>
<path fill-rule="evenodd" clip-rule="evenodd" d="M57.1187 61.1429C59.0839 61.1637 61.011 60.6004 62.6554 59.5242C64.2999 58.4481 65.5877 56.9077 66.3553 55.0985C67.1229 53.2893 67.3359 51.2929 66.967 49.3625C66.5982 47.4321 65.6643 45.6547 64.2837 44.256C62.9032 42.8572 61.1383 41.9001 59.2129 41.506C57.2875 41.112 55.2884 41.2987 53.4693 42.0425C51.6502 42.7864 50.0931 44.0538 48.9955 45.6841C47.8979 47.3143 47.3093 49.2339 47.3044 51.1992C47.2959 52.495 47.5432 53.7797 48.0322 54.9797C48.5212 56.1798 49.2422 57.2714 50.154 58.1922C51.0658 59.113 52.1503 59.8448 53.3455 60.3456C54.5406 60.8463 55.8228 61.1063 57.1187 61.1105V61.1429Z" fill="#FFAE00"/>
<path fill-rule="evenodd" clip-rule="evenodd" d="M50.096 44.1357L64.9186 58.8126C63.2635 60.7183 60.9537 61.9338 58.4458 62.2189L46.7949 50.6489C47.0649 48.1621 48.2123 45.8529 50.0313 44.1357H50.096Z" fill="#FFAE00"/>
<path fill-rule="evenodd" clip-rule="evenodd" d="M55.1935 41.49L67.4188 53.5455C67.2246 54.4193 66.9415 55.2931 66.6502 56.175L52.6934 42.2991C53.4726 41.8844 54.319 41.6105 55.1935 41.49V41.49Z" fill="#FFAE00"/>
<path fill-rule="evenodd" clip-rule="evenodd" d="M50.177 44.2329L64.2228 58.1331C62.4126 59.9688 59.9705 61.0452 57.3941 61.1429L47.2886 51.1344C47.3395 48.5505 48.3723 46.0829 50.177 44.2329V44.2329Z" fill="#FCB80D"/>
<path fill-rule="evenodd" clip-rule="evenodd" d="M55.2901 41.49L66.8439 52.9791C66.6533 53.8536 66.3628 54.7033 65.9782 55.5116L52.79 42.38C53.5785 41.9733 54.42 41.6792 55.2901 41.5062V41.49Z" fill="#FCB80D"/>
<path d="M62.0299 42.1859C63.3084 42.841 64.4507 43.7334 65.3957 44.8154C66.2757 45.9207 66.9598 47.1686 67.4184 48.5049C67.8141 49.8621 67.9782 51.2762 67.9039 52.6879C67.7946 54.1006 67.4011 55.4766 66.7469 56.7334C66.0971 57.9877 65.2159 59.1078 64.1497 60.0344C63.056 60.9729 61.7768 61.6704 60.3955 62.0815C59.0755 62.5811 57.6527 62.7478 56.253 62.5669C54.8392 62.4526 53.4631 62.0535 52.2075 61.3937C50.9706 60.7356 49.8718 59.8456 48.9712 58.7723C48.0218 57.7115 47.3296 56.4463 46.9484 55.0747C46.5075 53.7299 46.3451 52.3094 46.4711 50.8998C46.5794 49.4819 46.9668 48.0994 47.611 46.8317C48.2553 45.564 49.1437 44.4361 50.2253 43.5128C51.3069 42.5892 52.5612 41.8898 53.9154 41.455C55.2697 41.0203 56.6968 40.8589 58.1139 40.9804C59.4982 41.082 60.8445 41.4793 62.0623 42.1455L62.0299 42.1859ZM66.7469 48.6586C66.3351 47.3809 65.6813 46.1942 64.8213 45.1633C63.9945 44.1276 62.9395 43.2969 61.7386 42.7361C60.566 42.1459 59.2921 41.7835 57.9844 41.6681C56.6556 41.5517 55.3167 41.6834 54.0361 42.0565C52.785 42.4525 51.6361 43.1181 50.6702 44.0064C49.6597 44.886 48.8132 45.9379 48.1702 47.1133C46.9551 49.526 46.7456 52.3218 47.5876 54.8886C48.0016 56.1485 48.6193 57.332 49.4162 58.392C50.3109 59.3568 51.351 60.1758 52.4988 60.8193C53.7051 61.4126 55.0109 61.7774 56.3501 61.8953C57.6468 62.0073 58.9531 61.8756 60.2014 61.507C61.452 61.0453 62.621 60.3871 63.6643 59.5571C64.6563 58.6784 65.479 57.6254 66.0915 56.4502C66.6894 55.2606 67.078 53.977 67.2404 52.6555C67.3232 51.308 67.1615 49.9566 66.7631 48.6667L66.7469 48.6586Z" fill="#FFEBA3"/>
<path fill-rule="evenodd" clip-rule="evenodd" d="M13.4199 64.5491C15.9534 64.5636 18.434 63.8249 20.5469 62.4268C22.6597 61.0288 24.3095 59.0344 25.2868 56.697C26.2641 54.3596 26.5249 51.7844 26.0359 49.2985C25.547 46.8126 24.3304 44.5281 22.5406 42.7349C20.7509 40.9418 18.4687 39.7208 15.9837 39.2271C13.4987 38.7334 10.9231 38.9892 8.58385 39.9621C6.24455 40.9349 4.24707 42.581 2.845 44.6912C1.44293 46.8013 0.699496 49.2806 0.709076 51.8141C0.70695 53.485 1.03409 55.14 1.67182 56.6845C2.30955 58.2289 3.24536 59.6326 4.42578 60.8153C5.60619 61.998 7.00807 62.9364 8.55132 63.5771C10.0946 64.2178 11.7489 64.5481 13.4199 64.5491Z" fill="#FFC800"/>
<path fill-rule="evenodd" clip-rule="evenodd" d="M13.42 62.316C16.2096 62.316 18.885 61.2079 20.8575 59.2353C22.8301 57.2628 23.9382 54.5874 23.9382 51.7978C23.9382 49.0083 22.8301 46.3329 20.8575 44.3604C18.885 42.3878 16.2096 41.2797 13.42 41.2797C10.6304 41.2797 7.95509 42.3878 5.98255 44.3604C4.01001 46.3329 2.90186 49.0083 2.90186 51.7978C2.90186 54.5874 4.01001 57.2628 5.98255 59.2353C7.95509 61.2079 10.6304 62.316 13.42 62.316Z" fill="#F59A17"/>
<path fill-rule="evenodd" clip-rule="evenodd" d="M13.42 61.1428C15.3849 61.1621 17.3112 60.5973 18.9546 59.5202C20.5981 58.443 21.8846 56.9021 22.651 55.0927C23.4173 53.2834 23.6291 51.2872 23.2594 49.3574C22.8896 47.4275 21.955 45.6509 20.5741 44.253C19.1933 42.855 17.4283 41.8987 15.5031 41.5053C13.5779 41.1119 11.5793 41.2991 9.76068 42.0432C7.94206 42.7873 6.38542 44.0548 5.28819 45.6849C4.19095 47.315 3.60256 49.2342 3.59766 51.1991C3.59544 53.8131 4.62676 56.3219 6.46675 58.1786C8.30674 60.0352 10.8062 61.0891 13.42 61.1105V61.1428Z" fill="#FFAE00"/>
<path fill-rule="evenodd" clip-rule="evenodd" d="M6.29167 44.1357L21.1223 58.8126C19.4947 60.693 17.23 61.9061 14.7629 62.2189L3.02295 50.6489C3.29774 48.1635 4.44439 45.8559 6.25931 44.1357H6.29167Z" fill="#FFAE00"/>
<path fill-rule="evenodd" clip-rule="evenodd" d="M11.4941 41.49L23.6305 53.5455C23.4922 54.4572 23.2195 55.3433 22.8214 56.175L8.91309 42.2991C9.73181 41.8968 10.6079 41.6239 11.5103 41.49H11.4941Z" fill="#FFAE00"/>
<path fill-rule="evenodd" clip-rule="evenodd" d="M6.48583 44.2329L20.4426 58.1331C18.6324 59.9688 16.1902 61.0452 13.6139 61.1429L3.59737 51.1344C3.5818 49.8478 3.83008 48.5715 4.32687 47.3845C4.82366 46.1975 5.55843 45.1249 6.48583 44.2329V44.2329Z" fill="#FCB80D"/>
<path fill-rule="evenodd" clip-rule="evenodd" d="M11.4942 41.49L23.048 52.9629C22.8809 53.8364 22.6093 54.6867 22.239 55.4954L8.99414 42.38C9.78888 41.9881 10.6284 41.6947 11.4942 41.5062V41.49Z" fill="#FCB80D"/>
<path d="M18.3312 42.1859C19.5685 42.8469 20.6673 43.7396 21.5676 44.8154C22.5152 45.8743 23.2072 47.1365 23.5903 48.5049C24.0297 49.8528 24.1921 51.2756 24.0677 52.6879C23.9659 54.1008 23.5748 55.4778 22.9188 56.7334C22.2956 58.0069 21.4073 59.1324 20.3135 60.0344C19.271 60.9929 18.0186 61.694 16.6564 62.0814C15.306 62.5834 13.8539 62.7499 12.4249 62.5669C11.0111 62.4526 9.63501 62.0535 8.37942 61.3937C6.49351 60.3974 4.94112 58.87 3.91435 57.0005C2.88757 55.131 2.43148 53.0015 2.60251 50.8755C2.69814 49.4604 3.09246 48.0817 3.75952 46.83C4.40928 45.5757 5.2905 44.4557 6.35669 43.529C7.44832 42.5875 8.72818 41.8896 10.1109 41.482C11.4307 40.9817 12.8537 40.815 14.2534 40.9965C15.6658 41.1128 17.041 41.5089 18.2989 42.1616L18.3312 42.1859ZM22.9512 48.6586C22.5349 47.4022 21.9173 46.2217 21.1226 45.1633C20.2536 44.1709 19.2085 43.348 18.04 42.736C16.8332 42.1452 15.5274 41.783 14.1887 41.668C12.892 41.556 11.5857 41.6878 10.3374 42.0564C9.0656 42.4712 7.88862 43.1339 6.87451 44.0063C5.86145 44.8651 5.03533 45.9225 4.44724 47.1133C3.84416 48.3007 3.45524 49.5853 3.29833 50.9079C3.21507 52.2528 3.37681 53.6016 3.77569 54.8886C4.18547 56.1697 4.83938 57.3594 5.70133 58.392C6.5544 59.401 7.60304 60.2267 8.78397 60.8193C9.95615 61.4119 11.23 61.777 12.5381 61.8953C13.8484 62.0459 15.1757 61.9152 16.4314 61.5119C17.6871 61.1087 18.8423 60.4423 19.82 59.5571C20.8079 58.656 21.6512 57.608 22.3201 56.4501C23.5356 54.0347 23.7451 51.2362 22.9026 48.6667L22.9512 48.6586Z" fill="#FFEBA3"/>
<path fill-rule="evenodd" clip-rule="evenodd" d="M35.3624 51.8141C37.8924 51.8317 40.3708 51.0981 42.4836 49.7063C44.5965 48.3145 46.2488 46.3271 47.2315 43.9956C48.2141 41.6641 48.4828 39.0935 48.0035 36.6093C47.5243 34.125 46.3187 31.8388 44.5393 30.0402C42.7599 28.2415 40.4869 27.0113 38.0079 26.5053C35.529 25.9993 32.9556 26.2403 30.6137 27.1978C28.2718 28.1552 26.2666 29.786 24.8521 31.8838C23.4377 33.9815 22.6775 36.4518 22.6678 38.9819C22.6561 40.6594 22.9757 42.3228 23.6083 43.8765C24.2409 45.4302 25.1741 46.8437 26.3543 48.0359C27.5345 49.2281 28.9385 50.1756 30.4857 50.824C32.0329 51.4723 33.693 51.8088 35.3705 51.8141H35.3624Z" fill="#CDCFD1"/>
<path fill-rule="evenodd" clip-rule="evenodd" d="M35.3623 49.4839C37.4476 49.508 39.493 48.9116 41.2385 47.7706C42.9841 46.6295 44.3512 44.9954 45.1659 43.0757C45.9806 41.156 46.2063 39.0374 45.8143 36.9891C45.4222 34.9409 44.4302 33.0554 42.9641 31.5722C41.4981 30.0891 39.6242 29.0752 37.5807 28.6594C35.5371 28.2436 33.4161 28.4447 31.487 29.2371C29.558 30.0295 27.9081 31.3775 26.7469 33.1097C25.5857 34.8419 24.9656 36.8803 24.9654 38.9657C24.9525 41.7383 26.0399 44.4028 27.989 46.3746C29.9381 48.3465 32.5898 49.4647 35.3623 49.4839Z" fill="#84898F"/>
<path fill-rule="evenodd" clip-rule="evenodd" d="M35.3624 48.4078C37.3345 48.419 39.2656 47.8449 40.9114 46.7582C42.5572 45.6715 43.8436 44.1211 44.6079 42.303C45.3722 40.485 45.5801 38.4811 45.2052 36.5449C44.8302 34.6087 43.8894 32.8273 42.5017 31.4259C41.1139 30.0246 39.3417 29.0664 37.4093 28.6727C35.4768 28.2789 33.471 28.4672 31.6456 29.2137C29.8202 29.9603 28.2573 31.2316 27.1546 32.8666C26.0519 34.5017 25.459 36.4272 25.451 38.3993C25.4403 39.7085 25.6887 41.0068 26.1818 42.2195C26.6749 43.4323 27.4031 44.5355 28.3243 45.4658C29.2455 46.396 30.3416 47.1349 31.5495 47.6398C32.7574 48.1447 34.0532 48.4057 35.3624 48.4078Z" fill="#A9ADB0"/>
<path fill-rule="evenodd" clip-rule="evenodd" d="M28.2426 31.2955L43.0652 45.9805C41.4199 47.8513 39.1739 49.0902 36.7138 49.4839L24.9658 37.8168C25.2646 35.3361 26.4072 33.0337 28.2022 31.2955H28.2426Z" fill="#919599"/>
<path fill-rule="evenodd" clip-rule="evenodd" d="M33.437 28.6741L45.5734 40.8104C45.4242 41.6808 45.1659 42.529 44.8047 43.3348L30.8398 29.5479C31.6683 29.1558 32.54 28.8625 33.437 28.6741V28.6741Z" fill="#919599"/>
<path fill-rule="evenodd" clip-rule="evenodd" d="M28.3314 31.4008L42.3853 45.3009C41.514 46.2458 40.4571 47.0008 39.2807 47.5187C38.1044 48.0366 36.8338 48.3062 35.5485 48.3107L25.54 38.3023C25.5375 35.7263 26.5388 33.2507 28.3314 31.4008V31.4008Z" fill="#B4B6B8"/>
<path fill-rule="evenodd" clip-rule="evenodd" d="M33.4366 28.6741L44.9904 40.2441C44.7925 41.1022 44.5357 41.9457 44.2218 42.7685L30.9365 29.5479C31.7313 29.1561 32.5708 28.8626 33.4366 28.6741V28.6741Z" fill="#B4B6B8"/>
<path d="M40.2739 29.3537C41.5284 30.0062 42.6419 30.8997 43.5507 31.9832C44.4443 33.078 45.1274 34.329 45.5653 35.6726C45.971 37.061 46.1352 38.5088 46.0507 39.9527C45.9287 41.363 45.5359 42.7366 44.8938 43.9982C44.2506 45.2568 43.3685 46.378 42.2966 47.2993C41.1775 48.1445 39.9468 48.8307 38.6395 49.3382C37.2662 49.7506 35.8311 49.9176 34.3998 49.8317C32.9866 49.7144 31.6111 49.3155 30.3544 48.6586C29.1166 48.0018 28.0175 47.1116 27.118 46.0371C26.2625 44.8981 25.5809 43.6383 25.0953 42.2991C24.6907 40.9466 24.529 39.5331 24.6179 38.1242C24.7288 36.699 25.1221 35.31 25.7749 34.0383C26.4201 32.7787 27.3019 31.6552 28.3721 30.7291C29.4892 29.827 30.7614 29.136 32.1263 28.6902C33.4637 28.2794 34.8646 28.1149 36.2607 28.2048C37.6735 28.3189 39.0491 28.7151 40.3062 29.3698L40.2739 29.3537ZM44.8938 35.9639C44.5068 34.6755 43.8505 33.4841 42.9681 32.4686C42.1216 31.4287 41.0764 30.5678 39.8936 29.9362C38.7254 29.3347 37.4492 28.9716 36.1394 28.8682C33.4897 28.7063 30.8802 29.5762 28.8576 31.2955C27.8451 32.1194 27.0179 33.1478 26.4303 34.3134C25.7708 35.513 25.3762 36.8401 25.2733 38.2051C25.1091 40.8871 25.9776 43.5302 27.7006 45.5921C28.5257 46.6263 29.5777 47.4568 30.7751 48.0194C31.9247 48.6812 33.207 49.0792 34.5293 49.1845C35.8323 49.2696 37.1395 49.1048 38.3806 48.699C39.66 48.3058 40.8407 47.6438 41.8435 46.7572C42.8783 45.8992 43.7311 44.8428 44.3517 43.6503C44.935 42.4612 45.2942 41.1749 45.4116 39.8556C45.4952 38.5394 45.3305 37.2192 44.9261 35.9639H44.8938Z" fill="white"/>
</svg>
