<svg width="42" height="46" viewBox="0 0 42 46" fill="none" xmlns="http://www.w3.org/2000/svg">
<path fill-rule="evenodd" clip-rule="evenodd" d="M16.4702 45.65H5.69742C4.23499 45.631 2.83956 45.0376 1.81585 43.9993C0.792137 42.9611 0.22333 41.5624 0.233673 40.1087V40.1087C0.229495 38.8068 0.674993 37.5429 1.49568 36.5282V36.5282L5.00599 32.2508V32.1931C5.06268 32.1424 5.10759 32.08 5.13764 32.0103C5.1677 31.9406 5.18219 31.8653 5.18008 31.7895C5.17497 31.6422 5.12169 31.5006 5.02833 31.3861C4.93497 31.2716 4.80662 31.1905 4.66271 31.1551C3.35535 30.9441 2.16696 30.2754 1.31217 29.2698C0.457391 28.2641 -0.00744775 26.9878 0.00159431 25.6714V25.6714C0.00161925 24.93 0.148996 24.196 0.435267 23.5114C0.721538 22.8269 1.14107 22.2053 1.66974 21.6824V21.6824L17.6597 5.64466C17.9969 5.21344 18.4288 4.8645 18.9223 4.62447C19.4159 4.38443 19.9581 4.25964 20.5076 4.25964C21.0571 4.25964 21.5993 4.38443 22.0929 4.62447C22.5864 4.8645 23.0183 5.21344 23.3555 5.64466V5.64466L39.3503 21.6968C39.879 22.2197 40.2985 22.8413 40.5848 23.5259C40.871 24.2104 41.0184 24.9445 41.0184 25.6858C41.0265 27.002 40.5613 28.2778 39.7067 29.2832C38.8521 30.2886 37.6642 30.9576 36.3573 31.1695C36.213 31.2042 36.0842 31.2851 35.9907 31.3997C35.8972 31.5144 35.8443 31.6564 35.8399 31.8039C35.8432 31.9461 35.8832 32.0851 35.956 32.2076V32.2652L39.5195 36.5426C40.3437 37.5557 40.7911 38.8203 40.7863 40.1231V40.1231C40.7916 41.5731 40.2213 42.9667 39.1993 44.0014C38.1773 45.0361 36.7861 45.6285 35.3274 45.65H16.4702Z" fill="#7DBD0D"/>
<path fill-rule="evenodd" clip-rule="evenodd" d="M16.4704 45.65H5.69756C4.23513 45.631 2.8397 45.0376 1.81599 43.9993C0.792277 42.9611 0.223469 41.5624 0.233813 40.1087V40.1087C0.229635 38.8068 0.675133 37.5428 1.49582 36.5282V36.5282L5.00613 32.2508V32.1931C5.06282 32.1424 5.10773 32.08 5.13778 32.0103C5.16784 31.9406 5.18233 31.8652 5.18022 31.7894C5.17511 31.6422 5.12183 31.5005 5.02847 31.3861C4.93511 31.2716 4.80676 31.1905 4.66285 31.155C3.36013 30.934 2.1779 30.2625 1.325 29.2591C0.472107 28.2557 0.00341955 26.9849 0.00173406 25.6713V25.6137C-0.0301932 26.8779 0.379604 28.114 1.16136 29.1116C1.94312 30.1093 3.04853 30.8069 4.28947 31.0857C5.53042 31.3644 6.8302 31.2071 7.96762 30.6406C9.10504 30.074 10.0098 29.1332 10.5279 27.9782C10.9516 28.9335 11.6437 29.7469 12.5211 30.3207C13.3986 30.8945 14.424 31.2042 15.4743 31.2127C16.5492 31.2143 17.6011 30.9036 18.5005 30.3186C19.4 29.7337 20.1077 28.9002 20.5367 27.9206C20.9475 28.8918 21.6361 29.7217 22.5172 30.3072C23.3984 30.8928 24.4331 31.2082 25.493 31.2144C26.5529 31.2205 27.5912 30.9171 28.4792 30.3418C29.3671 29.7665 30.0654 28.9446 30.4875 27.9782C31.0077 29.1312 31.9132 30.0699 33.0503 30.6349C34.1874 31.1999 35.4862 31.3564 36.7262 31.078C37.9663 30.7996 39.0712 30.1033 39.8536 29.1073C40.6359 28.1113 41.0476 26.877 41.0186 25.6137V25.6713C41.0266 26.9876 40.5614 28.2633 39.7068 29.2688C38.8522 30.2742 37.6644 30.9431 36.3574 31.155C36.2132 31.1898 36.0843 31.2706 35.9909 31.3853C35.8974 31.4999 35.8444 31.6419 35.8401 31.7894C35.8434 31.9317 35.8833 32.0706 35.9561 32.1931V32.2508L39.5196 36.5282C40.3438 37.5412 40.7912 38.8058 40.7865 40.1087V40.1087C40.7955 41.5612 40.227 42.9584 39.2046 43.9963C38.1822 45.0341 36.7887 45.6285 35.3276 45.65H16.4704Z" fill="#68A303"/>
<path fill-rule="evenodd" clip-rule="evenodd" d="M20.5947 28.0936V28.1512H20.6527V28.2329C20.869 28.6529 21.1406 29.0424 21.4602 29.3912V29.4489H21.5182V29.5066H21.5714V29.5642H21.6294L21.6874 29.6219L21.8615 29.7949C22.3168 30.2248 22.8415 30.5757 23.4136 30.833H23.5296L23.6457 30.8907L23.7037 30.9484L23.931 31.006L24.105 31.0637L25.1398 31.2367H25.5411C26.595 31.2277 27.6237 30.915 28.5025 30.3367C29.3813 29.7583 30.0725 28.9391 30.4923 27.9782C30.9346 28.9316 31.6392 29.7413 32.5247 30.3136C33.4102 30.8859 34.4406 31.1976 35.4967 31.2127C35.7092 31.2121 35.9213 31.2314 36.1301 31.2704C36.0422 31.3257 35.9699 31.4024 35.92 31.4932C35.8701 31.584 35.8443 31.686 35.8449 31.7894C35.8482 31.9316 35.8881 32.0706 35.9609 32.1931V32.2508L39.5244 36.5281C39.5825 36.5858 39.6985 36.7588 39.8726 37.0088C40.4774 37.9376 40.7966 39.0215 40.7912 40.1279C40.8082 41.0034 40.6089 41.8697 40.211 42.651C28.9934 43.4632 20.3094 36.9366 20.5947 28.0407V28.0936Z" fill="#609603"/>
<path fill-rule="evenodd" clip-rule="evenodd" d="M0.867346 42.7039C0.447431 41.9027 0.230037 41.012 0.233938 40.1087C0.22976 38.8067 0.675258 37.5428 1.49594 36.5282L3.73944 33.8127C4.53497 34.187 5.20979 34.7743 5.68809 35.5086C6.1664 36.243 6.42927 37.0953 6.44716 37.97C6.44716 40.6277 4.1456 42.776 1.32669 42.776C1.1712 42.7895 1.01459 42.7698 0.867346 42.7183V42.7039Z" fill="#77B50D"/>
<path d="M31.9432 13.9447C31.8906 14.0311 31.8701 14.1331 31.8852 14.233V15.5066C31.8867 23.0309 28.9382 30.2595 23.6654 35.6583C21.0523 38.2936 17.9441 40.3935 14.5172 41.8388C11.1314 43.2595 7.49212 43.9869 3.81699 43.9775C3.07237 43.9775 2.49697 43.9775 1.74752 43.9198C1.66573 43.9112 1.58352 43.9316 1.51544 43.9775C1.40423 44.0929 1.34619 44.1505 1.34619 44.2659C1.35034 44.3715 1.38944 44.4729 1.45742 44.5542C1.4846 44.6072 1.52621 44.6515 1.5775 44.6821C1.6288 44.7127 1.68771 44.7283 1.74752 44.7273C2.43895 44.7273 3.07237 44.7849 3.81699 44.7849C7.60726 44.7778 11.3593 44.0315 14.8605 42.5886C21.957 39.5319 27.5716 33.8409 30.5072 26.7287C31.9406 23.1648 32.6838 19.3639 32.6975 15.5258C32.6975 15.0452 32.6395 14.6559 32.6395 14.1946C32.6388 14.1499 32.628 14.106 32.6079 14.0661C32.5878 14.0262 32.5589 13.9912 32.5234 13.9639C32.4654 13.8485 32.3494 13.8485 32.2333 13.8485C32.1173 13.8485 32.0641 13.9062 31.9481 13.9639L31.9432 13.9447Z" fill="#FEFEFE"/>
<path fill-rule="evenodd" clip-rule="evenodd" d="M23.6456 37.5086C24.0227 37.5182 24.394 37.4154 24.7118 37.2135C25.0296 37.0116 25.2794 36.7199 25.4291 36.3758C25.5788 36.0316 25.6214 35.6509 25.5517 35.2824C25.4819 34.914 25.3029 34.5747 25.0376 34.3083C24.7722 34.0418 24.4328 33.8603 24.0629 33.7871C23.693 33.7139 23.3095 33.7523 22.9617 33.8975C22.614 34.0427 22.3179 34.2879 22.1114 34.6017C21.905 34.9155 21.7978 35.2834 21.8034 35.6583C21.8034 36.1457 21.9969 36.6135 22.3418 36.9599C22.6867 37.3064 23.1553 37.5036 23.6456 37.5086Z" fill="#FFC600"/>
<path fill-rule="evenodd" clip-rule="evenodd" d="M16.6254 43.4585C17.1222 43.435 17.5909 43.2221 17.9339 42.8641C18.277 42.5061 18.4681 42.0305 18.4676 41.536C18.4432 41.0597 18.2357 40.6109 17.8879 40.2824C17.5401 39.9538 17.0786 39.7706 16.5988 39.7706C16.119 39.7706 15.6575 39.9538 15.3097 40.2824C14.9619 40.6109 14.7544 41.0597 14.73 41.536C14.7299 42.0393 14.9283 42.5226 15.2827 42.882C15.6371 43.2414 16.1191 43.4484 16.6254 43.4585V43.4585Z" fill="#FC3737"/>
<path fill-rule="evenodd" clip-rule="evenodd" d="M7.65082 45.4193C7.89451 45.4213 8.13614 45.3748 8.36148 45.2825C8.58683 45.1903 8.79134 45.0542 8.96299 44.8822C9.13464 44.7103 9.26996 44.5059 9.36098 44.2812C9.45201 44.0565 9.49689 43.816 9.49302 43.5738C9.50581 43.3258 9.4677 43.0777 9.38102 42.8448C9.29434 42.6119 9.16091 42.3989 8.98881 42.2188C8.81671 42.0388 8.60956 41.8954 8.37996 41.7974C8.15036 41.6995 7.9031 41.6489 7.65324 41.6489C7.40337 41.6489 7.15612 41.6995 6.92651 41.7974C6.69691 41.8954 6.48976 42.0388 6.31766 42.2188C6.14556 42.3989 6.0121 42.6119 5.92542 42.8448C5.83874 43.0777 5.80066 43.3258 5.81345 43.5738C5.80892 43.8158 5.8532 44.0562 5.94369 44.2809C6.03418 44.5056 6.16903 44.7099 6.34029 44.882C6.51156 45.054 6.71577 45.1902 6.94086 45.2825C7.16594 45.3747 7.40734 45.4213 7.65082 45.4193V45.4193Z" fill="white"/>
<path fill-rule="evenodd" clip-rule="evenodd" d="M4.89014 18.4527L17.6599 5.64462C17.9904 5.21335 18.4169 4.86397 18.9059 4.62384C19.395 4.38371 19.9333 4.25936 20.4788 4.26049C21.1484 4.25458 21.8064 4.43433 22.379 4.77955C22.2629 7.84098 17.0313 18.8131 7.70905 18.8131C6.75836 18.8187 5.81091 18.7024 4.89014 18.4671V18.4527Z" fill="#8DD117"/>
<path d="M28.8776 11.2341C27.5849 12.9724 26.0992 14.5604 24.4486 15.968C22.7902 17.3628 20.9764 18.5641 19.0429 19.5485C17.1362 20.5412 15.1054 21.2781 13.0037 21.74C10.9153 22.2587 8.76906 22.5122 6.61645 22.4946H5.23843C4.77909 22.4369 4.31489 22.4369 3.85555 22.3792C3.39621 22.3216 2.93687 22.2639 2.53555 22.2062C2.13423 22.1486 1.61204 22.0332 1.1527 21.9755C1.03666 21.9755 0.920599 21.9755 0.867412 22.0332C0.814225 22.0909 0.693352 22.1486 0.693352 22.2639V22.3216C0.68467 22.4029 0.705223 22.4846 0.751372 22.5522C0.772091 22.5974 0.803644 22.6368 0.843271 22.6669C0.882898 22.6971 0.929399 22.7171 0.978641 22.7253C1.43798 22.8406 1.90215 22.8983 2.36149 23.0136L3.81205 23.1866C4.29557 23.2443 4.73557 23.2443 5.2626 23.302H6.64062C8.84708 23.2904 11.0456 23.039 13.1971 22.5522C15.3386 22.0225 17.4107 21.2467 19.3717 20.2406C21.3661 19.2525 23.2223 18.0101 24.8934 16.5447C26.626 15.1172 28.181 13.4893 29.5255 11.6955C29.5782 11.609 29.5987 11.507 29.5835 11.4071C29.585 11.3469 29.5695 11.2876 29.5387 11.2358C29.5079 11.1839 29.4632 11.1417 29.4095 11.1139C29.3563 11.0562 29.2402 11.0562 29.1242 11.0562C29.0737 11.0645 29.0261 11.0851 28.9856 11.1161C28.9451 11.1471 28.913 11.1877 28.8921 11.2341H28.8776Z" fill="#FEFEFE"/>
<path fill-rule="evenodd" clip-rule="evenodd" d="M9.2612 24.6861C9.50507 24.6887 9.74698 24.6427 9.97263 24.5507C10.1983 24.4587 10.4031 24.3226 10.5748 24.1505C10.7466 23.9784 10.8819 23.7738 10.9727 23.5488C11.0635 23.3238 11.1079 23.083 11.1034 22.8406C11.1162 22.5926 11.0781 22.3446 10.9914 22.1116C10.9047 21.8787 10.7713 21.6657 10.5992 21.4856C10.4271 21.3056 10.2199 21.1622 9.99031 21.0642C9.76071 20.9663 9.51345 20.9157 9.26359 20.9157C9.01372 20.9157 8.76647 20.9663 8.53686 21.0642C8.30726 21.1622 8.10014 21.3056 7.92804 21.4856C7.75594 21.6657 7.62248 21.8787 7.5358 22.1116C7.44912 22.3446 7.41101 22.5926 7.4238 22.8406C7.41927 23.0826 7.46358 23.323 7.55407 23.5477C7.64456 23.7724 7.77941 23.9768 7.95067 24.1488C8.12194 24.3208 8.32615 24.457 8.55124 24.5492C8.77632 24.6415 9.01772 24.6881 9.2612 24.6861V24.6861Z" fill="white"/>
<path fill-rule="evenodd" clip-rule="evenodd" d="M17.8338 22.4369C18.3238 22.4306 18.7916 22.233 19.1363 21.8868C19.4809 21.5406 19.6748 21.0736 19.676 20.5866C19.6889 20.3347 19.6502 20.0828 19.5621 19.8463C19.474 19.6098 19.3384 19.3936 19.1636 19.2107C18.9888 19.0279 18.7784 18.8824 18.5452 18.7829C18.3121 18.6834 18.061 18.6321 17.8072 18.6321C17.5535 18.6321 17.3024 18.6834 17.0692 18.7829C16.8361 18.8824 16.6257 19.0279 16.4509 19.2107C16.2761 19.3936 16.1405 19.6098 16.0524 19.8463C15.9643 20.0828 15.9256 20.3347 15.9385 20.5866C15.9403 20.8319 15.9909 21.0744 16.0873 21.3002C16.1836 21.526 16.3238 21.7308 16.4999 21.9026C16.676 22.0745 16.8844 22.2102 17.1133 22.3019C17.3422 22.3935 17.5871 22.4394 17.8338 22.4369V22.4369Z" fill="#FC3737"/>
<path fill-rule="evenodd" clip-rule="evenodd" d="M25.9471 17.0638C26.4431 17.0391 26.9106 16.8257 27.2526 16.4678C27.5947 16.1099 27.7851 15.635 27.7845 15.1414C27.7601 14.6651 27.5526 14.2163 27.2048 13.8877C26.857 13.5591 26.3955 13.3759 25.9157 13.3759C25.4359 13.3759 24.9744 13.5591 24.6266 13.8877C24.2788 14.2163 24.0713 14.6651 24.0469 15.1414C24.0468 15.6454 24.2459 16.1294 24.6013 16.489C24.9568 16.8485 25.44 17.055 25.9471 17.0638V17.0638Z" fill="#FFC800"/>
<path fill-rule="evenodd" clip-rule="evenodd" d="M32.1024 23.0713C32.3494 23.0745 32.5945 23.029 32.8237 22.9376C33.0529 22.8461 33.2616 22.7105 33.4378 22.5385C33.614 22.3665 33.7542 22.1615 33.8503 21.9354C33.9464 21.7092 33.9966 21.4664 33.9978 21.221C34.0107 20.9691 33.9719 20.7172 33.8838 20.4807C33.7957 20.2442 33.6602 20.028 33.4854 19.8451C33.3106 19.6623 33.1002 19.5168 32.867 19.4173C32.6338 19.3178 32.3828 19.2665 32.129 19.2665C31.8753 19.2665 31.6242 19.3178 31.391 19.4173C31.1579 19.5168 30.9475 19.6623 30.7727 19.8451C30.5979 20.028 30.4623 20.2442 30.3742 20.4807C30.2861 20.7172 30.2473 20.9691 30.2602 21.221C30.2602 21.7084 30.4537 22.1761 30.7986 22.5226C31.1435 22.869 31.6121 23.0662 32.1024 23.0713V23.0713Z" fill="#FC3737"/>
<path fill-rule="evenodd" clip-rule="evenodd" d="M29.0418 30.5783C29.5318 30.572 29.9996 30.3744 30.3443 30.0282C30.6889 29.6821 30.8828 29.215 30.884 28.728C30.884 28.2347 30.6869 27.7616 30.336 27.4128C29.985 27.064 29.5091 26.868 29.0128 26.868C28.5165 26.868 28.0406 27.064 27.6897 27.4128C27.3387 27.7616 27.1416 28.2347 27.1416 28.728C27.1435 28.9737 27.1942 29.2166 27.2908 29.4427C27.3875 29.6689 27.5282 29.8738 27.7047 30.0458C27.8813 30.2177 28.0904 30.3533 28.3198 30.4447C28.5493 30.5361 28.7946 30.5815 29.0418 30.5783V30.5783Z" fill="white"/>
<path d="M21.0539 0.358007L22.0887 2.6697L24.6223 2.95805C24.7858 2.98568 24.9338 3.07076 25.0394 3.1978C25.145 3.32483 25.2012 3.48536 25.1977 3.65012C25.1572 3.82547 25.0779 3.98965 24.9656 4.13073L23.1283 5.74557L23.6456 8.23028C23.6741 8.39755 23.6361 8.5693 23.5396 8.70921C23.443 8.84912 23.2955 8.94623 23.1283 8.98002C23.0479 9.00341 22.9636 9.01035 22.8805 9.00044C22.7974 8.99052 22.7172 8.96396 22.6447 8.92235L20.4592 7.65355L18.2737 8.92235C18.2063 8.96171 18.1315 8.98701 18.0539 8.99668C17.9764 9.00635 17.8976 9.0002 17.8225 8.97861C17.7474 8.95702 17.6775 8.92044 17.6171 8.8711C17.5566 8.82177 17.507 8.76072 17.4711 8.69167C17.4196 8.62375 17.3828 8.54601 17.3628 8.46334C17.3428 8.38066 17.3402 8.2948 17.355 8.21107L17.8724 5.72633L16.0302 4.05384C15.9665 4.00216 15.9141 3.93798 15.8763 3.86531C15.8386 3.79264 15.8163 3.71303 15.8109 3.63144C15.8054 3.54984 15.817 3.468 15.8447 3.39102C15.8725 3.31403 15.9158 3.24355 15.9722 3.18395C16.0203 3.1198 16.0812 3.06618 16.1511 3.02649C16.2209 2.9868 16.2983 2.96189 16.3783 2.95327V2.95327L18.9071 2.66489L19.8742 0.353196C19.9519 0.202239 20.086 0.0875313 20.2478 0.0336353C20.4095 -0.0202607 20.5861 -0.00904956 20.7397 0.0648463C20.8619 0.13011 20.9613 0.230634 21.0249 0.353196L21.0539 0.358007Z" fill="#FFC800"/>
</svg>
