<svg  viewBox="0 0 42 46" fill="none" xmlns="http://www.w3.org/2000/svg">
<path fill-rule="evenodd" clip-rule="evenodd" d="M16.5891 45.4271H5.98901C4.98889 45.4125 4.01046 45.1337 3.15283 44.619H4.00841C4.76896 44.619 5.59286 44.619 6.3534 44.524C6.51763 44.7956 6.75055 45.0193 7.02872 45.1722C7.30689 45.3252 7.62048 45.4022 7.93787 45.3955C8.33832 45.3867 8.72536 45.2495 9.042 45.0042C9.35863 44.7589 9.58809 44.4183 9.69662 44.0328C11.4953 43.6892 13.2531 43.1581 14.9412 42.4483L15.2106 42.3532C15.4103 42.7037 15.7215 42.9773 16.0948 43.1304C16.468 43.2835 16.8816 43.3072 17.2699 43.1978C17.6581 43.0885 17.9986 42.8523 18.237 42.5269C18.4755 42.2016 18.5982 41.8057 18.5856 41.4025C18.5885 41.137 18.5401 40.8734 18.4429 40.6262C20.0742 39.6535 21.5984 38.5117 22.9904 37.2196C23.2154 37.3167 23.4583 37.3653 23.7034 37.3622C24.191 37.3539 24.6561 37.1555 24.9995 36.8091C25.3428 36.4628 25.5373 35.996 25.5413 35.5083C25.5305 35.2411 25.4715 34.9781 25.3671 34.7319C26.4993 33.3957 27.5219 31.9703 28.4251 30.4697C28.6107 30.5243 28.8023 30.5563 28.9956 30.5648C29.4887 30.5482 29.9552 30.3374 30.2936 29.9783C30.632 29.6191 30.8146 29.1408 30.8018 28.6476C30.8057 28.3662 30.7415 28.0882 30.6146 27.8371C30.4876 27.586 30.3018 27.3694 30.073 27.2057C30.2156 26.9205 30.3106 26.6511 30.4374 26.3818C30.8834 25.2439 31.2591 24.0798 31.5624 22.8959C32.0388 22.8676 32.4863 22.6582 32.8133 22.3106C33.1403 21.963 33.322 21.5035 33.3212 21.0263C33.3093 20.6916 33.2054 20.3666 33.0209 20.0871C32.8364 19.8076 32.5784 19.5843 32.2753 19.4418C32.4771 18.0139 32.583 16.5741 32.5923 15.132L39.1996 21.8026C39.9152 22.5222 40.4202 23.4239 40.66 24.41C40.8998 25.3961 40.8652 26.4289 40.56 27.3968C40.2548 28.3646 39.6906 29.2305 38.9285 29.9007C38.1664 30.5708 37.2354 31.0196 36.2365 31.1985C36.0854 31.2215 35.9477 31.2983 35.8487 31.4147C35.7497 31.5312 35.6961 31.6795 35.6979 31.8324C35.7028 31.9785 35.7466 32.1207 35.8246 32.2443L39.3263 36.5065C40.1587 37.4943 40.6086 38.7483 40.5938 40.0399C40.6066 41.4858 40.0476 42.8782 39.0387 43.9139C38.0297 44.9496 36.6524 45.5447 35.2067 45.5697H16.5891V45.4271ZM2.12289 43.7634C1.7588 43.3837 1.45429 42.951 1.21973 42.48C1.36233 42.48 1.4891 42.48 1.63171 42.48C2.27395 42.499 2.91356 42.391 3.51394 42.1621C4.11433 41.9333 4.66366 41.5882 5.13033 41.1465C5.597 40.7049 5.97184 40.1754 6.23339 39.5885C6.49494 39.0017 6.63805 38.3689 6.65446 37.7266C6.64171 36.8613 6.39297 36.0158 5.93504 35.2814C5.47711 34.5471 4.82735 33.9517 4.0559 33.5594L1.80598 36.2847L5.30769 32.0225C5.39707 31.9034 5.44688 31.7594 5.45024 31.6105C5.45398 31.4645 5.40716 31.3216 5.31766 31.2061C5.22815 31.0906 5.10144 31.0096 4.95906 30.9767C3.66948 30.7485 2.50231 30.0713 1.6642 29.065C0.82609 28.0586 0.371196 26.7882 0.380009 25.4786C0.382824 24.5144 0.627932 23.5664 1.09294 22.7217L2.07531 22.8484C2.58234 22.9435 3.02605 22.991 3.51723 23.0385L4.95906 23.1653H7.70026C7.80856 23.561 8.04092 23.9115 8.3632 24.1653C8.68548 24.4191 9.08068 24.5629 9.49072 24.5755C9.96447 24.5633 10.4152 24.3686 10.7488 24.032C11.0824 23.6954 11.2731 23.243 11.2811 22.7692C11.891 22.6906 12.4947 22.5688 13.0874 22.4047C14.2023 22.1677 15.2985 21.85 16.3673 21.4541C16.5262 21.7327 16.7572 21.9636 17.0359 22.1225C17.3147 22.2814 17.631 22.3624 17.9517 22.3572C18.4395 22.341 18.9024 22.1379 19.2446 21.7898C19.5867 21.4418 19.7819 20.9755 19.7898 20.4875C19.809 20.3403 19.809 20.1912 19.7898 20.0439C21.6448 19.1005 23.4016 17.9753 25.0344 16.6848C25.3355 16.8659 25.6812 16.9591 26.0325 16.9542C26.2724 16.9521 26.5096 16.9024 26.7301 16.8077C26.9505 16.713 27.1499 16.5754 27.3166 16.4028C27.4833 16.2302 27.6139 16.0261 27.7008 15.8025C27.7878 15.5789 27.8293 15.3402 27.823 15.1003C27.8294 14.8159 27.7698 14.5338 27.6487 14.2764C28.3617 13.5158 29.043 12.6919 29.7085 11.9155L31.8635 14.1021V14.9577C31.8718 16.325 31.7817 17.6912 31.594 19.0457C31.1077 19.0579 30.6449 19.2576 30.3024 19.603C29.9599 19.9485 29.7641 20.413 29.7561 20.8995C29.751 21.2728 29.8608 21.6387 30.0705 21.9476C30.2802 22.2565 30.5797 22.4935 30.9286 22.6266C30.6117 23.7674 30.2473 24.8924 29.8512 25.9857C29.7086 26.2075 29.6294 26.4768 29.4868 26.7145C29.3917 26.7145 29.2649 26.7145 29.1223 26.7145C28.6333 26.7187 28.1659 26.9158 27.8216 27.263C27.4774 27.6102 27.2843 28.0794 27.2843 28.5684C27.2838 28.8305 27.3354 29.0901 27.4361 29.3322C27.5367 29.5743 27.6844 29.794 27.8706 29.9785C27.0398 31.4099 26.0798 32.7624 25.0027 34.0189C24.6781 33.7324 24.2629 33.5698 23.8302 33.5594C23.3424 33.5756 22.8795 33.7788 22.5374 34.1268C22.1952 34.4749 22 34.9411 21.9921 35.4291C21.9881 35.876 22.1457 36.3092 22.4358 36.6491C21.0912 37.8741 19.6321 38.9671 18.0785 39.9131C17.7555 39.6243 17.3393 39.4612 16.906 39.4537C16.662 39.4536 16.4203 39.5022 16.1952 39.5966C15.9701 39.6909 15.7662 39.8291 15.5951 40.0032C15.424 40.1772 15.2892 40.3835 15.1987 40.6102C15.1083 40.8369 15.0638 41.0793 15.068 41.3233V41.4976L14.7987 41.5927C13.2076 42.284 11.5516 42.8148 9.85512 43.1772C9.77168 42.7369 9.52754 42.3433 9.17013 42.0729C8.81273 41.8026 8.36755 41.6747 7.92114 41.7142C7.47474 41.7537 7.05902 41.9578 6.75465 42.2867C6.45028 42.6156 6.27902 43.0459 6.2742 43.4941V43.7317C5.59288 43.7317 4.87987 43.7317 4.19854 43.7317C3.51722 43.7317 2.94681 43.7317 2.31302 43.7317L2.12289 43.7634ZM1.58413 22.072L1.9961 21.66L17.7616 5.73611L5.18091 18.4119C6.10802 18.648 7.06039 18.7703 8.01708 18.7763C14.9254 18.7763 19.5521 12.5969 21.4376 8.25542L22.7052 8.9684C22.7744 9.02053 22.8547 9.05623 22.9398 9.0727C23.0249 9.08917 23.1126 9.08599 23.1964 9.06347C23.2734 9.04489 23.3461 9.01131 23.4102 8.96458C23.4742 8.91786 23.5283 8.85895 23.5695 8.79123C23.6108 8.72351 23.6382 8.64831 23.6503 8.56996C23.6624 8.49161 23.6589 8.41162 23.64 8.33462L23.1489 5.89452L23.3706 5.65686L28.9797 11.3293C28.3766 12.1429 27.7202 12.9157 27.015 13.6426C26.6886 13.3977 26.2973 13.2544 25.89 13.2306C25.3969 13.2348 24.9253 13.4337 24.5781 13.7839C24.2309 14.134 24.0361 14.6072 24.0362 15.1003C24.0536 15.4485 24.1454 15.7888 24.3055 16.0985C22.7729 17.3405 21.1037 18.4037 19.3302 19.2675C19.1573 19.052 18.9376 18.8788 18.6878 18.7607C18.438 18.6427 18.1647 18.583 17.8884 18.5862C17.4008 18.5944 16.9357 18.7929 16.5923 19.1392C16.2489 19.4855 16.0544 19.9523 16.0504 20.44C16.0549 20.5192 16.0549 20.5985 16.0504 20.6777C15.0205 21.0421 13.943 21.359 12.8814 21.6284C12.3427 21.771 11.7248 21.8502 11.1385 21.9452C10.9916 21.5813 10.7302 21.2752 10.3938 21.0731C10.0574 20.871 9.66437 20.7839 9.2741 20.8251C8.88382 20.8663 8.51752 21.0334 8.23071 21.3013C7.94389 21.5692 7.75213 21.9231 7.6844 22.3097C7.24635 22.3334 6.80731 22.3334 6.36926 22.3097C5.91007 22.3334 5.44997 22.3334 4.99078 22.3097C4.5246 22.3038 4.05909 22.2721 3.59644 22.2146C3.10525 22.2146 2.64575 22.1195 2.20209 22.0403C1.98816 22.0301 1.77587 21.9983 1.56836 21.9452L1.58413 22.072Z" fill="#0C3E96"/>
<path d="M16.5894 45.6172H5.9893C4.85548 45.6182 3.74892 45.2696 2.82036 44.619H3.50167C4.25317 45.0003 5.08329 45.201 5.92596 45.2053H7.05087C7.28446 45.3314 7.54595 45.3968 7.81139 45.3954C8.07787 45.4061 8.34189 45.3401 8.572 45.2053H35.1911C35.8818 45.2012 36.5649 45.0602 37.2008 44.7907C37.8367 44.5211 38.4129 44.1282 38.8961 43.6347C39.3793 43.1411 39.76 42.5567 40.0161 41.9153C40.2722 41.2738 40.3987 40.5879 40.3882 39.8973C40.3989 38.6557 39.9726 37.4498 39.184 36.4907L35.6348 32.1809C35.5849 32.1284 35.5517 32.0622 35.5396 31.9908C35.5168 31.9024 35.5168 31.8098 35.5396 31.7214C35.5305 31.6232 35.5427 31.5242 35.5755 31.4312C35.6084 31.3381 35.6611 31.2534 35.7299 31.1827C35.8483 31.0195 36.0235 30.9064 36.2211 30.8658C37.4687 30.678 38.6 30.0275 39.39 29.0437C40.0261 28.2986 40.4428 27.3916 40.5938 26.4236C40.7449 25.4557 40.6244 24.4649 40.2456 23.5614C39.9726 22.9253 39.592 22.3411 39.1206 21.8343C37.5361 20.2499 35.1278 17.9682 32.656 15.5756V15.0686V14.7042L39.4375 21.5649C40.4593 22.6555 41.0261 24.0951 41.022 25.5895C41.032 26.9517 40.5543 28.2725 39.6752 29.313C38.8161 30.3573 37.6042 31.0506 36.2685 31.2619C36.2235 31.2684 36.1804 31.2844 36.1421 31.3091C36.1039 31.3337 36.0713 31.3662 36.0467 31.4045C36.0004 31.443 35.9636 31.4916 35.9389 31.5465C35.9142 31.6014 35.9023 31.6612 35.9041 31.7214C35.9041 31.7214 35.9041 31.8165 35.9041 31.864C35.9041 31.9116 35.9041 31.864 35.9992 31.9908L39.5008 36.253C39.8948 36.7801 40.2098 37.362 40.4357 37.9801C40.6523 38.6067 40.7595 39.266 40.7526 39.929C40.7592 41.4286 40.1923 42.874 39.1682 43.9694C38.6555 44.4979 38.0424 44.9187 37.3649 45.2071C36.6874 45.4955 35.9592 45.6458 35.2228 45.6489L16.5894 45.6172ZM1.85385 43.7634C0.900113 42.7021 0.37493 41.3242 0.380306 39.8973C0.39151 39.237 0.492702 38.5813 0.681263 37.9484C0.929889 37.328 1.26605 36.7464 1.67949 36.2213L5.13372 32.0066C5.13372 32.0066 5.13372 31.9116 5.13372 31.8799C5.14378 31.8575 5.14891 31.8331 5.14891 31.8086C5.14891 31.784 5.14378 31.7597 5.13372 31.7373C5.13143 31.625 5.09846 31.5154 5.03856 31.4204C4.94349 31.4204 4.8643 31.2778 4.76923 31.2778C3.43889 31.0765 2.23355 30.3805 1.39429 29.3289C0.501653 28.2929 0.00735859 26.9728 0 25.6053C0.0147477 24.8592 0.170674 24.1227 0.45951 23.4346C0.539409 23.2114 0.64582 22.9987 0.776424 22.8008L1.17254 22.8959C1.03559 23.1144 0.913764 23.342 0.808048 23.5772C0.540328 24.2195 0.405576 24.9095 0.41193 25.6053C0.414223 26.8673 0.856989 28.089 1.66372 29.0595C2.46826 30.0262 3.5925 30.6726 4.83267 30.8817C5.02319 30.9384 5.19357 31.0483 5.32385 31.1985C5.43114 31.3583 5.4915 31.545 5.49812 31.7373C5.49812 31.8323 5.49812 31.9115 5.49812 32.0066C5.46743 32.077 5.42449 32.1414 5.37134 32.1967L1.86962 36.5065C1.45397 36.9606 1.14544 37.502 0.966553 38.091C0.750264 38.6683 0.642799 39.2808 0.649639 39.8973C0.664877 41.313 1.2336 42.6666 2.23411 43.6684L2.32918 43.7634H1.9172H1.85385ZM1.36267 21.9611C1.5142 21.7856 1.67836 21.6214 1.85385 21.4699L17.5718 5.54596L17.8887 5.81529C16.3211 7.61234 14.6548 9.32094 12.8976 10.9332C12.4539 11.3927 11.9152 12.0264 11.424 12.5176C8.25509 15.6866 4.73757 19.0456 2.12319 21.7234L1.80627 22.0403L1.36267 21.9611ZM31.7211 14.7517C30.913 13.9278 30.1366 13.1672 29.2493 12.2958L29.6613 11.7571L31.7211 13.8486V14.7517ZM28.6631 11.7571C26.7297 9.89139 24.9147 7.90695 23.2284 5.81529L23.4977 5.54596L29.1226 11.2183C28.98 11.3926 28.8057 11.5669 28.6631 11.7571Z" fill="#0C3E96"/>
<path d="M1.04584 42.5592C0.606385 41.7352 0.377784 40.8153 0.380393 39.8814C0.391597 39.2211 0.492789 38.5654 0.68135 37.9325C0.929976 37.3121 1.26613 36.7306 1.67958 36.2054L4.0088 33.4009H4.15135C4.95024 33.8247 5.62688 34.4467 6.11617 35.2072C6.62551 35.9542 6.89621 36.8382 6.89255 37.7424C6.88805 38.3975 6.74444 39.0442 6.47129 39.6397C6.19814 40.2351 5.80168 40.7658 5.30808 41.1966C4.29555 42.1353 2.96524 42.656 1.58451 42.6543H1.14091H1.04584V42.5592ZM0.91906 41.149C1.00069 41.5449 1.13386 41.9285 1.31518 42.2898H1.63209C2.9071 42.297 4.13886 41.8281 5.08623 40.9747C5.51991 40.5675 5.86691 40.0769 6.1065 39.5324C6.34609 38.9879 6.47334 38.4006 6.48057 37.8058C6.47831 37.0009 6.25559 36.2121 5.83659 35.5249C5.41759 34.8378 4.81832 34.2786 4.10386 33.908L1.99649 36.4907C1.58084 36.9447 1.27222 37.4862 1.09333 38.0752C0.877039 38.6525 0.769671 39.2649 0.776511 39.8814C0.773377 40.3081 0.821197 40.7336 0.91906 41.149Z" fill="#0C3E96"/>
<path d="M21.311 0.475633L22.2459 2.69388L24.6226 2.93155C24.8338 2.96631 25.0248 3.07759 25.1593 3.24416C25.2937 3.41072 25.3621 3.62093 25.3514 3.83471C25.3491 3.94702 25.3163 4.05659 25.2564 4.15162C25.2077 4.24715 25.1301 4.32479 25.0346 4.37342L23.3234 5.95789L23.8145 8.30293C23.8409 8.4063 23.8432 8.51435 23.8212 8.61873C23.7992 8.72312 23.7535 8.82106 23.6878 8.90504C23.6372 8.99774 23.5671 9.07832 23.4822 9.14125C23.3974 9.20417 23.3 9.2479 23.1966 9.26943C22.9806 9.30486 22.7589 9.27161 22.5628 9.17437L20.5347 7.98602L18.4749 9.17437C18.2998 9.28251 18.0889 9.3167 17.8886 9.26943C17.7792 9.24634 17.6772 9.1967 17.5915 9.12486C17.5059 9.05301 17.4392 8.9612 17.3974 8.8575C17.1756 8.54061 17.2548 8.35044 17.3974 7.98602L17.8094 5.95789L16.0506 4.37342C15.9215 4.19854 15.8299 3.999 15.7812 3.78717C15.7982 3.57469 15.8751 3.37138 16.0031 3.20093C16.0962 3.10368 16.2102 3.02889 16.3365 2.98222C16.4627 2.93555 16.5979 2.91821 16.7319 2.93155L18.8869 2.69388L19.8692 0.475633C19.9622 0.282356 20.1256 0.13199 20.326 0.0553864C20.5263 -0.0212168 20.7484 -0.0182652 20.9466 0.063655C21.0399 0.100171 21.1181 0.167178 21.1685 0.253784C21.2451 0.315299 21.3095 0.390543 21.3586 0.475633H21.311ZM21.929 2.93155L20.9466 0.665762C20.9466 0.665762 20.9466 0.5707 20.8516 0.523165L20.7248 0.428101C20.6754 0.404244 20.6213 0.391835 20.5664 0.391835C20.5115 0.391835 20.4573 0.404244 20.4079 0.428101C20.3112 0.482591 20.2338 0.565585 20.1861 0.665762L19.1086 3.05833L16.5418 3.34352C16.4467 3.34352 16.415 3.34352 16.3675 3.34352C16.3423 3.34352 16.3181 3.35355 16.3003 3.37138C16.2825 3.3892 16.2724 3.41337 16.2724 3.43859C16.2299 3.47928 16.1965 3.52865 16.1747 3.58331C16.1528 3.63798 16.1429 3.69669 16.1456 3.7555C16.1444 3.80716 16.1553 3.85836 16.1773 3.90511C16.1993 3.95186 16.2318 3.99286 16.2724 4.02484C16.9538 4.5794 17.5717 5.21318 18.2055 5.79944L17.6668 8.38213V8.52473C17.6668 8.52473 17.6668 8.61983 17.6668 8.65152C17.6668 8.68321 17.841 8.84165 17.9361 8.84165C17.9855 8.8655 18.0397 8.87791 18.0946 8.87791C18.1495 8.87791 18.2036 8.8655 18.253 8.84165L20.4871 7.52655C21.2635 7.93852 21.9766 8.38215 22.7371 8.79411L22.8797 8.88918H23.054C23.1491 8.88918 23.2758 8.79412 23.3234 8.69905C23.3461 8.64933 23.3579 8.59528 23.3579 8.54059C23.3579 8.4859 23.3461 8.43185 23.3234 8.38213L22.7846 5.79944C23.4025 5.21318 24.0364 4.62693 24.7177 4.07237C24.7177 4.07237 24.7177 3.97732 24.7177 3.94563C24.7177 3.91394 24.7177 3.85057 24.7177 3.7555C24.7246 3.69898 24.7197 3.64163 24.7034 3.58708C24.687 3.53254 24.6595 3.48197 24.6226 3.43859C24.6226 3.34352 24.4483 3.31185 24.3532 3.31185L21.7547 3.02661L21.929 2.93155Z" fill="#0C3E96"/>
</svg>
