<svg viewBox="0 0 77 78" fill="none" xmlns="http://www.w3.org/2000/svg">
<path fill-rule="evenodd" clip-rule="evenodd" d="M11.6388 11.9438C15.1495 8.37166 19.3365 5.53448 23.9554 3.59776C28.5743 1.66104 33.5326 0.663574 38.5411 0.663574C43.5496 0.663574 48.508 1.66104 53.1269 3.59776C57.7458 5.53448 61.9327 8.37166 65.4434 11.9438C72.5964 19.179 76.6081 28.9429 76.6081 39.1171C76.6081 49.2913 72.5964 59.0552 65.4434 66.2904C61.9327 69.8625 57.7458 72.6998 53.1269 74.6365C48.508 76.5732 43.5496 77.5707 38.5411 77.5707C33.5326 77.5707 28.5743 76.5732 23.9554 74.6365C19.3365 72.6998 15.1495 69.8625 11.6388 66.2904C4.48581 59.0552 0.474121 49.2913 0.474121 39.1171C0.474121 28.9429 4.48581 19.179 11.6388 11.9438ZM28.387 74.5593C29.4781 73.4151 30.5072 72.2132 31.4697 70.9589C33.7805 71.43 36.1343 71.6578 38.4926 71.6385C41.3774 71.6625 44.2545 71.3365 47.0608 70.6676C46.5442 72.3008 45.9337 73.9027 45.2323 75.4655C43.0071 75.8562 40.7519 76.0511 38.4926 76.048C35.0709 76.0608 31.6659 75.5701 28.387 74.5917V74.5593ZM32.5215 69.5025C33.8748 67.4592 35.0677 65.3141 36.0896 63.0864C37.8072 63.3605 39.5447 63.4904 41.284 63.4748C43.8075 63.456 46.3228 63.185 48.7923 62.6657C48.404 64.8988 48.0237 66.9377 47.5382 68.8876C44.5879 69.6749 41.5461 70.0666 38.4926 70.0527C36.4879 70.0561 34.4878 69.8609 32.5215 69.4702V69.5025ZM36.656 61.6301C37.7259 58.7848 38.562 55.8569 39.156 52.8757C40.7209 53.0692 42.2962 53.1665 43.8731 53.167C45.8085 53.1582 47.7402 52.9959 49.6499 52.6815C49.5711 55.4773 49.347 58.267 48.9784 61.0394C46.4545 61.6349 43.8691 61.9309 41.2759 61.9214C39.7313 61.9211 38.1883 61.8238 36.656 61.6301V61.6301ZM39.4554 51.1928C40.0633 47.4646 40.3529 43.6914 40.3211 39.9141C39.5204 39.8822 38.735 39.6838 38.0152 39.3315C38.0958 39.7472 38.1283 40.1707 38.1123 40.5937C38.1123 43.8301 35.4099 46.3302 31.947 46.3302C30.5244 46.3747 29.1326 45.9103 28.0218 45.0204C26.9109 44.1306 26.154 42.8736 25.887 41.4756C21.9386 46.1441 19.0501 53.9194 19.0501 53.8223C18.3786 48.5713 16.0646 34.0886 27.8126 30.294L25.4986 31.1678C19.8349 33.5061 13.0791 43.3042 13.1761 43.3042C13.6616 37.9642 14.9076 21.2402 26.9307 20.949C28.1824 20.8652 29.4392 20.8977 30.6849 21.0461C27.9906 20.5606 26.162 20.1722 23.662 19.7839C20.0299 19.2543 16.3604 19.0243 12.6907 19.0962C18.5566 11.4179 39.7386 9.86445 46.2841 20.2694C54.9414 10.0586 64.2783 19.0961 65.3382 29.7923C65.3382 29.7923 63.3236 26.9767 54.367 26.2C67.8464 29.7923 65.0551 45.5454 62.4579 51.9614C62.4579 51.9614 56.7942 34.5579 48.4039 33.9753C49.4186 39.5799 49.8713 45.2717 49.7551 50.9662C47.8123 51.2766 45.8486 51.4389 43.8811 51.4517C42.4011 51.4511 40.9227 51.3538 39.4554 51.1605V51.1928ZM45.119 75.4655C45.0219 75.5626 45.022 75.6597 44.9249 75.7568C45.022 75.6597 45.0219 75.5626 45.119 75.4655Z" fill="#FF9900"/>
<path fill-rule="evenodd" clip-rule="evenodd" d="M11.6388 11.9438C15.1495 8.37166 19.3365 5.53448 23.9554 3.59776C28.5743 1.66104 33.5326 0.663574 38.5411 0.663574C43.5496 0.663574 48.508 1.66104 53.1269 3.59776C57.7458 5.53448 61.9327 8.37166 65.4434 11.9438C65.7347 12.2351 66.123 12.5263 66.4062 12.8176C69.8222 18.6948 71.6174 25.3732 71.6087 32.1711C71.6203 39.717 69.3702 47.0933 65.149 53.348C60.9277 59.6028 54.9289 64.449 47.9266 67.2613C48.2178 65.805 48.501 64.3486 48.7923 62.698C46.3227 63.2173 43.8074 63.4884 41.2839 63.5071C39.5447 63.5227 37.8072 63.3928 36.0896 63.1188C35.0677 65.3464 33.8748 67.4916 32.5215 69.5349C33.4438 69.7174 34.3758 69.8471 35.3128 69.9233H34.164C27.9695 69.9124 21.8752 68.3603 16.4302 65.4069C10.9852 62.4534 6.36067 58.1915 2.97349 53.0052C1.30463 48.5953 0.457302 43.9171 0.473397 39.2021C0.441933 34.1511 1.41257 29.1441 3.32912 24.4708C5.24567 19.7974 8.07006 15.5507 11.6388 11.9762V11.9438ZM36.6559 61.6301C37.7258 58.7848 38.562 55.8569 39.156 52.8757C40.7209 53.0692 42.2962 53.1665 43.873 53.167C45.8085 53.1582 47.7402 52.9959 49.6499 52.6815C49.5711 55.4773 49.347 58.267 48.9784 61.0394C46.4544 61.6349 43.8691 61.9309 41.2758 61.9214C39.7313 61.9211 38.1883 61.8238 36.6559 61.6301V61.6301ZM39.4554 51.1928C40.0633 47.4646 40.3529 43.6914 40.3211 39.9141C39.5204 39.8822 38.735 39.6838 38.0152 39.3315C38.0957 39.7472 38.1283 40.1707 38.1123 40.5937C38.1123 43.8301 35.4099 46.3302 31.947 46.3302C30.5244 46.3747 29.1326 45.9103 28.0218 45.0204C26.9109 44.1306 26.154 42.8736 25.8869 41.4756C21.9386 46.1441 19.0501 53.9194 19.0501 53.8223C18.3786 48.5713 16.0646 34.0886 27.8126 30.294L25.4986 31.1678C19.8349 33.5061 13.079 43.3042 13.1761 43.3042C13.6616 37.9642 14.9076 21.2402 26.9307 20.949C28.1824 20.8652 29.4391 20.8977 30.6848 21.0461C27.9906 20.5606 26.162 20.1722 23.6619 19.7839C20.0299 19.2543 16.3604 19.0243 12.6907 19.0962C18.5566 11.4179 39.7386 9.86445 46.2841 20.2694C54.9414 10.0586 64.2783 19.0961 65.3382 29.7923C65.3382 29.7923 63.3236 26.9767 54.367 26.2C67.8464 29.7923 65.055 45.5454 62.4579 51.9614C62.4579 51.9614 56.7942 34.5579 48.4039 33.9753C49.4186 39.5799 49.8713 45.2717 49.7551 50.9662C47.8123 51.2766 45.8486 51.4389 43.8811 51.4517C42.4011 51.4511 40.9227 51.3538 39.4554 51.1605V51.1928Z" fill="#FFAE00"/>
<path fill-rule="evenodd" clip-rule="evenodd" d="M11.6387 11.9439C15.133 8.36356 19.3101 5.52063 23.9227 3.58333C28.5352 1.64602 33.4895 0.653707 38.4924 0.665137C44.0031 0.675929 49.4471 1.8707 54.4558 4.16851C57.7832 8.56623 60.0033 13.7002 60.9285 19.1367C57.1743 15.0912 51.5916 14.088 46.3002 20.3099C39.7546 9.90498 18.5726 11.4584 12.7067 19.1367C16.3765 19.0648 20.0459 19.2948 23.678 19.8244C26.1781 20.2128 28.0066 20.6335 30.7009 21.0866C29.4552 20.9382 28.1984 20.9057 26.9467 20.9895C14.9155 21.2808 13.6695 37.9804 13.1922 43.3447C13.0951 43.3447 19.8348 33.5304 25.5146 31.2083L27.8286 30.3345C16.0806 34.1291 18.3946 48.6119 19.0662 53.8629C19.0662 53.96 21.9546 46.1846 25.903 41.5161C26.17 42.9142 26.927 44.1711 28.0378 45.0609C29.1486 45.9508 30.5405 46.4152 31.9631 46.3707C35.426 46.3707 38.1283 43.8463 38.1283 40.6342C38.1444 40.2112 38.1118 39.7877 38.0313 39.3721C38.7511 39.7243 39.5364 39.9227 40.3371 39.9546C40.3613 43.7189 40.0663 47.4784 39.4552 51.1929C40.9226 51.3862 42.4009 51.4835 43.881 51.4841C45.3292 51.4841 46.7694 51.3871 48.1206 51.29L45.5558 53.07C44.9732 53.07 44.4959 53.1671 43.9376 53.1671C42.3608 53.1665 40.7855 53.0693 39.2206 52.8758C38.9374 54.0409 38.7433 55.303 38.4115 56.3791C35.1185 57.4582 31.6742 58.0045 28.2089 57.9973C22.7521 57.9782 17.3848 56.6097 12.5851 54.0136C7.78542 51.4176 3.70239 47.6746 0.699785 43.1182C0.540594 41.7976 0.475711 40.4672 0.505611 39.1374C0.474147 34.0864 1.44478 29.0794 3.36133 24.4061C5.27788 19.7328 8.10227 15.486 11.6711 11.9115L11.6387 11.9439ZM61.2117 27.5027C61.1146 28.3118 61.0175 29.1209 60.9204 29.9299C59.1348 28.1014 56.8638 26.8213 54.3749 26.2405C56.701 26.345 59.0016 26.7697 61.2117 27.5027V27.5027ZM57.1662 40.8203C55.2737 44.2941 52.762 47.3926 49.755 49.963C49.8205 44.6162 49.368 39.2755 48.4038 34.0159C51.8748 34.2101 54.8765 37.317 57.1662 40.8203V40.8203Z" fill="#FFC00C"/>
<path fill-rule="evenodd" clip-rule="evenodd" d="M11.6387 11.9439C15.133 8.36356 19.3101 5.52063 23.9227 3.58333C28.5352 1.64602 33.4895 0.653707 38.4924 0.665137C39.9407 0.665137 41.3809 0.76222 42.7321 0.859311C45.732 5.31481 47.34 10.5614 47.352 15.9327C47.3511 17.1065 47.2537 18.2782 47.0607 19.4361C46.7694 19.7273 46.5752 20.0186 46.2921 20.3099C39.7465 9.90498 18.5645 11.4584 12.6986 19.1367C16.3684 19.0648 20.0378 19.2948 23.6699 19.8244C26.17 20.2128 27.9985 20.6335 30.6928 21.0866C29.4471 20.9382 28.1903 20.9057 26.9386 20.9895C16.0644 21.1837 13.9446 34.8897 13.2731 41.5C8.44875 39.999 4.14463 37.1697 0.853516 33.3362C2.06258 25.2337 5.84351 17.7342 11.6387 11.9439V11.9439ZM14.2359 41.7912C16.4528 38.8785 21.2669 32.9479 25.4984 31.1922L27.8124 30.3183C21.5501 32.3653 19.2442 37.4222 18.6616 42.568C17.1695 42.4005 15.6907 42.1302 14.2359 41.7589V41.7912ZM25.2072 42.2767C25.4984 41.9854 25.6926 41.6941 25.8868 41.4676C25.8868 41.6618 25.9758 41.856 25.9758 42.0502L25.2072 42.2767Z" fill="#FFD000"/>
</svg>
