<svg  viewBox="0 0 46 46" fill="none" xmlns="http://www.w3.org/2000/svg">
<path fill-rule="evenodd" clip-rule="evenodd" d="M6.63894 6.65425C8.72922 4.53987 11.217 2.85979 13.9592 1.7107C19.4847 -0.570234 25.6886 -0.570234 31.2141 1.7107C33.9687 2.86273 36.4715 4.54206 38.5819 6.65425C40.659 8.77744 42.3196 11.2712 43.4779 14.0062C44.5958 16.7757 45.1714 19.7342 45.1733 22.7208C45.1645 25.717 44.5893 28.6846 43.4779 31.4671C42.3141 34.2133 40.6544 36.7216 38.5819 38.8666C36.4798 40.9888 33.9748 42.6695 31.2141 43.8101C28.4805 44.9498 25.5483 45.5366 22.5867 45.5366C19.625 45.5366 16.6928 44.9498 13.9592 43.8101C11.2107 42.6728 8.72071 40.9912 6.63894 38.8666C4.52581 36.7481 2.85128 34.2336 1.71123 31.4671C0.594426 28.6856 0.0138073 25.7181 0 22.7208C0.00738107 19.7332 0.588309 16.7748 1.71123 14.0062C2.85128 11.2397 4.52581 8.7252 6.63894 6.60672V6.65425ZM22.5946 1.33044C27.8823 1.38622 32.9637 3.39002 36.8663 6.95835C40.7688 10.5267 43.2184 15.4089 43.7461 20.6705C44.2739 25.9321 42.8427 31.2035 39.7265 35.4758C36.6104 39.7481 32.0281 42.7212 26.8568 43.826L26.6825 44.1904C26.6825 44.1904 26.5874 44.2855 26.5399 44.2855C25.8858 44.4151 25.2243 44.5051 24.5593 44.5548C23.9077 44.6351 23.2509 44.6668 22.5946 44.6499C21.572 44.6596 20.55 44.5961 19.5365 44.4598C18.5335 44.306 17.5431 44.0783 16.5736 43.7785C16.5408 43.771 16.5106 43.7549 16.486 43.7319C16.4614 43.709 16.4434 43.6799 16.4337 43.6477C16.424 43.6155 16.4231 43.5813 16.431 43.5486C16.4388 43.5159 16.4552 43.4858 16.4785 43.4616L16.5736 43.3823C11.6759 41.8772 7.47675 38.6725 4.73251 34.3457C1.98827 30.0188 0.87937 24.8542 1.60558 19.7822C2.33179 14.7102 4.84536 10.0643 8.69349 6.68133C12.5416 3.29837 17.4713 1.4008 22.5946 1.33044V1.33044ZM14.1018 2.09101C11.4124 3.23279 8.96958 4.88462 6.9083 6.9553C4.85444 9.05026 3.23852 11.5334 2.15488 14.2597C1.00992 16.955 0.427605 19.8558 0.44365 22.7842C0.427351 25.728 1.00955 28.6443 2.15488 31.3562C3.25221 34.0738 4.87719 36.547 6.93593 38.6329C8.99467 40.7189 11.4464 42.3762 14.1493 43.5091C19.5844 45.7479 25.684 45.7479 31.119 43.5091C36.5826 41.2105 40.9127 36.8406 43.161 31.3562C44.241 28.6289 44.7792 25.7173 44.7455 22.7842C44.7558 19.8446 44.1859 16.9318 43.0684 14.2128C41.9509 11.4939 40.3078 9.02224 38.2333 6.93949C36.1814 4.87218 33.7496 3.22049 31.0715 2.07515C28.3879 0.935527 25.5022 0.348177 22.5867 0.348177C19.6711 0.348177 16.7854 0.935527 14.1018 2.07515V2.09101ZM17.651 42.8278L16.9697 43.5091C17.8309 43.7393 18.7036 43.9244 19.5841 44.0637C20.5817 44.2029 21.5873 44.277 22.5946 44.2855C23.2601 44.2855 23.8938 44.2855 24.5276 44.1904C25.1614 44.0953 25.7794 44.0637 26.3656 43.9211C26.5399 43.5566 26.7142 43.1447 26.9043 42.7486C27.0945 42.3525 27.1737 42.0197 27.3005 41.6077C26.5874 41.7503 25.8744 41.8771 25.1456 41.9721C24.2983 42.0618 23.4466 42.1041 22.5946 42.0989C21.8657 42.0989 21.2002 42.0989 20.4714 42.0197L18.5542 41.7503C18.2373 42.0989 17.9204 42.4633 17.651 42.8278V42.8278ZM20.2971 39.0726C19.9802 39.5638 19.7108 40.0708 19.3939 40.5145C19.8709 40.6032 20.3522 40.6667 20.8358 40.7046C21.4221 40.7046 22.0083 40.7046 22.5946 40.7046C23.4785 40.7053 24.3619 40.6577 25.2406 40.562C26.0963 40.4194 26.8251 40.2926 27.7124 40.1025C27.8392 39.5638 27.9818 39.025 28.061 38.518C28.197 37.9964 28.3028 37.4673 28.3779 36.9335L26.4448 37.2029C25.7318 37.2029 24.9713 37.298 24.2107 37.298C23.7195 37.298 23.165 37.298 22.6263 37.298L21.2002 37.1712C20.8833 37.8367 20.5664 38.518 20.2496 39.1201L20.2971 39.0726ZM22.4995 33.6695C22.2777 34.4459 22.0559 35.1589 21.7865 35.8402C22.1473 35.849 22.5072 35.8808 22.8639 35.9353C23.3076 35.9353 23.7512 35.9353 24.2107 35.9353C24.9735 35.9366 25.7357 35.889 26.4924 35.7927C27.1737 35.7927 27.8867 35.6184 28.568 35.4758C28.568 34.7469 28.7423 33.9864 28.7899 33.21C28.8374 32.4336 28.7899 31.7206 28.9166 30.9442C28.4296 31.0335 27.9374 31.0917 27.4431 31.1185C26.9043 31.1185 26.3181 31.1185 25.7318 31.1185C25.2673 31.142 24.802 31.142 24.3375 31.1185C23.9349 31.1158 23.5328 31.0893 23.1333 31.0393C22.9432 31.9424 22.7213 32.7981 22.4995 33.622V33.6695ZM23.7196 26.8246C23.6245 27.8545 23.4819 28.8211 23.3551 29.7717C23.7196 29.7717 24.0681 29.7717 24.4326 29.8509C24.797 29.9302 25.2882 29.8509 25.7318 29.8509C26.1755 29.8509 26.9043 29.8509 27.4431 29.8509C27.9743 29.8162 28.5032 29.7527 29.0275 29.6608C29.0275 27.8862 29.0275 26.1274 28.8532 24.4954C28.7498 22.9587 28.554 21.4296 28.267 19.9163V19.8213C28.27 19.7745 28.289 19.7301 28.3207 19.6955C28.3524 19.6609 28.3949 19.6382 28.4413 19.6311C32.8461 19.9163 35.9517 27.7594 36.7598 29.8509C36.8865 29.3914 37.0291 28.8844 37.1559 28.3932C37.8124 26.1239 37.9531 23.7365 37.5678 21.4057C37.3632 20.1667 36.8411 19.0017 36.0525 18.0243C35.2639 17.0469 34.2357 16.2904 33.0679 15.8284L31.943 15.4164C31.899 15.4101 31.8583 15.3896 31.8269 15.3582C31.7955 15.3268 31.775 15.2861 31.7687 15.2421C31.7687 15.0995 31.9113 15.0044 31.9905 15.052C34.1757 15.0666 36.3122 15.6982 38.1541 16.8741C37.9105 15.1757 37.2936 13.5523 36.3478 12.1207C35.6826 11.1024 34.7509 10.2858 33.6542 9.75985C32.6032 9.28883 31.4106 9.24337 30.3268 9.63306C29.1654 10.1289 28.1467 10.9079 27.3638 11.8989V11.8989C27.3264 11.9312 27.2786 11.949 27.2292 11.949C27.1797 11.949 27.1319 11.9312 27.0945 11.8989C26.6253 11.1711 26.0359 10.5281 25.3516 9.99751C23.0382 8.36903 20.2566 7.54012 17.4292 7.63666C14.6522 7.58966 11.9144 8.29597 9.50683 9.6806C8.97153 10.0179 8.48618 10.4286 8.06496 10.9007C10.0952 10.8895 12.1234 11.0271 14.1335 11.3126C14.8465 11.4394 15.4803 11.5344 16.0982 11.6612C16.7162 11.7879 17.445 11.8989 18.2214 12.0732V12.2633V12.4217L17.3183 12.2792H16.0665C9.58606 12.4693 8.55615 20.8987 8.14419 24.5271C9.22163 23.0377 12.3113 19.0448 15.0525 17.904C15.4916 17.7278 15.9414 17.5796 16.3993 17.4604C16.4944 17.4604 16.6211 17.4604 16.6211 17.5554C16.6338 17.5811 16.6405 17.6093 16.6408 17.6379C16.6411 17.6665 16.6349 17.6948 16.6227 17.7207C16.6105 17.7466 16.5927 17.7694 16.5704 17.7874C16.5482 17.8055 16.5222 17.8182 16.4944 17.8248V17.8248C10.2991 19.8688 10.9645 27.2049 11.4557 30.7066C12.393 28.3233 13.6511 26.079 15.1951 24.0359C15.1951 24.0359 15.1951 24.0359 15.3218 24.0359C15.4486 24.0359 15.4961 24.036 15.5437 24.1786C15.6676 24.9439 16.0679 25.6373 16.6686 26.1274C17.3182 26.6146 18.1067 26.8812 18.9186 26.888C19.8188 26.8945 20.687 26.554 21.3428 25.9373C21.6571 25.6604 21.9076 25.3188 22.0772 24.9358C22.2468 24.5529 22.3314 24.1378 22.3252 23.719V23.3546C22.3384 23.2335 22.3384 23.1113 22.3252 22.9902C22.3107 22.9492 22.3107 22.9044 22.3252 22.8634C22.3491 22.8158 22.3905 22.7794 22.4407 22.7616C22.491 22.7439 22.5461 22.7463 22.5946 22.7683L23.2284 23.0377C23.4503 23.0993 23.6794 23.1313 23.9097 23.1328C23.9536 23.1392 23.9944 23.1596 24.0258 23.191C24.0572 23.2224 24.0776 23.2631 24.084 23.3071C24.084 24.5746 24.084 25.763 23.9572 26.8563L23.7196 26.8246Z" fill="#0C3E96"/>
</svg>
