<svg width="254" height="50" viewBox="0 0 254 50" fill="none" xmlns="http://www.w3.org/2000/svg">
<path fill-rule="evenodd" clip-rule="evenodd" d="M252.684 24.8256H233.561C233.432 26.0135 233.671 27.2123 234.244 28.2593C234.595 28.8077 235.082 29.2546 235.658 29.5557C236.233 29.8569 236.877 30.0018 237.526 29.9761H237.679H250.377C249.009 31.6669 247.311 33.0576 245.387 34.0622C242.549 35.3211 239.462 35.9085 236.363 35.7791C233.785 35.9242 231.209 35.4351 228.861 34.3541C227.1 33.3153 225.721 31.7311 224.931 29.8388C224.038 27.5025 223.836 24.9566 224.35 22.5078C224.907 18.7398 226.8 15.301 229.682 12.8248C232.774 10.3151 236.663 9.01052 240.636 9.15075C243.451 8.98376 246.26 9.57654 248.77 10.8676C250.623 11.926 252.009 13.6495 252.65 15.6919C253.38 18.3515 253.462 21.1488 252.889 23.8469L252.701 24.9286L252.684 24.8256ZM243.814 20.1557C244.068 18.745 243.794 17.2901 243.045 16.0696C242.675 15.6557 242.217 15.33 241.706 15.1162C241.195 14.9023 240.642 14.8058 240.089 14.8335C239.33 14.8387 238.581 15.0086 237.894 15.3316C237.207 15.6546 236.597 16.1231 236.107 16.7049C235.304 17.7166 234.722 18.8864 234.398 20.1386H243.814V20.1557Z" fill="#34398A"/>
<path fill-rule="evenodd" clip-rule="evenodd" d="M29.7884 0H36.6241L33.0525 20.9284C32.7146 22.9709 32.057 24.9468 31.1043 26.7828C30.1772 28.6272 28.8933 30.2673 27.3276 31.6072C25.9434 32.8709 24.3306 33.8559 22.5767 34.5086C20.142 35.3211 17.5885 35.7157 15.0233 35.6761C13.2119 35.6826 11.4021 35.5678 9.60597 35.3327C7.95652 35.1983 6.35447 34.7125 4.90642 33.9077C3.65629 33.1635 2.59238 32.1416 1.79619 30.9204C0.962234 29.6985 0.4185 28.3006 0.20687 26.8343C-0.0689567 24.8754 -0.0689567 22.8873 0.20687 20.9284L3.79563 0.0515033H14.3568L11.9814 13.9065C11.5029 16.5676 10.7681 19.7094 10.5801 22.2675C10.4059 23.5476 10.717 24.8467 11.4516 25.9072C11.9635 26.4539 12.5882 26.8817 13.2819 27.1604C13.9756 27.4392 14.7216 27.5623 15.4676 27.5211C17.1374 27.5847 18.7687 27.0077 20.0304 25.9072C21.3069 24.7356 22.13 23.1485 22.3546 21.4263L25.4477 3.4852C25.741 2.53594 26.3151 1.69889 27.0935 1.0855C27.872 0.472106 28.818 0.111456 29.8055 0.0515033L29.7884 0Z" fill="#4EAE3B"/>
<path fill-rule="evenodd" clip-rule="evenodd" d="M9.84521 35.3327C13.9979 34.8004 16.4759 31.3152 17.5867 27.2292C18.488 26.987 19.3196 26.534 20.0133 25.9072C21.0196 25.0204 21.7445 23.8563 22.0982 22.5593L21.4147 26.1476C21.4147 26.3364 21.4147 26.5425 21.3121 26.6798C20.7928 29.1075 19.4616 31.2833 17.5401 32.8451C15.6186 34.4069 13.2226 35.2606 10.7509 35.264C10.4496 35.2909 10.1465 35.2909 9.84521 35.264V35.3327Z" fill="#258711"/>
<path fill-rule="evenodd" clip-rule="evenodd" d="M89.1389 0H106.724C110.552 0 113.263 0.932828 114.858 2.79847C116.465 4.66983 116.943 7.31375 116.362 10.8161C115.911 14.0518 114.293 17.0085 111.816 19.1256C108.923 21.2685 105.374 22.3256 101.785 22.113H95.9747L93.736 35.0924H83.1748L85.9945 18.5763C86.2863 17.6075 86.8642 16.7505 87.6515 16.119C88.4389 15.4874 89.3986 15.111 90.4036 15.0396H99.854C101.428 15.1668 103.002 14.788 104.348 13.958C104.805 13.6297 105.191 13.213 105.485 12.7324C105.778 12.2517 105.973 11.7169 106.057 11.1595C106.172 10.6767 106.177 10.1739 106.07 9.68917C105.964 9.20441 105.749 8.75028 105.442 8.36104C104.92 7.91037 104.309 7.57626 103.649 7.3809C102.989 7.18555 102.296 7.1334 101.614 7.22791H87.9427L89.1561 0.0515033L89.1389 0Z" fill="#34398A"/>
<path fill-rule="evenodd" clip-rule="evenodd" d="M91.019 1.32196C98.2478 1.90569 121.489 1.0301 114.038 16.7736C113.878 17.0151 113.701 17.2446 113.508 17.4603C113.264 17.7568 113.002 18.0378 112.722 18.3016L112.637 18.4046C112.346 18.6965 112.107 18.8853 111.817 19.1428C110.595 20.1041 109.212 20.8369 107.732 21.3061C112.107 17.8724 110.928 7.03908 102.213 7.1936H90.0107L90.9677 1.33915L91.019 1.32196Z" fill="#0E125E"/>
<path fill-rule="evenodd" clip-rule="evenodd" d="M40.6913 9.68297H58.5154C59.6033 9.59936 60.6954 9.77864 61.7003 10.2058C62.7052 10.6329 63.5937 11.2954 64.2916 12.1381C65.5049 13.7176 65.8296 16.2242 65.2486 19.5548L62.6681 35.0923H53.081L55.3539 21.7181C55.6877 20.5773 55.584 19.3522 55.0633 18.2844C54.7971 17.9412 54.4498 17.6704 54.0528 17.4965C53.6559 17.3226 53.2219 17.2511 52.7905 17.2886H48.9966L48.0225 22.9027C48.0225 23.0916 48.0226 23.2461 47.9371 23.4349L46.5358 31.5041C46.2569 32.4739 45.6872 33.3338 44.9044 33.9666C44.1216 34.5995 43.1636 34.9746 42.1609 35.0408H36.4531L40.7596 9.63147L40.6913 9.68297Z" fill="#54B03D"/>
<path fill-rule="evenodd" clip-rule="evenodd" d="M182.686 9.63147H205.637L205.004 13.5116C204.944 14.1209 204.745 14.7081 204.423 15.2284C204.174 15.6904 203.851 16.108 203.466 16.4645L189.949 28.4825H203.21L202.048 35.1095H177.354L177.935 31.6758L178.226 29.959C178.475 29.0658 178.98 28.2658 179.678 27.6584L192.512 16.2928H181.524L182.686 9.63147Z" fill="#34398A"/>
<path fill-rule="evenodd" clip-rule="evenodd" d="M77.7579 0H83.4658L82.2183 7.17641H72.7166L72.9046 6.09478L73.3489 3.5367C73.623 2.55781 74.1959 1.68997 74.9869 1.05548C75.7779 0.420988 76.7471 0.0518398 77.7579 0ZM76.049 9.63148H81.7739L77.4162 35.0924H67.9658L71.6913 13.3227V13.2197C71.9677 12.2376 72.5399 11.3655 73.3293 10.7231C74.1187 10.0806 75.0866 9.69929 76.1003 9.63148H76.049Z" fill="#54B03D"/>
<path fill-rule="evenodd" clip-rule="evenodd" d="M216.779 0H222.504L216.471 35.0924H206.936L212.302 3.63971C212.571 2.65381 213.141 1.77754 213.932 1.13396C214.723 0.490385 215.695 0.111833 216.711 0.0515033L216.779 0Z" fill="#34398A"/>
<path fill-rule="evenodd" clip-rule="evenodd" d="M143.979 35.0924H126.104C125.022 35.1836 123.935 35.0075 122.937 34.5796C121.94 34.1516 121.061 33.4848 120.379 32.6373C119.165 31.0578 118.841 28.6027 119.422 25.2205L122.036 9.68298H131.623L129.316 23.0572C129.135 23.6202 129.067 24.2139 129.117 24.8035C129.167 25.3931 129.334 25.9668 129.607 26.4909C129.874 26.8322 130.222 27.1006 130.619 27.2715C131.016 27.4425 131.45 27.5106 131.88 27.4695H135.708L136.682 21.8726C136.682 21.6838 136.682 21.4777 136.767 21.2889L138.134 13.2712C138.415 12.2962 138.99 11.4325 139.78 10.7992C140.569 10.1658 141.535 9.79385 142.544 9.73449H148.251L143.945 35.1439L143.979 35.0924Z" fill="#34398A"/>
<path fill-rule="evenodd" clip-rule="evenodd" d="M89.1391 0H106.724C110.552 0 113.263 0.932828 114.858 2.79847C116.465 4.66983 116.943 7.31375 116.362 10.8161C116.009 13.1822 115.056 15.4171 113.594 17.3058C113.892 16.1186 113.92 14.879 113.676 13.6793C113.431 12.4797 112.92 11.3511 112.181 10.3774C111.442 9.40377 110.493 8.61028 109.407 8.05605C108.32 7.50181 107.122 7.20111 105.904 7.17641H87.8745L89.0878 0H89.1391Z" fill="#0598F5"/>
<path fill-rule="evenodd" clip-rule="evenodd" d="M153.993 9.63147H177.012L176.329 13.5116C176.286 14.1171 176.105 14.7046 175.799 15.2284C175.515 15.6806 175.176 16.0958 174.791 16.4645L161.273 28.4825H174.534L173.424 35.1095H148.678L149.259 31.6758L149.601 29.959C149.83 29.0569 150.339 28.2513 151.054 27.6584L163.836 16.2928H152.831L153.993 9.63147Z" fill="#34398A"/>
<path d="M3.59071 45.3247L2.00142 41.891H0.39502L2.85588 47.2304V49.737H4.3939V47.2304L6.8206 41.8223H5.23129L3.59071 45.3247ZM23.4485 45.8054C23.4485 43.1615 21.9446 41.6335 20.0306 41.6335C18.1166 41.6335 16.6127 43.1615 16.6127 45.8054C16.6127 48.4494 18.1166 49.9945 20.0306 49.9945C21.9446 49.9945 23.4485 48.4665 23.4485 45.8054ZM21.8591 45.8054C21.8591 47.7798 21.0218 48.6039 20.1502 48.6039C19.2787 48.6039 18.4413 47.7798 18.4413 45.8054C18.4413 43.8311 19.2616 42.9555 20.1502 42.9555C21.0389 42.9555 21.8591 43.7967 21.8591 45.8054ZM35.9065 41.8223H34.4027V47.1789C34.3924 47.5603 34.4614 47.9397 34.6051 48.2928C34.7489 48.6459 34.9643 48.9651 35.2376 49.23C35.5109 49.4949 35.8361 49.6996 36.1926 49.8313C36.549 49.9629 36.9288 50.0185 37.3079 49.9945C37.6863 50.0159 38.065 49.9585 38.4202 49.8259C38.7755 49.6934 39.0997 49.4884 39.3725 49.2241C39.6452 48.9597 39.8607 48.6416 40.0053 48.2897C40.15 47.9378 40.2207 47.5596 40.213 47.1789V41.8223H38.7434V47.1789C38.7735 47.367 38.7599 47.5594 38.7038 47.7413C38.6477 47.9232 38.5505 48.0896 38.4198 48.2275C38.2891 48.3654 38.1285 48.4712 37.9504 48.5365C37.7724 48.6018 37.5817 48.6248 37.3933 48.6039C37.2031 48.623 37.011 48.5992 36.8312 48.5341C36.6513 48.469 36.4882 48.3642 36.3539 48.2276C36.2195 48.091 36.1173 47.9259 36.0547 47.7445C35.9921 47.563 35.9706 47.3698 35.992 47.1789V41.8223H35.9065ZM51.6457 41.8223V49.737H53.2009V47.0416H54.4484L56.0035 49.737H57.7125L56.0035 46.7497C56.406 46.5347 56.7361 46.2046 56.952 45.8013C57.168 45.398 57.2601 44.9394 57.2169 44.4835C57.2388 44.1246 57.1825 43.7653 57.0519 43.4305C56.9214 43.0958 56.7198 42.7936 56.4611 42.5451C56.2024 42.2967 55.8929 42.1079 55.5541 41.992C55.2154 41.8761 54.8555 41.8357 54.4997 41.8738L51.6457 41.8223ZM53.2009 43.1615H54.4484C54.7481 43.2111 55.0205 43.3662 55.2171 43.5989C55.4136 43.8316 55.5215 44.1268 55.5215 44.432C55.5215 44.7372 55.4136 45.0324 55.2171 45.2651C55.0205 45.4978 54.7481 45.6528 54.4484 45.7024H53.2009V43.1615ZM88.7978 48.6039L90.1137 44.8783L90.558 49.737H92.1473L91.4296 41.8223H89.7206L88.3022 46.2003L86.7471 41.8223H85.0382L84.3205 49.737H85.9098L86.4054 44.8783L87.7212 48.6039H88.7978ZM104.879 41.8223H103.324V49.737H104.879V41.8223ZM120.618 46.6982L118.003 41.8223H116.294V49.737H117.85V44.8783L120.464 49.737H122.173V41.8223H120.618V46.6982ZM139.519 45.8054C139.519 43.2988 138.117 41.8223 136.101 41.8223H133.64V49.737H136.152C136.646 49.7423 137.135 49.64 137.586 49.4372C138.036 49.2344 138.438 48.9359 138.763 48.5623C139.087 48.1886 139.328 47.7487 139.467 47.2728C139.607 46.7969 139.642 46.2963 139.57 45.8054H139.519ZM136.101 43.1615C137.075 43.1615 137.81 43.9341 137.81 45.8054C137.81 47.6768 137.041 48.4666 136.101 48.4666H135.178V43.1615H136.101ZM166.622 41.8223V49.737H168.177V47.0416H169.442L170.98 49.737H172.689L170.98 46.7497C171.383 46.5347 171.713 46.2046 171.929 45.8013C172.145 45.398 172.237 44.9394 172.193 44.4835C172.215 44.1262 172.159 43.7685 172.03 43.4351C171.9 43.1017 171.7 42.8004 171.443 42.5523C171.186 42.3041 170.879 42.115 170.542 41.9979C170.206 41.8807 169.848 41.8384 169.493 41.8738L166.622 41.8223ZM168.177 43.1615H169.442C169.742 43.2111 170.014 43.3662 170.211 43.5989C170.407 43.8316 170.515 44.1268 170.515 44.432C170.515 44.7372 170.407 45.0324 170.211 45.2651C170.014 45.4978 169.742 45.6528 169.442 45.7024H168.177V43.1615ZM183.336 49.737H188.462V48.4666H184.874V46.4407H187.42V45.1702H185.045V43.1615H188.582V41.8223H183.455L183.336 49.737ZM200.425 43.9856C200.426 43.8388 200.459 43.6939 200.519 43.5604C200.58 43.4269 200.668 43.3077 200.778 43.2105C200.887 43.1134 201.016 43.0405 201.155 42.9965C201.295 42.9526 201.442 42.9386 201.587 42.9555C202.159 42.9741 202.705 43.1997 203.125 43.5907L203.706 42.5091C203.417 42.2152 203.07 41.9854 202.688 41.8346C202.305 41.6838 201.895 41.6153 201.485 41.6335C201.153 41.6004 200.819 41.636 200.502 41.7382C200.185 41.8405 199.893 42.007 199.643 42.2276C199.393 42.4482 199.191 42.7181 199.049 43.0205C198.907 43.323 198.829 43.6514 198.819 43.9856C198.819 46.7497 202.236 46.0115 202.236 47.4193C202.236 48.106 201.758 48.5867 200.733 48.5867C200.412 48.5885 200.095 48.5239 199.801 48.3969C199.507 48.2699 199.243 48.0831 199.024 47.8485L198.34 48.9301C198.647 49.2683 199.022 49.5368 199.441 49.7174C199.859 49.898 200.311 49.9866 200.767 49.9774C201.135 50.0254 201.508 49.9958 201.864 49.8904C202.22 49.7851 202.55 49.6063 202.833 49.3656C203.116 49.1248 203.346 48.8273 203.508 48.4922C203.67 48.1571 203.761 47.7916 203.774 47.4193C203.774 44.7582 200.357 45.4449 200.357 43.9856H200.425ZM220.932 45.8054C220.932 43.1615 219.428 41.6335 217.514 41.6335C215.6 41.6335 214.096 43.1615 214.096 45.8054C214.096 48.4494 215.6 49.9945 217.514 49.9945C219.428 49.9945 220.932 48.4665 220.932 45.8054ZM219.343 45.8054C219.343 47.7798 218.523 48.6039 217.548 48.6039C216.574 48.6039 215.839 47.7798 215.839 45.8054C215.839 43.8311 216.66 42.9555 217.548 42.9555C218.437 42.9555 219.343 43.7967 219.343 45.8054ZM231.886 41.8223V49.737H233.441V47.0416H234.689L236.244 49.737H237.953L236.244 46.7497C236.647 46.5347 236.977 46.2046 237.193 45.8013C237.408 45.398 237.501 44.9394 237.457 44.4835C237.482 44.1239 237.428 43.7632 237.299 43.427C237.169 43.0908 236.968 42.7874 236.708 42.5383C236.449 42.2892 236.138 42.1005 235.798 41.9857C235.458 41.8708 235.097 41.8326 234.74 41.8738L231.886 41.8223ZM233.441 43.1615H234.689C235.024 43.1615 235.346 43.2954 235.583 43.5336C235.82 43.7719 235.954 44.095 235.954 44.432C235.954 44.7689 235.82 45.0921 235.583 45.3303C235.346 45.5686 235.024 45.7024 234.689 45.7024H233.441V43.1615ZM247.865 41.8223V43.1615H249.813V49.737H251.351V43.1615H253.35V41.8223H247.865Z" fill="#34398A"/>
<path fill-rule="evenodd" clip-rule="evenodd" d="M29.7884 0H36.6241L33.0524 20.9284C32.7145 22.9709 32.057 24.9468 31.1042 26.7828C30.1772 28.6272 28.8932 30.2673 27.3275 31.6072C25.9434 32.8709 24.3305 33.8559 22.5767 34.5086C20.142 35.3211 17.5884 35.7157 15.0232 35.6761C13.2119 35.6826 11.4021 35.5678 9.60593 35.3327C9.45213 35.3327 9.31542 35.3327 9.16162 35.3327C9.69139 35.3327 10.2211 35.4357 10.7509 35.4357C13.2226 35.4323 15.6185 34.5786 17.54 33.0168C19.4616 31.455 20.7928 29.2791 21.3121 26.8515C21.3121 26.7141 21.3121 26.5081 21.4146 26.3192L22.0982 22.731L22.8672 18.6449L25.4306 3.60539C25.7281 2.65861 26.3033 1.82417 27.0809 1.21145C27.8585 0.598742 28.8022 0.236346 29.7884 0.171695V0Z" fill="#A1D154"/>
</svg>
