<?xml version="1.0" encoding="utf-8"?>
<!-- Generator: Adobe Illustrator 16.0.0, SVG Export Plug-In . SVG Version: 6.00 Build 0)  -->
<!DOCTYPE svg PUBLIC "-//W3C//DTD SVG 1.1//EN" "http://www.w3.org/Graphics/SVG/1.1/DTD/svg11.dtd">
<svg version="1.1" id="Layer_1" xmlns="http://www.w3.org/2000/svg" xmlns:xlink="http://www.w3.org/1999/xlink" x="0px" y="0px"
	 width="108.17px" height="36.99px" viewBox="0 0 108.17 36.99" enable-background="new 0 0 108.17 36.99" xml:space="preserve">
<path fill-rule="evenodd" clip-rule="evenodd" fill="#1B4EA6" d="M108.169,0H0v36.99h90.284c5.073-0.115,9.808-7.187,6.235-11.023
	c-2.041-2.176-5.811-1.889-7.313,0.602c-0.17,0.258-0.311,0.516-0.425,0.802l-1.219,2.29c-0.511,0.916-1.757,1.088-2.466,0.315
	l-3.969-4.237c-0.057-0.057-0.113-0.143-0.17-0.201c-0.624-0.744-0.595-1.86,0.142-2.547c2.353-2.205,4.706-4.496,7.03-6.7
	c0.766-0.744,0.595-2.004-0.313-2.519l-1.304-0.688c-1.843-1.031-3.345-1.66-3.742-4.094c-0.652-3.809,3.288-6.786,6.747-5.012
	c2.013,1.031,2.495,3.035,3.373,4.982c0.425,0.945,1.673,1.203,2.438,0.486l4.733-4.523c1.077-1.002,2.268-2.348,3.373-3.234
	c1.247-1.031,2.863-1.661,4.593-1.689H108.169z"/>
</svg>
