<?xml version="1.0" encoding="utf-8"?>
<!-- Generator: Adobe Illustrator 16.0.0, SVG Export Plug-In . SVG Version: 6.00 Build 0)  -->
<!DOCTYPE svg PUBLIC "-//W3C//DTD SVG 1.1//EN" "http://www.w3.org/Graphics/SVG/1.1/DTD/svg11.dtd">
<svg version="1.1" id="Layer_1" xmlns="http://www.w3.org/2000/svg" xmlns:xlink="http://www.w3.org/1999/xlink" x="0px" y="0px"
	  viewBox="0 0 16.074 14.186" enable-background="new 0 0 16.074 14.186" xml:space="preserve">
<path fill-rule="evenodd" clip-rule="evenodd" fill="#1B4EA6" d="M257.134,36.228L257.134,36.228L257.134,36.228v0.029l1.105,1.145
	l0.936,0.945c0.17-0.43,0.198-0.888,0.142-1.346c-0.085-0.487-0.312-0.974-0.681-1.346l-1.474-1.517l-0.737,0.744l0,0l0,0l0,0
	c-0.085,0.057-0.142,0.172-0.142,0.286c0,0.115,0.028,0.229,0.113,0.315l0,0l0,0l0,0l0.199,0.172l0.057,0.086l0,0L257.134,36.228z
	 M259.316,38.519l0.34,0.343l0.482-0.487c0.51-0.486,0.766-1.116,0.766-1.775c0-0.658-0.228-1.317-0.709-1.804l-1.247-1.317l0,0
	l-0.057-0.057l-0.199-0.201c-0.057-0.086-0.17-0.114-0.283-0.114s-0.227,0.028-0.312,0.114l-0.794,0.773l1.475,1.518
	c0.396,0.43,0.623,0.916,0.708,1.46C259.571,37.488,259.515,38.032,259.316,38.519L259.316,38.519z"/>
<path fill-rule="evenodd" clip-rule="evenodd" fill="#1B4EA6" d="M254.696,38.633l1.105,1.146l1.021,1.059l0.113,0.115l0,0v0.027
	l0.283,0.258l0.057,0.086l0.057,0.059l0.284,0.314l0.085,0.057l1.049,1.088l0.821,0.889l0,0l0,0l0,0l0,0l0,0l0,0
	c0.199,0.199,0.482,0.314,0.766,0.314c0.255,0,0.539-0.086,0.737-0.287l0,0l0,0l0,0l0.312-0.314l-6.35-6.642l-0.312,0.315
	c-0.198,0.2-0.313,0.458-0.313,0.744S254.498,38.404,254.696,38.633L254.696,38.633z M261.527,43.3l0.312-0.316l0,0l0,0l0,0
	c0.228-0.199,0.341-0.457,0.341-0.744c0-0.285-0.085-0.543-0.312-0.771l0,0l0,0l0,0l-4.876-5.097l0,0l0,0l0,0
	c-0.198-0.2-0.454-0.315-0.737-0.315s-0.538,0.086-0.766,0.286l0,0l0,0l0,0l-0.312,0.315L261.527,43.3z"/>
<path fill-rule="evenodd" clip-rule="evenodd" fill="#1B4EA6" d="M261.527,43.3l0.312-0.316l0,0l0,0l0,0
	c0.228-0.199,0.341-0.457,0.341-0.744c0-0.285-0.085-0.543-0.312-0.771l0,0l0,0l0,0l-4.876-5.097l0,0l0,0l0,0
	c-0.198-0.2-0.454-0.315-0.737-0.315s-0.538,0.086-0.766,0.286l0,0l0,0l0,0l-0.312,0.315L261.527,43.3z"/>
<path fill-rule="evenodd" clip-rule="evenodd" fill="#1B4EA6" d="M260.28,38.519l-0.481,0.486l0.312,0.344
	c0.51-0.172,1.049-0.229,1.559-0.114c0.511,0.085,0.992,0.372,1.39,0.773l1.474,1.518l0.794-0.773
	c0.085-0.086,0.113-0.2,0.113-0.286c0-0.114-0.028-0.229-0.113-0.315l-0.17-0.201l-0.085-0.057l0,0l-1.248-1.317
	c-0.481-0.487-1.105-0.745-1.757-0.773C261.414,37.803,260.762,38.032,260.28,38.519L260.28,38.519z"/>
<path fill-rule="evenodd" clip-rule="evenodd" fill="#1B4EA6" d="M257.077,41.382l-0.34-0.344c-0.482,0.172-1.021,0.229-1.531,0.113
	c-0.538-0.086-1.021-0.344-1.417-0.772l-1.446-1.518l-0.821,0.773c-0.057,0.086-0.113,0.201-0.113,0.287
	c0,0.114,0.028,0.229,0.113,0.314l0.198,0.201l0.057,0.057l0,0l1.247,1.316c0.482,0.488,1.105,0.746,1.758,0.773
	c0.651,0,1.304-0.229,1.814-0.715L257.077,41.382z M256.596,40.867l-2.041-2.119l-0.482-0.487l0,0l-0.057-0.086l-0.198-0.172
	c-0.085-0.086-0.17-0.143-0.283-0.143s-0.228,0.029-0.313,0.115l-0.736,0.744l1.445,1.517c0.368,0.401,0.822,0.631,1.304,0.744
	C255.688,41.066,256.142,41.039,256.596,40.867L256.596,40.867z"/>
<path fill-rule="evenodd" clip-rule="evenodd" fill="#1B4EA6" d="M256.596,40.867l-2.041-2.119l-0.482-0.487l0,0l-0.057-0.086
	l-0.198-0.172c-0.085-0.086-0.17-0.143-0.283-0.143s-0.228,0.029-0.313,0.115l-0.736,0.744l1.445,1.517
	c0.368,0.401,0.822,0.631,1.304,0.744C255.688,41.066,256.142,41.039,256.596,40.867L256.596,40.867z"/>
<path fill-rule="evenodd" clip-rule="evenodd" fill="#1B4EA6" d="M259.543,46.392l-1.474-1.518c-0.368-0.43-0.624-0.916-0.709-1.461
	c-0.085-0.516-0.028-1.059,0.17-1.545l-0.312-0.344l-0.51,0.486c-0.482,0.486-0.737,1.117-0.766,1.775
	c0,0.658,0.227,1.316,0.709,1.803l1.247,1.318l0,0l0.057,0.057l0.198,0.201c0.085,0.086,0.198,0.113,0.283,0.113
	c0.113,0,0.227-0.027,0.313-0.113L259.543,46.392z M259.43,43.843L259.43,43.843L259.43,43.843L259.43,43.843l-0.794-0.83
	l-0.935-0.973c-0.171,0.43-0.228,0.887-0.143,1.346c0.086,0.486,0.313,0.973,0.652,1.346l1.474,1.518l0.766-0.746
	c0.085-0.057,0.113-0.172,0.113-0.285c0-0.115-0.028-0.229-0.113-0.314l-0.17-0.172l-0.085-0.086l0,0l-0.482-0.488L259.43,43.843z"
	/>
<path fill-rule="evenodd" clip-rule="evenodd" fill="#1B4EA6" d="M259.43,43.843L259.43,43.843L259.43,43.843L259.43,43.843
	l-0.794-0.83l-0.935-0.973c-0.171,0.43-0.228,0.887-0.143,1.346c0.086,0.486,0.313,0.973,0.652,1.346l1.474,1.518l0.766-0.746
	c0.085-0.057,0.113-0.172,0.113-0.285c0-0.115-0.028-0.229-0.113-0.314l-0.17-0.172l-0.085-0.086l0,0l-0.482-0.488L259.43,43.843z"
	/>
<path fill-rule="evenodd" clip-rule="evenodd" fill="#1B4EA6" d="M256.652,35.741l0.481,0.516l1.105,1.145l0.936,0.945
	c0.17-0.43,0.198-0.888,0.142-1.346c-0.085-0.487-0.312-0.974-0.681-1.346l-1.474-1.517l-0.737,0.744l0,0l0,0l0,0
	c-0.085,0.057-0.142,0.172-0.142,0.286c0,0.115,0.028,0.229,0.113,0.315l0,0l0,0l0,0l0.199,0.172L256.652,35.741L256.652,35.741z"/>
<path fill-rule="evenodd" clip-rule="evenodd" fill="#1B4EA6" d="M262.038,41.324L262.038,41.324L262.038,41.324h-0.028l-0.794-0.83
	l-0.936-1.002c0.425-0.143,0.907-0.172,1.36-0.086c0.482,0.115,0.936,0.344,1.276,0.745l1.474,1.517l-0.766,0.744
	c-0.085,0.086-0.198,0.115-0.283,0.115c-0.113,0-0.227-0.057-0.312-0.115l-0.171-0.199l-0.057-0.059l0,0l-0.51-0.516L262.038,41.324
	z"/>
<g>
	<polygon fill-rule="evenodd" clip-rule="evenodd" fill="#1B4EA6" points="14.031,12.054 14.286,11.91 8.759,2.233 8.589,2.205 
		8.447,2.29 	"/>
	
		<rect x="5.577" y="6.869" transform="matrix(0.4954 0.8686 -0.8686 0.4954 11.7922 -6.0428)" fill-rule="evenodd" clip-rule="evenodd" fill="#1B4EA6" width="11.042" height="0.521"/>
	<path fill-rule="evenodd" clip-rule="evenodd" fill="#1B4EA6" d="M12.813,10.593c-0.17-0.373-0.396-0.859-0.681-1.375
		c-0.425-0.688-0.623-0.973-0.623-0.973L12.813,10.593L12.813,10.593z M9.014,3.894c0.199,0.286,1.758,2.978,1.899,3.292
		c0,0-0.057-0.086-0.142-0.229c-0.198-0.315-0.198-0.315-0.425-0.745c0,0-0.624-1.03-1.021-1.746
		C9.128,4.151,9.014,3.894,9.014,3.894L9.014,3.894z M10.715,6.757c-0.709-1.26-1.049-2.119-1.928-3.264
		C8.73,3.436,8.532,3.063,8.391,2.777c-0.113-0.2-0.198-0.343-0.198-0.343l0.085-0.058c0,0.029,0.481,0.974,0.538,1.088
		c0.369,0.487,0.907,1.346,1.361,2.147C10.432,6.098,10.262,5.84,10.715,6.757L10.715,6.757z M8.561,2.205
		c0.709,1.259,1.247,2.605,2.126,3.75c0.057,0.057,0.255,0.429,0.396,0.716c0.085,0.2,0.284,0.515,0.397,0.715
		c0.17,0.258,0.368,0.602,0.396,0.688c0.567,1.346,1.445,2.49,2.183,3.723l-0.113,0.057c-0.709-1.26-1.7-2.635-2.268-3.98
		c-0.057-0.143-0.992-1.66-1.077-1.774C9.751,4.924,9.185,3.521,8.476,2.262L8.561,2.205z M13.011,10.392
		c-0.51-0.801-1.36-2.203-1.956-3.234C10.46,6.098,9.553,4.38,9.439,4.123C10.715,6.413,11.679,8.13,13.011,10.392L13.011,10.392z
		 M9.326,3.894C9.1,3.464,8.844,3.063,8.589,2.663C8.504,2.52,8.476,2.462,8.419,2.376C8.532,2.462,8.9,3.121,9.326,3.894
		L9.326,3.894z M12.813,10.078c0.227,0.43,0.652,1.059,0.851,1.461c0.085,0.172,0.142,0.229,0.17,0.314
		C13.805,11.71,13.266,10.851,12.813,10.078L12.813,10.078z M8.561,2.749c0.142,0.257,0.936,1.575,1.105,1.89
		c0,0-0.368-0.544-0.481-0.688C8.985,3.636,8.532,2.806,8.306,2.405c0,0,0.057-0.057,0.057-0.029
		C8.447,2.491,8.561,2.749,8.561,2.749L8.561,2.749z M10.63,6.527c0.737,1.259,1.871,3.093,2.438,4.437
		c0.028,0.086,0.228,0.43,0.397,0.688c0.142,0.201,0.198,0.373,0.198,0.373l0.085-0.057c-0.028,0-0.596-0.889-0.652-1.004
		c-0.227-0.572-0.708-1.488-1.162-2.262C11.679,8.216,10.885,6.785,10.63,6.527L10.63,6.527z M13.578,11.539
		c-0.142-0.258-0.879-1.604-1.077-1.891c0,0,0.312,0.572,0.396,0.744c0.142,0.316,0.596,1.002,0.851,1.404
		c0,0,0.085,0.113,0.057,0.086C13.748,11.767,13.578,11.539,13.578,11.539L13.578,11.539z"/>
	<path fill-rule="evenodd" clip-rule="evenodd" fill="#1B4EA6" d="M14.599,13.113c0.651-0.373-0.198-1.289-0.426-1.432l-0.142,0.029
		l-0.453,0.258C13.55,11.968,13.833,13.57,14.599,13.113L14.599,13.113z"/>
	<path fill-rule="evenodd" clip-rule="evenodd" fill="#1B4EA6" d="M14.003,11.71l-0.425,0.258c-0.028,0,0.17,1.088,0.68,1.23
		c0.057-0.029,0.113-0.029,0.171-0.086C15.052,12.769,14.286,11.882,14.003,11.71L14.003,11.71z"/>
	<path fill-rule="evenodd" clip-rule="evenodd" fill="#1B4EA6" d="M13.691,11.91l-0.113,0.059c-0.028,0,0.142,0.916,0.538,1.174
		c0.397-0.145,0.313-0.488,0.113-0.832C14.116,12.111,13.833,11.853,13.691,11.91L13.691,11.91z"/>
	<path fill-rule="evenodd" clip-rule="evenodd" fill="#1B4EA6" d="M13.748,12.224c0,0.287,0.227,0.832,0.481,0.746
		C14.06,12.855,13.805,12.455,13.748,12.224L13.748,12.224z"/>
	<polygon fill-rule="evenodd" clip-rule="evenodd" fill="#1B4EA6" points="8.447,1.174 8.702,1.317 3.175,10.994 3.005,11.023 
		2.863,10.937 	"/>
	
		<rect x="-0.008" y="5.837" transform="matrix(0.4954 -0.8686 0.8686 0.4954 -2.5154 7.8659)" fill-rule="evenodd" clip-rule="evenodd" fill="#1B4EA6" width="11.042" height="0.522"/>
	<path fill-rule="evenodd" clip-rule="evenodd" fill="#1B4EA6" d="M7.229,2.634C7.059,2.978,6.831,3.493,6.52,3.979
		C6.123,4.695,5.896,4.981,5.896,4.981L7.229,2.634L7.229,2.634z M3.43,9.333c0.198-0.314,1.729-2.978,1.899-3.321
		c0,0-0.057,0.115-0.142,0.258C4.989,6.556,4.989,6.585,4.762,6.986c0,0-0.651,1.059-1.049,1.746C3.543,9.076,3.43,9.333,3.43,9.333
		L3.43,9.333z M5.131,6.47C4.422,7.73,4.054,8.56,3.203,9.734c-0.057,0.057-0.255,0.4-0.396,0.688
		c-0.113,0.229-0.199,0.344-0.199,0.373l0.086,0.027c0-0.027,0.453-0.973,0.538-1.059C3.6,9.277,4.139,8.388,4.592,7.616
		C4.848,7.128,4.677,7.358,5.131,6.47L5.131,6.47z M2.977,10.994c0.708-1.23,1.247-2.576,2.126-3.75
		c0.057-0.058,0.227-0.401,0.396-0.688c0.085-0.2,0.283-0.515,0.397-0.716c0.17-0.286,0.368-0.63,0.396-0.687
		c0.566-1.346,1.445-2.491,2.154-3.75L8.362,1.346C7.653,2.605,6.661,4.008,6.095,5.354C6.038,5.468,5.103,7.014,5.018,7.128
		C4.139,8.302,3.6,9.705,2.892,10.964L2.977,10.994z M7.427,2.834C6.916,3.636,6.066,5.01,5.471,6.069
		C4.876,7.1,3.969,8.847,3.855,9.105C5.131,6.785,6.095,5.096,7.427,2.834L7.427,2.834z M3.741,9.304
		c-0.255,0.43-0.481,0.83-0.736,1.232c-0.085,0.143-0.113,0.229-0.17,0.285C2.948,10.736,3.316,10.107,3.741,9.304L3.741,9.304z
		 M7.229,3.121C7.455,2.72,7.88,2.09,8.079,1.66c0.085-0.143,0.113-0.2,0.17-0.286C8.221,1.517,7.682,2.376,7.229,3.121L7.229,3.121
		z M2.977,10.451c0.142-0.23,0.936-1.547,1.077-1.861c0,0-0.341,0.543-0.454,0.688c-0.198,0.285-0.651,1.145-0.879,1.545
		l0.058,0.029C2.863,10.736,2.977,10.451,2.977,10.451L2.977,10.451z M5.046,6.699c0.736-1.26,1.87-3.121,2.438-4.466
		C7.512,2.176,7.71,1.832,7.88,1.546c0.114-0.2,0.199-0.344,0.199-0.344l0.085,0.029C8.136,1.26,7.568,2.147,7.512,2.262
		C7.285,2.834,6.803,3.722,6.35,4.523C6.066,4.981,5.301,6.413,5.046,6.699L5.046,6.699z M7.994,1.689
		c-0.143,0.229-0.879,1.575-1.078,1.89c0,0,0.313-0.601,0.369-0.744c0.17-0.344,0.623-1.031,0.851-1.403
		c0,0,0.085-0.143,0.085-0.114C8.164,1.431,7.994,1.689,7.994,1.689L7.994,1.689z"/>
	<path fill-rule="evenodd" clip-rule="evenodd" fill="#1B4EA6" d="M9.014,0.086c0.652,0.372-0.198,1.317-0.453,1.431
		c0,0-0.113,0-0.142,0L7.994,1.231C7.965,1.231,8.249-0.344,9.014,0.086L9.014,0.086z"/>
	<path fill-rule="evenodd" clip-rule="evenodd" fill="#1B4EA6" d="M8.419,1.517L7.994,1.231c-0.029,0,0.17-1.088,0.68-1.203
		c0.028,0,0.085,0.029,0.17,0.058C9.468,0.458,8.702,1.317,8.419,1.517L8.419,1.517z"/>
	<path fill-rule="evenodd" clip-rule="evenodd" fill="#1B4EA6" d="M8.107,1.317L7.994,1.231c-0.029,0,0.142-0.888,0.538-1.145
		C8.929,0.2,8.844,0.544,8.646,0.916C8.532,1.116,8.249,1.374,8.107,1.317L8.107,1.317z"/>
	<path fill-rule="evenodd" clip-rule="evenodd" fill="#1B4EA6" d="M8.164,1.002C8.136,0.687,8.391,0.143,8.646,0.229
		C8.447,0.343,8.221,0.773,8.164,1.002L8.164,1.002z"/>
	<polygon fill-rule="evenodd" clip-rule="evenodd" fill="#1B4EA6" points="1.843,11.566 1.843,11.853 12.897,11.853 12.982,11.738 
		12.982,11.566 	"/>
	<rect x="2.041" y="11.195" fill-rule="evenodd" clip-rule="evenodd" fill="#1B4EA6" width="10.97" height="0.516"/>
	<path fill-rule="evenodd" clip-rule="evenodd" fill="#1B4EA6" d="M3.685,11.222c0.397,0.029,0.936,0.086,1.531,0.086
		c0.794,0,1.162-0.057,1.162-0.057L3.685,11.222L3.685,11.222z M11.339,11.251c-0.369,0.029-3.431,0.029-3.799,0.029
		c0,0,0.113-0.029,0.312-0.029c0.341-0.029,0.369,0,0.822,0c0,0,1.219-0.029,2.013-0.029C11.055,11.222,11.339,11.251,11.339,11.251
		L11.339,11.251z M8.021,11.308c1.446,0,2.354,0.115,3.771-0.057c0.085,0,0.482,0,0.794,0c0.255,0.029,0.396,0,0.425,0v0.115
		c-0.028-0.029-1.077-0.086-1.219-0.059c-0.595,0.059-1.587,0.086-2.494,0.086C8.73,11.394,9.042,11.367,8.021,11.308L8.021,11.308z
		 M13.011,11.71c-1.445,0-2.862-0.201-4.28-0.029c-0.085,0-0.481,0-0.794,0c-0.227-0.029-0.595-0.029-0.821,0
		c-0.313,0-0.709,0-0.794,0c-1.445-0.172-2.863,0.029-4.28,0.029v-0.115c1.417,0,3.118-0.172,4.563,0
		c0.113,0.029,1.899-0.029,2.041-0.057c1.445-0.172,2.92,0.057,4.365,0.057V11.71z M3.77,11.509
		c0.936-0.057,2.552-0.086,3.742-0.086c1.219,0,3.146,0.057,3.401,0.086C8.334,11.453,6.378,11.453,3.77,11.509L3.77,11.509z
		 M11.168,11.509c0.482,0,0.964,0,1.418-0.029c0.17,0,0.255,0,0.34,0C12.784,11.539,12.075,11.539,11.168,11.509L11.168,11.509z
		 M4.139,11.48c-0.482,0-1.219,0.029-1.701,0c-0.17,0-0.255,0-0.34,0C2.239,11.539,3.231,11.48,4.139,11.48L4.139,11.48z
		 M12.529,11.423c-0.255,0-1.786,0.029-2.154,0.029c0,0,0.651-0.059,0.822-0.059c0.368-0.027,1.332-0.027,1.785,0
		c0,0,0,0.059-0.028,0.059C12.841,11.453,12.529,11.423,12.529,11.423L12.529,11.423z M8.277,11.367
		c-1.446,0-3.601,0.057-5.046-0.115c-0.057,0-0.453,0-0.794,0c-0.227,0.029-0.396,0-0.396,0v0.115
		c0.028-0.029,1.077-0.086,1.19-0.059c0.624,0.059,1.616,0.086,2.522,0.086C6.293,11.394,7.908,11.453,8.277,11.367L8.277,11.367z
		 M2.494,11.423c0.284,0,1.814,0.029,2.154,0.029c0,0-0.651-0.059-0.821-0.059c-0.341-0.027-1.163,0.029-1.616,0.029
		c0,0-0.17,0.029-0.142,0.029C2.211,11.453,2.494,11.423,2.494,11.423L2.494,11.423z"/>
	<path fill-rule="evenodd" clip-rule="evenodd" fill="#1B4EA6" d="M0.624,11.509c0,0.773,1.219,0.486,1.445,0.344
		c0,0,0.057-0.115,0.057-0.143v-0.516C2.126,11.166,0.624,10.623,0.624,11.509L0.624,11.509z"/>
	<path fill-rule="evenodd" clip-rule="evenodd" fill="#1B4EA6" d="M2.126,11.71v-0.516c0-0.029-1.021-0.4-1.389-0.029
		c0,0.057-0.028,0.115-0.028,0.201C0.709,12.082,1.843,11.882,2.126,11.71L2.126,11.71z"/>
	<path fill-rule="evenodd" clip-rule="evenodd" fill="#1B4EA6" d="M2.126,11.337v-0.143c0,0-0.851-0.316-1.275-0.086
		c-0.085,0.4,0.255,0.486,0.68,0.516C1.729,11.625,2.098,11.48,2.126,11.337L2.126,11.337z"/>
	<path fill-rule="evenodd" clip-rule="evenodd" fill="#1B4EA6" d="M1.843,11.222c-0.256-0.172-0.851-0.229-0.907,0.059
		C1.134,11.166,1.615,11.166,1.843,11.222L1.843,11.222z"/>
	<polygon fill-rule="evenodd" clip-rule="evenodd" fill="#1B4EA6" points="15.25,9.849 15.506,9.705 9.978,0.028 9.836,0 
		9.666,0.086 	"/>
	
		<rect x="6.803" y="4.664" transform="matrix(0.4974 0.8675 -0.8675 0.4974 10.4695 -8.2221)" fill-rule="evenodd" clip-rule="evenodd" fill="#1B4EA6" width="11.056" height="0.521"/>
	<path fill-rule="evenodd" clip-rule="evenodd" fill="#1B4EA6" d="M14.06,8.388c-0.17-0.371-0.425-0.858-0.708-1.374
		c-0.397-0.687-0.624-1.002-0.624-1.002L14.06,8.388L14.06,8.388z M10.233,1.66c0.227,0.315,1.757,3.006,1.927,3.321
		c0,0-0.057-0.086-0.17-0.229c-0.198-0.315-0.198-0.315-0.396-0.744c0,0-0.652-1.06-1.049-1.747
		C10.347,1.947,10.233,1.66,10.233,1.66L10.233,1.66z M11.962,4.552c-0.736-1.26-1.077-2.119-1.956-3.264
		C9.978,1.202,9.779,0.859,9.609,0.572c-0.085-0.2-0.198-0.343-0.198-0.343l0.085-0.057c0,0.028,0.481,0.973,0.566,1.088
		c0.369,0.486,0.879,1.345,1.333,2.147C11.679,3.865,11.48,3.636,11.962,4.552L11.962,4.552z M9.779,0
		c0.737,1.26,1.275,2.605,2.154,3.75c0.028,0.057,0.227,0.401,0.369,0.716c0.113,0.2,0.283,0.515,0.425,0.716
		c0.17,0.257,0.368,0.601,0.396,0.687c0.567,1.345,1.446,2.462,2.154,3.722l-0.085,0.057c-0.736-1.26-1.7-2.634-2.268-3.979
		c-0.057-0.143-0.992-1.689-1.077-1.804C10.97,2.72,10.432,1.317,9.694,0.057L9.779,0z M14.258,8.189
		c-0.538-0.803-1.36-2.206-1.955-3.265c-0.596-1.031-1.531-2.777-1.616-3.006C11.934,4.208,12.897,5.926,14.258,8.189L14.258,8.189z
		 M10.545,1.689c-0.227-0.429-0.482-0.83-0.737-1.231c-0.085-0.143-0.113-0.201-0.17-0.286C9.751,0.257,10.119,0.916,10.545,1.689
		L10.545,1.689z M14.031,7.873c0.255,0.43,0.652,1.061,0.879,1.461c0.057,0.172,0.113,0.229,0.142,0.314
		C15.023,9.505,14.485,8.646,14.031,7.873L14.031,7.873z M9.808,0.544c0.113,0.257,0.907,1.546,1.077,1.89
		c0,0-0.368-0.544-0.453-0.716c-0.198-0.287-0.681-1.117-0.879-1.546c0,0,0.028-0.029,0.057,0C9.666,0.286,9.808,0.544,9.808,0.544
		L9.808,0.544z M11.877,4.323c0.709,1.26,1.843,3.092,2.409,4.438c0.028,0.086,0.228,0.43,0.426,0.688
		c0.113,0.199,0.17,0.371,0.198,0.371l0.085-0.057c-0.057,0-0.624-0.916-0.651-1.031c-0.256-0.543-0.709-1.46-1.163-2.233
		C12.897,6.012,12.132,4.581,11.877,4.323L11.877,4.323z M14.825,9.304c-0.17-0.229-0.879-1.574-1.077-1.889
		c0,0,0.283,0.602,0.368,0.773c0.142,0.314,0.596,1.002,0.851,1.402c0,0,0.085,0.113,0.085,0.086
		C14.995,9.562,14.825,9.304,14.825,9.304L14.825,9.304z"/>
	<path fill-rule="evenodd" clip-rule="evenodd" fill="#1B4EA6" d="M15.846,10.908c0.623-0.371-0.198-1.316-0.454-1.432L15.25,9.505
		l-0.453,0.258C14.769,9.763,15.08,11.367,15.846,10.908L15.846,10.908z"/>
	<path fill-rule="evenodd" clip-rule="evenodd" fill="#1B4EA6" d="M15.25,9.505l-0.453,0.258c0,0,0.198,1.088,0.681,1.23
		c0.057-0.029,0.113-0.057,0.17-0.086C16.271,10.564,15.534,9.677,15.25,9.505L15.25,9.505z"/>
	<path fill-rule="evenodd" clip-rule="evenodd" fill="#1B4EA6" d="M14.91,9.677l-0.113,0.086c0,0,0.142,0.916,0.566,1.174
		c0.397-0.143,0.313-0.486,0.086-0.859C15.363,9.906,15.052,9.648,14.91,9.677L14.91,9.677z"/>
	<path fill-rule="evenodd" clip-rule="evenodd" fill="#1B4EA6" d="M14.967,10.021c0,0.285,0.227,0.83,0.482,0.744
		C15.278,10.65,15.023,10.25,14.967,10.021L14.967,10.021z"/>
	<polygon fill-rule="evenodd" clip-rule="evenodd" fill="#1B4EA6" points="5.896,1.26 6.151,1.403 0.624,11.08 0.453,11.109 
		0.312,11.023 	"/>
	
		<rect x="-2.552" y="5.923" transform="matrix(0.4974 -0.8675 0.8675 0.4974 -3.8688 5.6901)" fill-rule="evenodd" clip-rule="evenodd" fill="#1B4EA6" width="11.057" height="0.521"/>
	<path fill-rule="evenodd" clip-rule="evenodd" fill="#1B4EA6" d="M4.705,2.72C4.535,3.092,4.28,3.579,3.997,4.094
		C3.6,4.781,3.373,5.067,3.373,5.067L4.705,2.72L4.705,2.72z M0.879,9.419c0.227-0.287,1.757-2.978,1.928-3.292
		c0,0-0.057,0.085-0.171,0.229C2.438,6.671,2.438,6.671,2.211,7.071c0,0-0.624,1.059-1.021,1.776
		C0.992,9.162,0.879,9.419,0.879,9.419L0.879,9.419z M2.607,6.556C1.871,7.816,1.53,8.675,0.652,9.82
		c-0.028,0.057-0.228,0.43-0.397,0.717c-0.085,0.199-0.198,0.342-0.198,0.342l0.085,0.059c0-0.059,0.482-0.975,0.567-1.088
		c0.368-0.486,0.878-1.346,1.332-2.148C2.324,7.214,2.126,7.472,2.607,6.556L2.607,6.556z M0.425,11.109
		c0.737-1.26,1.276-2.605,2.126-3.751c0.057-0.086,0.256-0.43,0.397-0.716c0.113-0.2,0.283-0.515,0.425-0.716
		c0.17-0.258,0.368-0.601,0.396-0.687c0.567-1.346,1.446-2.491,2.155-3.722L5.839,1.46C5.103,2.72,4.11,4.094,3.571,5.439
		C3.515,5.583,2.579,7.1,2.494,7.214C1.615,8.388,1.077,9.791,0.34,11.05L0.425,11.109z M4.904,2.92
		C4.365,3.722,3.543,5.125,2.92,6.155C2.324,7.214,1.417,8.933,1.332,9.191C2.579,6.9,3.543,5.182,4.904,2.92L4.904,2.92z
		 M1.19,9.419c-0.227,0.4-0.481,0.83-0.737,1.23c-0.085,0.145-0.113,0.201-0.17,0.287C0.396,10.822,0.766,10.193,1.19,9.419
		L1.19,9.419z M4.677,3.235c0.256-0.429,0.652-1.059,0.879-1.489c0.057-0.143,0.113-0.2,0.142-0.286
		C5.669,1.603,5.131,2.462,4.677,3.235L4.677,3.235z M0.453,10.564C0.566,10.306,1.36,8.99,1.53,8.675c0,0-0.368,0.543-0.453,0.688
		c-0.198,0.314-0.681,1.145-0.907,1.545c0,0,0.057,0.057,0.085,0.029C0.312,10.822,0.453,10.564,0.453,10.564L0.453,10.564z
		 M2.522,6.785c0.709-1.26,1.843-3.121,2.41-4.466c0.028-0.057,0.227-0.401,0.425-0.687c0.113-0.172,0.17-0.344,0.198-0.344
		l0.057,0.058c-0.028,0-0.595,0.887-0.623,1.002C4.733,2.92,4.252,3.836,3.827,4.609C3.543,5.096,2.75,6.527,2.522,6.785
		L2.522,6.785z M5.471,1.775c-0.17,0.229-0.879,1.604-1.077,1.89c0,0,0.283-0.573,0.368-0.745c0.143-0.315,0.596-1.002,0.851-1.403
		c0,0,0.085-0.114,0.085-0.086C5.641,1.546,5.471,1.775,5.471,1.775L5.471,1.775z"/>
	<path fill-rule="evenodd" clip-rule="evenodd" fill="#1B4EA6" d="M6.491,0.172c0.624,0.4-0.198,1.317-0.453,1.431H5.896
		L5.442,1.346C5.414,1.317,5.726-0.258,6.491,0.172L6.491,0.172z"/>
	<path fill-rule="evenodd" clip-rule="evenodd" fill="#1B4EA6" d="M5.896,1.603L5.442,1.346c0,0,0.17-1.088,0.681-1.231
		C6.18,0.143,6.236,0.143,6.293,0.2C6.916,0.544,6.18,1.431,5.896,1.603L5.896,1.603z"/>
	<path fill-rule="evenodd" clip-rule="evenodd" fill="#1B4EA6" d="M5.556,1.403L5.442,1.346c0,0,0.142-0.917,0.539-1.174
		c0.425,0.143,0.34,0.486,0.113,0.83C6.01,1.202,5.697,1.46,5.556,1.403L5.556,1.403z"/>
	<path fill-rule="evenodd" clip-rule="evenodd" fill="#1B4EA6" d="M5.612,1.088c0-0.315,0.227-0.859,0.482-0.745
		C5.925,0.458,5.669,0.859,5.612,1.088L5.612,1.088z"/>
	<polygon fill-rule="evenodd" clip-rule="evenodd" fill="#1B4EA6" points="3.118,13.714 3.118,14 14.173,14 14.286,13.886 
		14.286,13.714 	"/>
	<rect x="3.316" y="13.341" fill-rule="evenodd" clip-rule="evenodd" fill="#1B4EA6" width="10.97" height="0.545"/>
	<path fill-rule="evenodd" clip-rule="evenodd" fill="#1B4EA6" d="M4.989,13.398c0.368,0.029,0.936,0.059,1.502,0.059
		c0.794,0,1.162-0.059,1.162-0.059H4.989L4.989,13.398z M12.643,13.398c-0.368,0.029-3.43,0.059-3.799,0.029
		c0,0,0.113,0,0.284-0.029c0.34-0.027,0.368,0,0.821,0c0,0,1.219-0.027,2.013-0.027C12.331,13.371,12.643,13.398,12.643,13.398
		L12.643,13.398z M9.326,13.484c1.417,0,2.324,0.115,3.77-0.086c0.057,0,0.454,0,0.794,0.029c0.227,0,0.396-0.029,0.396-0.029v0.115
		c-0.028-0.029-1.077-0.086-1.19-0.057c-0.623,0.086-1.615,0.113-2.522,0.113C10.034,13.57,10.318,13.513,9.326,13.484L9.326,13.484
		z M14.286,13.857c-1.417,0-2.834-0.201-4.28-0.029c-0.085,0-0.481,0-0.793,0c-0.228-0.027-0.596-0.027-0.822,0
		c-0.312,0-0.709,0-0.794,0c-1.417-0.172-2.835,0.029-4.28,0.029v-0.115c1.445,0,3.118-0.172,4.563,0
		c0.142,0.029,1.928-0.027,2.069-0.027c1.418-0.201,2.92,0.027,4.337,0.027V13.857z M5.046,13.656
		c0.936-0.057,2.551-0.086,3.77-0.086c1.19,0,3.118,0.059,3.401,0.086C9.609,13.628,7.653,13.599,5.046,13.656L5.046,13.656z
		 M12.473,13.685c0.481,0,0.936-0.029,1.417-0.029c0.17-0.027,0.227,0,0.312-0.027C14.088,13.685,13.352,13.685,12.473,13.685
		L12.473,13.685z M5.414,13.628c-0.481,0-1.219,0.027-1.673,0.027c-0.17-0.027-0.255,0-0.34-0.027
		C3.543,13.685,4.535,13.656,5.414,13.628L5.414,13.628z M13.833,13.599c-0.283-0.029-1.814,0-2.183,0c0,0,0.652-0.057,0.851-0.057
		c0.34-0.029,1.304-0.029,1.757,0v0.057C14.116,13.599,13.833,13.599,13.833,13.599L13.833,13.599z M9.553,13.513
		c-1.445,0-3.6,0.086-5.018-0.115c-0.085,0-0.481,0-0.794,0.029c-0.255,0-0.425-0.029-0.425-0.029v0.115
		c0.028-0.029,1.077-0.086,1.19-0.057c0.624,0.086,1.616,0.113,2.523,0.113C7.597,13.57,9.185,13.599,9.553,13.513L9.553,13.513z
		 M3.799,13.599c0.255-0.029,1.785,0,2.154,0c0,0-0.652-0.057-0.822-0.057c-0.369-0.029-1.19,0.027-1.645,0.027
		c0,0-0.142,0.029-0.113,0.029C3.486,13.599,3.799,13.599,3.799,13.599L3.799,13.599z"/>
	<path fill-rule="evenodd" clip-rule="evenodd" fill="#1B4EA6" d="M1.899,13.685c0,0.744,1.247,0.486,1.445,0.314l0.085-0.113
		v-0.545C3.43,13.341,1.899,12.798,1.899,13.685L1.899,13.685z"/>
	<path fill-rule="evenodd" clip-rule="evenodd" fill="#1B4EA6" d="M3.43,13.857v-0.516c0,0-1.049-0.371-1.389,0
		c-0.028,0.057-0.028,0.115-0.028,0.172C2.013,14.23,3.118,14.029,3.43,13.857L3.43,13.857z"/>
	<path fill-rule="evenodd" clip-rule="evenodd" fill="#1B4EA6" d="M3.43,13.484v-0.143c0,0-0.851-0.314-1.275-0.086
		c-0.113,0.4,0.227,0.516,0.652,0.516C3.033,13.771,3.401,13.628,3.43,13.484L3.43,13.484z"/>
	<path fill-rule="evenodd" clip-rule="evenodd" fill="#1B4EA6" d="M3.118,13.371c-0.255-0.143-0.851-0.201-0.879,0.057
		C2.409,13.312,2.892,13.312,3.118,13.371L3.118,13.371z"/>
</g>
</svg>
