<?xml version="1.0" encoding="utf-8"?>
<!-- Generator: Adobe Illustrator 16.0.0, SVG Export Plug-In . SVG Version: 6.00 Build 0)  -->
<!DOCTYPE svg PUBLIC "-//W3C//DTD SVG 1.0//EN" "http://www.w3.org/TR/2001/REC-SVG-20010904/DTD/svg10.dtd">
<svg version="1.0" id="Layer_1" xmlns="http://www.w3.org/2000/svg" xmlns:xlink="http://www.w3.org/1999/xlink" x="0px" y="0px"
	 width="484.611px" height="520.324px" viewBox="0 0 484.611 520.324" enable-background="new 0 0 484.611 520.324"
	 xml:space="preserve">
<g>
	<path fill-rule="evenodd" clip-rule="evenodd" fill="#C7DCFF" d="M128.126,290.083h98.022h155.367h73.021h25.002v182.232
		l-103.125,33.44H351.44H25.001H0V323.523l103.125-33.44H128.126z M479.538,290.083L479.538,290.083L479.538,290.083z"/>
	<path fill-rule="evenodd" clip-rule="evenodd" fill="#E0EBFF" d="M288.708,52.794c0.284,2.376,1.956,4.323,4.195,4.953l0.17,0.028
		c0.057,0.029,0.114,0.029,0.199,0.058l0,0c15.278,4.065,29.764,10.192,43.114,18.065v-0.028c2.069,1.345,4.791,1.259,6.775-0.287
		l32.599-27.371c2.636-2.348,6.633-2.577,9.524-0.315c3.939,3.035,7.738,6.184,11.366,9.419c3.771,3.321,7.342,6.7,10.715,10.106
		c3.374,3.407,6.719,7.015,10.035,10.822c3.175,3.665,6.293,7.501,9.298,11.481c2.098,2.749,2.126,6.671-0.171,9.448l-27.099,32.954
		l0,0c-1.645,2.004-1.786,4.838-0.425,6.986l0,0c7.767,13.485,13.833,28.115,17.857,43.575l0,0l0.028,0.058l0.114,0.429
		c0.68,2.233,2.664,3.922,5.073,4.123l0,0l42.208,3.951c3.572,0.344,6.321,3.121,6.747,6.557c0.651,4.981,1.134,9.906,1.445,14.773
		c0.34,5.039,0.51,9.992,0.51,14.802c0,4.838-0.17,9.763-0.51,14.802c-0.312,4.896-0.794,9.82-1.445,14.802
		c-0.454,3.636-3.459,6.355-6.974,6.557l-42.208,3.951c-2.296,0.286-4.167,1.918-4.847,4.094l-0.143,0.516l0,0l0,0
		c-4.024,15.46-10.091,30.09-17.857,43.547v0.028c-1.361,2.147-1.22,4.981,0.425,6.985l0,0l27.099,32.954
		c2.297,2.776,2.269,6.699,0.171,9.448c-3.005,3.979-6.123,7.815-9.326,11.48c-3.288,3.779-6.633,7.415-10.007,10.822
		c-3.373,3.407-6.944,6.785-10.715,10.106c-3.628,3.235-7.427,6.355-11.366,9.419c-2.892,2.262-6.889,2.033-9.524-0.314
		l-32.599-27.371c-1.984-1.546-4.706-1.66-6.775-0.286v-0.028c-13.492,7.959-28.147,14.144-43.653,18.209
		c-2.154,0.687-3.741,2.576-4.025,4.896l-3.911,42.631c-0.228,3.55-2.892,6.556-6.521,7.043c-4.932,0.658-9.808,1.146-14.626,1.46
		c-4.989,0.314-9.894,0.486-14.655,0.486c-4.791,0-9.667-0.172-14.655-0.486c-4.819-0.314-9.723-0.802-14.627-1.46
		c-3.401-0.458-6.179-3.235-6.491-6.814l-3.912-42.659l0,0c-0.227-2.404-1.871-4.409-4.082-5.096
		c-15.477-4.065-30.132-10.25-43.625-18.209l-0.029,0.028c-2.126-1.402-4.932-1.26-6.917,0.43l0,0l-32.626,27.37
		c-2.721,2.291-6.633,2.291-9.354,0.172c-3.94-3.063-7.738-6.184-11.367-9.419c-3.742-3.321-7.313-6.699-10.715-10.106
		c-3.373-3.407-6.718-7.043-10.006-10.822c-3.175-3.665-6.293-7.501-9.326-11.48c-2.239-2.921-2.013-6.958,0.34-9.62l27.071-32.954
		c1.531-1.975,1.644-4.724,0.312-6.813v-0.028c-7.795-13.457-13.861-28.087-17.887-43.547l0,0v-0.086l-0.113-0.344
		c-0.624-2.205-2.551-3.894-4.875-4.18l-42.208-3.951c-3.515-0.201-6.491-2.92-6.973-6.557c-0.652-4.981-1.134-9.906-1.446-14.802
		c-0.312-5.039-0.482-9.963-0.482-14.802c0-4.81,0.17-9.763,0.482-14.802c0.312-4.867,0.794-9.792,1.446-14.773
		c0.454-3.436,3.203-6.213,6.747-6.557l42.236-3.951l0,0c2.438-0.201,4.45-1.947,5.102-4.266l0.057-0.172
		c0-0.057,0.028-0.114,0.028-0.172l0,0c4.025-15.46,10.092-30.09,17.887-43.575l0,0c1.333-2.09,1.219-4.838-0.312-6.814
		L71.604,99.347c-2.353-2.663-2.58-6.699-0.34-9.62c3.033-3.98,6.151-7.816,9.326-11.481c3.288-3.808,6.633-7.415,10.006-10.822
		c3.402-3.407,6.974-6.785,10.715-10.106c3.628-3.235,7.427-6.356,11.367-9.419c2.721-2.119,6.633-2.119,9.354,0.172l32.626,27.371
		l0,0c1.984,1.689,4.791,1.833,6.917,0.43l0.029,0.028c13.351-7.873,27.808-14,43.115-18.065l0,0
		c2.466-0.544,4.365-2.663,4.592-5.24l0,0l3.912-42.659c0.312-3.607,3.09-6.384,6.491-6.814c4.904-0.658,9.808-1.145,14.627-1.46
		c4.989-0.315,9.864-0.487,14.655-0.487c4.762,0,9.666,0.172,14.655,0.487c4.818,0.315,9.694,0.802,14.626,1.46
		c3.629,0.458,6.293,3.493,6.521,7.043L288.708,52.794z M321.335,154.346c-18.51-18.696-44.107-30.262-72.34-30.262
		c-28.262,0-53.83,11.566-72.34,30.262c-18.51,18.695-29.962,44.52-29.962,73.036c0,28.544,11.452,54.369,29.962,73.064
		s44.079,30.262,72.34,30.262c28.232,0,53.83-11.566,72.34-30.262c18.511-18.695,29.962-44.521,29.962-73.064
		C351.297,198.866,339.846,173.042,321.335,154.346L321.335,154.346z"/>
	<polygon fill-rule="evenodd" clip-rule="evenodd" fill="#96B9FF" points="25.001,505.755 351.44,505.755 376.413,505.755 
		376.413,323.523 351.44,323.523 25.001,323.523 0,323.523 0,505.755 	"/>
	<polygon fill-rule="evenodd" clip-rule="evenodd" fill="#B0C9FC" points="479.538,472.315 376.413,505.755 376.413,323.523 
		479.538,290.083 	"/>
	<polygon fill-rule="evenodd" clip-rule="evenodd" fill="#C7DCFF" points="128.126,290.083 226.148,290.083 381.515,290.083 
		454.536,290.083 479.538,290.083 376.413,323.523 351.44,323.523 278.391,323.523 123.024,323.523 25.001,323.523 0,323.523 
		103.125,290.083 	"/>
	<path fill-rule="evenodd" clip-rule="evenodd" fill="#ACC8F7" d="M318.472,28.544c7.03,0.344,11.169,3.836,14.032,9.248
		c3.005-4.409,7.908-8.16,14.938-7.816c3.118,0.143,5.952,1.288,8.249,3.121c-1.39-0.372,0.453-0.458-4.337-0.687
		c-4.791-0.229-15.364,5.01-19.135,11.652c-3.203-7.244-10.091-13.113-17.914-13.485c-1.503-0.086-2.948,0-4.366,0.229
		C312.378,29.231,315.326,28.373,318.472,28.544L318.472,28.544z"/>
	<path fill-rule="evenodd" clip-rule="evenodd" fill="#CFE1FF" d="M182.977,25.595c0.227-0.744,0.34-1.517,0.34-2.319
		c0-4.294-3.43-7.759-7.682-7.759c-1.247,0-2.41,0.286-3.458,0.83c-2.155-2.405-5.244-3.922-8.703-3.922
		c-1.616,0-3.175,0.344-4.592,0.945c0.028-0.2,0.028-0.372,0.028-0.572C158.91,5.726,153.241,0,146.24,0
		c-4.195,0-7.909,2.062-10.205,5.239c-1.899-1.489-4.28-2.348-6.86-2.348c-6.208,0-11.225,5.067-11.225,11.337
		c0,0.287,0,0.544,0.028,0.802c-1.446-0.744-3.09-1.145-4.791-1.145c-5.868,0-10.63,4.81-10.63,10.708c0,0.344,0,0.659,0.057,1.002
		h26.561h17.065H182.977z"/>
	<path fill-rule="evenodd" clip-rule="evenodd" fill="#DBE8FF" d="M129.402,290.083h16.667l-103.521,33.44H25.88L129.402,290.083z
		 M162.737,290.083h16.667l-103.521,33.44H59.216L162.737,290.083z M196.073,290.083h16.667l-103.493,33.44H92.58L196.073,290.083z
		 M229.437,290.083h16.667l-103.521,33.44h-16.668L229.437,290.083z M262.772,290.083h16.668l-103.521,33.44H159.25L262.772,290.083
		z M296.107,290.083h16.668l-103.521,33.44h-16.668L296.107,290.083z M329.443,290.083h16.668l-103.493,33.44h-16.696
		L329.443,290.083z M362.778,290.083h16.696l-103.521,33.44h-16.667L362.778,290.083z M396.142,290.083h16.668l-103.521,33.44
		h-16.668L396.142,290.083z M429.477,290.083h16.668l-103.521,33.44h-16.667L429.477,290.083z M462.813,290.083h16.668
		l-103.521,33.44h-16.668L462.813,290.083z M9.213,323.523H0l103.125-33.44h9.609L9.213,323.523z"/>
	<path fill-rule="evenodd" clip-rule="evenodd" fill="#9ABEFC" d="M376.441,323.523l-0.028,77.874v-77.874H376.441z
		 M478.035,472.801l-5.074,1.632V292.23l5.074-1.661V472.801z M467.887,476.094l-5.103,1.632V295.522l5.103-1.66V476.094z
		 M457.71,479.386l-5.074,1.661V298.815l5.074-1.661V479.386z M447.562,482.679l-5.102,1.66V302.107l5.102-1.66V482.679z
		 M437.386,485.971l-5.074,1.661V305.4l5.074-1.632V485.971z M427.238,489.264l-5.074,1.66V308.692l5.074-1.632V489.264z
		 M417.062,492.585l-5.074,1.632V311.985l5.074-1.632V492.585z M406.914,495.877l-5.074,1.632V315.306l5.074-1.661V495.877z
		 M396.737,499.169l-5.073,1.633V318.598l5.073-1.66V499.169z M386.589,502.462l-5.074,1.66V321.891l5.074-1.661V502.462z"/>
	<path fill-rule="evenodd" clip-rule="evenodd" fill="#CFE1FF" d="M38.636,424.273c4.536-1.66,12.926-3.235,23.301-4.065
		c1.786,4.839,3.884,8.761,6.265,11.51l0.992-11.968c8.022-0.315,16.838-0.2,25.795,0.63c1.587,9.391,4.167,16.806,7.625,21.415
		l3.033-20.069c11.168,1.804,22.082,4.838,31.408,9.619c30.302,15.461,50.23,41.313,52.498,64.647
		c-19.077,12.998-51.023,14.058-81.893,0.744c0.85-3.692,1.19-6.985,0.963-9.849l-6.406,7.272
		C70.725,477.783,43.512,438.015,38.636,424.273L38.636,424.273z"/>
	<path fill-rule="evenodd" clip-rule="evenodd" fill="#C0D7FF" d="M189.553,495.992c-19.077,12.998-51.023,14.058-81.893,0.744
		c0.85-3.692,1.19-6.985,0.963-9.849l-6.406,7.272c-31.493-16.377-58.706-56.145-63.581-69.887L189.553,495.992z"/>
	<polygon fill="#CFE1FF" points="153.524,477.668 181.814,491.125 189.95,494.961 218.013,507.616 217.021,509.763 189.581,495.992 
		153.071,478.642 	"/>
	<path fill-rule="evenodd" clip-rule="evenodd" fill="#CCDFFF" d="M119.735,354.3c-1.53,7.53-0.935,28.315,4.791,47.44
		c1.559-0.114,2.948-0.114,4.139,0.028l-3.515,1.947c2.296,7.243,5.386,14.144,9.354,19.927c1.502,2.147,3.062,4.209,4.677,6.155
		c4.082-0.858,7.483-1.174,10.006-0.888l-7.257,4.065c13.011,14.229,29.197,22.16,42.945,21.56
		c6.718-13.972,4.961-35.044-5.556-54.655l-9.326,5.439c0.34-3.837,2.154-8.103,5.131-12.397
		c-7.88-11.423-20.608-21.215-32.202-28.144l-6.094,8.36c-0.482-3.035-0.17-6.871,0.878-11.309
		C130.139,357.736,123.506,355.074,119.735,354.3L119.735,354.3z"/>
	<path fill-rule="evenodd" clip-rule="evenodd" fill="#BDD5FF" d="M119.735,354.3c-1.53,7.53-0.935,28.315,4.791,47.44
		c1.559-0.114,2.948-0.114,4.139,0.028l-3.515,1.947c2.296,7.243,5.386,14.144,9.354,19.927c1.502,2.147,3.062,4.209,4.677,6.155
		c4.082-0.858,7.483-1.174,10.006-0.888l-7.257,4.065c13.011,14.229,29.197,22.16,42.945,21.56L119.735,354.3z"/>
	<path fill="#CFE1FF" d="M178.101,442.138c9.297,14.315,18.567,28.287,28.261,42.315l-1.984,1.317l-27.184-43.031L178.101,442.138z"
		/>
	<path fill-rule="evenodd" clip-rule="evenodd" fill="#97B9FC" d="M230.684,403.458h38.381h16.525h28.602h9.78v102.297
		l-40.395,13.112h-9.779H190.29h-9.808V416.542l40.394-13.084H230.684z M323.972,403.458L323.972,403.458L323.972,403.458z"/>
	<polygon fill-rule="evenodd" clip-rule="evenodd" fill="#97B9FC" points="190.29,518.868 273.798,518.868 283.578,518.868 
		283.578,416.542 273.798,416.542 190.29,416.542 180.482,416.542 180.482,518.868 	"/>
	<polygon fill-rule="evenodd" clip-rule="evenodd" fill="#A3C2FF" points="323.972,505.755 283.578,518.868 283.578,416.542 
		323.972,403.458 	"/>
	<polygon fill-rule="evenodd" clip-rule="evenodd" fill="#C4DAFF" points="230.684,403.458 269.065,403.458 285.59,403.458 
		314.192,403.458 323.972,403.458 283.578,416.542 273.798,416.542 245.197,416.542 228.671,416.542 190.29,416.542 
		180.482,416.542 220.875,403.458 	"/>
	<path fill="#6592EB" d="M288.624,411.675l15.789,47.27c4.933,14.83,9.864,29.632,14.825,44.463c0.028,0.057,0.057,0.114,0.085,0.2
		l4.394,13.227h0.028v0.086c0.284,0.773,0.851,1.317,1.503,1.317c0.936,0,1.672-1.088,1.672-2.434c0-0.344-0.028-0.688-0.142-0.974
		l-3.826-11.48l10.147-3.121l0,0l10.715-3.292l4.195,12.568c0.313,0.716,0.851,1.202,1.446,1.202c0.936,0,1.7-1.088,1.7-2.462
		c0-0.286-0.057-0.572-0.113-0.83l0,0c-11.622-34.672-23.216-69.371-34.838-104.043l0,0c-0.283-0.744-0.822-1.26-1.445-1.26
		c-0.936,0-1.701,1.088-1.701,2.434c0,0.401,0.085,0.773,0.199,1.117l0,0l2.636,7.901l-20.778,6.385l-3.486-10.45l0,0
		c-0.312-0.744-0.851-1.23-1.474-1.23c-0.907,0-1.673,1.088-1.673,2.434C288.482,411.045,288.539,411.389,288.624,411.675
		L288.624,411.675z M317.168,417.344l5.386,16.091l-20.806,6.413l-5.386-16.119L317.168,417.344z M323.802,437.214l5.414,16.118
		l-20.835,6.413l-5.386-16.147L323.802,437.214z M330.463,457.112l5.414,16.147l-20.835,6.385l-5.414-16.147L330.463,457.112z
		 M337.153,477.01l5.386,16.176l-8.9,2.72l0,0l-11.963,3.665l-5.386-16.147L337.153,477.01z"/>
	<path fill="#6592EB" d="M286.781,407.696c-0.368-1.116,0.228-2.348,1.333-2.72s2.324,0.229,2.692,1.346l36.822,111.172
		c0.368,1.145-0.227,2.348-1.332,2.72s-2.296-0.229-2.693-1.346L286.781,407.696z M311.726,400.395
		c-0.368-1.146,0.227-2.348,1.36-2.72c1.105-0.372,2.296,0.229,2.665,1.346l36.851,111.172c0.368,1.116-0.228,2.348-1.333,2.72
		c-1.134,0.372-2.324-0.229-2.692-1.346L311.726,400.395z"/>
	<path fill="#6592EB" d="M268.328,314.103l-4.705,34.814c-2.098,15.604-4.224,31.207-6.321,46.84c0,0.086-0.028,0.143-0.028,0.2
		l-1.899,13.943v0.028v0.058c-0.142,0.858-0.596,1.517-1.247,1.718c-0.907,0.258-1.843-0.602-2.098-1.89
		c-0.057-0.344-0.085-0.659-0.057-0.974l1.644-12.11l-10.573-0.172v-0.029l-11.168-0.171l-1.814,13.227
		c-0.17,0.773-0.595,1.403-1.219,1.575c-0.907,0.257-1.843-0.602-2.098-1.89c-0.057-0.287-0.085-0.573-0.057-0.831l0,0
		c4.28-31.464,8.561-62.9,12.841-94.337h3.515l-2.069,15.317l21.714,0.372l2.126-15.689H268.328z M240.435,333.372l-2.325,17.007
		l21.742,0.372l2.296-17.007L240.435,333.372z M237.572,354.358l-2.324,17.035l21.77,0.372l2.297-17.035L237.572,354.358z
		 M234.709,375.343l-2.296,17.035l9.298,0.172l0,0l12.444,0.201l2.324-17.035L234.709,375.343z"/>
	<path fill="#6592EB" d="M264.643,313.817c0.17-1.174,1.219-2.004,2.381-1.86c1.162,0.172,1.984,1.26,1.814,2.434l-12.983,97.629
		c-0.142,1.174-1.219,2.004-2.381,1.832c-1.162-0.143-1.984-1.23-1.814-2.404L264.643,313.817z"/>
	<path fill="#6592EB" d="M238.649,313.817c0.17-1.174,1.219-2.004,2.381-1.86c1.162,0.172,1.984,1.26,1.814,2.434l-12.954,97.543
		c-0.17,1.174-1.219,1.976-2.381,1.832c-1.162-0.171-1.984-1.23-1.814-2.404L238.649,313.817z"/>
	<path fill-rule="evenodd" clip-rule="evenodd" fill="#C0D7FF" d="M448.158,210.547c-20.154,0-36.482-12.282-36.482-27.457
		c0-5.726,2.354-11.051,6.35-15.432l-0.028-0.029c5.103-5.039,8.334-12.311,8.334-20.413c0-2.663-0.34-5.211-0.992-7.616
		c-1.445-3.464-2.239-7.33-2.239-11.395c0-15.146,11.226-27.457,25.059-27.457s25.059,12.311,25.059,27.457
		c0,4.065-0.794,7.931-2.268,11.395c-0.624,2.405-0.964,4.953-0.964,7.616c0,8.102,3.203,15.375,8.305,20.413v0.029
		c3.997,4.38,6.321,9.706,6.321,15.432C484.611,198.265,468.284,210.547,448.158,210.547L448.158,210.547z"/>
	<path fill-rule="evenodd" clip-rule="evenodd" fill="#CFE1FF" d="M448.158,100.75c13.833,0,25.059,12.311,25.059,27.457
		c0,4.065-0.794,7.931-2.268,11.395c-0.624,2.405-0.964,4.953-0.964,7.616c0,8.102,3.203,15.375,8.305,20.413v0.029
		c3.997,4.38,6.321,9.706,6.321,15.432c0,15.174-16.327,27.457-36.453,27.457V100.75z"/>
	<path fill="#99B8F7" d="M448.98,100.779v195.774h-1.673V100.779c0.283,0,0.567-0.029,0.851-0.029S448.724,100.779,448.98,100.779
		L448.98,100.779z"/>
	<path fill="#99B8F7" d="M426.019,115.352l22.705,22.16l-1.162,1.231l-22.28-21.759
		C425.509,116.411,425.764,115.867,426.019,115.352L426.019,115.352z"/>
	<path fill="#99B8F7" d="M420.179,165.197l28.545,27.857l-1.162,1.231l-28.459-27.8
		C419.471,166.056,419.839,165.626,420.179,165.197L420.179,165.197z"/>
	<path fill="#99B8F7" d="M472.139,136.194l-23.415,22.847l-1.162-1.203l25.229-24.65
		C472.621,134.219,472.422,135.221,472.139,136.194L472.139,136.194z"/>
	<path fill="#99B8F7" d="M481.55,172.097l-32.826,32.037l-1.162-1.203l33.081-32.295
		C480.983,171.095,481.266,171.582,481.55,172.097L481.55,172.097z"/>
	<polygon fill="#99B8F7" points="448.158,136.967 448.724,137.511 448.158,138.141 	"/>
	<polygon fill="#99B8F7" points="448.158,192.51 448.724,193.054 448.158,193.684 	"/>
	<path fill="#99B8F7" d="M472.139,136.194l-23.415,22.847l-0.566-0.601v-1.174l24.633-24.078
		C472.621,134.219,472.422,135.221,472.139,136.194L472.139,136.194z"/>
	<path fill="#99B8F7" d="M481.55,172.097l-32.826,32.037l-0.566-0.601v-1.174l32.485-31.723
		C480.983,171.095,481.266,171.582,481.55,172.097L481.55,172.097z"/>
	<path fill="#FF9C08" d="M97.569,305.572c-11.367,1.775-22.791,2.29-34.271,1.546c-1.446-0.144-2.693-0.888-3.742-2.233
		c-1.021-1.316-1.616-2.892-1.758-4.695c-0.396-38.88-0.453-77.76-0.198-116.64c-3.005,0.143-6.009,0.372-8.986,0.658
		c-0.369,0-0.68-0.028-1.021-0.086l-4.224-0.2l0.766-2.09l0,0c-0.681-0.973-1.021-2.119-1.021-3.436
		c0.142-9.076,0.34-18.237,0.595-27.485c0-1.632,0.539-3.178,1.672-4.581c1.105-1.403,2.381-2.262,3.798-2.577
		c16.073-2.376,32.173-2.376,48.388,0c1.417,0.315,2.693,1.174,3.798,2.577s1.672,2.949,1.672,4.581
		c1.162,49.158,1.162,98.345,0,147.503c0,1.203-0.255,2.262-0.794,3.235c-0.51,0.974-1.19,1.833-2.041,2.577
		C99.354,304.97,98.476,305.428,97.569,305.572L97.569,305.572z"/>
	<path fill="#3E73DE" d="M161.178,161.389c-0.113,5.325-0.255,9.992-0.454,13.972l-1.701,32.811l-1.673,32.724l-1.474,29.776
		l-1.474,29.689l-0.113,1.689l-0.085,1.66c-0.142,0.916-0.369,1.689-0.794,2.377H140.4l-0.85-0.888
		c-0.34-0.315-0.794-0.659-1.304-1.031l-0.793-0.458l-0.766-0.544l0.397-11.022l0.482-10.88c1.219-20.356,1.899-44.434,1.984-72.292
		c0-3.235,0.057-7.702,0.198-13.513l0.255-13.342c0.085-3.836-0.255-6.07-1.077-6.643c-0.766-0.687-2.721-0.343-5.811,1.002
		l-5.216,2.262l-5.216,2.233c-1.134,0.43-1.984,0.63-2.551,0.544l-4.224-0.2l1.758-3.722l0.453,0.058
		c-0.368-1.518-0.765-3.292-1.247-5.326l-1.474-6.413c-0.482-1.718,0.028-3.178,1.474-4.409
		c5.726-4.724,12.643-10.479,20.778-17.292c2.183-1.89,4.479-2.806,6.888-2.806h6.803h6.888c0.34,0,0.737,0.086,1.219,0.229
		l0.766,0.114l0.765,0.229l0.312,2.691c0.142,1.117,0.198,2.062,0.198,2.806L161.178,161.389z"/>
	<path fill="#1A8699" d="M261.468,148.505v109.54h15.618c1.503,0,2.807,0.63,3.912,1.89c1.077,1.23,1.645,2.72,1.645,4.438v35.33
		c0,1.718-0.567,3.206-1.645,4.466c-1.105,1.231-2.409,1.861-3.912,1.861h-87.902c-1.502,0-2.807-0.63-3.884-1.861
		c-1.105-1.26-1.644-2.748-1.644-4.466v-35.33c0-1.718,0.539-3.207,1.644-4.438c1.077-1.26,2.381-1.89,3.884-1.89h18.963v-56.173
		l-12.897,9.792c-1.247,0.916-2.495,1.403-3.798,1.403c-1.304,0-2.977-0.172-4.365-0.2l0.822-2.319
		c-0.142-0.229-0.312-0.487-0.454-0.773l-16.611-29.489c-0.652-1.174-0.822-2.691-0.822-4.323s0.794-3.407,2.665-4.81l37.729-28.029
		c0.907-0.687,2.041-0.916,3.288-0.916h42.236c1.503,0,2.807,0.601,3.884,1.861C260.929,145.328,261.468,146.788,261.468,148.505
		L261.468,148.505z"/>
	<path fill="#595D9C" d="M325.417,141.834l-37.729,67.367l-8.021-5.153l34.838-62.214H325.417z M308.211,141.834l-34.072,58.635
		l-7.456-4.896l31.408-53.739H308.211z M342.993,305.858h-9.185V158.154l-6.689,11.824v135.65h-8.958V186.297l-6.689,12.082v107.479
		h-9.185V214.47l-1.984,2.548l-8.021-5.154l39.826-70.03h1.701h9.185V305.858z"/>
	<path fill="#D15C73" d="M425.112,300.475v-19.927c0-2.806-1.984-5.067-4.422-5.067h-4.45c-2.438,0-4.422-2.262-4.422-5.039V147.761
		c0-2.806-2.013-5.039-4.423-5.039h-42.207c-2.41,0-4.423,2.262-4.423,5.039v18.982c0,2.749,2.013,5.039,4.423,5.039h4.479
		c2.409,0,4.394,2.262,4.394,5.039v93.621c0,2.777-1.984,5.039-4.394,5.039h-4.479c-2.41,0-4.423,2.262-4.423,5.067v19.927
		c0,2.777,2.013,5.039,4.423,5.039h55.502C423.127,305.514,425.112,303.252,425.112,300.475L425.112,300.475z"/>
	<path fill="#FFC00C" d="M93.43,305.372c-11.367,1.804-22.791,2.318-34.271,1.574c-1.417-0.144-2.665-0.888-3.713-2.233
		s-1.644-2.892-1.757-4.695c-0.397-38.88-0.454-77.76-0.199-116.668c-3.004,0.172-6.009,0.372-9.014,0.687
		c-1.559,0-2.863-0.572-3.912-1.689s-1.559-2.491-1.559-4.123c0.113-9.104,0.312-18.266,0.567-27.485
		c0-1.661,0.567-3.178,1.672-4.581c1.105-1.432,2.381-2.29,3.827-2.577c16.044-2.376,32.173-2.376,48.359,0
		c1.445,0.287,2.721,1.145,3.827,2.577c1.105,1.403,1.644,2.92,1.644,4.581c1.19,49.158,1.19,98.316,0,147.503
		c0,1.174-0.255,2.263-0.765,3.235c-0.539,0.974-1.219,1.833-2.069,2.577C95.216,304.798,94.337,305.228,93.43,305.372
		L93.43,305.372z"/>
	<path fill="#6C99F5" d="M157.068,161.217c-0.142,5.325-0.284,9.963-0.482,13.972l-1.672,32.782l-1.672,32.753l-1.502,29.775
		l-1.474,29.689l-0.085,1.689l-0.113,1.632c-0.142,0.944-0.369,1.689-0.766,2.376H136.29l-0.879-0.858
		c-0.34-0.315-0.765-0.659-1.275-1.06l-0.794-0.458l-0.793-0.516l0.425-11.022l0.454-10.908c1.248-20.328,1.928-44.406,1.984-72.263
		c0-3.235,0.057-7.73,0.198-13.514l0.284-13.342c0.057-3.836-0.284-6.07-1.077-6.642c-0.794-0.688-2.721-0.344-5.811,1.002
		l-5.216,2.262l-5.216,2.205c-1.389,0.544-2.324,0.687-2.863,0.458c-0.539-0.286-0.992-1.174-1.474-2.663
		c-0.397-1.747-0.879-3.894-1.474-6.413l-1.474-6.414c-0.482-1.718,0.028-3.178,1.474-4.409
		c5.698-4.724,12.643-10.479,20.778-17.293c2.183-1.89,4.45-2.806,6.888-2.806h6.774h6.888c0.34,0,0.766,0.057,1.219,0.229
		l0.765,0.115l0.794,0.229l0.283,2.691c0.142,1.088,0.198,2.062,0.198,2.777L157.068,161.217z"/>
	<path fill="#13B9D6" d="M257.358,148.333v109.54h15.618c1.503,0,2.807,0.63,3.884,1.861c1.105,1.259,1.645,2.749,1.645,4.466v35.33
		c0,1.718-0.539,3.206-1.645,4.438c-1.077,1.26-2.381,1.89-3.884,1.89h-87.902c-1.502,0-2.806-0.63-3.912-1.89
		c-1.078-1.231-1.645-2.72-1.645-4.438v-35.33c0-1.718,0.567-3.207,1.645-4.466c1.105-1.231,2.409-1.861,3.912-1.861h18.964v-56.173
		l-12.926,9.763c-1.219,0.945-2.494,1.403-3.798,1.403c-1.275,0-2.721-1.002-3.997-3.264l-16.611-29.489
		c-0.652-1.174-0.822-2.691-0.822-4.323c0-1.632,0.793-3.407,2.693-4.81l37.701-28.029c0.936-0.687,2.069-0.945,3.288-0.945h42.236
		c1.503,0,2.807,0.63,3.912,1.89C256.791,145.127,257.358,146.616,257.358,148.333L257.358,148.333z"/>
	<path fill="#8489CF" d="M321.279,141.834l-36.113,65.707l-8.022-5.154l33.251-60.553H321.279z M304.101,141.834l-32.485,56.975
		l-7.455-4.924l29.792-52.05H304.101z M338.854,305.858h-9.156V158.154l-6.689,11.824v135.65h-8.986V186.297l-6.689,12.082v107.479
		h-9.156V214.47l-0.396,0.888l-8.022-5.153l38.211-68.37h1.729h9.156V305.858z"/>
	<path fill="#E37D91" d="M420.973,300.303v-19.955c0-2.777-1.956-5.039-4.422-5.039h-4.422c-2.466,0-4.422-2.29-4.422-5.039V147.589
		c0-2.806-2.013-5.039-4.422-5.039h-42.208c-2.438,0-4.422,2.233-4.422,5.039v18.982c0,2.749,1.983,5.039,4.422,5.039h4.479
		c2.409,0,4.394,2.262,4.394,5.039v93.621c0,2.749-1.984,5.039-4.394,5.039h-4.479c-2.438,0-4.422,2.262-4.422,5.039v19.955
		c0,2.749,1.983,5.039,4.422,5.039h55.474C419.017,305.342,420.973,303.052,420.973,300.303L420.973,300.303z"/>
	<path fill="#FFFFFF" d="M177.25,176.678c-0.624,0.487-1.502,0.401-1.984-0.229s-0.368-1.518,0.227-2.004l30.643-24.479
		c0.595-0.487,1.502-0.401,1.984,0.229c0.482,0.601,0.369,1.517-0.255,2.004L177.25,176.678z"/>
	<path fill="#FFFFFF" d="M225.865,148.963c-0.766,0-1.417-0.63-1.417-1.431c0-0.773,0.652-1.432,1.417-1.432h21.771
		c0.765,0,1.417,0.659,1.417,1.432c0,0.801-0.652,1.431-1.417,1.431H225.865z"/>
	<path fill="#FFFFFF" d="M365.386,148.963c-0.794,0-1.418-0.63-1.418-1.431c0-0.773,0.624-1.432,1.418-1.432h32.229
		c0.794,0,1.418,0.659,1.418,1.432c0,0.801-0.624,1.431-1.418,1.431H365.386z"/>
	<path fill="#FFFFFF" d="M140.372,143.696c0.681-0.43,1.531-0.258,1.956,0.429c0.425,0.659,0.255,1.518-0.397,1.947
		c-5.017,3.321-9.127,6.185-12.897,9.133c-3.713,2.949-7.115,6.012-10.743,9.734c-0.539,0.573-1.446,0.573-1.984,0.028
		c-0.567-0.544-0.595-1.431-0.028-2.004c3.685-3.836,7.171-6.986,11.027-10.021C131.159,149.937,135.326,147.045,140.372,143.696
		L140.372,143.696z"/>
	<path fill="#FEFEFE" d="M44.362,149.88c-0.793,0.114-1.502-0.43-1.616-1.203s0.425-1.489,1.19-1.604
		c14.372-2.147,24.633-1.889,38.069-1.546c1.956,0.029,3.969,0.086,6.01,0.144c0.793,0,1.417,0.658,1.389,1.431
		c0,0.802-0.652,1.432-1.446,1.403c-2.098-0.028-4.082-0.086-6.009-0.143C68.684,148.047,58.507,147.79,44.362,149.88L44.362,149.88
		z"/>
	<path fill="#FFFFFF" d="M191.509,266.72c-0.793,0-1.417-0.658-1.417-1.432c0-0.802,0.624-1.432,1.417-1.432h21.742
		c0.794,0,1.417,0.63,1.417,1.432c0,0.773-0.624,1.432-1.417,1.432H191.509z"/>
	<path fill="#FFFFFF" d="M199.389,266.72c-0.794,0-1.417-0.658-1.417-1.432c0-0.802,0.624-1.432,1.417-1.432h21.742
		c0.793,0,1.417,0.63,1.417,1.432c0,0.773-0.624,1.432-1.417,1.432H199.389z"/>
	<path fill="#FFFFFF" d="M227.991,266.72c-0.766,0-1.417-0.658-1.417-1.432c0-0.802,0.652-1.432,1.417-1.432h1.899
		c0.765,0,1.417,0.63,1.417,1.432c0,0.773-0.652,1.432-1.417,1.432H227.991z"/>
	<path fill="#F5B1BE" d="M364.366,281.522c-0.766,0-1.418-0.63-1.418-1.432c0-0.772,0.652-1.432,1.418-1.432h1.899
		c0.765,0,1.417,0.659,1.417,1.432c0,0.802-0.652,1.432-1.417,1.432H364.366z"/>
	<path fill="#FEFEFE" d="M1.417,324.925c-0.794,0-1.417-0.63-1.417-1.432c0-0.772,0.624-1.431,1.417-1.431
		c18.539,0,80.702,0,99.241,0c0.794,0,1.417,0.658,1.417,1.431c0,0.802-0.624,1.432-1.417,1.432
		C82.12,324.925,19.956,324.925,1.417,324.925L1.417,324.925z"/>
	<path fill="#FEFEFE" d="M112.507,324.925c-0.794,0-1.417-0.63-1.417-1.432c0-0.772,0.624-1.431,1.417-1.431h21.742
		c0.793,0,1.417,0.658,1.417,1.431c0,0.802-0.624,1.432-1.417,1.432H112.507z"/>
	<path fill="#FEFEFE" d="M200.211,322.063h0.51h21.232c0.793,0,1.417,0.658,1.417,1.431c0,0.802-0.624,1.432-1.417,1.432h-21.232
		h-0.51h-14.626h-6.633h-15.108c-0.794,0-1.417-0.63-1.417-1.432c0-0.772,0.624-1.431,1.417-1.431h15.108h6.633H200.211z"/>
	<path fill="#FEFEFE" d="M278.986,322.063h4.904c0.766,0,1.417,0.658,1.417,1.431c0,0.802-0.651,1.432-1.417,1.432h-4.904
		c-0.794,0-1.417-0.63-1.417-1.432C277.569,322.721,278.192,322.063,278.986,322.063L278.986,322.063z"/>
	<path fill="#FEFEFE" d="M294.548,324.925c-0.794,0-1.418-0.63-1.418-1.432c0-0.772,0.624-1.431,1.418-1.431h21.741
		c0.794,0,1.418,0.658,1.418,1.431c0,0.802-0.624,1.432-1.418,1.432H294.548z"/>
	<path fill="#FEFEFE" d="M217.474,415.168h0.482h21.26c0.794,0,1.417,0.658,1.417,1.432c0,0.802-0.624,1.432-1.417,1.432h-21.26
		h-0.482h-14.627h-6.633h-15.137c-0.765,0-1.417-0.63-1.417-1.432c0-0.773,0.652-1.432,1.417-1.432h15.137h6.633H217.474z"/>
	<path fill="#FEFEFE" d="M259.795,415.168h4.904c0.793,0,1.417,0.658,1.417,1.432c0,0.802-0.624,1.432-1.417,1.432h-4.904
		c-0.766,0-1.417-0.63-1.417-1.432C258.378,415.827,259.03,415.168,259.795,415.168L259.795,415.168z"/>
	<path fill="#FEFEFE" d="M376.81,361.115v0.515v21.474c0,0.772-0.652,1.431-1.418,1.431c-0.794,0-1.417-0.658-1.417-1.431v-21.474
		v-0.515V346.37v-6.699v-15.289c0-0.772,0.623-1.431,1.417-1.431c0.766,0,1.418,0.658,1.418,1.431v15.289v6.699V361.115z"/>
	<path fill="#A1C2FC" d="M43.342,427.279c-0.34-0.143-0.51-0.572-0.34-0.944c0.17-0.344,0.596-0.516,0.936-0.344l127.672,60.696
		c0.369,0.172,0.51,0.572,0.34,0.945c-0.142,0.343-0.567,0.515-0.936,0.343L43.342,427.279z"/>
	<path fill="#A1C2FC" d="M127.134,366.984c-0.198-0.315-0.113-0.773,0.227-0.974c0.312-0.229,0.765-0.114,0.964,0.2l43.597,67.109
		c0.227,0.315,0.113,0.773-0.198,0.974c-0.34,0.229-0.766,0.144-0.992-0.2L127.134,366.984z"/>
	<path fill="#A1C2FC" d="M117.723,424.845c0.028-0.4,0.396-0.658,0.793-0.63c0.369,0.058,0.652,0.43,0.595,0.802l-4.648,34.586
		c-0.057,0.4-0.425,0.658-0.822,0.601c-0.369-0.028-0.652-0.4-0.595-0.802L117.723,424.845z"/>
	<path fill="#A1C2FC" d="M125.461,442.11c0.028-0.372,0.397-0.659,0.794-0.602c0.368,0.058,0.652,0.401,0.595,0.802l-3.033,22.389
		c-0.028,0.401-0.397,0.659-0.793,0.63c-0.369-0.057-0.652-0.429-0.595-0.802L125.461,442.11z"/>
	<path fill="#A1C2FC" d="M75.572,462.065c-0.34,0.172-0.765,0.028-0.936-0.314c-0.198-0.344-0.057-0.773,0.284-0.974l19.927-10.278
		c0.369-0.172,0.794-0.028,0.964,0.314c0.17,0.344,0.028,0.773-0.312,0.974L75.572,462.065z"/>
	<path fill="#A1C2FC" d="M129.94,411.075c-0.369,0.172-0.794,0.028-0.964-0.315s-0.028-0.772,0.312-0.944l19.927-10.308
		c0.34-0.172,0.766-0.028,0.936,0.315c0.198,0.344,0.057,0.772-0.284,0.974L129.94,411.075z"/>
	
		<path fill="none" stroke="#FEFEFE" stroke-width="4.2946" stroke-linecap="round" stroke-linejoin="round" stroke-miterlimit="10" d="
		M259.228,83.572c10.177,0.745,20.069,2.548,29.565,5.325 M340.498,116.726c3.544,2.978,6.945,6.155,10.177,9.477 M153.099,120.563
		c16.696-15.289,37.021-26.655,59.471-32.61"/>
</g>
</svg>
