<?xml version="1.0" encoding="utf-8"?>
<!-- Generator: Adobe Illustrator 26.0.1, SVG Export Plug-In . SVG Version: 6.00 Build 0)  -->
<!DOCTYPE svg PUBLIC "-//W3C//DTD SVG 1.1//EN" "http://www.w3.org/Graphics/SVG/1.1/DTD/svg11.dtd" [
	<!ENTITY ns_extend "http://ns.adobe.com/Extensibility/1.0/">
	<!ENTITY ns_ai "http://ns.adobe.com/AdobeIllustrator/10.0/">
	<!ENTITY ns_graphs "http://ns.adobe.com/Graphs/1.0/">
	<!ENTITY ns_vars "http://ns.adobe.com/Variables/1.0/">
	<!ENTITY ns_imrep "http://ns.adobe.com/ImageReplacement/1.0/">
	<!ENTITY ns_sfw "http://ns.adobe.com/SaveForWeb/1.0/">
	<!ENTITY ns_custom "http://ns.adobe.com/GenericCustomNamespace/1.0/">
	<!ENTITY ns_adobe_xpath "http://ns.adobe.com/XPath/1.0/">
]>
<svg version="1.1" id="Слой_1" xmlns:x="&ns_extend;" xmlns:i="&ns_ai;" xmlns:graph="&ns_graphs;"
	 xmlns="http://www.w3.org/2000/svg" xmlns:xlink="http://www.w3.org/1999/xlink" x="0px" y="0px" width="579.1px" height="590.8px"
	 viewBox="0 0 579.1 590.8" style="enable-background:new 0 0 579.1 590.8;" xml:space="preserve">
<style type="text/css">
	.st0{fill-rule:evenodd;clip-rule:evenodd;fill:#E3EEFF;}
	.st1{fill-rule:evenodd;clip-rule:evenodd;fill:#FFFFFF;}
	.st2{fill-rule:evenodd;clip-rule:evenodd;fill:#C0D7FF;}
	.st3{fill-rule:evenodd;clip-rule:evenodd;fill:#57CFB1;}
	.st4{fill-rule:evenodd;clip-rule:evenodd;fill:#21B892;}
	.st5{fill-rule:evenodd;clip-rule:evenodd;fill:#2DC49E;}
	.st6{fill-rule:evenodd;clip-rule:evenodd;fill:#0FA17C;}
	.st7{fill:#0FA17C;}
	.st8{fill-rule:evenodd;clip-rule:evenodd;fill:#82E8CF;}
	.st9{fill:#686CA3;}
	.st10{fill:#777DC7;}
	.st11{fill:#8A90D1;}
	.st12{fill:#FFFFFF;}
	.st13{fill:#C5C9FA;}
	.st14{fill:#7479B8;}
	.st15{fill:#4C8BFF;}
	.st16{fill:#78A7FF;}
	.st17{fill:#8CB4FF;}
	.st18{fill:#B3CFFC;}
	.st19{fill-rule:evenodd;clip-rule:evenodd;fill:#A6C7FF;}
	.st20{fill-rule:evenodd;clip-rule:evenodd;fill:#FFC00C;}
	.st21{fill-rule:evenodd;clip-rule:evenodd;fill:#FFCB3D;}
	.st22{fill-rule:evenodd;clip-rule:evenodd;fill:#2DBD99;}
</style>
<metadata>
	<sfw  xmlns="&ns_sfw;">
		<slices></slices>
		<sliceSourceBounds  bottomLeftOrigin="true" height="590.8" width="579.1" x="-208.7" y="-0.9"></sliceSourceBounds>
	</sfw>
</metadata>
<g>
	<path class="st0" d="M289.6,590.8c159.5,0,289.5-132.7,289.5-295.4S449,0,289.6,0S0,132.7,0,295.4S130.1,590.8,289.6,590.8
		L289.6,590.8z"/>
	<path class="st1" d="M538.9,145.5c-10.5-18.1-22.9-35-36.8-50.4c-24.1,3.4-47.2,2.4-69-9.5c-84-46.1-166-0.8-208-49.8
		c-6-7-14.3-14.6-23.6-21.7C154.7,29.3,113,56.5,79.9,92c7.9,4.1,14.7,6.7,19.2,7.4c116.4,16,31.2-8,146.6,35.3
		c95.8,36,196.3,63,291,11.9C537.4,146.2,538.1,145.9,538.9,145.5L538.9,145.5z M1.7,263.6C0.6,274,0,284.6,0,295.4
		c0,21.7,2.4,42.9,6.7,63.4c77.6-42.6,41-34.7,127-37.4c202-6.4,114-127.9,0.9-71.9C85.3,273.8,42,268.6,1.7,263.6L1.7,263.6z"/>
	<path class="st2" d="M289.6,590.8c159.5,0,289.5-132.7,289.5-295.4c0-9.1-0.4-18.1-1.2-27c-19,8.7-40.4,22.1-64.6,41.3
		c-127.2,101-134.9-19.4-271.1-19.4c-36.7,0-59.6,20.6-84.5,48c-37.8,41.6-64,98.1-113.7,113.3C95.3,535,186.2,590.8,289.6,590.8
		L289.6,590.8z"/>
	<path class="st3" d="M289.6,590.8c104.7,0,196.8-57.2,247.6-142.6c-35.1-24.2-85.4-26.7-170.3,23c-127.2,74.6-134.9-14.3-271-14.3
		c-16.7,0-30.4,3.1-42.9,8.4C105.4,541.1,192,590.8,289.6,590.8L289.6,590.8z"/>
	<path class="st4" d="M282.7,428.9c7.5,7.6,11.7,17.8,11.7,28.7c0,22.2-17.7,40.3-39.5,40.3c-21.8,0-39.5-18-39.5-40.3
		c0-11.3,4.5-21.5,11.9-28.8c3.6-4.2,5.8-9.6,5.8-15.6c0-4.2-1.5-7.6-1.5-11.9c0-13.7,9.5-15.3,9.5-25.4c0-2.7-0.9-4.8-0.9-7.6
		c0-8.4,6.7-15.1,14.8-15.1c8.2,0,14.8,6.8,14.8,15.1c0,2.7-1,4.9-1,7.6c0,10.1,9.5,11.8,9.5,25.4c0,4.3-1.5,7.7-1.5,11.9
		C276.8,419.3,279,424.8,282.7,428.9L282.7,428.9z"/>
	<path class="st5" d="M282.7,428.9c7.5,7.6,11.7,17.8,11.7,28.7c0,22.2-17.7,40.3-39.5,40.3V353.2c8.2,0,14.8,6.8,14.8,15.1
		c0,2.7-1,4.9-1,7.6c0,10.1,9.5,11.8,9.5,25.4c0,4.3-1.5,7.7-1.5,11.9C276.8,419.3,279,424.8,282.7,428.9L282.7,428.9z"/>
	<path class="st6" d="M255.6,529.7V353.2h-1.4v176C254.7,529.4,255.1,529.5,255.6,529.7L255.6,529.7z"/>
	<path class="st6" d="M255.5,409.2l18.8-20.8c-0.3-0.4-0.6-0.8-0.9-1.2l-18,19.8V409.2z"/>
	<path class="st6" d="M255.5,453l24.8-27.4c-0.3-0.4-0.5-0.9-0.8-1.3l-24,26.5V453z"/>
	<path class="st6" d="M255.5,497.9l38.8-42.7c0-0.7-0.1-1.3-0.1-1.9l-38.7,42.5L255.5,497.9L255.5,497.9z"/>
	<path class="st6" d="M255.5,485.6L217.7,444c0.1-0.5,0.4-1,0.5-1.5l37.2,41V485.6z"/>
	<path class="st6" d="M255.5,437.9l-22.4-24.7v-0.1c0-0.7-0.1-1.5-0.1-2.3l22.6,24.9V437.9z"/>
	<path class="st6" d="M255.5,392.7L241,376.8c0-0.3,0-0.6,0-0.9c0-0.5,0-0.9-0.1-1.3l14.5,16V392.7z"/>
	<path class="st6" d="M255.5,370.2l10.6-11.7c-0.3-0.4-0.7-0.7-1-1.1l-9.6,10.6V370.2L255.5,370.2z"/>
	<path class="st4" d="M328.1,529.2c-15.3,0-27.7-9.3-27.7-20.8c0-4.3,1.8-8.4,4.8-11.7l0,0c3.9-3.8,6.3-9.3,6.3-15.5
		c0-2-0.3-3.9-0.7-5.8c-1.1-2.6-1.7-5.6-1.7-8.6c0-11.5,8.5-20.8,19-20.8s19,9.3,19,20.8c0,3.1-0.6,6-1.7,8.6
		c-0.5,1.8-0.7,3.8-0.7,5.8c0,6.2,2.4,11.7,6.3,15.5v0c3,3.3,4.8,7.4,4.8,11.7C355.8,519.9,343.4,529.2,328.1,529.2L328.1,529.2z"/>
	<path class="st5" d="M328.1,445.9c10.5,0,19,9.3,19,20.8c0,3.1-0.6,6-1.7,8.6c-0.5,1.8-0.7,3.8-0.7,5.8c0,6.2,2.4,11.7,6.3,15.5v0
		c3,3.3,4.8,7.4,4.8,11.7c0,11.5-12.4,20.8-27.7,20.8V445.9z"/>
	<path class="st7" d="M328.8,445.9v105.7h-1.3V445.9c0.2,0,0.4,0,0.6,0C328.4,445.9,328.6,445.9,328.8,445.9L328.8,445.9z"/>
	<path class="st7" d="M311.4,457l17.2,16.8l-0.9,0.9l-16.9-16.5C311,457.8,311.2,457.4,311.4,457L311.4,457z"/>
	<path class="st7" d="M306.9,494.8l21.7,21.1l-0.9,0.9l-21.6-21.1C306.4,495.5,306.7,495.2,306.9,494.8L306.9,494.8z"/>
	<path class="st7" d="M346.3,472.8l-17.7,17.3l-0.9-0.9l19.1-18.7C346.7,471.3,346.5,472.1,346.3,472.8L346.3,472.8z"/>
	<path class="st7" d="M353.5,500.1l-24.9,24.3l-0.9-0.9l25.1-24.5C353,499.3,353.3,499.7,353.5,500.1L353.5,500.1z"/>
	<polygon class="st7" points="328.1,473.4 328.6,473.8 328.1,474.3 	"/>
	<polygon class="st7" points="328.1,515.5 328.6,515.9 328.1,516.4 	"/>
	<path class="st7" d="M346.3,472.8l-17.7,17.3l-0.5-0.5v-0.9l18.7-18.3C346.7,471.3,346.5,472.1,346.3,472.8L346.3,472.8z"/>
	<path class="st7" d="M353.5,500.1l-24.9,24.3l-0.5-0.5V523l24.7-24.1C353,499.3,353.3,499.7,353.5,500.1L353.5,500.1z"/>
	<path class="st8" d="M289.6,590.8c0.5,0,1,0,1.4,0h0.2c0.4,0,0.9,0,1.3,0h0.2c0.4,0,0.9,0,1.3,0l0.5,0h0.9l0.5,0h0.8
		c23.7-0.6,46.7-4.1,68.7-10.2l0.1,0c6-1.7,11.8-3.5,17.6-5.5l0,0c26.5-9.3,51.3-22.4,73.8-38.7c-12.2-7.5-26.9-11.9-42.8-11.9
		c-12.6,0-24.4,2.7-34.8,7.6l0,0c-42.1,18.9-49.1,24.9-91.3-1.9l0,0c-19.1-13-42.9-20.7-68.7-20.7c-34.1,0-64.7,13.5-85.6,34.9
		c40.5,26.6,87.9,43.1,138.7,46.2h0.1c0.7,0,1.3,0.1,1.9,0.1l1.1,0.1c0.4,0,0.8,0,1.2,0.1c0.6,0,1.2,0.1,1.7,0.1l0.8,0
		c0.7,0,1.4,0.1,2.1,0.1h0.5c0.8,0,1.6,0.1,2.3,0.1h0.3c0.9,0,1.7,0,2.5,0h0.1C287.8,590.8,288.7,590.8,289.6,590.8L289.6,590.8z"/>
	<path class="st9" d="M51.4,455.6c-5.1,0-10-1-14.8-3c-4.8-2-8.8-4.8-12.3-8.4c-3.5-3.5-6.3-7.6-8.3-12.3c-2-4.8-3-9.8-3-15.3
		c0-11.1,3.7-20.1,11.1-27.1c29.4-34,57.3-69.3,89-101.1c6.4-6.4,11.2-12.9,14.5-19.4c1.9-3.6,2.7-7,2.7-10.3c0-5.1-2.2-9-6.6-11.4
		c-3.2-1.8-7.3-2.8-12.1-2.8c-4.5,0-8.5,0.8-12,2.3c-3.5,1.6-6.3,4.6-8.2,9c-2.4,10.5-6.7,18.4-13.1,23.8
		c-6.3,5.4-14.2,8.1-23.6,8.1c-11.5,0-20.5-3.5-27-10.6c-3.1-3.3-5.5-7.2-7.1-11.7c-1.6-4.6-2.5-9.4-2.5-14.5c0-2.6,0.2-5.2,0.7-8
		c1.2-8,4.1-16.1,9.1-24.5c4.9-8.3,11.2-15.8,19-22.7c8.5-7.4,18.1-13.1,28.9-17.4c10.7-4.3,22.3-6.4,34.8-6.4
		c14,0,26.8,1.7,38.4,5.2c11.5,3.5,21.6,8.8,30.1,15.8c17.7,14.7,26.6,35.4,26.6,62.2c0,8.6-0.8,16.6-2.4,24.1
		c-1.7,7.4-4.3,14.8-8,22.1c-7.1,14.1-19.2,30.2-36.2,48.6l-27.5,29.3h37c5.2,0,10.2,1,14.9,2.8c4.6,1.8,8.8,4.5,12.4,7.7
		c3.5,3.6,6.2,7.8,8.1,12.4c2,4.6,2.9,9.6,2.9,15c0,5.3-0.9,10.3-2.9,14.9c-1.9,4.7-4.6,8.8-8.1,12.4c-3.6,3.4-7.7,6.2-12.5,8.1
		c-4.7,2-9.7,3-14.8,3H51.4z"/>
	<path class="st10" d="M51.4,455.6c-5.1,0-10-1-14.8-3c-4.8-2-8.8-4.8-12.3-8.4c-3.5-3.5-6.3-7.6-8.3-12.3c-2-4.8-3-9.8-3-15.3
		c0-11.1,3.7-20.1,11.1-27.1c29.4-34,57.3-69.3,89-101.1c-77.9,79.4-1.4,130.6,39.4,112.5c10.1-4.5,14.7-5.8,24-9.1
		c10.5-3.7,17.9-2.4,23,2.2c1.8,2.5,3.3,5.2,4.5,8c2,4.6,2.9,9.6,2.9,15c0,5.3-0.9,10.3-2.9,14.9c-1.9,4.7-4.6,8.8-8.1,12.4
		c-3.6,3.4-7.7,6.2-12.5,8.1c-4.7,2-9.7,3-14.8,3H51.4z"/>
	<path class="st11" d="M51.4,455.6c-5.1,0-10-1-14.8-3c-4.8-2-8.8-4.8-12.3-8.4c-3.5-3.5-6.3-7.6-8.3-12.3c-2-4.8-3-9.8-3-15.3
		c0-11.1,3.7-20.1,11.1-27.1c4.6-5.4,9.3-10.8,13.9-16.3c34.8-15.4,46.5,13.7,39,46.7c-4.3,19.1,0.5,34.9,45.6,35.6H51.4z"/>
	<path class="st10" d="M60,287.6c-1.7,0.2-3.4,0.3-5.2,0.3c-11.5,0-20.5-3.5-27-10.6c-3.1-3.3-5.5-7.2-7.1-11.7
		c-1.6-4.6-2.5-9.4-2.5-14.5c0-2.6,0.2-5.2,0.7-8c1.2-8,4.1-16.1,9.1-24.5c4.9-8.3,11.2-15.8,19-22.7c8.5-7.4,18.1-13.1,28.9-17.4
		c10.7-4.3,22.3-6.4,34.8-6.4c14,0,26.8,1.7,38.4,5.2c11.5,3.5,21.6,8.8,30.1,15.8c1.5,1.3,2.9,2.5,4.3,3.9
		c8.1,25-10.1,40.4-34.9,35c-9.6-2.1-14-5.5-25-6C81.3,224.3,78.3,279.9,60,287.6L60,287.6z"/>
	<path class="st11" d="M18.2,252.1c0-0.3,0-0.6,0-0.9c0-2.6,0.2-5.2,0.7-8c1.2-8,4.1-16.1,9.1-24.5c4.9-8.3,11.2-15.8,19-22.7
		c8.5-7.4,18.1-13.1,28.9-17.4c5.4-2.2,11.1-3.8,17.1-4.9c-3.9,2.6-42.2,11.6-27.2,35.5c20.5,32.7,0.4,54.6-28.5,48.4
		C29.5,255.8,25.2,253.3,18.2,252.1L18.2,252.1z"/>
	<path class="st12" d="M51.5,458.8c-2.7,0-5.4-0.3-8.1-0.8c-2.7-0.5-5.4-1.4-7.9-2.4c-0.1,0-0.2-0.1-0.3-0.1c-2.6-1.1-4.9-2.3-7-3.8
		c-2.2-1.5-4.3-3.3-6.2-5.2c-1.9-1.9-3.6-3.9-5.1-6.1c-1.5-2.2-2.8-4.6-3.9-7.2v0l0,0c-1.1-2.6-1.9-5.3-2.4-8s-0.8-5.6-0.8-8.5
		c0-6,1-11.5,3.1-16.4c2-5,5-9.3,9-13.1c5.6-6.5,15-16.7,25.9-28.6c29.1-31.7,68.8-75,76.6-90.6l0-0.1l0,0c0.8-1.5,1.4-3,1.8-4.4
		c0.4-1.4,0.6-2.8,0.6-4.2c0-1.9-0.4-3.6-1.2-4.9c-0.7-1.3-1.9-2.4-3.6-3.3l-0.2-0.1c-1.3-0.7-2.7-1.3-4.4-1.6
		c-1.7-0.4-3.7-0.6-5.9-0.6c-2,0-3.9,0.2-5.7,0.5c-1.8,0.3-3.4,0.9-4.9,1.5l-0.1,0c-1.3,0.6-2.4,1.5-3.4,2.6c-1,1.2-2,2.6-2.8,4.3
		c-1.2,5.4-3,10.2-5.3,14.3c-2.4,4.4-5.3,8-8.8,10.9c-3.5,2.9-7.4,5.2-11.8,6.7c-4.3,1.5-9,2.2-14,2.2c-6.2,0-11.7-1-16.6-2.9
		c-5-2-9.3-4.9-12.9-8.8l0,0c-1.7-1.8-3.2-3.8-4.5-6c-1.3-2.1-2.4-4.4-3.3-6.9v0v0c-0.9-2.5-1.6-5.1-2-7.7c-0.5-2.6-0.7-5.2-0.7-8
		c0-1.4,0.1-2.8,0.2-4.2c0.1-1.3,0.3-2.7,0.5-4.3l0,0c0.6-4.2,1.7-8.5,3.3-12.8c1.6-4.3,3.6-8.6,6.2-12.9h0
		c2.6-4.3,5.4-8.4,8.7-12.3c3.3-4,6.9-7.7,11-11.2c0.1-0.1,0.1-0.1,0.2-0.2c4.3-3.7,8.9-7.1,13.8-10c5-3,10.2-5.6,15.8-7.8l0.1,0
		c5.5-2.2,11.2-3.9,17.2-5c6.1-1.1,12.3-1.7,18.7-1.7c7.1,0,13.9,0.5,20.5,1.3c6.6,0.9,12.8,2.2,18.8,4h0l0,0
		c5.9,1.8,11.5,4.1,16.8,6.8c5.2,2.8,10,6,14.5,9.6c9.3,7.7,16.2,17,20.9,27.9c4.6,10.8,6.9,23.1,6.9,36.9c0,4.3-0.2,8.6-0.6,12.8
		c-0.4,4.2-1,8.2-1.8,12c0,0.1-0.1,0.2-0.1,0.3c-0.9,3.8-2,7.7-3.4,11.5c-1.4,3.8-3,7.5-4.9,11.2l0,0c-3.6,7.2-8.5,14.9-14.7,23.1
		c-6.1,8.2-13.4,16.9-22,26.1l0,0h0l-21.7,23.2h28.7c2.8,0,5.5,0.3,8.2,0.8l0,0c2.7,0.5,5.3,1.3,7.9,2.3h0l0,0
		c2.5,1,4.8,2.2,7.1,3.6c2.3,1.4,4.4,3,6.3,4.8c0.1,0.1,0.2,0.2,0.3,0.3c1.9,1.9,3.5,4,5,6.2c1.5,2.2,2.7,4.6,3.7,7.1l0,0
		c1.1,2.5,1.9,5.2,2.4,7.9c0.5,2.7,0.8,5.5,0.8,8.4c0,2.9-0.3,5.7-0.8,8.4c-0.5,2.7-1.3,5.3-2.4,7.8l0,0c-1,2.6-2.3,5-3.8,7.2
		l-0.1,0.2c-1.5,2.1-3.1,4.2-5,6.1l-0.1,0.1c-2,1.9-4.1,3.6-6.3,5c-2.2,1.4-4.6,2.7-7.3,3.8l0,0c-2.6,1.1-5.2,1.9-7.9,2.4
		c-2.7,0.6-5.4,0.8-8.1,0.8H51.5z M44.8,451c2.2,0.5,4.4,0.7,6.7,0.7h117c2.3,0,4.6-0.2,6.7-0.7c2.2-0.5,4.4-1.1,6.6-2.1v0l0,0
		c2.2-0.9,4.2-1.9,6.1-3.2c1.9-1.2,3.6-2.6,5.2-4.2c1.5-1.6,2.9-3.2,4.1-5l0.1-0.2c1.2-1.9,2.3-3.9,3.1-6l0,0l0-0.1
		c0.9-2,1.5-4.2,2-6.4c0.4-2.3,0.7-4.6,0.7-7c0-2.5-0.2-4.8-0.7-7.1c-0.4-2.2-1.1-4.4-2-6.5l0,0l0,0c-0.8-2.1-1.9-4.1-3.1-5.9
		c-1.2-1.9-2.6-3.6-4.1-5.2c-1.7-1.5-3.4-2.8-5.3-4c-1.8-1.1-3.8-2.1-5.9-3l0,0c-2.1-0.8-4.3-1.5-6.6-1.9c-2.2-0.4-4.6-0.6-7-0.6
		h-37l0,0c-0.9,0-1.8-0.3-2.4-1c-1.4-1.3-1.5-3.6-0.1-5l27.4-29.2l0,0c8.4-9,15.5-17.5,21.5-25.5c5.9-7.9,10.5-15.3,14-22.1l0,0l0,0
		c1.8-3.4,3.3-6.9,4.5-10.4c1.3-3.6,2.3-7.1,3.1-10.7v-0.1c0.8-3.6,1.4-7.4,1.8-11.2c0.4-3.8,0.6-7.8,0.6-12.1
		c0-12.9-2.1-24.2-6.3-34c-4.2-9.8-10.5-18.2-18.9-25.2c-4.1-3.3-8.5-6.3-13.2-8.8c-4.8-2.5-9.9-4.6-15.5-6.3l0,0
		c-5.6-1.7-11.5-2.9-17.7-3.8c-6.2-0.9-12.7-1.3-19.6-1.3c-6.1,0-11.9,0.5-17.5,1.5c-5.5,1-10.7,2.5-15.8,4.6l-0.1,0.1
		c-5.2,2.1-10.1,4.5-14.7,7.3c-4.5,2.7-8.8,5.8-12.9,9.3l-0.1,0.1c-3.8,3.3-7.2,6.8-10.2,10.5c-3,3.6-5.7,7.4-8.1,11.4l0,0l0,0
		c-2.4,4-4.3,7.9-5.7,11.8c-1.4,3.8-2.4,7.6-2.9,11.3h0v0c-0.2,1.2-0.3,2.5-0.4,3.8c-0.1,1.2-0.2,2.4-0.2,3.6c0,2.3,0.2,4.6,0.6,6.8
		c0.4,2.3,1,4.4,1.7,6.6l0,0c0.7,2,1.6,3.8,2.6,5.5c1,1.7,2.3,3.3,3.7,4.8l0.1,0.1c2.9,3.1,6.3,5.5,10.3,7c4.1,1.6,8.7,2.4,14.1,2.4
		c4.3,0,8.2-0.6,11.7-1.8c3.5-1.2,6.7-3,9.5-5.4c2.8-2.4,5.2-5.4,7.2-8.9c2-3.6,3.5-7.9,4.6-12.7c0.1-0.3,0.1-0.5,0.3-0.8
		c1.1-2.5,2.5-4.7,4.1-6.5c1.6-1.8,3.5-3.2,5.7-4.2l0.2-0.1c2-0.9,4.1-1.5,6.4-2c2.2-0.4,4.6-0.7,7-0.7c2.6,0,5.1,0.3,7.4,0.8
		c2.3,0.5,4.5,1.3,6.3,2.4l0.1,0c2.8,1.5,4.9,3.5,6.3,6c1.4,2.5,2.2,5.3,2.2,8.5c0,2-0.3,4-0.8,6c-0.5,2-1.3,4-2.4,6l0,0
		c-8.4,16.5-48.4,60.2-77.7,92.1c-10.7,11.7-20,21.8-25.8,28.5c-0.1,0.1-0.2,0.3-0.3,0.4c-3.3,3.1-5.8,6.7-7.4,10.7
		c-1.6,4-2.5,8.6-2.5,13.7c0,2.5,0.2,4.9,0.7,7.2c0.5,2.3,1.1,4.5,2,6.7l0,0c0.9,2.1,2,4.1,3.2,5.9c1.2,1.9,2.7,3.6,4.3,5.1l0.1,0.1
		c1.5,1.6,3.2,3,5,4.3c1.8,1.2,3.7,2.3,5.8,3.1c0.1,0,0.2,0.1,0.3,0.1C40.4,449.8,42.6,450.5,44.8,451L44.8,451z"/>
	<path class="st13" d="M171.3,412.1c-3.9,0-7.1-3.2-7.1-7.2c0-4,3.1-7.2,7.1-7.2h0.2c3.9,0,7.1,3.2,7.1,7.2c0,4-3.2,7.2-7.1,7.2
		H171.3z"/>
	<path class="st12" d="M39.5,238.5c-0.5,1.5-2.2,2.3-3.6,1.7c-1.4-0.5-2.2-2.2-1.7-3.7c0.8-2.3,2.1-4.6,3.7-7.1c1.6-2.5,3.7-5,6-7.5
		c1.3-1.4,2.6-2.8,4.1-4.2c1.4-1.3,3-2.7,4.6-4.2c1.2-1,3-0.9,4,0.3c1,1.2,0.9,3-0.3,4c-1.5,1.3-2.9,2.6-4.4,4
		c-1.4,1.3-2.7,2.6-3.9,3.9c-2.2,2.3-4,4.6-5.4,6.8C41.2,234.7,40.1,236.7,39.5,238.5L39.5,238.5z M78.6,202.4
		c-1.4,0.8-3.1,0.3-3.9-1.1c-0.7-1.4-0.3-3.1,1.1-3.9c1.4-0.8,2.7-1.5,4.1-2.1c1.2-0.6,2.6-1.3,3.9-1.9c2.1-1,4.1-1.8,6.1-2.5
		c2-0.7,3.8-1.2,5.6-1.6c1.5-0.3,3,0.6,3.4,2.2c0.3,1.5-0.6,3.1-2.1,3.4c-1.6,0.3-3.2,0.8-5,1.5c-1.8,0.6-3.7,1.4-5.7,2.3
		c-1.1,0.5-2.4,1.1-3.7,1.8C81.1,201.1,79.8,201.8,78.6,202.4L78.6,202.4z"/>
	<path class="st10" d="M377.7,449.4c-5.8,0-11.4-1.1-16.7-3.4c-5.4-2.3-10.1-5.4-13.9-9.5c-4.1-3.9-7.2-8.6-9.4-13.9
		c-2.2-5.4-3.4-11.2-3.4-17.4c0-12.6,4.2-22.8,12.5-30.7c23.8-27.6,104.8-111.6,117.4-136.7c2.1-4.1,3.1-8,3.1-11.7
		c0-5.8-2.5-10.2-7.5-12.9c-3.6-2.1-8.2-3.2-13.8-3.2c-5.1,0-9.7,0.9-13.6,2.7c-4,1.8-7.1,5.2-9.3,10.2c-2.7,11.9-7.7,20.9-14.9,27
		s-16.1,9.2-26.7,9.2c-13,0-23.3-4-30.7-12c-3.5-3.8-6.3-8.2-8.1-13.2c-1.8-5.2-2.8-10.7-2.8-16.5c0-2.9,0.2-5.9,0.7-9.1
		c1.3-9.1,4.7-18.3,10.3-27.8c5.5-9.4,12.7-18,21.6-25.8c9.6-8.3,20.5-14.9,32.7-19.8c12.1-4.9,25.3-7.3,39.5-7.3
		c15.9,0,30.4,2,43.6,5.9c13.1,4,24.5,10,34.1,18c20.1,16.7,30.2,40.2,30.2,70.5c0,9.8-0.9,18.8-2.7,27.3
		c-1.9,8.4-4.9,16.8-9.1,25.1c-8.1,16-21.8,34.3-41.1,55.1l-31.2,33.2h42c6,0,11.6,1.1,16.9,3.1c5.3,2.1,10,5.1,14,8.8
		c4,4.1,7.1,8.8,9.2,14.1c2.2,5.3,3.3,10.9,3.3,17c0,6-1,11.7-3.3,16.9c-2.2,5.4-5.3,10-9.2,14.1c-4,3.9-8.7,7-14.2,9.2
		c-5.4,2.3-11,3.4-16.8,3.4H377.7z"/>
	<path class="st11" d="M341.8,230.5c-1.2-4.2-1.8-8.6-1.8-13.2c0-2.9,0.2-5.9,0.7-9.1c1.3-9.1,4.7-18.3,10.3-27.8
		c5.5-9.4,12.7-18,21.6-25.8c6.7-5.8,14.1-10.8,22.1-14.9C384.6,181.4,379.5,235,341.8,230.5L341.8,230.5z"/>
	<path class="st9" d="M377.7,449.4c-5.8,0-11.4-1.1-16.7-3.4c-5.4-2.3-10.1-5.4-13.9-9.5c-4.1-3.9-7.2-8.6-9.4-13.9
		c-2.2-5.4-3.4-11.2-3.4-17.4c0-12.6,4.2-22.8,12.5-30.7c23.8-27.6,104.8-111.6,117.4-136.7c2.1-4.1,3.1-8,3.1-11.7
		c0-5.8-2.5-10.2-7.5-12.9c-3.6-2.1-8.2-3.1-13.8-3.1c-5.1,0-9.7,0.9-13.6,2.7c-4,1.8-7.1,5.2-9.3,10.2c-2.7,11.9-7.7,20.9-14.9,27
		s-16.1,9.2-26.7,9.2c-9.6,0-17.7-2.2-24.3-6.6c32.5,15,44.6-22.7,50-57.7c3.2-20.6,22.8-35,37.8-37.2c27.2-4,57.2,19.7,73.1,32
		c13.2,10.3,36.3,6.2,16.9-25.5c11.9,15.3,17.8,34.5,17.8,57.8c0,9.8-0.9,18.8-2.7,27.3c-1.9,8.4-4.9,16.8-9.1,25.1
		c-8.1,16-21.8,34.3-41.1,55.1l-31.2,33.2h42c6,0,11.6,1.1,16.9,3.1c5.3,2.1,10,5.1,14,8.8c4,4.1,7.1,8.8,9.2,14.1
		c2.2,5.3,3.3,10.9,3.3,17c0,6-1,11.7-3.3,16.9c-2.2,5.4-5.3,10-9.2,14.1c-4,3.9-8.7,7-14.2,9.2c-5.4,2.3-11,3.4-16.8,3.4H377.7z"/>
	<path class="st10" d="M377.7,449.4c-5.8,0-11.4-1.1-16.7-3.4c-5.4-2.3-10.1-5.4-13.9-9.5c-4.1-3.9-7.2-8.6-9.4-13.9
		c-2.2-5.4-3.4-11.2-3.4-17.4c0-9.3,2.3-17.4,6.9-24.1c19-25.3,33.7-0.2,52.6,3c33.5,5.7,42.5-33.4,62.4-60.1
		c10.5-14.1,27-28.1,42.4-28.1c10.2,0,18.5,2.1,25.4,5.2c-6.7,8.9-14.7,18.4-24,28.4l-31.2,33.2h42c6,0,11.6,1.1,16.9,3.1
		c5.3,2.1,10,5.1,14,8.8c4,4.1,7.1,8.8,9.2,14.1c2.2,5.3,3.3,10.9,3.3,17c0,6-1,11.7-3.3,16.9c-2.2,5.4-5.3,10-9.2,14.1
		c-4,3.9-8.7,7-14.2,9.2c-5.4,2.3-11,3.4-16.8,3.4H377.7z"/>
	<path class="st11" d="M510.9,362.7c6,0,11.6,1.1,16.9,3.1c5.3,2.1,10,5.1,14,8.8c4,4.1,7.1,8.8,9.2,14.1c2.2,5.3,3.3,10.9,3.3,17
		c0,6-1,11.7-3.3,16.9c-2.2,5.4-5.3,10-9.2,14.1c-4,3.9-8.7,7-14.2,9.2c-5.4,2.3-11,3.4-16.8,3.4H383.8
		c6.2-16.8,18.3-25.9,40.9-17.9c12.7,4.5,30.3,11.4,45.3,13.1c25.4,3,52.9-6.3,59-28C532.7,403.3,533.9,375.3,510.9,362.7
		L510.9,362.7z"/>
	<path class="st14" d="M489.5,184.8c6,3.7,12,10,17.7,17.1c13.8,17.2,37.3,1.9,34.5,4.3c-47.7,40.6-80.2-0.3-75.2-16.2
		C468.4,183.8,476,176.4,489.5,184.8L489.5,184.8z"/>
	<path class="st10" d="M438.3,335.2c0,0-17.5,26.7-28.4,36.2c-14.4,12.6-30-8.3-14.3-19.1C405.2,345.6,428.8,341,438.3,335.2
		L438.3,335.2z"/>
	<path class="st12" d="M377.7,452.9c-3.1,0-6.1-0.3-9.2-0.9c-3.1-0.6-6-1.5-8.9-2.7c-0.1,0-0.2-0.1-0.3-0.1
		c-2.9-1.2-5.5-2.6-7.9-4.3c-2.5-1.7-4.8-3.7-6.9-5.9c-2.2-2.1-4.1-4.4-5.8-6.9c-1.7-2.5-3.2-5.2-4.4-8.1l0,0l0,0
		c-1.2-2.9-2.1-5.9-2.7-9c-0.6-3.1-0.9-6.3-0.9-9.6c0-6.7,1.1-12.9,3.4-18.4c2.3-5.6,5.7-10.5,10.1-14.8
		c6.4-7.4,17.1-19.1,29.5-32.6c33.1-36.1,78.3-85.4,87.3-103.2l0,0h0c0.9-1.8,1.6-3.5,2.1-5.2c0.5-1.7,0.7-3.3,0.7-4.9
		c0-2.3-0.5-4.2-1.4-5.8c-0.9-1.5-2.3-2.9-4.3-3.9l-0.2-0.1c-1.5-0.8-3.2-1.5-5.1-1.9c-2-0.5-4.3-0.7-6.8-0.7
		c-2.4,0-4.5,0.2-6.5,0.6c-2,0.4-3.9,1-5.7,1.8l-0.1,0c-1.5,0.7-2.9,1.7-4.1,3.1c-1.2,1.3-2.3,3-3.2,5c-1.4,6.1-3.5,11.5-6,16.3
		c-2.7,4.9-6,9-9.9,12.3c-3.9,3.3-8.3,5.8-13.2,7.5c-4.8,1.7-10.1,2.5-15.8,2.5c-6.9,0-13.2-1.1-18.7-3.3
		c-5.6-2.2-10.5-5.5-14.5-9.9h0c-1.9-2-3.6-4.3-5.1-6.7c-1.4-2.4-2.7-5-3.7-7.8l0,0l0,0c-1-2.8-1.8-5.7-2.3-8.7
		c-0.5-2.9-0.7-5.9-0.7-9c0-1.5,0.1-3.1,0.2-4.7c0.1-1.5,0.3-3.1,0.6-4.9h0c0.7-4.8,1.9-9.6,3.7-14.5c1.8-4.8,4.1-9.7,7-14.7l0,0
		c2.9-4.9,6.2-9.5,9.9-14c3.7-4.5,7.9-8.7,12.4-12.7c0.1-0.1,0.1-0.1,0.2-0.2c4.9-4.2,10.1-8,15.7-11.4c5.6-3.4,11.6-6.3,17.9-8.8
		l0.1,0c6.2-2.5,12.7-4.4,19.4-5.6c6.9-1.3,13.9-1.9,21.2-1.9c8.1,0,15.8,0.5,23.3,1.5c7.5,1,14.5,2.5,21.3,4.5l0,0v0
		c6.7,2.1,13.1,4.7,19,7.8c5.9,3.1,11.4,6.7,16.4,10.9c10.5,8.7,18.4,19.2,23.6,31.5c5.2,12.2,7.9,26.2,7.9,41.8
		c0,10-0.9,19.3-2.8,28.1c0,0.1,0,0.2-0.1,0.3c-1,4.4-2.3,8.7-3.8,13c-1.5,4.3-3.4,8.5-5.5,12.7l0,0c-4.1,8.1-9.7,16.9-16.6,26.3
		c-6.9,9.2-15.3,19.1-25,29.7l0,0h0l-25.5,27.2h33.8c3.1,0,6.3,0.3,9.3,0.9l0,0c3,0.6,6,1.4,8.8,2.5h0l0,0c2.8,1.1,5.4,2.5,7.9,4
		c2.6,1.6,5,3.4,7.2,5.4c0.1,0.1,0.2,0.2,0.3,0.3c2.1,2.2,4,4.5,5.6,7c1.6,2.5,3.1,5.2,4.2,8l0,0c1.2,2.8,2.1,5.8,2.7,8.9
		c0.6,3.1,0.9,6.2,0.9,9.5c0,3.2-0.3,6.4-0.9,9.5c-0.6,3-1.5,5.9-2.7,8.8l0,0c-1.2,2.9-2.6,5.6-4.3,8.1v0l0,0
		c-1.6,2.5-3.6,4.9-5.7,7.1l-0.1,0.1c-2.2,2.1-4.6,4-7.1,5.7c-2.5,1.6-5.2,3.1-8.2,4.3l0,0c-2.9,1.2-5.9,2.1-8.9,2.7
		c-3.1,0.6-6.1,0.9-9.2,0.9H377.7z M369.9,445c2.5,0.5,5.1,0.8,7.8,0.8h133.2c2.7,0,5.3-0.3,7.8-0.8c2.6-0.5,5.1-1.3,7.6-2.3l0,0h0
		c2.5-1,4.8-2.3,7-3.7c2.2-1.4,4.2-3,6-4.8c1.8-1.8,3.4-3.8,4.8-6l0,0c1.4-2.1,2.6-4.4,3.6-6.8l0,0l0-0.1c1-2.4,1.8-4.8,2.3-7.4
		c0.5-2.6,0.7-5.3,0.7-8.1c0-2.8-0.2-5.6-0.7-8.1c-0.5-2.6-1.2-5.1-2.3-7.5l0,0v0c-1-2.4-2.2-4.7-3.6-6.8c-1.4-2.1-3-4.1-4.8-6
		c-1.9-1.7-3.9-3.3-6.1-4.6c-2.1-1.3-4.4-2.5-6.8-3.4v0c-2.4-0.9-5-1.7-7.6-2.2c-2.6-0.5-5.2-0.7-8-0.7h-42v0c-0.9,0-1.8-0.3-2.4-1
		c-1.4-1.3-1.5-3.6-0.1-5l31.2-33.2l0,0c9.6-10.3,17.7-20,24.5-29.1c6.7-9,12-17.4,16-25.2l0,0v0c2-3.9,3.7-7.9,5.2-11.9
		c1.5-4.1,2.7-8.1,3.6-12.2l0-0.1c1.8-8.2,2.6-17.1,2.6-26.6c0-14.7-2.4-27.7-7.2-38.9c-4.8-11.2-12-20.8-21.7-28.8
		c-4.6-3.9-9.7-7.2-15.2-10.1c-5.4-2.9-11.4-5.3-17.7-7.2l0,0c-6.4-1.9-13.2-3.3-20.2-4.3c-7.1-1-14.5-1.4-22.4-1.4
		c-6.9,0-13.6,0.6-20,1.7c-6.3,1.2-12.3,2.9-18.1,5.3l-0.1,0.1c-5.9,2.3-11.5,5.1-16.8,8.3c-5.2,3.1-10.1,6.7-14.7,10.7l-0.1,0.1
		c-4.3,3.8-8.2,7.8-11.7,11.9c-3.5,4.1-6.5,8.5-9.2,13l0,0l0,0c-2.7,4.6-4.8,9-6.5,13.5c-1.6,4.4-2.7,8.7-3.4,13l0,0v0
		c-0.2,1.4-0.4,2.9-0.5,4.4c-0.1,1.4-0.2,2.8-0.2,4.2c0,2.7,0.2,5.3,0.6,7.8c0.5,2.6,1.1,5.1,2,7.5l0,0c0.8,2.3,1.8,4.4,3,6.4
		c1.2,2,2.6,3.8,4.3,5.5l0,0.1c3.4,3.6,7.3,6.3,11.9,8.1c4.7,1.8,10.1,2.7,16.2,2.7c4.9,0,9.4-0.7,13.5-2.1
		c4.1-1.4,7.7-3.5,10.9-6.2c3.3-2.7,6-6.2,8.3-10.3c2.3-4.2,4.1-9,5.4-14.6c0.1-0.3,0.1-0.5,0.3-0.8c1.3-2.8,2.8-5.2,4.6-7.2
		c1.8-2,3.9-3.6,6.3-4.7l0.2-0.1c2.2-1,4.6-1.7,7.2-2.2c2.5-0.5,5.1-0.7,7.9-0.7c3,0,5.8,0.3,8.3,0.9c2.6,0.6,5,1.5,7.1,2.7l0.1,0
		c3.1,1.7,5.4,3.9,7,6.6c1.6,2.7,2.4,5.9,2.4,9.4c0,2.2-0.3,4.4-0.9,6.8c-0.6,2.2-1.4,4.4-2.6,6.7l0,0
		c-9.5,18.7-55.1,68.4-88.4,104.7c-12.2,13.3-22.8,24.9-29.4,32.5c-0.1,0.1-0.2,0.3-0.3,0.4c-3.8,3.6-6.7,7.7-8.6,12.4
		c-1.9,4.7-2.9,9.9-2.9,15.7c0,2.9,0.3,5.6,0.8,8.3c0.5,2.6,1.3,5.2,2.3,7.7h0c1,2.4,2.3,4.7,3.7,6.8c1.4,2.1,3.1,4.1,4.9,5.8
		l0.1,0.1c1.8,1.8,3.7,3.5,5.8,5c2.1,1.4,4.3,2.6,6.7,3.6c0.1,0,0.2,0.1,0.3,0.1C364.8,443.7,367.4,444.5,369.9,445L369.9,445z"/>
	<path class="st13" d="M477.9,387.9c-3.9,0-7.1-3.2-7.1-7.2c0-4,3.1-7.2,7.1-7.2h24.5c3.9,0,7.1,3.2,7.1,7.2c0,4-3.2,7.2-7.1,7.2
		H477.9z"/>
	<path class="st12" d="M358.7,205.4c-0.5,1.5-2.2,2.3-3.6,1.7c-1.5-0.5-2.2-2.2-1.7-3.7c1.8-4.8,5.7-12.9,11.7-21
		c4.3-5.8,9.7-11.6,16.2-16.5c1.2-0.9,3-0.7,3.9,0.6c0.9,1.3,0.7,3-0.6,4c-6,4.5-11.1,9.9-15.1,15.3
		C363.9,193.5,360.3,200.9,358.7,205.4L358.7,205.4z"/>
	<path class="st15" d="M192.5,336.1c-5.6,0-11-1.1-16.2-3.3c-5.3-2.2-9.7-5.2-13.5-9.2c-3.9-3.8-6.9-8.3-9.1-13.4
		c-2.2-5.2-3.3-10.8-3.3-16.7c0-12.1,4.1-22,12.1-29.7c23-26.6,101.1-107.8,113.4-131.9c2.1-4,3-7.7,3-11.3c0-5.6-2.4-9.8-7.2-12.5
		c-3.5-2-8-3.1-13.3-3.1c-4.9,0-9.3,0.9-13.2,2.6c-3.8,1.7-6.8,5.1-9,9.9c-2.6,11.5-7.4,20.2-14.3,26.1c-6.9,5.9-15.5,8.8-25.8,8.8
		c-12.6,0-22.5-3.9-29.6-11.6c-3.4-3.6-6-7.9-7.8-12.8c-1.8-5-2.7-10.3-2.7-15.9c0-2.8,0.3-5.7,0.7-8.8c1.3-8.8,4.5-17.7,9.9-26.9
		c5.3-9.1,12.2-17.4,20.8-24.9c9.3-8,19.8-14.4,31.6-19c11.7-4.8,24.4-7.1,38.1-7.1c15.4,0,29.4,1.9,42.1,5.7
		c12.7,3.9,23.6,9.6,33,17.4c19.4,16.1,29.1,38.8,29.1,68.1c0,9.4-0.9,18.2-2.6,26.4c-1.8,8.1-4.7,16.3-8.8,24.2
		c-7.8,15.4-21,33.1-39.7,53.2l-30.1,32.1h40.6c5.7,0,11.1,1.1,16.3,3.1c1.6,0.6,3.2,1.4,4.7,2.2c3.2,1.7,6.3,3.8,8.8,6.3
		c3.9,3.8,6.9,8.5,8.9,13.6c2.2,5.1,3.2,10.5,3.2,16.4c0,5.8-1,11.3-3.2,16.3c-2.1,5.2-5.1,9.6-8.9,13.6c-3.9,3.8-8.4,6.8-13.7,8.9
		c-5.2,2.2-10.6,3.3-16.2,3.3H192.5z"/>
	<path class="st16" d="M192.5,336.1c-5.6,0-11-1.1-16.2-3.3c-5.3-2.2-9.7-5.2-13.5-9.2c-3.9-3.8-6.9-8.3-9.1-13.4
		c-2.2-5.2-3.3-10.8-3.3-16.7c0-7.8,1.6-14.6,5-20.6c0.7-1.1,1.3-2.1,2-3.2c1.5-2.1,3.2-4,5.1-5.9c4.9-5.7,12.4-13.9,21.2-23.6
		c20.9-17.1,47.5-26.5,71.9-8.8c25.9,18.8,55-11.9,71-30.2h0.5c-5,6.2-10.6,12.5-16.8,19.2l-30.1,32.1h40.6c5.7,0,11.1,1.1,16.3,3.1
		c1.6,0.6,3.2,1.4,4.7,2.2c3.2,1.7,6.3,3.8,8.8,6.3c3.9,3.8,6.9,8.5,8.9,13.6c2.2,5.1,3.2,10.5,3.2,16.4c0,5.8-1,11.3-3.2,16.3
		c-2.1,5.2-5.1,9.6-8.9,13.6c-3.9,3.8-8.4,6.8-13.7,8.9c-5.2,2.2-10.6,3.3-16.2,3.3H192.5z"/>
	<path class="st17" d="M315.8,252.5h5.2c5.7,0,11.1,1.1,16.3,3.1c1.6,0.6,3.2,1.4,4.7,2.2c3.2,1.7,6.3,3.8,8.8,6.3
		c3.9,3.8,6.9,8.5,8.9,13.6c2.2,5.1,3.2,10.5,3.2,16.4c0,5.8-1,11.3-3.2,16.3c-2.1,5.2-5.1,9.6-8.9,13.6c-3.9,3.8-8.4,6.8-13.7,8.9
		c-5.2,2.2-10.6,3.3-16.2,3.3H192.5c4.7-38.6,50.3-53.1,88.4-25.4C306.7,329.4,363,292.1,315.8,252.5L315.8,252.5z"/>
	<path class="st16" d="M168.3,74.1c5.1-8.1,11.5-15.6,19.4-22.5c9.3-8,19.8-14.4,31.6-19c11.7-4.8,24.4-7.1,38.1-7.1
		c15.4,0,29.4,1.9,42.1,5.7c12.7,3.9,23.6,9.6,33,17.4c19.4,16.1,29.1,38.8,29.1,68.1c0,9.4-0.9,18.2-2.6,26.4
		c-1.8,8.1-4.7,16.3-8.8,24.2c-5.5,10.8-13.6,22.7-24.3,35.8c35.7-52,20.2-134.5-54.6-115.8c-16,4-34.2,14-47.4,20.6
		C184.3,127.8,162.5,104.6,168.3,74.1L168.3,74.1z"/>
	<path class="st17" d="M194.6,46.1c7.5-5.5,15.7-10,24.7-13.5c11.7-4.8,24.4-7.1,38.1-7.1c15.4,0,29.4,1.9,42.1,5.7
		c3.1,0.9,6,2,8.9,3.1c-14.9,12.2-32.8,20.4-49.3,8.4C237.5,27.1,214.1,32.7,194.6,46.1L194.6,46.1z"/>
	<path class="st16" d="M330.3,177.6c0,0-22.8,44.7-54.7,48.1c-16.8,1.8-24.2-19.7-8.7-26.3C276.4,195.4,312.6,191.9,330.3,177.6
		L330.3,177.6z"/>
	<path class="st12" d="M192.7,339.3c-2.9,0-5.9-0.3-8.9-0.9c-2.9-0.6-5.8-1.5-8.6-2.7c-0.1,0-0.2-0.1-0.3-0.1
		c-2.8-1.2-5.3-2.5-7.7-4.1c-2.4-1.6-4.6-3.5-6.7-5.7c-2.1-2-4-4.3-5.6-6.7c-1.6-2.4-3-5-4.2-7.9l0,0l0,0c-1.2-2.8-2.1-5.8-2.6-8.8
		c-0.6-3-0.9-6.1-0.9-9.3c0-6.5,1.1-12.5,3.3-17.8c2.2-5.4,5.4-10.1,9.8-14.3c6.2-7.1,16.5-18.4,28.4-31.4
		c31.8-34.7,75.3-82.2,84-99.3l0-0.1h0c0.9-1.7,1.6-3.3,2-5c0.4-1.6,0.6-3.1,0.6-4.7c0-2.2-0.4-4-1.3-5.6c-0.9-1.5-2.2-2.7-4.1-3.8
		l-0.2-0.1c-1.4-0.8-3.1-1.4-4.9-1.9c-1.9-0.4-4.1-0.7-6.5-0.7c-2.2,0-4.3,0.2-6.3,0.6c-2,0.4-3.8,0.9-5.4,1.7l0,0
		c-1.4,0.7-2.7,1.6-3.9,2.9c-1.2,1.3-2.2,2.9-3.1,4.8c-1.4,5.9-3.3,11.1-5.8,15.7c-2.6,4.7-5.8,8.7-9.6,11.9
		c-3.8,3.2-8.1,5.6-12.8,7.3c-4.7,1.6-9.8,2.4-15.2,2.4c-6.7,0-12.7-1.1-18.1-3.1c-5.4-2.1-10.1-5.3-14-9.5l0,0
		c-1.8-2-3.5-4.1-4.9-6.5c-1.4-2.3-2.6-4.8-3.6-7.5v0v0c-1-2.7-1.7-5.5-2.2-8.4c-0.5-2.8-0.7-5.7-0.7-8.6s0.3-6,0.8-9.3l0,0
		c0.7-4.6,1.9-9.2,3.6-14c1.7-4.6,4-9.4,6.8-14.1v0c2.7-4.7,5.9-9.2,9.5-13.5c3.6-4.3,7.6-8.4,12-12.2c0.1-0.1,0.1-0.1,0.2-0.2
		c4.7-4.1,9.8-7.7,15.1-11c5.4-3.3,11.1-6.1,17.2-8.5l0.1,0c6-2.4,12.2-4.2,18.8-5.4c6.6-1.2,13.4-1.8,20.4-1.8
		c7.8,0,15.3,0.5,22.5,1.5c7.2,1,14,2.4,20.6,4.4l0,0h0c6.5,2,12.6,4.5,18.3,7.5s11,6.5,15.8,10.5c10.1,8.4,17.7,18.6,22.8,30.4
		c5,11.8,7.6,25.2,7.6,40.3c0,4.8-0.2,9.4-0.7,14c-0.5,4.5-1.1,8.9-2,13.1c0,0.1,0,0.1-0.1,0.2c-1,4.2-2.2,8.4-3.7,12.6
		c-1.5,4.1-3.3,8.2-5.3,12.2v0c-4,7.8-9.3,16.3-16,25.3c-6.7,8.9-14.7,18.4-24.1,28.6l0,0l0,0l-24.3,25.9h32.3c3,0,6,0.3,9,0.9
		c2.9,0.5,5.8,1.3,8.5,2.4l0,0v0c2.7,1.1,5.2,2.4,7.7,3.9c2.5,1.5,4.8,3.3,6.9,5.2c0.1,0.1,0.2,0.2,0.3,0.3c2,2.1,3.8,4.4,5.4,6.8
		c1.6,2.4,2.9,5,4.1,7.7l0,0c1.2,2.8,2,5.6,2.6,8.6c0.6,2.9,0.9,6,0.9,9.1c0,3.1-0.3,6.2-0.9,9.2c-0.6,2.9-1.4,5.7-2.6,8.5l0,0
		c-1.1,2.8-2.5,5.4-4.1,7.9c-0.1,0.1-0.1,0.1-0.1,0.2c-1.6,2.3-3.4,4.6-5.4,6.6l-0.1,0.1c-2.1,2.1-4.4,3.9-6.9,5.5
		c-2.4,1.6-5,2.9-7.9,4.1l0,0c-2.8,1.2-5.6,2.1-8.6,2.7c-2.9,0.6-5.9,0.9-8.8,0.9H192.7z M185.2,331.4c2.4,0.5,4.9,0.7,7.5,0.7
		h128.2c2.6,0,5.1-0.3,7.5-0.7c2.4-0.5,4.9-1.3,7.3-2.3h0l0,0c2.4-1,4.6-2.2,6.8-3.6c2.1-1.4,4-2.9,5.8-4.6c1.7-1.7,3.2-3.6,4.5-5.6
		l0.1-0.2c1.4-2.1,2.5-4.3,3.5-6.6l0,0l0-0.1c1-2.3,1.7-4.6,2.2-7.1c0.5-2.5,0.7-5.1,0.7-7.8c0-2.7-0.3-5.3-0.7-7.8
		c-0.5-2.5-1.2-4.9-2.2-7.2l0,0l0-0.1c-0.9-2.3-2.1-4.5-3.4-6.6c-1.4-2-2.9-4-4.6-5.7c-1.8-1.7-3.8-3.1-5.8-4.4
		c-2-1.3-4.2-2.4-6.5-3.3l0,0c-2.4-0.9-4.8-1.6-7.3-2.1c-2.5-0.5-5-0.7-7.7-0.7h-40.5l0,0c-0.9,0-1.8-0.3-2.4-1
		c-1.4-1.4-1.5-3.6-0.1-5.1l30-32l0,0c9.2-9.9,17-19.2,23.6-28c6.4-8.6,11.6-16.7,15.4-24.3l0,0l0,0c1.9-3.8,3.6-7.6,5-11.4
		c1.4-3.9,2.6-7.8,3.4-11.7l0-0.1c0.9-4,1.5-8.1,1.9-12.3c0.4-4.2,0.6-8.6,0.6-13.3c0-14.1-2.3-26.6-6.9-37.4
		c-4.6-10.8-11.6-20-20.8-27.7c-4.5-3.7-9.3-6.9-14.6-9.7c-5.2-2.8-10.9-5.1-17.1-7l0,0c-6.2-1.8-12.7-3.2-19.5-4.2
		c-6.8-0.9-13.9-1.4-21.5-1.4c-6.7,0-13.1,0.5-19.2,1.7c-6,1.1-11.8,2.8-17.4,5l-0.2,0.1c-5.7,2.3-11.1,4.9-16.2,8
		c-5,3-9.7,6.4-14.2,10.2l-0.1,0.1c-4.2,3.7-7.9,7.5-11.3,11.5c-3.3,4-6.3,8.2-8.8,12.5l0,0l0,0c-2.6,4.4-4.6,8.7-6.2,12.9
		c-1.5,4.2-2.6,8.4-3.2,12.5l0,0l0,0c-0.4,2.8-0.7,5.5-0.7,8.2c0,2.6,0.2,5.1,0.6,7.4c0.4,2.5,1,4.9,1.9,7.2l0,0
		c0.8,2.2,1.8,4.2,2.9,6.1c1.2,1.9,2.5,3.7,4.1,5.3l0.1,0.1c3.2,3.5,7,6,11.4,7.8c4.5,1.7,9.7,2.6,15.5,2.6c4.7,0,9-0.7,13-2
		c3.9-1.3,7.4-3.3,10.5-6c3.1-2.7,5.8-6,7.9-9.9c2.2-4,3.9-8.7,5.2-14.1c0-0.3,0.1-0.5,0.2-0.8c1.2-2.7,2.7-5.1,4.5-7
		c1.8-1.9,3.8-3.5,6.1-4.6l0.2-0.1c2.2-0.9,4.5-1.7,6.9-2.1c2.4-0.5,4.9-0.7,7.6-0.7c2.9,0,5.6,0.3,8.1,0.9c2.5,0.6,4.8,1.5,6.8,2.6
		l0.1,0c3,1.6,5.3,3.8,6.8,6.4c1.5,2.7,2.3,5.7,2.3,9.2c0,2.1-0.3,4.3-0.9,6.5c-0.6,2.1-1.4,4.3-2.6,6.4l0,0
		c-9.2,18-53,65.8-85.1,100.9c-11.8,12.9-22,23.9-28.3,31.3c-0.1,0.1-0.2,0.3-0.3,0.4c-3.6,3.5-6.4,7.4-8.2,11.9
		c-1.8,4.5-2.7,9.5-2.7,15.1c0,2.7,0.3,5.4,0.8,7.9c0.5,2.5,1.2,5,2.2,7.4l0,0c1,2.3,2.2,4.5,3.5,6.6c1.4,2,2.9,3.9,4.7,5.6l0.1,0.1
		c1.7,1.8,3.5,3.3,5.6,4.8c2,1.4,4.1,2.5,6.4,3.5c0.1,0,0.2,0.1,0.3,0.1C180.3,330.1,182.7,330.9,185.2,331.4L185.2,331.4z"/>
	<path class="st18" d="M297,278.1c-3.9,0-7.1-3.2-7.1-7.2s3.1-7.2,7.1-7.2h9.6c3.9,0,7.1,3.2,7.1,7.2s-3.2,7.2-7.1,7.2H297z"/>
	<path class="st18" d="M270.7,278.1c-3.9,0-7.1-3.2-7.1-7.2s3.2-7.2,7.1-7.2h0.2c3.9,0,7.1,3.2,7.1,7.2s-3.2,7.2-7.1,7.2H270.7z"/>
	<path class="st12" d="M179,95c-0.5,1.5-2.2,2.2-3.6,1.7c-1.5-0.5-2.2-2.2-1.7-3.7c1.3-3.6,3.9-8.5,7.4-13.5c3.1-4.4,6.8-8.9,11-13
		c6.9-6.6,14.9-12.7,22.7-17.4c8.2-5,16.3-8.6,22.7-10.1c1.5-0.3,3,0.6,3.4,2.1c0.3,1.5-0.6,3.1-2.2,3.4c-5.8,1.3-13.3,4.7-21.1,9.4
		c-7.5,4.5-15.1,10.3-21.7,16.6c-3.9,3.8-7.4,8-10.3,12.1C182.6,87.4,180.2,91.8,179,95L179,95z"/>
	<path class="st3" d="M201.3,557.9c-0.5-3.7-3.9-6.6-8.1-6.6c-4.2,0-7.7,2.9-8.2,6.6H201.3z"/>
	<path class="st3" d="M231.4,557.9c-1-8-8.5-14.3-17.7-14.3c-9.2,0-16.7,6.2-17.7,14.3H231.4z"/>
	<path class="st3" d="M171.4,542.1c-0.6-4.7-5-8.3-10.3-8.3s-9.8,3.6-10.3,8.3H171.4z"/>
	<path class="st3" d="M245.3,527.1c-0.6-4.7-5-8.3-10.3-8.3c-5.3,0-9.8,3.6-10.3,8.3H245.3z"/>
	<path class="st3" d="M285,573.3c-0.6-4.7-5-8.3-10.3-8.3s-9.8,3.7-10.3,8.3H285z"/>
	<path class="st3" d="M259.8,542.9c0.4-3.4,3.7-6.1,7.6-6.1c2.6,0,4.9,1.2,6.3,3c0.8-0.5,1.8-0.8,2.8-0.8c2.5,0,4.6,1.7,4.8,3.9
		h-6.4h-3.3H259.8z"/>
	<path class="st3" d="M343.5,572.3c-0.6-4.7-5-8.3-10.3-8.3c-5.3,0-9.8,3.6-10.3,8.3H343.5z"/>
	<path class="st3" d="M379.7,553.6c-0.5-3.9-4.1-6.8-8.5-6.8c-2.9,0-5.5,1.3-7.1,3.3c-0.9-0.6-2-0.9-3.2-0.9c-2.8,0-5.1,1.9-5.4,4.4
		h7.2h3.7H379.7z"/>
	<path class="st3" d="M439.9,539.4c-0.6-4.7-5-8.3-10.3-8.3s-9.8,3.6-10.3,8.3H439.9z"/>
	<path class="st3" d="M404.6,561.4c-0.3-2.3-2.5-4.2-5.2-4.2c-2.7,0-4.9,1.8-5.2,4.2H404.6z"/>
	<path class="st3" d="M304.2,584.7c-0.3-2.3-2.5-4.2-5.2-4.2c-2.7,0-4.9,1.8-5.2,4.2H304.2z"/>
	<path class="st3" d="M231.2,574.4c-0.3-2.3-2.5-4.2-5.2-4.2c-2.7,0-4.9,1.8-5.2,4.2H231.2z"/>
	<path class="st3" d="M204.8,528.6c-0.3-2.3-2.5-4.2-5.2-4.2c-2.7,0-4.9,1.8-5.2,4.2H204.8z"/>
	<path class="st3" d="M300.5,554.1c-0.3-2.3-2.5-4.2-5.2-4.2c-2.7,0-4.9,1.8-5.2,4.2H300.5z"/>
	<path class="st2" d="M89.2,140.8c8.1-3.9,14.9-2.4,21.3,1.9c0.8-6.8,4.1-14,12.2-17.8c3.6-1.7,7.5-2.1,11.1-1.5
		c-1.8,0.4,0.3-0.8-5.3,1.8c-5.5,2.6-14.4,14.9-14.7,24.7c-7.9-6.2-19.1-8.7-28.2-4.4c-1.7,0.8-3.3,1.8-4.8,2.9
		C82.8,145.3,85.6,142.6,89.2,140.8L89.2,140.8z"/>
	<path class="st19" d="M293.2,363.4c6.1,0.9,9.4,4.2,11.4,9.1c2.9-3.6,7.5-6.4,13.5-5.6c2.7,0.4,5,1.6,6.9,3.3
		c-1.2-0.4,0.5-0.3-3.7-0.9c-4.1-0.6-13.6,3.1-17.4,8.5c-2.2-6.5-7.7-12.1-14.4-13c-1.3-0.2-2.6-0.2-3.8-0.1
		C287.9,363.5,290.5,363,293.2,363.4L293.2,363.4z"/>
	<path class="st20" d="M436.7,91.9c-3.8,17.6-20.9,28.7-38.4,24.9c-17.4-3.8-28.4-21.1-24.7-38.7c3.8-17.6,20.9-28.7,38.4-24.9
		C429.4,57,440.5,74.4,436.7,91.9L436.7,91.9z"/>
	<path class="st21" d="M374.5,75.2c4.7-14.9,19.2-24.3,34.6-22.4c12.7,4.2,20.4,17.5,17.5,31c-3.1,14.4-17.1,23.5-31.4,20.4
		C381.8,101.2,373,88.6,374.5,75.2L374.5,75.2z"/>
	<path class="st12" d="M438.7,526.4c0.8,0.2,1.2,1,1,1.8c-0.2,0.8-1,1.2-1.8,1c-3.8-1.1-7.7-2-11.7-2.6c-3.9-0.6-8-0.9-12.1-0.9
		c-6.1,0-12,0.7-17.6,1.9c-5.8,1.3-11.4,3.1-16.6,5.6c-0.1,0-0.1,0.1-0.2,0.1c-1.9,0.9-4.4,2-6.9,3.1c-10.7,4.8-19,8.6-26.5,10.9
		c-2.7,0.8-5.2,1.4-7.7,1.8c-2.5,0.4-5,0.6-7.5,0.5c-0.8,0-1.4-0.7-1.4-1.5c0-0.8,0.7-1.4,1.4-1.4c2.3,0.1,4.6-0.1,7-0.5
		c2.4-0.4,4.8-0.9,7.3-1.7c7.3-2.2,15.5-5.9,26.2-10.7c1.9-0.9,4-1.8,6.9-3.1c0.1-0.1,0.1-0.1,0.2-0.1c5.4-2.5,11.1-4.4,17.1-5.8
		c5.8-1.3,11.9-1.9,18.2-1.9c4.2,0,8.4,0.3,12.5,0.9C430.8,524.3,434.8,525.3,438.7,526.4L438.7,526.4z M318.7,544.3
		c0.7,0.2,1.1,1.1,0.9,1.8c-0.3,0.7-1,1.1-1.8,0.9c-4.2-1.4-8.7-3.3-13.7-6c-4.9-2.6-10.4-5.9-16.7-9.8l-0.1-0.1l-0.1-0.1
		c-9.6-6.5-20.4-11.7-32-15.2c-11.3-3.4-23.3-5.2-35.8-5.2c-11.9,0-23.3,1.7-34,4.7c-11.1,3.2-21.5,7.8-30.8,13.8
		c-0.7,0.4-1.5,0.2-2-0.5c-0.4-0.7-0.2-1.5,0.5-2c9.6-6,20.2-10.9,31.5-14.1c11-3.1,22.7-4.8,34.8-4.8c12.8,0,25.1,1.9,36.6,5.4
		c11.9,3.6,23,8.9,32.8,15.5l0,0c6.2,4,11.7,7.2,16.7,9.8C310.3,541.1,314.7,543,318.7,544.3L318.7,544.3z"/>
	<path class="st22" d="M185.9,495.2c-0.4-3.4-3.7-6.1-7.6-6.1c-3.9,0-7.1,2.7-7.6,6.1H185.9z M421.7,467c-0.4-3.4-3.6-6.1-7.6-6.1
		c-3.9,0-7.1,2.7-7.6,6.1H421.7z M388.6,515.9c-0.6-4.7-5-8.3-10.3-8.3s-9.8,3.6-10.3,8.3H388.6z M510.1,469.6
		c-0.6-4.7-5-8.3-10.3-8.3s-9.8,3.6-10.3,8.3H510.1z M489.1,491.8c-0.4-3.4-3.7-6.1-7.6-6.1c-3.9,0-7.1,2.7-7.6,6.1H489.1z
		 M446.7,487.1c-0.4-3.4-3.7-6.1-7.6-6.1s-7.1,2.7-7.6,6.1H446.7z M452.6,513c-0.6-4.8-5.1-8.5-10.5-8.5c-5.4,0-9.9,3.7-10.5,8.5
		H452.6z M397.6,485.2c-0.6-4.7-5-8.3-10.3-8.3c-5.4,0-9.8,3.6-10.3,8.3H397.6z M97.9,488.5c-0.4-3.4-3.7-6.1-7.6-6.1
		s-7.1,2.7-7.6,6.1H97.9z M141.9,519.6c-0.4-3.4-3.7-6.1-7.6-6.1c-3.9,0-7.1,2.7-7.6,6.1H141.9z M146,491.6c-0.6-4.7-5-8.3-10.3-8.3
		s-9.8,3.7-10.3,8.3H146z M118.3,471.8c-0.4-3.4-3.7-6.1-7.6-6.1s-7.1,2.7-7.6,6.1H118.3z"/>
</g>
</svg>
