<!-- Generated by IcoMoon.io -->
<svg version="1.1" xmlns="http://www.w3.org/2000/svg" width="24" height="32" viewBox="0 0 24 32">
<title>chesspuzzgrin</title>
<path fill="#609603" d="M12.545 4.312c0.22 0.069 0.432 0.162 0.631 0.279 0.218 0.075 0.428 0.169 0.631 0.279l0.279-0.558c-0.127-0.050-0.246-0.117-0.355-0.199-0.12-0.040-0.239-0.119-0.395-0.159-0.061-0.049-0.128-0.089-0.199-0.119h-0.040c0.239-0.598 0.475-1.158 0.71-1.796 0.239 0.119 0.475 0.239 0.75 0.358s0.514 0.279 0.79 0.438c0.404 0.202 0.788 0.443 1.145 0.72-0.471 0.717-0.906 1.434-1.381 2.154 0.159 0.12 0.355 0.279 0.554 0.438s0.315 0.279 0.511 0.438l0.435-0.478c-0.040 0-0.040-0.040-0.080-0.040-0.107-0.122-0.226-0.234-0.355-0.332-0.136-0.131-0.281-0.252-0.435-0.362 0.395-0.518 0.75-1.036 1.145-1.553 0.080 0.080 0.199 0.159 0.279 0.239 0.236 0.199 0.471 0.398 0.71 0.637l0.040 0.040c0.107 0.122 0.226 0.234 0.355 0.332l0.83 0.959-0.475 0.398-1.421 1.275c0.134 0.194 0.278 0.382 0.431 0.561 0.119 0.199 0.239 0.398 0.355 0.598l0.554-0.358-0.040-0.040c-0.108-0.227-0.24-0.442-0.395-0.641v0c-0.049-0.045-0.090-0.099-0.119-0.159l-0.037-0.040-0.040-0.040c0.471-0.398 0.996-0.797 1.5-1.155 0.285 0.356 0.548 0.729 0.79 1.115 0.236 0.398 0.435 0.84 0.664 1.238 0.047 0.108 0.087 0.219 0.119 0.332-0.75 0.358-1.5 0.717-2.25 1.115 0.107 0.215 0.199 0.437 0.276 0.664 0.083 0.206 0.149 0.42 0.196 0.637l0.634-0.199c-0.047-0.108-0.087-0.219-0.119-0.332v0-0.040c-0.060-0.13-0.113-0.263-0.159-0.398v0c-0.045-0.108-0.084-0.219-0.116-0.332 0.591-0.239 1.145-0.438 1.736-0.717 0.033 0.113 0.073 0.224 0.12 0.332v0c0.185 0.439 0.331 0.893 0.435 1.358 0.116 0.438 0.236 0.916 0.332 1.354-0.83 0.159-1.62 0.332-2.45 0.481 0.046 0.236 0.073 0.476 0.080 0.717 0.040 0.239 0.040 0.438 0.080 0.664h0.591v-0.438c-0.040-0.239-0.040-0.478-0.080-0.717l1.859-0.239c0 0.12 0.040 0.239 0.040 0.358 0.030 0.22 0.042 0.442 0.037 0.664 0.034 0.304 0.047 0.61 0.040 0.916v1.039h-2.576v1.633h0.79v-1.115h1.776v2.845h-2.566v1.636h0.79v-1.158h1.776v2.845h-4.259l0.239-0.597h3.436v-1.633h-0.594v1.155h-1.972v-2.831h2.566v-1.663h-0.594v1.158h-1.972v-2.835h2.526v-0.438c0.007-0.319-0.007-0.638-0.040-0.956v-0.239l-0.591 0.080v0.435c0.034 0.251 0.047 0.504 0.040 0.757-0.634 0-1.265 0.040-1.899 0.040l-0.037-0.478c0.007-0.279-0.007-0.559-0.040-0.836-0.040-0.279-0.080-0.558-0.119-0.88l-0.080-0.398 2.45-0.478c-0.040-0.239-0.119-0.438-0.159-0.637v-0.040c-0.093-0.326-0.204-0.646-0.332-0.959l-0.554 0.242c0.022 0.021 0.036 0.049 0.040 0.080v0.080c0.080 0.199 0.159 0.438 0.239 0.664 0.040 0.080 0.040 0.199 0.080 0.332-0.634 0.159-1.225 0.358-1.819 0.518l-0.116-0.438c-0.111-0.259-0.204-0.525-0.279-0.797-0.076-0.199-0.196-0.438-0.276-0.664l-0.236-0.478 2.211-1.155c-0.080-0.159-0.159-0.332-0.236-0.438-0.010-0.060-0.038-0.115-0.080-0.159-0.156-0.289-0.328-0.569-0.515-0.84l-0.514 0.359h0.040v0.040c0 0.040 0.040 0.080 0.080 0.12l0.355 0.601c0.068 0.084 0.122 0.178 0.159 0.279-0.515 0.332-1.066 0.664-1.62 0.996l-0.196-0.358c-0.159-0.239-0.332-0.478-0.475-0.717s-0.332-0.438-0.475-0.641l-0.355-0.358 1.895-1.713c-0.119-0.119-0.199-0.239-0.332-0.358-0.122-0.13-0.254-0.251-0.395-0.362-0.148-0.157-0.307-0.303-0.475-0.438l-0.395 0.478c0.126 0.083 0.245 0.176 0.355 0.279 0.181 0.178 0.353 0.365 0.515 0.561-0.435 0.438-0.87 0.916-1.305 1.394l-0.332-0.332c-0.191-0.206-0.402-0.393-0.631-0.558-0.212-0.185-0.433-0.358-0.664-0.518l-0.355-0.239 1.384-2.114c-0.279-0.199-0.554-0.358-0.83-0.518-0.199-0.119-0.395-0.202-0.594-0.332l-0.236 0.561 0.080 0.080c0.229 0.094 0.451 0.205 0.664 0.332 0.083 0.067 0.176 0.121 0.276 0.159l-0.906 1.716-0.435-0.202c-0.208-0.142-0.431-0.262-0.664-0.359-0.23-0.109-0.467-0.203-0.71-0.279l-0.475-0.199 0.79-2.433c-0.199-0.040-0.435-0.119-0.634-0.159l-0.946-0.239-0.080 0.637c0.372 0.061 0.741 0.14 1.105 0.239l-0.080 0.332-0.355 1.597-0.471-0.12c-0.313-0.072-0.63-0.125-0.949-0.159l-0.199-0.717c0.386 0.047 0.769 0.113 1.148 0.199l0.156-0.637h-0.080c-0.218-0.056-0.44-0.096-0.664-0.119v0c-0.119-0.043-0.196-0.043-0.332-0.083h-0.040c0.080-0.637 0.196-1.235 0.276-1.872 0.322 0.014 0.641 0.068 0.949 0.159l0.71 0.119c0.435 0.159 0.87 0.279 1.304 0.438-0.279 0.797-0.554 1.597-0.83 2.433l0.043-0.017z"></path>
<path fill="#7dbd0d" d="M10.255 4.511l0.076 0.398c4.584 0.664 7.966 4.667 8.136 9.334v7.020c0.016 0.525-0.136 1.042-0.435 1.474-0.179 0.23-0.406 0.417-0.665 0.548s-0.545 0.204-0.835 0.212h-9.517c-0.297-0.004-0.59-0.074-0.856-0.206s-0.5-0.321-0.684-0.555c0-0.040-0.040-0.040-0.040-0.080-0.321-0.468-0.487-1.026-0.475-1.593-0-0.396 0.080-0.788 0.236-1.151s0.385-0.691 0.673-0.963c0-0.040 0-0.040 0.040-0.040 1.54-1.397 3.555-2.473 4.026-5.384 0.279-0.127 0.524-0.319 0.714-0.561 0.262-0.26 0.467-0.571 0.603-0.913s0.2-0.71 0.187-1.078h-0.435c0.014 0.313-0.035 0.626-0.144 0.92s-0.275 0.564-0.49 0.792c-0.164 0.142-0.334 0.277-0.511 0.402-0.462 0.226-0.976 0.326-1.489 0.291s-1.008-0.206-1.435-0.493c-0.815 0.247-1.543 0.718-2.102 1.361s-0.924 1.429-1.055 2.27l-1.62-0.199-1.7-2.324 4.030-7.339 0.080-0.199 2.486-1.437 0.75-4.747c0.467 0.044 0.906 0.246 1.243 0.572s0.553 0.758 0.612 1.224v0l0.332 1.397c0.074 0.35 0.167 0.696 0.279 1.036l-0.017 0.010z"></path>
<path fill="#8dd117" d="M2.159 16.318l-1.7-2.324 4.030-7.339 0.080-0.199c2.526 3.389-1.975 4.906-2.41 9.852v0.010z"></path>
<path fill="#8dd117" d="M10.215 23.498h-3.2c-0.297-0.004-0.59-0.074-0.856-0.206s-0.5-0.321-0.684-0.555c0-0.040-0.040-0.040-0.040-0.080-0.321-0.468-0.487-1.026-0.475-1.593-0-0.396 0.080-0.788 0.236-1.151s0.385-0.691 0.673-0.963c0-0.040 0-0.040 0.040-0.040 1.54-1.397 3.555-2.473 4.026-5.384 0.28-0.127 0.524-0.319 0.714-0.561 0.262-0.26 0.467-0.571 0.603-0.913s0.2-0.71 0.187-1.078c1.026 2.592 0.71 7.18 0.71 9.931v0.358c0 0.199-0.040 0.358-0.040 0.518-0.11 0.535-0.403 1.016-0.83 1.358-0.313 0.219-0.683 0.344-1.066 0.359v0z"></path>
<path fill="#5a8c03" d="M18.072 22.698c-0.12 0.182-0.252 0.356-0.395 0.521-0.134 0.154-0.204 0.354-0.196 0.558v0c0.010 0.225 0.098 0.44 0.25 0.608s0.357 0.276 0.58 0.309h-13.111c0.22-0.047 0.418-0.166 0.562-0.34s0.224-0.391 0.228-0.616v0c0-0.215-0.070-0.425-0.199-0.598v0c-0.12-0.126-0.231-0.26-0.332-0.402 0.184 0.234 0.417 0.423 0.684 0.555s0.559 0.202 0.856 0.206h9.517c0.302-0.002 0.598-0.076 0.866-0.215s0.499-0.339 0.674-0.585h0.017z"></path>
<path fill="#609603" d="M20.655 26.966h1.816c0.289 0.010 0.562 0.132 0.762 0.341s0.308 0.488 0.304 0.777v3.731h-0.591v-2.655h-1.593v0.836h1.105v1.836h-2.725v-2.655h-1.62v0.836h1.145v1.836h-2.765v-2.655h-1.577v0.836h1.092v1.836h-2.725v-2.655h-1.59v0.836h1.145v1.836h-2.765v-2.655h-1.58v0.836h1.105v1.836h-2.722v-2.655h-1.58v0.836h1.085v1.836h-2.765v-2.655h-1.58v0.837h1.145v1.796h-2.775v-3.791c-0.005-0.289 0.105-0.569 0.305-0.778s0.474-0.332 0.764-0.34l19.179-0.017zM21.365 30.598h-0.594v-1.437h-0.475v2.075h1.62v-0.637h-0.551zM14.929 30.598h-0.594v-1.437h-0.435v2.075h1.58v-0.637h-0.551zM18.125 30.598h-0.551v-1.437h-0.475v2.075h1.563v-0.637h-0.538zM8.499 30.598h-0.591v-1.437h-0.435v2.075h1.563v-0.637h-0.538zM11.699 30.598h-0.554v-1.437h-0.471v2.075h1.58v-0.637h-0.554zM2.073 30.598h-0.591v-1.437h-0.475v2.075h1.62v-0.637h-0.554zM5.313 30.598h-0.594v-1.437h-0.475v2.075h1.58v-0.637h-0.511z"></path>
<path fill="#fefefe" d="M9.661 4.909c-0.643-0.081-1.293-0.081-1.935 0l0.475-3.907c0.949 0.332 1.026 2.114 1.461 3.907v0z"></path>
<path fill="#7dbd0d" d="M18.311 27.683h1.105c0.394-0.010 0.767-0.174 1.041-0.457s0.424-0.663 0.42-1.057v0c0.002-0.193-0.035-0.385-0.107-0.563s-0.18-0.342-0.316-0.479c-0.136-0.137-0.297-0.246-0.475-0.321s-0.369-0.113-0.562-0.114h-15.322c-0.192 0.001-0.382 0.040-0.559 0.115s-0.337 0.185-0.47 0.323c-0.086 0.062-0.153 0.146-0.196 0.242v0c-0.162 0.233-0.244 0.513-0.236 0.797-0.009 0.284 0.074 0.563 0.236 0.797v0c0.040 0.080 0.119 0.159 0.159 0.239l0.037 0.040c0.276 0.27 0.643 0.427 1.029 0.438h14.217z"></path>
<path fill="#68a303" d="M8.121 24.693h-2.921c0.22-0.047 0.418-0.166 0.562-0.34s0.224-0.391 0.228-0.616c0-0.215-0.070-0.425-0.199-0.598v0c-0.12-0.126-0.231-0.26-0.332-0.402 0.184 0.234 0.417 0.423 0.684 0.555s0.559 0.202 0.856 0.206h3.24c0.156 0.004 0.305 0.069 0.415 0.18s0.173 0.261 0.175 0.417c-0.002 0.157-0.065 0.306-0.175 0.417s-0.259 0.176-0.415 0.18h-2.118z"></path>
<path fill="#8dd117" d="M4.489 25.011h2.655c0.257 0.008 0.501 0.117 0.678 0.303s0.274 0.435 0.268 0.692v0c-0.003 0.251-0.103 0.491-0.279 0.67s-0.416 0.281-0.667 0.286h-2.655c-0.252-0.004-0.492-0.107-0.669-0.285s-0.278-0.419-0.28-0.671v0c-0-0.256 0.098-0.503 0.275-0.688s0.418-0.296 0.674-0.308v0z"></path>
<path fill="#fefefe" d="M6.859 8.063c0.099 0 0.194-0.037 0.267-0.104s0.117-0.159 0.125-0.258c-0.006-0.103-0.049-0.199-0.121-0.273s-0.168-0.118-0.271-0.126c-0.099 0.008-0.191 0.054-0.258 0.128s-0.103 0.171-0.1 0.27c-0 0.047 0.009 0.094 0.026 0.138s0.044 0.084 0.077 0.117c0.033 0.034 0.073 0.060 0.117 0.079s0.091 0.028 0.138 0.028z"></path>
<path fill="#8dd117" d="M10.295 25.011c0.231 0.004 0.451 0.099 0.613 0.263s0.253 0.386 0.254 0.616v0.199c-0.001 0.23-0.092 0.451-0.254 0.615s-0.382 0.258-0.612 0.261v0c-0.112-0.002-0.223-0.027-0.326-0.072s-0.195-0.111-0.273-0.192c-0.077-0.082-0.137-0.178-0.177-0.283s-0.058-0.217-0.054-0.329v-0.199c-0.004-0.112 0.014-0.225 0.054-0.33s0.1-0.202 0.177-0.283c0.077-0.082 0.17-0.148 0.273-0.193s0.214-0.071 0.326-0.073z"></path>
</svg>
