<!-- Generated by IcoMoon.io -->
<svg version="1.1" xmlns="http://www.w3.org/2000/svg" width="29" height="32" viewBox="0 0 29 32">
<title>coinpuzzlesrgb</title>
<path fill="#cdcfd1" d="M14.508 31.746c1.038 0.007 2.055-0.294 2.922-0.865s1.545-1.386 1.948-2.343c0.403-0.956 0.513-2.011 0.317-3.030s-0.691-1.957-1.421-2.695c-0.73-0.738-1.663-1.243-2.68-1.45s-2.073-0.109-3.034 0.284c-0.961 0.393-1.783 1.062-2.364 1.922s-0.892 1.874-0.896 2.912c-0.005 0.688 0.126 1.371 0.386 2.008s0.642 1.217 1.127 1.706c0.484 0.489 1.060 0.878 1.695 1.144s1.316 0.404 2.004 0.406h-0.003z"></path>
<path fill="#84898f" d="M14.508 30.83c0.855 0.010 1.695-0.235 2.411-0.703s1.277-1.139 1.611-1.926c0.334-0.788 0.427-1.657 0.266-2.497s-0.568-1.614-1.169-2.222c-0.601-0.608-1.37-1.024-2.209-1.195s-1.709-0.088-2.5 0.237-1.468 0.878-1.945 1.589c-0.476 0.711-0.731 1.547-0.731 2.402-0 1.136 0.448 2.226 1.246 3.034s1.883 1.268 3.019 1.281z"></path>
<path fill="#a9adb0" d="M14.508 30.352c0.811 0.005 1.604-0.232 2.28-0.679s1.204-1.086 1.516-1.834c0.313-0.748 0.396-1.572 0.239-2.367s-0.546-1.526-1.119-2.1-1.303-0.964-2.099-1.121c-0.795-0.157-1.619-0.075-2.368 0.237s-1.387 0.839-1.835 1.515c-0.448 0.676-0.685 1.469-0.681 2.28-0 0.534 0.104 1.063 0.309 1.557s0.504 0.942 0.881 1.32 0.826 0.678 1.32 0.882c0.494 0.205 1.023 0.31 1.557 0.31v0z"></path>
<path fill="#919599" d="M11.587 23.328l6.081 6.061c-0.689 0.743-1.606 1.235-2.606 1.397l-4.82-4.786c0.125-1.011 0.594-1.948 1.328-2.655l0.017-0.017z"></path>
<path fill="#919599" d="M13.718 22.253l4.979 4.979c-0.061 0.358-0.167 0.707-0.315 1.039l-5.729-5.66c0.34-0.161 0.698-0.281 1.066-0.359v0z"></path>
<path fill="#b4b6b8" d="M11.623 23.372l5.766 5.703c-0.729 0.781-1.738 1.24-2.805 1.278l-4.106-4.149c0.007-1.055 0.416-2.068 1.145-2.831v0z"></path>
<path fill="#b4b6b8" d="M13.718 22.253l4.74 4.747c-0.081 0.353-0.187 0.7-0.315 1.039l-5.45-5.427c0.326-0.161 0.67-0.281 1.026-0.359v0z"></path>
<path fill="#fff" d="M16.523 22.532c0.513 0.27 0.97 0.636 1.344 1.079 0.756 0.914 1.124 2.088 1.026 3.27-0.094 1.174-0.647 2.263-1.54 3.031-0.443 0.381-0.958 0.671-1.514 0.852s-1.143 0.249-1.726 0.201c-0.58-0.047-1.144-0.209-1.66-0.478-0.508-0.271-0.959-0.637-1.328-1.079-0.344-0.465-0.623-0.974-0.83-1.514-0.164-0.57-0.23-1.164-0.196-1.756 0.094-1.174 0.647-2.263 1.54-3.031 0.457-0.372 0.979-0.657 1.54-0.84 0.549-0.169 1.123-0.236 1.696-0.199 0.58 0.047 1.144 0.209 1.66 0.478l-0.013-0.013zM18.418 25.247c-0.158-0.53-0.427-1.020-0.79-1.437-0.338-0.424-0.77-0.765-1.261-0.996-0.468-0.279-0.996-0.444-1.54-0.481-1.087-0.068-2.159 0.289-2.987 0.996-0.426 0.342-0.767 0.779-0.996 1.275-0.275 0.476-0.437 1.008-0.475 1.557-0.034 0.54 0.033 1.082 0.199 1.597 0.159 0.529 0.428 1.017 0.79 1.434 0.34 0.423 0.771 0.764 1.261 0.996 0.472 0.271 0.998 0.435 1.54 0.478 0.535 0.035 1.071-0.033 1.58-0.199 0.525-0.162 1.009-0.435 1.421-0.8 0.425-0.352 0.774-0.785 1.029-1.275 0.245-0.486 0.392-1.015 0.435-1.557 0.035-0.539-0.033-1.079-0.199-1.593l-0.007 0.007z"></path>
<path fill="#cdcfd1" d="M5.506 15.993c1.039 0.006 2.057-0.297 2.924-0.871s1.544-1.392 1.945-2.351c0.401-0.959 0.508-2.015 0.307-3.035s-0.7-1.957-1.434-2.693c-0.734-0.736-1.671-1.237-2.69-1.439s-2.076-0.098-3.036 0.301c-0.96 0.399-1.779 1.074-2.354 1.94s-0.88 1.883-0.876 2.922c-0.001 0.686 0.133 1.364 0.395 1.998s0.646 1.209 1.13 1.695c0.484 0.485 1.059 0.87 1.693 1.133s1.312 0.398 1.997 0.399v0z"></path>
<path fill="#84898f" d="M5.506 15.073c1.144 0 2.242-0.455 3.051-1.264s1.264-1.907 1.264-3.051-0.455-2.242-1.264-3.051c-0.809-0.809-1.907-1.264-3.051-1.264s-2.242 0.455-3.051 1.264c-0.809 0.809-1.264 1.907-1.264 3.051s0.455 2.242 1.264 3.051c0.809 0.809 1.907 1.264 3.051 1.264v0z"></path>
<path fill="#a9adb0" d="M5.506 14.595c0.807 0.008 1.598-0.224 2.272-0.667s1.202-1.075 1.516-1.819c0.314-0.743 0.4-1.563 0.247-2.355s-0.538-1.521-1.105-2.094c-0.568-0.573-1.293-0.964-2.084-1.124s-1.611-0.081-2.357 0.226-1.384 0.829-1.832 1.5c-0.449 0.67-0.688 1.459-0.687 2.266-0 1.072 0.423 2.101 1.178 2.862s1.78 1.194 2.852 1.204v0z"></path>
<path fill="#919599" d="M2.581 7.575l6.084 6.064c-0.668 0.77-1.597 1.267-2.609 1.394l-4.816-4.787c0.131-1.014 0.599-1.955 1.328-2.672h0.013z"></path>
<path fill="#919599" d="M4.716 6.539l4.979 4.946c-0.051 0.362-0.163 0.712-0.332 1.036l-5.706-5.663c0.336-0.165 0.695-0.277 1.066-0.332l-0.007 0.013z"></path>
<path fill="#b4b6b8" d="M2.661 7.654l5.726 5.716c-0.743 0.753-1.745 1.195-2.802 1.235l-4.109-4.106c-0.006-0.528 0.096-1.052 0.3-1.54s0.505-0.928 0.885-1.295v-0.010z"></path>
<path fill="#b4b6b8" d="M4.716 6.539l4.74 4.707c-0.068 0.357-0.18 0.705-0.332 1.036l-5.434-5.384c0.319-0.178 0.666-0.299 1.026-0.358v0z"></path>
<path fill="#fff" d="M7.52 6.778c0.509 0.284 0.96 0.663 1.328 1.115 0.374 0.446 0.656 0.962 0.83 1.517 0.356 1.122 0.257 2.339-0.275 3.389-0.265 0.517-0.628 0.978-1.069 1.358-0.428 0.392-0.942 0.679-1.5 0.836-0.559 0.186-1.15 0.254-1.736 0.199-0.58-0.047-1.144-0.21-1.66-0.478-0.501-0.28-0.95-0.644-1.328-1.075-0.361-0.455-0.642-0.968-0.83-1.517-0.167-0.57-0.234-1.164-0.199-1.756 0.042-0.572 0.204-1.128 0.475-1.633 0.277-0.521 0.636-0.993 1.065-1.397 0.468-0.355 0.988-0.637 1.54-0.836 0.55-0.166 1.126-0.234 1.7-0.199 0.572 0.085 1.13 0.246 1.66 0.478v0zM9.416 9.49c-0.166-0.522-0.431-1.008-0.78-1.431-0.332-0.416-0.75-0.755-1.225-0.996-0.488-0.26-1.028-0.41-1.58-0.438-0.532-0.066-1.072-0.011-1.58 0.159-0.521 0.17-1.004 0.441-1.421 0.797-0.415 0.354-0.754 0.789-0.996 1.278-0.253 0.485-0.413 1.013-0.471 1.557-0.034 0.552 0.032 1.105 0.196 1.633 0.161 0.517 0.43 0.993 0.79 1.397 0.337 0.437 0.77 0.791 1.265 1.036 0.481 0.242 1.004 0.391 1.54 0.438 0.535 0.057 1.076-0.011 1.58-0.199 0.522-0.148 1.007-0.406 1.421-0.757 0.406-0.37 0.752-0.801 1.026-1.278 0.499-0.99 0.585-2.137 0.239-3.19l-0.003-0.007z"></path>
<path fill="#cdcfd1" d="M23.433 15.993c1.041 0.015 2.063-0.281 2.935-0.85s1.556-1.383 1.964-2.342c0.408-0.958 0.521-2.016 0.325-3.039s-0.691-1.964-1.424-2.704c-0.732-0.74-1.669-1.245-2.689-1.451s-2.079-0.104-3.042 0.294c-0.962 0.398-1.784 1.073-2.361 1.94s-0.883 1.885-0.879 2.927c-0 1.377 0.543 2.697 1.511 3.676s2.284 1.535 3.66 1.549v0z"></path>
<path fill="#84898f" d="M23.433 15.073c0.855 0.010 1.695-0.235 2.411-0.703s1.277-1.139 1.611-1.926c0.334-0.788 0.427-1.657 0.266-2.497s-0.568-1.614-1.169-2.222c-0.601-0.608-1.37-1.024-2.209-1.195s-1.709-0.088-2.5 0.237c-0.791 0.325-1.468 0.878-1.945 1.589s-0.731 1.547-0.731 2.402c-0.006 1.138 0.44 2.231 1.239 3.040s1.888 1.268 3.026 1.275v0z"></path>
<path fill="#a9adb0" d="M23.433 14.595c0.807 0.009 1.598-0.223 2.273-0.665s1.203-1.075 1.518-1.818c0.315-0.743 0.401-1.563 0.249-2.355s-0.537-1.521-1.105-2.095c-0.568-0.573-1.293-0.965-2.084-1.125s-1.611-0.082-2.357 0.226c-0.746 0.307-1.384 0.829-1.833 1.5s-0.688 1.459-0.687 2.266c-0 1.072 0.423 2.1 1.177 2.861s1.778 1.194 2.85 1.205v0z"></path>
<path fill="#919599" d="M20.552 7.575l6.081 6.064c-0.69 0.767-1.632 1.262-2.655 1.394l-4.78-4.787c0.115-1.019 0.585-1.965 1.328-2.672h0.027z"></path>
<path fill="#919599" d="M22.643 6.539l5.015 4.946c-0.081 0.352-0.187 0.698-0.315 1.036l-5.726-5.663c0.32-0.17 0.667-0.282 1.026-0.332v0.013z"></path>
<path fill="#b4b6b8" d="M20.585 7.654l5.769 5.716c-0.743 0.753-1.745 1.195-2.802 1.235l-4.146-4.106c0.021-1.061 0.445-2.074 1.185-2.835l-0.007-0.010z"></path>
<path fill="#b4b6b8" d="M22.643 6.539l4.78 4.707c-0.078 0.358-0.197 0.705-0.355 1.036l-5.411-5.384c0.299-0.196 0.64-0.319 0.996-0.358h-0.010z"></path>
<path fill="#fff" d="M25.448 6.778c0.526 0.282 0.994 0.66 1.381 1.115 0.36 0.455 0.641 0.968 0.83 1.517 0.165 0.556 0.232 1.137 0.199 1.716-0.063 0.576-0.223 1.137-0.475 1.66-0.277 0.52-0.653 0.981-1.105 1.358-0.429 0.391-0.942 0.677-1.5 0.836-0.546 0.186-1.125 0.254-1.7 0.199-0.581-0.042-1.146-0.205-1.66-0.478-0.507-0.27-0.958-0.635-1.328-1.075-0.389-0.436-0.673-0.955-0.83-1.517-0.183-0.566-0.25-1.163-0.196-1.756 0.036-0.569 0.192-1.125 0.458-1.63 0.265-0.529 0.628-1.003 1.069-1.397 0.448-0.364 0.956-0.647 1.5-0.836 0.563-0.166 1.15-0.234 1.736-0.199 0.56 0.080 1.106 0.241 1.62 0.478v0.010zM27.383 9.49c-0.169-0.523-0.438-1.009-0.79-1.431-0.338-0.426-0.771-0.767-1.265-0.996-0.474-0.26-1-0.41-1.54-0.438-0.537-0.061-1.081-0.008-1.596 0.157s-0.989 0.437-1.391 0.799c-0.414 0.363-0.761 0.795-1.026 1.278-0.242 0.487-0.389 1.015-0.435 1.557-0.034 0.552 0.032 1.105 0.196 1.633 0.146 0.514 0.402 0.991 0.75 1.397 0.355 0.419 0.784 0.77 1.265 1.036 0.495 0.242 1.031 0.391 1.58 0.438 0.535 0.052 1.075-0.016 1.58-0.199 0.519-0.156 1.001-0.414 1.421-0.757 0.408-0.361 0.745-0.794 0.996-1.278 0.246-0.487 0.405-1.012 0.471-1.553 0.034-0.553-0.032-1.107-0.196-1.636l-0.020-0.007z"></path>
<path fill="#dedede" d="M10.627 12.481l7.386 7.379c-0.739 0.706-1.676 1.169-2.685 1.328l-6.001-5.945c0.161-1.023 0.613-1.978 1.301-2.752v-0.010z"></path>
<path fill="#dedede" d="M11.706 11.565l7.22 7.18c-0.199 0.279-0.395 0.558-0.594 0.797l-7.372-7.379c0.236-0.199 0.471-0.398 0.75-0.598h-0.003z"></path>
<path fill="#dedede" d="M14.192 10.768l5.49 5.503c0 0.159-0.040 0.332-0.040 0.518l-5.975-5.975c0.156 0 0.315-0.040 0.511-0.040l0.013-0.007z"></path>
<path fill="#919599" d="M11.152 13.32l6.041 6.025c-0.761 0.613-1.708 0.951-2.685 0.959h-0.395l-3.87-3.831v-0.481c-0.004-0.962 0.317-1.898 0.909-2.655v-0.017z"></path>
<path fill="#919599" d="M12.177 12.374l5.925 5.905c-0.152 0.296-0.352 0.565-0.591 0.797l-6.084-6.061c0.231-0.235 0.482-0.449 0.75-0.641v0z"></path>
<path fill="#919599" d="M14.787 11.711l3.947 3.95c0 0.119 0.040 0.239 0.040 0.332 0.006 0.082-0.007 0.164-0.040 0.239l-4.501-4.521c0.087-0.035 0.182-0.049 0.276-0.040 0.095-0.007 0.19 0.007 0.279 0.040v0z"></path>
<path fill="#b4b6b8" d="M11.231 13.4l5.643 5.663c-0.689 0.504-1.517 0.782-2.37 0.797-0.336 0.003-0.67-0.037-0.996-0.119l-2.921-2.951c-0.081-0.339-0.121-0.687-0.12-1.036-0.001-0.843 0.261-1.666 0.75-2.353h0.013z"></path>
<path fill="#b4b6b8" d="M12.217 12.401l5.643 5.626c-0.189 0.27-0.402 0.523-0.634 0.757l-5.719-5.746c0.208-0.244 0.447-0.459 0.71-0.641v0.003z"></path>
<path fill="#b4b6b8" d="M14.787 11.711l3.711 3.711c0.032 0.108 0.045 0.22 0.040 0.332 0.006 0.082-0.007 0.164-0.040 0.239l-4.265-4.282c0.087-0.035 0.182-0.049 0.276-0.040 0.095-0.007 0.19 0.007 0.279 0.040v0z"></path>
<path fill="#fff" d="M16.483 12.082c1.033 0.541 1.812 1.467 2.167 2.578s0.257 2.317-0.271 3.357c-0.537 1.037-1.458 1.823-2.566 2.191-1.107 0.332-2.3 0.213-3.319-0.332-0.514-0.259-0.972-0.618-1.345-1.056s-0.655-0.947-0.829-1.496c-0.328-1.116-0.215-2.315 0.315-3.349 0.254-0.516 0.609-0.976 1.043-1.352s0.94-0.663 1.486-0.842c1.1-0.347 2.293-0.247 3.319 0.279v0.023zM18.497 14.715c-0.359-1.060-1.107-1.945-2.095-2.473-0.989-0.505-2.135-0.605-3.197-0.279-1.056 0.368-1.932 1.124-2.45 2.114-0.493 1.001-0.58 2.154-0.241 3.217s1.076 1.954 2.057 2.485c0.489 0.255 1.025 0.408 1.575 0.449s1.103-0.030 1.625-0.21c0.524-0.167 1.011-0.436 1.431-0.792s0.766-0.79 1.019-1.28c0.499-1.004 0.597-2.159 0.276-3.233v0z"></path>
<path fill="#ffc800" d="M14.508 10.768c1.039 0.008 2.057-0.293 2.925-0.864s1.547-1.387 1.951-2.344c0.404-0.957 0.514-2.013 0.318-3.033s-0.692-1.959-1.422-2.698c-0.731-0.739-1.664-1.244-2.682-1.451s-2.075-0.108-3.036 0.285c-0.962 0.393-1.785 1.063-2.365 1.925s-0.892 1.876-0.895 2.915c-0.005 0.688 0.126 1.371 0.386 2.008s0.642 1.217 1.127 1.706c0.484 0.489 1.060 0.878 1.695 1.144s1.316 0.404 2.004 0.406h-0.003z"></path>
<path fill="#f59a17" d="M14.508 9.809c0.855 0.010 1.695-0.235 2.411-0.703s1.277-1.139 1.611-1.926 0.427-1.657 0.266-2.497c-0.161-0.84-0.568-1.614-1.169-2.222s-1.37-1.024-2.209-1.195c-0.838-0.171-1.709-0.088-2.5 0.237s-1.468 0.878-1.945 1.589-0.731 1.547-0.731 2.402c-0.005 1.137 0.441 2.231 1.24 3.040s1.887 1.268 3.025 1.276v0z"></path>
<path fill="#ffae00" d="M14.508 9.331c0.805 0.001 1.592-0.237 2.262-0.684s1.192-1.082 1.5-1.826c0.308-0.744 0.39-1.562 0.233-2.351s-0.544-1.515-1.113-2.085c-0.569-0.569-1.294-0.957-2.084-1.115s-1.608-0.077-2.352 0.231c-0.744 0.308-1.38 0.829-1.827 1.499s-0.686 1.456-0.686 2.261c-0.004 0.535 0.098 1.066 0.301 1.561s0.502 0.945 0.881 1.324c0.378 0.379 0.828 0.678 1.323 0.882s1.026 0.306 1.561 0.303v0z"></path>
<path fill="#ffae00" d="M11.587 2.35l6.081 6.041c-0.667 0.771-1.595 1.267-2.606 1.394l-4.82-4.747c0.123-1.016 0.592-1.96 1.328-2.672l0.017-0.017z"></path>
<path fill="#ffae00" d="M13.718 1.275l4.979 4.979c-0.061 0.357-0.167 0.705-0.315 1.036l-5.729-5.656c0.34-0.161 0.698-0.281 1.066-0.359v0z"></path>
<path fill="#fcb80d" d="M11.623 2.39l5.766 5.706c-0.357 0.388-0.791 0.697-1.274 0.91s-1.004 0.323-1.531 0.325l-4.106-4.109c-0.007-1.058 0.404-2.076 1.145-2.831v0z"></path>
<path fill="#fcb80d" d="M13.718 1.275l4.74 4.747c-0.081 0.352-0.187 0.698-0.315 1.036l-5.45-5.424c0.326-0.161 0.67-0.281 1.026-0.359v0z"></path>
<path fill="#ffeba3" d="M16.523 1.553c0.514 0.268 0.97 0.633 1.344 1.075 0.374 0.445 0.655 0.961 0.826 1.517 0.167 0.57 0.234 1.164 0.199 1.756-0.049 0.579-0.21 1.142-0.475 1.66-0.273 0.511-0.634 0.971-1.066 1.358-0.459 0.347-0.964 0.628-1.5 0.836-0.564 0.166-1.152 0.234-1.739 0.199-0.58-0.047-1.144-0.209-1.66-0.478-0.499-0.282-0.948-0.646-1.328-1.075-0.352-0.475-0.632-1-0.83-1.557-0.166-0.556-0.232-1.137-0.196-1.716 0.095-1.173 0.649-2.262 1.54-3.031 0.458-0.37 0.98-0.654 1.54-0.836 0.549-0.169 1.123-0.236 1.696-0.199 0.58 0.047 1.144 0.209 1.66 0.478l-0.013 0.013zM18.418 4.265c-0.159-0.529-0.429-1.019-0.79-1.437-0.348-0.426-0.776-0.778-1.261-1.036-0.479-0.247-1.003-0.396-1.54-0.438-0.535-0.035-1.071 0.033-1.58 0.199-0.513 0.172-0.994 0.428-1.424 0.757-0.408 0.361-0.746 0.794-0.996 1.278-0.27 0.491-0.432 1.034-0.475 1.593-0.032 0.54 0.035 1.081 0.199 1.597 0.168 0.526 0.437 1.014 0.79 1.437 0.339 0.424 0.77 0.765 1.261 0.996 0.472 0.271 0.998 0.435 1.54 0.478 0.535 0.035 1.071-0.033 1.58-0.199 0.525-0.161 1.009-0.433 1.421-0.797 0.425-0.353 0.775-0.787 1.029-1.278 0.24-0.486 0.387-1.013 0.435-1.553 0.038-0.54-0.030-1.082-0.199-1.597h0.010z"></path>
<path fill="#ffc800" d="M23.433 26.482c1.041 0.014 2.063-0.281 2.935-0.85s1.556-1.383 1.964-2.342 0.521-2.016 0.325-3.039c-0.196-1.023-0.691-1.964-1.424-2.704s-1.669-1.245-2.689-1.451c-1.021-0.206-2.079-0.104-3.042 0.294s-1.784 1.073-2.361 1.94c-0.577 0.867-0.883 1.885-0.879 2.927-0 1.377 0.543 2.697 1.511 3.676s2.284 1.535 3.66 1.549v0z"></path>
<path fill="#f59a17" d="M23.433 25.566c0.855 0.010 1.695-0.235 2.411-0.703s1.277-1.139 1.611-1.926c0.334-0.788 0.427-1.657 0.266-2.497s-0.568-1.614-1.169-2.222c-0.601-0.608-1.37-1.024-2.209-1.195s-1.709-0.088-2.5 0.237c-0.791 0.325-1.468 0.878-1.945 1.589s-0.731 1.547-0.731 2.402c-0.005 1.137 0.441 2.231 1.24 3.040s1.887 1.268 3.025 1.276v0z"></path>
<path fill="#ffae00" d="M23.433 25.084c0.806 0.009 1.597-0.223 2.271-0.664s1.203-1.073 1.518-1.816 0.402-1.561 0.251-2.353c-0.151-0.792-0.534-1.521-1.101-2.095s-1.29-0.967-2.080-1.128c-0.79-0.162-1.61-0.085-2.356 0.22s-1.385 0.825-1.835 1.494c-0.45 0.669-0.692 1.456-0.694 2.263-0.003 0.532 0.098 1.059 0.299 1.551s0.496 0.94 0.87 1.318 0.819 0.678 1.309 0.883c0.49 0.205 1.016 0.312 1.548 0.314v0.013z"></path>
<path fill="#ffae00" d="M20.552 18.107l6.081 6.021c-0.679 0.782-1.627 1.28-2.655 1.397l-4.78-4.747c0.111-1.020 0.581-1.968 1.328-2.672h0.027z"></path>
<path fill="#ffae00" d="M22.643 17.022l5.015 4.946c-0.080 0.358-0.196 0.717-0.315 1.079l-5.726-5.693c0.32-0.17 0.667-0.282 1.026-0.332v0z"></path>
<path fill="#fcb80d" d="M20.585 18.147l5.762 5.703c-0.743 0.753-1.745 1.195-2.802 1.235l-4.146-4.106c0.021-1.060 0.445-2.072 1.185-2.831v0z"></path>
<path fill="#fcb80d" d="M22.683 17.022l4.74 4.713c-0.078 0.359-0.197 0.707-0.355 1.039l-5.411-5.387c0.323-0.167 0.669-0.288 1.026-0.358v-0.007z"></path>
<path fill="#ffeba3" d="M25.448 17.307c0.524 0.269 0.993 0.635 1.381 1.079 0.361 0.453 0.642 0.965 0.83 1.514 0.162 0.557 0.23 1.137 0.199 1.716-0.045 0.58-0.206 1.144-0.475 1.66-0.267 0.515-0.628 0.974-1.066 1.354-0.449 0.385-0.974 0.671-1.54 0.84-0.542 0.205-1.125 0.273-1.7 0.199-0.58-0.047-1.145-0.211-1.66-0.481-0.507-0.27-0.958-0.635-1.328-1.075-0.39-0.435-0.673-0.954-0.83-1.517-0.181-0.552-0.247-1.134-0.196-1.713 0.044-0.582 0.203-1.149 0.468-1.669s0.629-0.983 1.073-1.362c0.444-0.379 0.958-0.666 1.514-0.844s1.141-0.245 1.722-0.195c0.568 0.042 1.12 0.205 1.62 0.478l-0.013 0.017zM27.383 19.962c-0.169-0.524-0.437-1.011-0.79-1.434-0.339-0.425-0.772-0.766-1.265-0.996-0.481-0.242-1.004-0.391-1.54-0.438-0.545-0.048-1.094 0.006-1.62 0.159-0.513 0.162-0.985 0.436-1.381 0.8-0.415 0.361-0.762 0.792-1.026 1.275-0.498 0.99-0.584 2.137-0.239 3.19 0.17 0.517 0.423 1.002 0.75 1.437 0.367 0.396 0.794 0.732 1.265 0.996 0.495 0.243 1.031 0.393 1.58 0.441 0.532 0.046 1.068-0.008 1.58-0.159 0.513-0.189 0.993-0.459 1.421-0.8 0.407-0.36 0.744-0.793 0.996-1.275 0.245-0.488 0.405-1.015 0.471-1.557 0.034-0.553-0.032-1.107-0.196-1.636l-0.007-0.003z"></path>
<path fill="#ffc800" d="M5.506 26.482c1.039 0.006 2.057-0.297 2.924-0.871s1.544-1.392 1.945-2.351 0.508-2.015 0.307-3.035c-0.201-1.020-0.7-1.957-1.434-2.693s-1.671-1.237-2.69-1.439-2.076-0.098-3.036 0.302c-0.96 0.399-1.779 1.074-2.354 1.94s-0.88 1.883-0.876 2.922c-0.001 0.686 0.133 1.364 0.395 1.998s0.646 1.209 1.13 1.695 1.059 0.87 1.693 1.133c0.633 0.263 1.312 0.398 1.997 0.399z"></path>
<path fill="#f59a17" d="M5.506 25.566c1.144 0 2.242-0.455 3.051-1.264s1.264-1.907 1.264-3.051c0-1.144-0.455-2.242-1.264-3.051s-1.907-1.264-3.051-1.264-2.242 0.455-3.051 1.264c-0.809 0.809-1.264 1.907-1.264 3.051s0.455 2.242 1.264 3.051c0.809 0.809 1.907 1.264 3.051 1.264z"></path>
<path fill="#ffae00" d="M5.506 25.084c0.806 0.008 1.596-0.224 2.271-0.666s1.202-1.074 1.516-1.816c0.314-0.742 0.401-1.561 0.25-2.353s-0.535-1.521-1.102-2.094c-0.566-0.574-1.291-0.966-2.080-1.127s-1.61-0.085-2.356 0.221c-0.746 0.305-1.385 0.825-1.835 1.494s-0.692 1.456-0.694 2.262c-0.001 1.072 0.422 2.102 1.177 2.863s1.78 1.194 2.853 1.203v0.013z"></path>
<path fill="#ffae00" d="M2.581 18.107l6.084 6.021c-0.668 0.771-1.597 1.269-2.609 1.397l-4.816-4.747c0.113-1.020 0.583-1.966 1.328-2.672h0.013z"></path>
<path fill="#ffae00" d="M4.716 17.022l4.979 4.946c-0.057 0.374-0.169 0.738-0.332 1.079l-5.706-5.693c0.336-0.165 0.695-0.277 1.066-0.332h-0.007z"></path>
<path fill="#fcb80d" d="M2.661 18.147l5.726 5.703c-0.743 0.753-1.745 1.195-2.802 1.235l-4.109-4.106c-0.006-0.528 0.095-1.051 0.299-1.538s0.505-0.927 0.886-1.293v0z"></path>
<path fill="#fcb80d" d="M4.716 17.022l4.74 4.707c-0.069 0.358-0.18 0.707-0.332 1.039l-5.434-5.381c0.326-0.161 0.67-0.281 1.026-0.358v-0.007z"></path>
<path fill="#ffeba3" d="M7.521 17.307c0.508 0.271 0.958 0.637 1.328 1.079 0.389 0.434 0.673 0.952 0.83 1.514 0.18 0.553 0.247 1.137 0.196 1.716-0.042 0.58-0.202 1.145-0.471 1.66-0.256 0.522-0.62 0.984-1.069 1.354-0.428 0.393-0.941 0.681-1.5 0.84-0.554 0.206-1.15 0.274-1.736 0.199-0.58-0.047-1.145-0.211-1.66-0.481-0.774-0.409-1.411-1.035-1.832-1.802s-0.608-1.641-0.538-2.513c0.039-0.581 0.201-1.146 0.475-1.66 0.267-0.515 0.628-0.974 1.065-1.354 0.448-0.386 0.973-0.673 1.54-0.84 0.541-0.205 1.125-0.274 1.7-0.199 0.579 0.048 1.144 0.21 1.66 0.478l0.013 0.010zM9.416 19.962c-0.171-0.515-0.424-1-0.75-1.434-0.357-0.407-0.785-0.745-1.265-0.996-0.495-0.242-1.031-0.391-1.58-0.438-0.532-0.046-1.068 0.008-1.58 0.159-0.522 0.17-1.005 0.442-1.421 0.8-0.416 0.352-0.755 0.786-0.996 1.275-0.247 0.487-0.407 1.014-0.471 1.557-0.034 0.552 0.032 1.105 0.196 1.633 0.168 0.526 0.436 1.014 0.79 1.437 0.35 0.414 0.78 0.753 1.265 0.996 0.481 0.243 1.003 0.393 1.54 0.441 0.538 0.062 1.082 0.008 1.597-0.157s0.989-0.439 1.39-0.802c0.405-0.37 0.751-0.8 1.026-1.275 0.499-0.991 0.585-2.139 0.239-3.193l0.020-0.003z"></path>
<path fill="#cdcfd1" d="M14.508 21.257c1.038 0.007 2.055-0.294 2.922-0.865s1.545-1.386 1.948-2.343c0.403-0.956 0.513-2.011 0.317-3.030s-0.691-1.957-1.421-2.695c-0.73-0.738-1.663-1.243-2.68-1.45s-2.073-0.109-3.034 0.284c-0.961 0.393-1.783 1.062-2.364 1.922s-0.892 1.874-0.896 2.912c-0.005 0.688 0.126 1.371 0.386 2.008s0.642 1.217 1.127 1.706c0.484 0.489 1.060 0.878 1.695 1.144s1.316 0.404 2.004 0.406h-0.003z"></path>
<path fill="#84898f" d="M14.508 20.301c0.855 0.010 1.695-0.235 2.411-0.703s1.277-1.139 1.611-1.926 0.427-1.657 0.266-2.497c-0.161-0.84-0.568-1.614-1.169-2.222s-1.37-1.024-2.209-1.195c-0.838-0.171-1.709-0.088-2.5 0.237s-1.468 0.878-1.945 1.589-0.731 1.547-0.731 2.402c-0.005 1.137 0.441 2.231 1.24 3.040s1.887 1.268 3.025 1.276z"></path>
<path fill="#a9adb0" d="M14.508 19.86c0.809 0.005 1.601-0.231 2.276-0.677s1.203-1.082 1.517-1.828c0.314-0.746 0.399-1.568 0.245-2.362s-0.54-1.525-1.109-2.1c-0.569-0.575-1.296-0.968-2.089-1.13s-1.616-0.084-2.365 0.222c-0.749 0.306-1.39 0.828-1.842 1.499s-0.696 1.461-0.699 2.27c-0.004 0.537 0.098 1.070 0.3 1.567s0.501 0.95 0.879 1.332c0.378 0.382 0.828 0.685 1.323 0.892s1.027 0.314 1.564 0.315z"></path>
<path fill="#919599" d="M11.587 12.839l6.081 6.025c-0.675 0.767-1.596 1.276-2.606 1.437l-4.82-4.787c0.123-1.018 0.591-1.962 1.328-2.675h0.017z"></path>
<path fill="#919599" d="M13.718 11.764l4.979 4.979c-0.061 0.357-0.167 0.705-0.315 1.036l-5.729-5.656c0.34-0.161 0.698-0.281 1.066-0.358v0z"></path>
<path fill="#b4b6b8" d="M11.623 12.882l5.766 5.703c-0.357 0.388-0.791 0.697-1.274 0.91s-1.004 0.323-1.531 0.325l-4.106-4.106c-0.001-1.057 0.41-2.072 1.145-2.831v0z"></path>
<path fill="#b4b6b8" d="M13.718 11.764l4.74 4.747c-0.081 0.352-0.187 0.698-0.315 1.036l-5.45-5.424c0.326-0.161 0.67-0.281 1.026-0.358v0z"></path>
<path fill="#fff" d="M16.523 12.043c0.515 0.268 0.971 0.634 1.344 1.079 0.367 0.449 0.647 0.962 0.826 1.514 0.166 0.57 0.234 1.164 0.199 1.756-0.050 0.579-0.211 1.142-0.475 1.66-0.264 0.516-0.626 0.976-1.066 1.354-0.459 0.347-0.964 0.628-1.5 0.836-0.563 0.169-1.152 0.238-1.739 0.202-0.58-0.048-1.144-0.212-1.66-0.481-0.508-0.269-0.959-0.635-1.328-1.075-0.351-0.467-0.631-0.984-0.83-1.534-0.166-0.555-0.232-1.135-0.196-1.713 0.046-0.585 0.207-1.155 0.475-1.676 0.265-0.517 0.626-0.978 1.066-1.358 0.458-0.37 0.98-0.654 1.54-0.836 0.549-0.169 1.123-0.236 1.696-0.199 0.58 0.047 1.144 0.209 1.66 0.478l-0.013-0.007zM18.418 14.754c-0.159-0.529-0.428-1.017-0.79-1.434-0.347-0.427-0.776-0.78-1.261-1.039-0.479-0.247-1.003-0.396-1.54-0.438-1.087-0.066-2.158 0.29-2.987 0.996-0.415 0.338-0.755 0.76-0.996 1.238-0.271 0.492-0.432 1.037-0.475 1.597-0.067 1.1 0.289 2.185 0.996 3.031 0.338 0.424 0.77 0.765 1.261 0.996 0.472 0.271 0.998 0.435 1.54 0.478 0.535 0.035 1.071-0.033 1.58-0.199 0.525-0.161 1.009-0.433 1.421-0.797 0.425-0.352 0.774-0.785 1.029-1.275 0.239-0.488 0.387-1.016 0.435-1.557 0.034-0.54-0.033-1.082-0.199-1.597h-0.013z"></path>
</svg>
