<svg width="15" height="16" viewBox="0 0 15 16" fill="none" xmlns="http://www.w3.org/2000/svg">
<path d="M7.84938 0.0688702C8.19841 0.0674189 8.54419 0.135966 8.86627 0.270461C9.18835 0.404956 9.4802 0.602667 9.72454 0.851903C10.2226 1.35702 10.501 2.03834 10.4993 2.74767C10.5022 2.99698 10.466 3.24519 10.3922 3.48331L10.4231 3.45035C10.6685 3.2026 10.9605 3.006 11.2824 2.87194C11.6043 2.73788 11.9496 2.66903 12.2983 2.66937C12.6438 2.66982 12.9857 2.73911 13.3041 2.87321C13.6226 3.0073 13.9111 3.2035 14.1528 3.45035C14.6505 3.95571 14.9288 4.63686 14.9276 5.34611C14.9287 6.05049 14.65 6.72648 14.1528 7.2254C13.803 7.57723 13.3632 7.82604 12.8814 7.94456C13.364 8.05275 13.8053 8.29737 14.1528 8.64928C14.6505 9.15465 14.9288 9.83581 14.9276 10.5451C14.9331 11.07 14.7816 11.5847 14.4927 12.023C14.2037 12.4614 13.7904 12.8034 13.3058 13.0053C12.8212 13.2073 12.2873 13.2598 11.7726 13.1563C11.2579 13.0528 10.7858 12.7979 10.4169 12.4243L10.386 12.3914C10.4588 12.6354 10.4949 12.8889 10.4932 13.1435C10.4956 13.4935 10.4289 13.8406 10.297 14.1648C10.165 14.4891 9.97038 14.7841 9.7242 15.0329C9.47802 15.2818 9.18515 15.4796 8.86237 15.6151C8.53959 15.7505 8.19325 15.821 7.8432 15.8223C7.14636 15.8141 6.48052 15.5329 5.98864 15.0393C5.6519 14.6907 5.4129 14.2596 5.29569 13.7894C5.17849 13.3191 5.18722 12.8263 5.321 12.3605C5.30903 12.3887 5.287 12.4114 5.25918 12.4243C5.01754 12.6715 4.7291 12.868 4.41068 13.0024C4.09227 13.1369 3.75026 13.2065 3.40463 13.2074C2.70123 13.2036 2.02797 12.9213 1.53213 12.4224C1.03629 11.9235 0.758238 11.2485 0.758793 10.5451C0.757567 9.83581 1.03595 9.15465 1.53358 8.64928C1.88354 8.30063 2.32386 8.05657 2.80499 7.94456C2.32477 7.82218 1.88588 7.57393 1.53358 7.2254C1.03635 6.72648 0.757657 6.05049 0.758793 5.34611C0.757567 4.63686 1.03595 3.95571 1.53358 3.45035C1.77901 3.20269 2.0711 3.00615 2.39297 2.8721C2.71483 2.73805 3.06008 2.66915 3.40875 2.66937C3.75425 2.66982 4.0962 2.73911 4.41463 2.87321C4.73305 3.0073 5.02156 3.2035 5.26331 3.45035C5.288 3.46727 5.30902 3.48899 5.32512 3.51423C5.25008 3.26576 5.21394 3.00719 5.21797 2.74767C5.2163 2.03834 5.49475 1.35702 5.99276 0.851903C6.23441 0.604775 6.52285 0.408255 6.84127 0.273813C7.15968 0.139371 7.50169 0.069703 7.84732 0.0688702H7.84938ZM13.8643 6.66285L10.965 3.76562C11.1015 3.64801 11.2525 3.54829 11.4143 3.46889L14.1528 6.17654L14.1837 6.16006C14.1699 6.20496 14.149 6.24738 14.1219 6.28575C14.0578 6.42191 13.9745 6.54821 13.8746 6.66079L13.8643 6.66285ZM14.2208 6.04467L11.5544 3.39883C11.5948 3.38561 11.6361 3.37527 11.678 3.36792C11.9337 3.28788 12.2019 3.25575 12.4693 3.27313C12.7343 3.29348 12.9924 3.36781 13.2276 3.49156C13.4712 3.61418 13.6877 3.78445 13.8643 3.99228C14.0289 4.20592 14.1595 4.44362 14.2517 4.69702C14.3326 4.96378 14.3586 5.24419 14.328 5.52127C14.315 5.70231 14.279 5.88096 14.2208 6.0529V6.04467ZM10.2521 5.24514C10.9795 5.94988 11.6945 6.67109 12.4219 7.39025C12.3244 7.40677 12.2248 7.40677 12.1272 7.39025C11.8582 7.37094 11.5958 7.29725 11.356 7.17364C11.1162 7.05003 10.904 6.87907 10.7322 6.67109C10.5591 6.46319 10.4275 6.22393 10.3448 5.96636C10.2675 5.73421 10.236 5.48928 10.2521 5.24514ZM13.7716 6.76382L10.8558 3.87483C10.6926 4.02448 10.5609 4.20523 10.4684 4.40647L10.454 4.42295V4.43738C10.3592 4.63221 10.2959 4.84087 10.2665 5.05556L12.5929 7.37376C13.041 7.29666 13.4534 7.08036 13.7716 6.75558V6.76382ZM10.2521 3.87483C10.1898 4.02035 10.1117 4.15856 10.0192 4.28696C9.86062 4.61941 9.78093 4.98399 9.78636 5.35229C9.79161 5.71945 9.8708 6.08178 10.0192 6.41764C10.1069 6.53893 10.1795 6.6704 10.2356 6.80915L10.5158 7.13679C10.9891 7.60841 11.6301 7.87298 12.2983 7.87243C12.6269 7.87227 12.9522 7.8072 13.2556 7.68095C13.559 7.55471 13.8345 7.36979 14.0663 7.13679C14.5331 6.66018 14.7943 6.01944 14.7937 5.35229C14.7944 4.68026 14.5335 4.03432 14.0663 3.55131C13.8353 3.31645 13.5602 3.12948 13.2568 3.00112C12.9534 2.87276 12.6277 2.80554 12.2983 2.80331C11.6303 2.80366 10.9896 3.0681 10.5158 3.53895C10.4224 3.64436 10.3344 3.7544 10.2521 3.86865V3.87483ZM9.75545 4.59399L9.72454 4.6249C9.3752 4.97774 8.93525 5.22731 8.45314 5.34611C8.93624 5.45297 9.37791 5.6978 9.72454 6.05085L9.75545 6.08175C9.68776 5.84222 9.65105 5.59499 9.64624 5.34611C9.65 5.09174 9.68671 4.83893 9.75545 4.59399V4.59399ZM10.3922 7.19449C10.4672 7.4373 10.5034 7.69045 10.4993 7.94456C10.5025 8.19388 10.4663 8.44214 10.3922 8.68019L10.4231 8.64928C10.7724 8.29983 11.213 8.05564 11.6945 7.94456C11.2139 7.82312 10.7748 7.57473 10.4231 7.2254L10.3922 7.19449ZM10.1284 6.86479C10.0447 6.74649 9.97156 6.62099 9.91 6.48976C9.81727 6.36406 9.72454 6.25484 9.63182 6.14357C9.16527 5.68958 8.54542 5.42708 7.89472 5.40793H7.81847C7.48942 5.4117 7.16435 5.48034 6.86188 5.60993C6.5594 5.73953 6.28547 5.92753 6.05577 6.16317C5.82607 6.3988 5.64512 6.67744 5.52328 6.98312C5.40143 7.2888 5.3411 7.61552 5.34573 7.94456C5.33967 8.37864 5.45224 8.80613 5.67131 9.18093L5.68779 9.22626C5.79049 9.41266 5.92113 9.58222 6.07519 9.72905C6.3057 9.96678 6.58162 10.1558 6.88656 10.2849C7.19151 10.4139 7.51927 10.4804 7.85041 10.4804C8.18155 10.4804 8.50931 10.4139 8.81426 10.2849C9.11921 10.1558 9.39512 9.96678 9.62564 9.72905C9.71836 9.63426 9.81109 9.50857 9.90382 9.39935C9.96154 9.26098 10.0348 9.12963 10.1222 9.00783C10.2787 8.67471 10.3576 8.31048 10.353 7.94249C10.3573 7.5699 10.2784 7.20104 10.1222 6.86273L10.1284 6.86479ZM9.89558 4.20247C9.96384 4.06662 10.0416 3.93579 10.1284 3.81095C10.2833 3.47806 10.3622 3.11484 10.3592 2.74767C10.36 2.07564 10.0991 1.4297 9.63182 0.94669C9.39874 0.713479 9.12199 0.528482 8.81739 0.402262C8.5128 0.276042 8.18631 0.211079 7.8566 0.211079C7.52688 0.211079 7.20039 0.276042 6.89579 0.402262C6.59119 0.528482 6.31445 0.713479 6.08137 0.94669C5.61354 1.42949 5.35193 2.07539 5.35191 2.74767C5.34994 3.17418 5.45705 3.5941 5.66307 3.96756L5.67749 3.98405L5.69397 4.03144C5.80563 4.21117 5.93544 4.37896 6.08137 4.53217C6.30808 4.76331 6.57828 4.94731 6.87642 5.07356C7.17455 5.19982 7.49471 5.26583 7.81847 5.26781H7.89472C8.21847 5.26583 8.53864 5.19982 8.83677 5.07356C9.1349 4.94731 9.40511 4.76331 9.63182 4.53217C9.73143 4.43216 9.81987 4.32161 9.89558 4.20247V4.20247ZM4.96452 6.66079L2.0508 3.76356H2.06522C2.20211 3.64545 2.35381 3.5457 2.5165 3.46683L5.24476 6.19097L5.27567 6.16006C5.25918 6.20745 5.22827 6.23836 5.21385 6.28575C5.14902 6.422 5.06506 6.54829 4.96452 6.66079V6.66079ZM5.321 6.0426L2.65456 3.40501C2.68547 3.38853 2.73287 3.38852 2.76377 3.3741C3.02464 3.29518 3.29742 3.26309 3.56948 3.27931C3.8348 3.3016 4.09315 3.37581 4.32985 3.49774C4.57025 3.61712 4.78133 3.7881 4.94803 3.99847C5.1231 4.20503 5.25485 4.44469 5.33543 4.7032C5.42902 4.96723 5.46075 5.24922 5.42816 5.52745C5.41443 5.70857 5.37773 5.88722 5.31894 6.05908L5.321 6.0426ZM1.35225 5.24308L3.52414 7.38819C3.42662 7.40471 3.327 7.40471 3.22948 7.38819C2.95887 7.36984 2.69503 7.29546 2.45468 7.16976C2.21596 7.04778 2.00539 6.87722 1.8365 6.66903C1.66264 6.46163 1.53104 6.22222 1.4491 5.9643C1.37219 5.73205 1.34003 5.48732 1.35431 5.24308H1.35225ZM4.88003 6.77L1.95807 3.87483C1.79483 4.02448 1.66312 4.20523 1.57068 4.40647L1.55419 4.42295V4.43738C1.46095 4.63268 1.39839 4.84119 1.36874 5.05556L3.69312 7.37376C4.1412 7.29666 4.55361 7.08036 4.87179 6.75558L4.88003 6.77ZM3.99603 7.94456C4.47878 8.05231 4.92022 8.29699 5.26743 8.64928L5.32924 8.71316C5.25409 8.46402 5.21795 8.20475 5.22209 7.94456C5.21825 7.67964 5.25437 7.41566 5.32924 7.16152C5.31314 7.18675 5.29212 7.20848 5.26743 7.2254C4.91797 7.57766 4.47798 7.82654 3.99603 7.94456V7.94456ZM5.93507 6.12915C5.95037 6.09927 5.97137 6.07267 5.99689 6.05085C6.34352 5.6978 6.78519 5.45297 7.26829 5.34611C6.78618 5.22731 6.34623 4.97774 5.99689 4.6249C5.97209 4.60895 5.95101 4.58787 5.93507 4.56308C6.01009 4.81719 6.04622 5.08119 6.04222 5.34611C6.04508 5.61097 6.00898 5.8748 5.93507 6.12915V6.12915ZM5.59301 4.10974L5.56209 4.04586C5.45112 3.86566 5.32126 3.6978 5.1747 3.54513C4.94289 3.31223 4.66739 3.12736 4.364 3.00113C4.06061 2.87489 3.73529 2.80977 3.40669 2.80949C2.73892 2.81074 2.09852 3.07504 1.62425 3.54513C1.15699 4.02814 0.896102 4.67408 0.896854 5.34611C0.893847 5.67703 0.956635 6.00525 1.08157 6.31169C1.20651 6.61813 1.39111 6.89669 1.62463 7.13117C1.85815 7.36565 2.13595 7.55139 2.44188 7.67758C2.74781 7.80377 3.07576 7.8679 3.40669 7.86625C3.73536 7.86643 4.06081 7.80151 4.36426 7.67524C4.66771 7.54898 4.94316 7.36388 5.1747 7.13061C5.64209 6.65421 5.90399 6.0135 5.90416 5.34611C5.9084 4.9141 5.80124 4.48828 5.59301 4.10974V4.10974ZM4.97482 11.8762L2.06522 8.98517V8.96868C2.20572 8.85543 2.35685 8.75606 2.5165 8.67195L5.24476 11.3961L5.27567 11.3652C5.25918 11.4126 5.22827 11.4579 5.21385 11.4909C5.14524 11.6301 5.06164 11.7614 4.96452 11.8824L4.97482 11.8762ZM5.33131 11.258L2.65456 8.61838C2.68547 8.60189 2.73287 8.58747 2.76377 8.57098C3.02475 8.49271 3.29754 8.46132 3.56948 8.47826C3.83615 8.50463 4.09476 8.58453 4.32985 8.71316C4.57371 8.83445 4.78981 9.00494 4.96452 9.21389C5.13647 9.42033 5.26349 9.66035 5.33749 9.91863C5.42994 10.1736 5.46169 10.4467 5.43022 10.7161C5.41695 10.9027 5.38025 11.0868 5.321 11.2642L5.33131 11.258ZM1.36255 10.4441C2.07553 11.1653 2.80499 11.8865 3.53445 12.6057H3.23154C2.96144 12.5737 2.69913 12.4941 2.45674 12.3708C1.97556 12.1169 1.6136 11.6839 1.4491 11.1653C1.37114 10.9333 1.33895 10.6884 1.35431 10.4441H1.36255ZM4.88003 11.9689L1.96632 9.07172C1.8067 9.22536 1.67555 9.40605 1.57892 9.60541L1.56243 9.61984V9.63632C1.46833 9.83996 1.40579 10.0568 1.37698 10.2792L3.70136 12.5954C3.92816 12.5558 4.14769 12.4821 4.35251 12.3769C4.54799 12.2667 4.72581 12.1278 4.88003 11.9648V11.9689ZM5.93507 11.3281C5.94983 11.2979 5.97091 11.2712 5.99689 11.2498C6.34352 10.8967 6.78519 10.6519 7.26829 10.5451C6.78149 10.4383 6.33832 10.1869 5.99689 9.82384C5.983 9.81814 5.97039 9.80974 5.95978 9.79913C5.94916 9.78851 5.94076 9.77591 5.93507 9.76202C6.07798 10.2743 6.07798 10.8158 5.93507 11.3281V11.3281ZM5.59301 9.2922L5.57858 9.27571L5.56209 9.26129C5.4601 9.07443 5.32937 8.90476 5.1747 8.7585C4.94563 8.52094 4.67098 8.33206 4.36718 8.20318C4.06338 8.07429 3.7367 8.00806 3.40669 8.00844C3.07459 8.00834 2.74583 8.07465 2.43972 8.20346C2.13362 8.33227 1.85636 8.52098 1.62425 8.7585C1.15793 9.23585 0.896864 9.8767 0.896864 10.544C0.896864 11.2114 1.15793 11.8522 1.62425 12.3295C2.09673 12.8044 2.73688 13.0745 3.40669 13.0817C4.07315 13.073 4.70926 12.8017 5.17688 12.3268C5.6445 11.8518 5.90584 11.2116 5.90416 10.5451C5.9066 10.108 5.79963 9.67731 5.59301 9.2922V9.2922ZM9.43812 14.4747L6.5244 11.5774L6.53883 11.563C6.67464 11.4484 6.82585 11.3534 6.98804 11.2807L9.71836 13.9884L9.74927 13.9574C9.73279 14.0048 9.70188 14.0522 9.68539 14.0996C9.60915 14.2233 9.53085 14.349 9.43812 14.4747V14.4747ZM9.78018 13.8565L7.12817 11.2086L7.23738 11.1632C7.493 11.0863 7.76002 11.0542 8.0266 11.0684C8.29867 11.0939 8.56284 11.1738 8.80345 11.3034C9.04148 11.4264 9.25185 11.5968 9.42163 11.8041C9.60325 12.0061 9.73582 12.2472 9.80903 12.5088C9.89333 12.7664 9.92487 13.0383 9.90176 13.3083C9.88901 13.4963 9.84731 13.6812 9.77812 13.8565H9.78018ZM5.81143 13.0425C6.53883 13.7617 7.26829 14.485 7.98126 15.202H7.68659C7.42004 15.1751 7.16155 15.0952 6.92622 14.9671C6.68571 14.8479 6.47459 14.6769 6.30804 14.4664C6.12642 14.2644 5.99386 14.0233 5.92064 13.7617C5.8456 13.5295 5.80939 13.2865 5.81349 13.0425H5.81143ZM9.34539 14.5612L6.42343 11.664C6.26691 11.82 6.13552 11.9993 6.03398 12.1956L6.01955 12.2265C5.91802 12.4273 5.85512 12.6454 5.8341 12.8694L8.15848 15.1876C8.38529 15.147 8.60477 15.0727 8.80963 14.9671C9.00517 14.8571 9.18301 14.7181 9.33715 14.555L9.34539 14.5612ZM10.1367 12.0555C10.049 11.939 9.97565 11.8124 9.91825 11.6784C9.83327 11.5628 9.74031 11.4533 9.64006 11.3508C9.40955 11.113 9.13363 10.924 8.82869 10.7949C8.52374 10.6659 8.19597 10.5994 7.86484 10.5994C7.5337 10.5994 7.20593 10.6659 6.90099 10.7949C6.59604 10.924 6.32013 11.113 6.08961 11.3508C5.93917 11.5064 5.80964 11.6809 5.70428 11.87L5.68779 11.8845C5.47598 12.2682 5.36402 12.699 5.36221 13.1373C5.35925 13.8053 5.62163 14.4472 6.09168 14.9218C6.32219 15.1595 6.5981 15.3486 6.90305 15.4776C7.208 15.6067 7.53576 15.6732 7.8669 15.6732C8.19803 15.6732 8.5258 15.6067 8.83075 15.4776C9.13569 15.3486 9.41161 15.1595 9.64212 14.9218C10.1116 14.447 10.3733 13.8051 10.3695 13.1373C10.3723 12.7649 10.2935 12.3963 10.1387 12.0575L10.1367 12.0555ZM9.7637 11.2724C9.61809 10.7872 9.61809 10.2699 9.7637 9.78469L9.73279 9.8156C9.39135 10.1786 8.94818 10.43 8.46139 10.5368C8.94448 10.6437 9.38616 10.8885 9.73279 11.2415L9.7637 11.2724ZM10.0275 11.6001C10.1135 11.7254 10.1913 11.8562 10.2603 11.9916C10.3354 12.1112 10.4239 12.2218 10.5241 12.3213C10.9962 12.7967 11.6366 13.0669 12.3065 13.0734C12.6367 13.0736 12.9634 13.007 13.2672 12.8777C13.571 12.7485 13.8456 12.5592 14.0745 12.3213C14.5408 11.844 14.8019 11.2031 14.8019 10.5358C14.8019 9.86846 14.5408 9.22761 14.0745 8.75025C13.8452 8.51298 13.5705 8.32429 13.2668 8.19542C12.963 8.06656 12.6365 8.00017 12.3065 8.00019C11.9744 7.99975 11.6455 8.0659 11.3393 8.19473C11.0332 8.32356 10.756 8.51246 10.5241 8.75025C10.4239 8.84975 10.3354 8.96037 10.2603 9.07995C10.1917 9.21033 10.1139 9.33566 10.0275 9.45499C9.87731 9.79608 9.79809 10.1642 9.79461 10.5368C9.79805 10.9035 9.87733 11.2655 10.0275 11.6001V11.6001ZM13.8643 11.87L10.965 8.98517V8.96868C11.1051 8.85592 11.2555 8.75657 11.4143 8.67195L14.1528 11.3899L14.1837 11.359C14.1729 11.405 14.1517 11.448 14.1219 11.4847C14.054 11.6238 13.9711 11.7551 13.8746 11.8762L13.8643 11.87ZM14.2208 11.2518L11.5544 8.60601L11.678 8.55862C11.9338 8.47928 12.2021 8.44784 12.4693 8.46589C12.7357 8.49023 12.9941 8.57026 13.2276 8.7008C13.4721 8.82205 13.6889 8.99253 13.8643 9.20153C14.0355 9.41076 14.1668 9.64962 14.2517 9.90626C14.3318 10.164 14.3577 10.4355 14.328 10.7037C14.3154 10.8902 14.2794 11.0744 14.2208 11.2518V11.2518ZM10.2521 10.4379C10.9795 11.1591 11.7089 11.8803 12.4219 12.5995H12.1272C11.8558 12.5743 11.5922 12.4944 11.3524 12.3646C11.1148 12.2409 10.9046 12.0706 10.7342 11.8638C10.5578 11.6582 10.4259 11.4183 10.3469 11.1591C10.2687 10.9272 10.2371 10.6821 10.2541 10.4379H10.2521ZM13.7716 11.9566L10.8558 9.07172C10.7014 9.22978 10.5709 9.40958 10.4684 9.60541L10.454 9.61984V9.63632C10.3583 9.83951 10.295 10.0565 10.2665 10.2792L12.5929 12.5954C12.8196 12.5554 13.0391 12.4818 13.2441 12.3769C13.442 12.2705 13.6204 12.1311 13.7716 11.9648V11.9566ZM9.42988 9.24893L6.51616 6.36406L6.53058 6.34963C6.67066 6.23622 6.82106 6.13619 6.9798 6.05085L9.71012 8.77704L9.74103 8.74407C9.72312 8.7876 9.70176 8.82964 9.67715 8.86977C9.6078 9.00358 9.52495 9.12993 9.42988 9.24686V9.24893ZM9.77194 8.65341L7.11992 6.00757C7.15083 5.99108 7.19823 5.9746 7.22913 5.96018C7.48475 5.88322 7.75178 5.85114 8.01835 5.86539C8.28896 5.89807 8.55183 5.97756 8.79521 6.1003C9.02656 6.23331 9.23524 6.40234 9.41339 6.60103C9.59244 6.8103 9.72454 7.05554 9.80079 7.32019C9.88605 7.57755 9.9176 7.84966 9.89351 8.1197C9.881 8.30772 9.83929 8.49265 9.76988 8.66783L9.77194 8.65341ZM5.80319 7.83946C6.52852 8.57304 7.26004 9.27571 7.97096 10.0155C7.87252 10.0175 7.77406 10.0127 7.67629 10.0011C7.41078 9.97839 7.15237 9.90346 6.91592 9.78056C6.675 9.662 6.46375 9.49089 6.29774 9.27983C6.11874 9.07522 5.98653 8.83401 5.91034 8.57304C5.83651 8.34057 5.80033 8.09779 5.80319 7.85389V7.83946ZM9.33715 9.35814L6.42343 6.46091C6.26367 6.61411 6.13187 6.79402 6.03398 6.99255L6.01955 7.00903V7.02552C5.91777 7.22548 5.85484 7.44295 5.8341 7.66637L8.15848 9.96809C8.61244 9.90893 9.03039 9.68972 9.33715 9.34989V9.35814ZM9.42988 4.04998L6.51616 1.15275H6.52853C6.66451 1.03445 6.81556 0.934673 6.97774 0.856022L9.70806 3.58016L9.73897 3.54925C9.72248 3.59459 9.69158 3.62756 9.67509 3.67289C9.60624 3.80698 9.52335 3.93338 9.42782 4.04998H9.42988ZM9.77194 3.4318L7.11992 0.804506C7.15083 0.790082 7.19823 0.790083 7.22913 0.773598C7.48469 0.696457 7.75187 0.665069 8.01835 0.680874C8.4237 0.713778 8.81002 0.866839 9.1279 1.12049C9.44578 1.37413 9.68078 1.71683 9.80285 2.10476C9.88727 2.36727 9.91879 2.64393 9.89558 2.9187C9.8832 3.10141 9.84145 3.28093 9.77194 3.45035V3.4318ZM5.80319 2.63434C6.53059 3.33907 7.26004 4.05823 7.97302 4.77944C7.87549 4.79597 7.77588 4.79597 7.67835 4.77944C7.41317 4.75643 7.15495 4.68225 6.91798 4.56102C6.67738 4.44104 6.46628 4.26934 6.2998 4.05823C6.12094 3.85508 5.98871 3.61524 5.9124 3.35555C5.83959 3.12214 5.80345 2.87884 5.80525 2.63434H5.80319ZM9.33715 4.15301L6.42343 1.25578C6.26318 1.40935 6.13134 1.59002 6.03398 1.78948L6.01955 1.80391V1.8204C5.91883 2.01273 5.85587 2.22257 5.8341 2.43858L8.15848 4.75472C8.38707 4.72239 8.60778 4.64835 8.80963 4.53629C9.00737 4.43822 9.18601 4.30563 9.33715 4.14477V4.15301Z" fill="white"/>
</svg>
