<?xml version="1.0" encoding="utf-8"?>
<!-- Generator: Adobe Illustrator 26.0.1, SVG Export Plug-In . SVG Version: 6.00 Build 0)  -->
<!DOCTYPE svg PUBLIC "-//W3C//DTD SVG 1.1//EN" "http://www.w3.org/Graphics/SVG/1.1/DTD/svg11.dtd" [
	<!ENTITY ns_extend "http://ns.adobe.com/Extensibility/1.0/">
	<!ENTITY ns_ai "http://ns.adobe.com/AdobeIllustrator/10.0/">
	<!ENTITY ns_graphs "http://ns.adobe.com/Graphs/1.0/">
	<!ENTITY ns_vars "http://ns.adobe.com/Variables/1.0/">
	<!ENTITY ns_imrep "http://ns.adobe.com/ImageReplacement/1.0/">
	<!ENTITY ns_sfw "http://ns.adobe.com/SaveForWeb/1.0/">
	<!ENTITY ns_custom "http://ns.adobe.com/GenericCustomNamespace/1.0/">
	<!ENTITY ns_adobe_xpath "http://ns.adobe.com/XPath/1.0/">
]>
<svg version="1.1" id="Слой_1" xmlns:x="&ns_extend;" xmlns:i="&ns_ai;" xmlns:graph="&ns_graphs;"
	 xmlns="http://www.w3.org/2000/svg" xmlns:xlink="http://www.w3.org/1999/xlink" x="0px" y="0px" width="18.7px" height="211px"
	 viewBox="0 0 18.7 211" style="enable-background:new 0 0 18.7 211;" xml:space="preserve">
<style type="text/css">
	.st0{fill:none;}
	.st1{fill-rule:evenodd;clip-rule:evenodd;fill:#FCB874;}
	.st2{fill:#E39D56;}
	.st3{fill-rule:evenodd;clip-rule:evenodd;fill:#BF794A;}
	.st4{fill-rule:evenodd;clip-rule:evenodd;fill:#9C5728;}
	.st5{fill-rule:evenodd;clip-rule:evenodd;fill:#853D03;}
	.st6{fill-rule:evenodd;clip-rule:evenodd;fill:#B95300;}
	.st7{fill-rule:evenodd;clip-rule:evenodd;fill:#EB8046;}
</style>
<metadata>
	<sfw  xmlns="&ns_sfw;">
		<slices></slices>
		<sliceSourceBounds  bottomLeftOrigin="true" height="211" width="18.7" x="210" y="-336.2"></sliceSourceBounds>
	</sfw>
</metadata>
<g>
	<rect x="9" class="st0" width="0.6" height="211"/>
	<path class="st1" d="M2.2,197.1V192V25.1c0-0.2,0.2-0.3,0.3-0.3h10.9h2.7l0,0l0,0l0,0l0,0l0,0l0,0h0l0,0l0,0l0,0l0,0l0,0h0l0,0l0,0
		l0,0l0,0l0,0h0l0,0l0,0l0,0l0,0l0,0l0,0v0h0l0,0l0,0l0,0l0,0l0,0l0,0h0l0,0l0,0l0,0l0,0l0,0l0,0h0v0l0,0l0,0l0,0l0,0l0,0l0,0h0l0,0
		l0,0l0,0l0,0v0l0,0l0,0h0l0,0l0,0l0,0l0,0l0,0l0,0v0l0,0h0l0,0l0,0l0,0l0,0l0,0v0l0,0l0,0l0,0l0,0h0l0,0l0,0l0,0v0l0,0l0,0l0,0l0,0
		l0,0v0h0l0,0l0,0l0,0l0,0v0l0,0l0,0l0,0l0,0l0,0v0l0,0l0,0l0,0l0,0l0,0l0,0l0,0l0,0l0,0l0,0l0,0l0,0v0l0,0l0,0l0,0l0,0l0,0l0,0v0
		l0,0l0,0l0,0l0,0v171.5v1.3l-3.1,2.1h-2.7H5.3H2.2V197.1z"/>
	<path class="st2" d="M2.2,65.1C2.9,66.1,3.5,68,4,69.8c0.6,2,1.1,3.9,1.6,4.1c0,0,0.1-0.1,0.2-0.3c0.7-1.2,1.2-3.8,1.5-6.9
		c0.4-4.4,0.5-9.7,0.3-12.8c-0.2-4.5-0.8-7.4-1.9-9.8c-0.8-1.8-2-3.2-3.6-4.7v-1.4c2,1.8,3.4,3.5,4.5,5.6c1.2,2.5,1.8,5.6,2,10.1
		c0.1,3.1,0.1,8.4-0.3,12.9c-0.3,3.2-0.8,6-1.6,7.3c-0.5,0.9-1.1,1-1.6,0.7c-0.8-0.5-1.4-2.6-2.1-4.7c-0.3-0.9-0.5-1.9-0.8-2.7V65.1
		z M2.2,44.9l0.5,0.4c1.6,1.4,3.3,3,3.7,5c0.6,3.9,0.8,9.6,0.2,12.9c-0.2,1-0.5,1.9-0.9,2.4c-0.5,0.7-1.2,0.8-2,0.4
		c-0.4-0.3-0.9-0.7-1.5-1.5v-1.8c0.8,1.4,1.5,2.2,2,2.5c0.3,0.1,0.5,0.1,0.7-0.1c0.3-0.4,0.5-1,0.7-1.9c0.6-3.2,0.3-8.8-0.3-12.6
		c-0.2-1.6-1.7-2.9-3.1-4.2V44.9z M2.2,59.2c0.1,0.1,0.2,0.1,0.3,0.1c0.4,0.1,0.7-0.3,0.9-0.9c0.3-0.8,0.5-2,0.4-3.2
		c0-2-0.6-4.3-1.7-5.7v-1.4c1.8,1.4,2.6,4.4,2.7,7.1c0.1,1.4-0.1,2.7-0.5,3.6c-0.4,1.1-1.1,1.7-2.1,1.5c0,0-0.1,0-0.1,0V59.2z
		 M2.2,159.8v-2.7c0.7,1.7,1.5,3.6,1.7,5.7c0.2,1.3,0,2.1-0.1,2.8c-0.2,0.7-0.3,1.3,0.2,2.6c0.7,1.9,0.5,5.2,0.3,8.3
		c-0.1,1.6-0.2,3.1-0.2,4.3c0.2,4.9-0.1,9.8-0.3,14.1c0,1-0.1,2-0.1,2.8c0,0.2-0.1,2-0.1,2.2H2.4c0-0.9,0.3-4.1,0.4-5
		c0.2-4.3,0.4-9.2,0.3-14c0-1.2,0.1-2.8,0.2-4.4c0.2-3,0.4-6.2-0.2-7.9c-0.5-1.6-0.4-2.3-0.2-3.2c0.1-0.6,0.3-1.3,0.1-2.4
		C2.8,161.9,2.5,160.8,2.2,159.8L2.2,159.8z M2.2,146.5v-6.6c0.3,0.6,0.5,2,0.7,3.9c0.3,2.9,0.7,7,1.9,10.7c2.6,8,2.1,12.7,1.5,18
		c-0.3,2.4-0.5,4.9-0.5,7.9c0,2.6,0.3,4.7,0.6,6.9c0.3,2.2,0.6,4.3,0.6,6.7c0,1.6-0.4,3.6-0.7,5.5l-0.1,0.5H5.3l-0.1-0.1l0.1-0.7
		c0.3-1.8,0.7-3.7,0.7-5.3c0-2.4-0.3-4.4-0.6-6.5c-0.3-2.2-0.6-4.4-0.6-7c0-3,0.3-5.6,0.5-8c0.6-5.2,1.1-9.8-1.5-17.6
		C3,152,2.5,149,2.2,146.5L2.2,146.5z M2.2,132.2v-4.5c1.2,4.9,2.2,10,3.1,15.1c1.4,8.1,2.6,16.2,3.4,23.6
		c0.5,4.7,0.7,11.2,0.6,17.8c-0.1,5.6-0.3,11.3-0.6,15.8h-1c0.3-4.5,0.6-10.1,0.7-15.8c0.1-6.5-0.1-13.1-0.6-17.7
		c-0.8-7.4-2-15.5-3.4-23.5C3.7,139.3,3,135.7,2.2,132.2L2.2,132.2z M2.2,73.4v-2.3c0.3,0.3,0.5,0.8,0.8,1.5
		c0.9,2.5,1.8,7.5,1.7,11.4c-0.1,7.3-0.1,16.4,0.1,25.3c0.2,7.3,0.5,14.5,1.1,20.4c0.1,0.7,0.1,1.5,0.2,2.4c0.2,3.2,0.5,7.4,1.5,9.6
		c0.8,1.8,1.9,6.5,2.8,12.3c0.7,4.8,1.3,10.5,1.6,16.2c0.3,5.7,0.2,11.4,0.1,16.6s-0.1,9.8,0.1,13.1h-1c-0.3-3.4-0.2-8-0.1-13.1
		c0.1-5.2,0.1-10.9-0.1-16.6c-0.2-5.6-0.8-11.3-1.6-16.1c-0.9-5.8-1.9-10.3-2.7-12c-1.1-2.4-1.3-6.7-1.6-10
		c-0.1-0.9-0.1-1.7-0.2-2.4c-0.5-5.9-0.9-13.1-1.1-20.4C3.6,100.4,3.6,91.3,3.7,84C3.8,80.4,3,75.9,2.2,73.4L2.2,73.4z M2.2,35.2
		v-1.7c0.8,1.1,1.7,2.2,2.6,3.3c2,2.4,3.9,4.8,4.8,7.3c3.7,10,0.9,26-1.1,38.3c-0.9,5-1.6,9.3-1.8,12.4c-0.1,1.3-0.1,2.7,0.1,3.3
		c0,0,0.3-0.4,1.1-1.8l0-0.1c1.9-3.3,4.9-8.7,8.7-11.2v1.2c-3.3,2.6-6.1,7.5-7.8,10.5l0,0.1c-1.6,2.8-2.5,2.9-2.9,1.7
		c-0.3-0.7-0.2-2.3-0.1-3.7c0.2-3.1,0.9-7.5,1.8-12.5c2.1-12.2,4.8-28,1.2-37.8c-0.9-2.3-2.7-4.6-4.6-7C3.4,36.7,2.8,36,2.2,35.2
		L2.2,35.2z M2.5,24.7C2.5,24.7,2.5,24.7,2.5,24.7h1c0.4,4.5,3.3,8.6,5.9,12.4c2.3,3.3,4.4,6.3,4.6,9.1c0.2,2,0.3,4.3,0.3,6.7
		c0.2,4.7,0.3,9.7,1.4,13.7c1.3,5-1.5,10.5-3.7,14.9c-1.5,3-2.7,5.4-2,6.3l0.2-0.1c0.6-0.5,1.4-1.8,2.3-3.2c1.2-1.9,2.5-4.1,4-5.3
		v1.4c-1.1,1.2-2.2,2.9-3.2,4.5c-0.9,1.5-1.8,2.8-2.5,3.4c-0.6,0.5-1.1,0.6-1.6,0.1c-1.2-1.4,0.1-4.1,1.8-7.4
		c2.1-4.2,4.8-9.5,3.6-14.2c-1.1-4.2-1.2-9.2-1.4-13.9c-0.1-2.3-0.2-4.5-0.3-6.6c-0.2-2.5-2.2-5.4-4.4-8.6
		C5.8,33.8,2.9,29.4,2.5,24.7L2.5,24.7z M6.6,24.7h1c0.4,3,0.9,6,1.9,7.1c0.4,0.5,0.9,0.9,1.4,1.2c2.5,2,5.4,4.3,5.5,20.2
		c0,0.5,0.1,0.9,0.1,1.3v4c-0.5-1.5-1.1-3.3-1.1-5.3c-0.1-15.5-2.8-17.6-5.2-19.5c-0.5-0.4-1-0.8-1.5-1.4
		C7.6,31.2,7.1,27.9,6.6,24.7L6.6,24.7z M10.6,24.7h1c-0.1,1.3-0.1,2.7,0.1,4.3c0,0.1,0.2,0.1,0.5,0.5c1,1.2,3,3.5,4.3,5.9v2.4
		c-0.1-0.4-0.3-0.7-0.5-1c-1.2-2.6-3.5-5.3-4.6-6.6c-0.4-0.5-0.7-0.8-0.7-1C10.5,27.6,10.5,26.1,10.6,24.7L10.6,24.7z M13,24.7h1
		c0.2,1.8,1.4,3.8,2.6,5.4v1.7C15,29.9,13.2,27.2,13,24.7L13,24.7z M16.6,88.9V90c-0.9,0.6-1.8,1.5-2.7,2.6c-0.8,1-1.6,2.3-2.3,3.5
		c-0.7,1.4-1.3,2.7-1.7,3.7c-2.6,7.5-2.5,11.8-2.3,17.4c0.1,2.3,0.1,4.8,0,7.8c-0.1,3.5,0.5,5.9,1,8.1c0.3,1.5,0.7,2.9,0.9,4.6
		c0.3,2.9,1.1,6.1,1.9,9.5c0.8,3.1,1.6,6.3,2,9.4c1,7.5,0.9,15.5,0.8,23.4c0,2.2-0.1,4.4-0.1,6.9c0,2.4,0.2,3.4,0.4,4.5
		c0.1,0.7,0.3,1.3,0.4,2.4c0.1,1.2,0.7,2.7,1.3,4.2l-0.8,0.6c-0.7-1.6-1.3-3.3-1.5-4.7c-0.1-1-0.2-1.7-0.4-2.4
		c-0.2-1.1-0.4-2.2-0.4-4.6c0-2.1,0-4.5,0.1-6.9c0.1-7.8,0.2-15.8-0.8-23.2c-0.4-2.9-1.2-6.2-2-9.3c-0.9-3.3-1.7-6.6-2-9.6
		c-0.2-1.7-0.5-3.1-0.9-4.5c-0.6-2.3-1.1-4.7-1-8.4c0.1-3,0-5.5,0-7.7c-0.2-5.7-0.3-10.1,2.4-17.7c0.4-1.1,1-2.5,1.8-3.9
		c0.7-1.2,1.5-2.5,2.4-3.6c1-1.3,2.1-2.4,3.2-3C16.4,89,16.5,88.9,16.6,88.9L16.6,88.9z M16.6,99.5v14.6c-0.8,4.2-1.3,8.1-1.4,12.1
		c0,3.6,0.4,7.3,1.4,11.5v3.8c-1.8-5.8-2.4-10.7-2.4-15.3c0-5,0.9-9.6,1.9-14.9c0.3-1.7,0.4-3.7,0.3-5.5c-0.1-3.4-0.5-6.2-0.5-6.2
		c-0.6-0.3-1.1,0.1-1.5,0.8c-0.9,1.6-1.5,4.6-1.8,6.2c-0.1,0.4-0.1,0.7-0.2,0.9c-0.5,2-0.8,6.6-0.9,11.2c-0.1,4.7-0.1,9.4,0.3,11.4
		c0.3,1.5,0.5,3.3,0.7,5.2c0.4,4,0.9,8.4,2.1,10.7c0.8,1.6,1.4,2.4,2.1,2.9v1.2c-0.9-0.4-1.8-1.4-2.9-3.7c-1.3-2.5-1.8-7-2.2-11.1
		c-0.2-1.9-0.4-3.7-0.7-5.1c-0.4-2.1-0.5-6.9-0.3-11.6c0.1-4.7,0.5-9.4,1-11.4c0.1-0.2,0.1-0.5,0.2-0.9c0.3-1.6,0.9-4.8,1.9-6.6
		c0.7-1.2,1.7-1.8,2.9-1.1C16.4,98.9,16.5,99.1,16.6,99.5L16.6,99.5z M16.6,153.2v1.4c-1.2-1.3-2.3-2.4-2.6-2.3c0,0,0.1,0.4,0.4,1.3
		c2.1,7.1,2,14.9,1.8,22.5c0,1.9-0.1,3.7-0.1,5.7c0,2.9,0.2,4.6,0.4,6v5.4c-0.2-1.6-0.5-2.7-0.7-3.7c-0.4-2.1-0.7-3.6-0.7-7.7
		c0-1.8,0-3.8,0.1-5.7c0.1-7.5,0.3-15.2-1.8-22.2c-0.5-1.6-0.3-2.4,0.3-2.6C14.3,151.2,15.4,152,16.6,153.2L16.6,153.2z"/>
	<path class="st3" d="M13.5,24.7h2.7l0,0c0.2,0,0.3,0.1,0.3,0.3l0,0v171.5v1.3l-3.1,2.1V24.7z"/>
	<path class="st4" d="M13.5,190.9v-34.1c1,7.5,0.9,15.4,0.8,23.2c0,2.2-0.1,4.4-0.1,6.9c0,2.4,0.2,3.4,0.4,4.5
		c0.1,0.7,0.3,1.3,0.4,2.4c0.1,1.2,0.7,2.7,1.3,4.2l-0.8,0.6c-0.7-1.6-1.3-3.3-1.5-4.7c-0.1-1-0.2-1.7-0.4-2.4
		C13.6,191.3,13.5,191.1,13.5,190.9L13.5,190.9z M13.5,154.2v-2.7c0.1-0.1,0.1-0.1,0.2-0.1c0.6-0.2,1.7,0.7,2.9,1.8v1.4
		c-1.2-1.3-2.3-2.4-2.6-2.3c0,0,0.1,0.4,0.4,1.3c2.1,7.1,2,14.9,1.8,22.5c0,1.9-0.1,3.7-0.1,5.7c0,2.9,0.2,4.6,0.4,6v5.4
		c-0.2-1.6-0.5-2.7-0.7-3.7c-0.4-2.1-0.7-3.6-0.7-7.7c0-1.8,0-3.8,0.1-5.7C15.3,168.7,15.5,161.1,13.5,154.2L13.5,154.2z
		 M13.5,146.4v-3.3c0.3,1.2,0.6,2.3,1,3.1c0.8,1.6,1.4,2.4,2.1,2.9v1.2c-0.9-0.4-1.8-1.4-2.9-3.7C13.6,146.6,13.5,146.4,13.5,146.4
		L13.5,146.4z M13.5,102.6V100l0,0c0.7-1.2,1.7-1.8,2.9-1.1c0,0,0.1,0.2,0.2,0.7v14.6c-0.8,4.2-1.3,8.1-1.4,12.1
		c0,3.6,0.4,7.3,1.4,11.5v3.8c-1.8-5.8-2.4-10.7-2.4-15.3c0-5,0.9-9.6,1.9-14.9c0.3-1.7,0.4-3.7,0.3-5.5c-0.1-3.4-0.5-6.2-0.5-6.2
		c-0.6-0.3-1.1,0.1-1.5,0.8C14,101.1,13.7,101.8,13.5,102.6L13.5,102.6z M13.5,93.2v-1.6c0.9-1.1,1.9-2,2.9-2.6
		c0.1-0.1,0.1-0.1,0.2-0.1V90c-0.9,0.6-1.8,1.5-2.7,2.6C13.8,92.8,13.6,93,13.5,93.2L13.5,93.2z M13.5,89.3v-1.5c1-1.1,2-2,3.1-2.8
		v1.2C15.5,87,14.4,88.1,13.5,89.3L13.5,89.3z M13.5,84.8V83c1-1.5,2-2.9,3.1-3.9v1.4C15.5,81.7,14.4,83.3,13.5,84.8L13.5,84.8z
		 M13.5,78.5V76c1.2-3,2-6.2,1.3-9.1c-0.8-3-1.1-6.5-1.3-9.9V44.1c0.3,0.7,0.5,1.4,0.5,2.2c0.2,2,0.3,4.3,0.3,6.7
		c0.2,4.7,0.3,9.7,1.4,13.7C16.7,70.6,15.2,74.8,13.5,78.5L13.5,78.5z M13.5,37.9v-2.2c1.6,2.5,2.9,7,3,17.6c0,0.5,0.1,0.9,0.1,1.3
		v4c-0.5-1.5-1.1-3.3-1.1-5.3C15.4,45,14.6,40.5,13.5,37.9L13.5,37.9z M13.5,32.6V31c1,1.2,2.2,2.8,3.1,4.4v2.4
		c-0.1-0.4-0.3-0.7-0.5-1C15.4,35.3,14.4,33.8,13.5,32.6L13.5,32.6z M13.5,26.7v-2H14c0.2,1.8,1.4,3.8,2.6,5.4v1.7
		C15.4,30.4,14.2,28.5,13.5,26.7L13.5,26.7z"/>
	<path class="st5" d="M0,20.1c0.1-5,4.2-9,9.3-9c5.1,0,9.2,4,9.3,9l0,0c0.2,3.9-1.4,7.4-1.9,10.8c-0.1,1-0.1,3.4-0.1,4.4v0.4v0
		c0,0.1-0.1,0.3-0.2,0.4c-0.1,0.1-0.3,0.2-0.5,0.2c-0.1,0-0.3-0.1-0.4-0.1l0,0l0,0l0,0l-0.3-0.2c-0.1-0.1-0.3-0.2-0.4-0.3v0
		c-0.1-0.1-0.3-0.2-0.4-0.3c-0.4-0.3-0.7-0.5-1.1-0.6v-0.1h-0.7H9.3H5.8H2.5c-0.3,0-0.5-0.2-0.5-0.5v-0.4c0-1,0-1.8-0.1-2.8
		C1.4,27.6-0.2,24,0,20.1L0,20.1z"/>
	<path class="st6" d="M0,20.1c0.1-5,4.2-9,9.3-9c1.5,0,2.6,1,3.6,2c4.7,5.1,1.3,11,0.6,16.7c0,0.1,0,0.2-0.1,0.3v4.5
		c-2.5,0-5.1,0-7.6,0H2.5c-0.3,0-0.5-0.2-0.5-0.5c0-1.5,0-2.8-0.3-4.3C1.1,26.9-0.2,23.6,0,20.1L0,20.1z"/>
	<path class="st6" d="M2,34.2C2,33,4.2,32,6.9,32c2.3,0,4,0.3,6.5,0.4v2.4c-0.1,0-0.3-0.1-0.5-0.1c-3.1,0.1-5.2,1.8-8.4,1.4
		C3.3,36,2,35.5,2,34.2L2,34.2z"/>
	<path class="st7" d="M2,21.4c0.1-4.2,3.1-7.7,7-8.7c-3.5,2.8-5.8,7.1-5.9,11.8v0c-0.1,2.1,0.1,4.1,0.4,6C2.9,27.7,1.8,24.7,2,21.4
		L2,21.4z"/>
</g>
</svg>
