<?xml version="1.0" encoding="utf-8"?>
<!-- Generator: Adobe Illustrator 16.0.0, SVG Export Plug-In . SVG Version: 6.00 Build 0)  -->
<!DOCTYPE svg PUBLIC "-//W3C//DTD SVG 1.1//EN" "http://www.w3.org/Graphics/SVG/1.1/DTD/svg11.dtd">
<svg version="1.1" id="_x31_" xmlns="http://www.w3.org/2000/svg" xmlns:xlink="http://www.w3.org/1999/xlink" x="0px" y="0px"
	 width="114.5px" height="111.5px" viewBox="0 0 114.5 111.5" enable-background="new 0 0 114.5 111.5" xml:space="preserve">
<path fill-rule="evenodd" clip-rule="evenodd" fill="#0C3E96" d="M41.119,25.672v-3.761h0.005c-0.002-0.073-0.006-0.143-0.012-0.216
	h0.003c-0.015-0.158-0.047-0.301-0.08-0.456l0.001-0.001l-0.056-0.18h0.002l-0.053-0.134l0.003-0.001l-0.048-0.11l-0.063-0.124
	l0.002-0.001c-0.072-0.128-0.146-0.255-0.235-0.371c-0.026-0.034-0.029-0.038-0.025-0.035c-0.012-0.016-0.103-0.124-0.104-0.127
	l-0.087-0.093l-0.079-0.08l-0.097-0.088c-0.064-0.056-0.133-0.109-0.204-0.161c-0.079-0.056-0.151-0.103-0.215-0.14
	c-0.115-0.066-0.24-0.126-0.372-0.176l-0.046-0.017c-0.149-0.055-0.296-0.095-0.438-0.121c-0.079-0.014-0.157-0.024-0.231-0.031
	c-0.046-0.003-0.126-0.006-0.239-0.006H23.412c-0.079,0-0.157,0.003-0.231,0.011c-0.082,0.006-0.159,0.016-0.231,0.029l-0.031,0.005
	v-0.002c-0.138,0.025-0.28,0.066-0.424,0.119c-0.151,0.056-0.288,0.119-0.409,0.188c-0.063,0.037-0.136,0.084-0.215,0.14
	c-0.071,0.052-0.14,0.105-0.204,0.161c-0.149,0.138-0.292,0.279-0.409,0.447c-0.054,0.074-0.043,0.055-0.058,0.077
	c-0.076,0.116-0.137,0.228-0.199,0.352l-0.003-0.001c-0.071,0.154-0.122,0.312-0.173,0.476c-0.047,0.193-0.073,0.392-0.083,0.592
	l0.002,0.074v18.8c0,0.603-0.489,1.091-1.092,1.091h-7.519c-0.603,0-1.092-0.488-1.092-1.091V21.163v-6.866
	c0.133-2.591,2.23-4.663,4.831-4.753V9.541h4.846h62.851c0.732,0,1.399-0.301,1.884-0.785c0.484-0.483,0.785-1.151,0.785-1.884
	s-0.301-1.399-0.785-1.884c-0.484-0.483-1.151-0.785-1.884-0.785H20.718h-5.955H14.19h-0.028v0.001
	C9.488,4.22,5.704,8.013,5.704,12.69c0,0.128,0.003,0.257,0.009,0.384l-0.009,0.003v1.419v6.667v23.308
	c0,0.198,0.019,0.381,0.053,0.548l0.008,0.032c0.038,0.173,0.097,0.343,0.171,0.507l0.048,0.098
	c0.039,0.078,0.069,0.136,0.091,0.171l0.084,0.134c0.113,0.154,0.193,0.253,0.331,0.395c0.249,0.25,0.545,0.45,0.867,0.584
	c0.311,0.13,0.653,0.201,1.017,0.201h15.039c0.113,0,0.193-0.002,0.24-0.007c0.056-0.005,0.112-0.012,0.172-0.021l0.139-0.027v0.001
	l0.084-0.019c0.126-0.038,0.23-0.07,0.353-0.116v0.002l0.111-0.049l0.123-0.062v0.001c0.077-0.043,0.151-0.086,0.226-0.131
	l0.001,0.001c0.038-0.024,0.302-0.232,0.309-0.234c0.077-0.074,0.149-0.142,0.222-0.22h0.002c0.056-0.063,0.11-0.132,0.163-0.199
	l0.077-0.113l0.002,0.002c0.07-0.119,0.127-0.213,0.188-0.338l0.003,0.002l0.05-0.114c0.128-0.357,0.188-0.576,0.207-0.956
	l-0.002-0.071v-18.8c0-0.603,0.488-1.091,1.091-1.091h7.52c0.603,0,1.091,0.488,1.091,1.091v18.8c0,0.732,0.301,1.399,0.784,1.884
	c0.484,0.484,1.151,0.785,1.884,0.785c0.733,0,1.4-0.301,1.885-0.785c0.483-0.484,0.784-1.151,0.784-1.884V33.19
	c0-0.603,0.488-1.09,1.092-1.09h7.519c0.603,0,1.092,0.487,1.092,1.09v11.28h-0.004c0.001,0.073,0.006,0.143,0.011,0.216h-0.003
	c0.014,0.146,0.045,0.31,0.077,0.452l0.058,0.185l0.047,0.126l-0.002,0.001c0.031,0.075,0.064,0.146,0.101,0.219l-0.002,0.001
	c0.033,0.063,0.073,0.13,0.11,0.192l-0.002,0.002c0.094,0.151,0.205,0.29,0.325,0.423l0.137,0.137
	c0.108,0.099,0.207,0.175,0.327,0.259l-0.002,0.003l0.053,0.034l0.183,0.104l-0.002,0.002c0.134,0.071,0.263,0.123,0.404,0.174
	c0.275,0.087,0.493,0.127,0.777,0.142l0.076-0.002h15.038c0.114,0,0.194-0.002,0.24-0.007c0.056-0.005,0.113-0.012,0.173-0.021
	l0.139-0.027v0.001l0.085-0.019c0.133-0.04,0.243-0.074,0.371-0.125v0.002c0.074-0.032,0.143-0.066,0.215-0.102l0.001,0.001
	c0.076-0.043,0.149-0.086,0.225-0.131l0.001,0.001c0.038-0.024,0.303-0.232,0.309-0.234c0.076-0.074,0.148-0.142,0.222-0.22h0.001
	c0.057-0.063,0.11-0.132,0.163-0.199l0.077-0.113l0.002,0.002c0.07-0.119,0.128-0.213,0.189-0.338l0.003,0.002l0.051-0.114
	c0.126-0.354,0.187-0.575,0.206-0.952l-0.003-0.075v-3.76c0-0.603,0.488-1.091,1.091-1.091h7.52c0.603,0,1.092,0.488,1.092,1.091
	v3.76c0,0.732,0.3,1.399,0.784,1.884s1.151,0.785,1.885,0.785h3.76c0.603,0,1.091,0.488,1.091,1.091v37.599
	c0,0.603-0.488,1.091-1.091,1.091H64.77c-0.603,0-1.092-0.488-1.092-1.091v-7.52c0-0.603,0.489-1.092,1.092-1.092h11.279
	c0.732,0,1.399-0.301,1.884-0.785c0.483-0.483,0.785-1.151,0.785-1.884c0-0.731-0.302-1.399-0.785-1.883
	c-0.484-0.484-1.151-0.785-1.884-0.785H64.77c-0.603,0-1.092-0.489-1.092-1.092v-7.52c0-0.603,0.489-1.091,1.092-1.091h11.279
	c0.732,0,1.399-0.301,1.884-0.785c0.483-0.484,0.785-1.15,0.785-1.884c0-0.732-0.302-1.399-0.785-1.885
	c-0.484-0.482-1.151-0.783-1.884-0.783H61.01c-0.372,0-0.725,0.075-1.044,0.213c-0.338,0.145-0.639,0.355-0.885,0.613l-0.006,0.006
	c-0.054,0.057-0.094,0.101-0.12,0.133l-0.133,0.179c-0.036,0.051-0.066,0.095-0.091,0.133l-0.026,0.049
	c-0.039,0.064-0.072,0.127-0.102,0.187L58.6,58.361c-0.086,0.179-0.152,0.365-0.195,0.556c-0.042,0.182-0.063,0.38-0.063,0.593
	v30.079c0,0.362,0.071,0.706,0.2,1.016c0.137,0.328,0.335,0.623,0.58,0.868l0.005,0.004c0.245,0.245,0.539,0.444,0.867,0.58
	c0.311,0.129,0.653,0.2,1.017,0.2h30.078c0.732,0,1.399-0.301,1.884-0.784c0.483-0.483,0.784-1.15,0.784-1.883V44.471
	c0-0.732-0.301-1.4-0.784-1.884c-0.484-0.484-1.152-0.785-1.885-0.785h-3.759c-0.603,0-1.092-0.488-1.092-1.091v-18.8h0.004
	c0-0.073-0.005-0.143-0.011-0.216h0.003c-0.015-0.158-0.047-0.301-0.08-0.456l0.001-0.001l-0.056-0.18h0.001l-0.052-0.134
	l0.002-0.001l-0.048-0.11l-0.062-0.124v-0.001c-0.07-0.128-0.145-0.255-0.235-0.371c-0.025-0.034-0.027-0.038-0.023-0.035
	c-0.014-0.016-0.104-0.124-0.104-0.127l-0.087-0.093l-0.081-0.08l-0.096-0.088c-0.063-0.056-0.132-0.109-0.203-0.161
	c-0.079-0.056-0.151-0.103-0.216-0.14c-0.114-0.066-0.239-0.126-0.371-0.176l-0.046-0.017c-0.15-0.055-0.296-0.095-0.437-0.121
	c-0.08-0.014-0.157-0.024-0.232-0.031c-0.046-0.003-0.127-0.006-0.239-0.006h-15.04c-0.732,0-1.399,0.301-1.883,0.784
	c-0.484,0.484-0.785,1.151-0.785,1.884c0,0.733,0.301,1.4,0.785,1.885c0.483,0.483,1.15,0.784,1.883,0.784h11.279
	c0.603,0,1.092,0.488,1.092,1.091v7.52c0,0.604-0.489,1.092-1.092,1.092H68.528c-0.362,0-0.705,0.071-1.016,0.201
	c-0.323,0.134-0.618,0.333-0.867,0.584l-0.002-0.002l-0.096,0.102l-0.002-0.001c-0.078,0.09-0.141,0.173-0.21,0.27l-0.003-0.002
	c-0.031,0.046-0.066,0.101-0.104,0.161c-0.021,0.036-0.052,0.095-0.092,0.175l-0.002-0.001l-0.035,0.073
	c-0.079,0.169-0.141,0.348-0.182,0.532c-0.038,0.174-0.059,0.367-0.059,0.577v3.76c0,0.603-0.488,1.091-1.091,1.091h-7.52
	c-0.603,0-1.091-0.488-1.091-1.091V29.432h0.003c0-0.074-0.006-0.144-0.011-0.216h0.003c-0.008-0.093-0.027-0.197-0.042-0.289
	l-0.021-0.095h0.003l-0.017-0.067l-0.058-0.186l-0.047-0.126l0.002-0.001l-0.051-0.118c-0.055-0.104-0.099-0.192-0.158-0.294
	l0.003-0.002c-0.024-0.039-0.27-0.357-0.271-0.363l-0.087-0.093l-0.08-0.08c-0.064-0.06-0.127-0.116-0.197-0.169
	c-0.077-0.061-0.046-0.041-0.074-0.061c-0.121-0.085-0.239-0.154-0.369-0.225l0.001-0.002c-0.187-0.094-0.369-0.152-0.566-0.211
	c-0.06-0.013-0.117-0.023-0.176-0.034v-0.003c-0.075-0.013-0.149-0.022-0.22-0.029c-0.047-0.004-0.127-0.006-0.239-0.006H42.211
	C41.607,26.763,41.119,26.274,41.119,25.672L41.119,25.672z M98.627,101.959v-0.002c2.6-0.091,4.696-2.161,4.83-4.749V21.163v-6.866
	c-0.13-2.569-2.194-4.627-4.765-4.751V9.541h-0.086c-0.732,0-1.399-0.301-1.884-0.785c-0.483-0.483-0.784-1.151-0.784-1.884
	s0.301-1.399,0.784-1.884c0.484-0.483,1.151-0.785,1.884-0.785h0.086h1.058h0.559h0.028l0.001,0.001
	c4.673,0.016,8.458,3.809,8.458,8.486l-0.001,0.043h0.001v77.604v5.784v2.302l-0.009,0.002c0.005,0.128,0.009,0.256,0.009,0.385
	c0,4.678-3.784,8.471-8.458,8.485v0.001h-0.028h-1.043h-5.484H20.718h-5.452H14.19h-0.028v-0.001
	c-4.674-0.015-8.458-3.808-8.458-8.485c0-0.129,0.003-0.257,0.009-0.385l-0.009-0.002v-0.009v-8.077V59.51
	c0-0.732,0.301-1.399,0.785-1.885c0.483-0.482,1.15-0.783,1.884-0.783l37.598-0.001c0.509,0,0.985,0.143,1.389,0.39
	c0.419,0.258,0.765,0.629,0.99,1.07l0.002-0.001c0.094,0.183,0.168,0.379,0.218,0.587c0.046,0.189,0.069,0.397,0.069,0.621
	c-0.051,5.008,0.062,10.034,0,15.041c0,0.732-0.3,1.4-0.784,1.884c-0.484,0.484-1.15,0.785-1.884,0.785H27.172
	c-0.603,0-1.091,0.489-1.091,1.092v7.52c0,0.603,0.488,1.091,1.091,1.091h18.799c0.279,0,0.544,0.041,0.791,0.118
	c0.246,0.077,0.476,0.188,0.684,0.327l0.105,0.074c0.056,0.041,0.107,0.083,0.157,0.126c0.032,0.027,0.081,0.073,0.146,0.14
	l0.002-0.003l0.002,0.003c0.245,0.244,0.444,0.539,0.581,0.867c0.128,0.31,0.199,0.652,0.199,1.014v11.282
	c0,0.603,0.489,1.091,1.091,1.091h44.053H98.627L98.627,101.959z M15.872,101.959v-0.002c-2.601-0.091-4.698-2.163-4.831-4.754
	v-6.865V63.27c0-0.603,0.489-1.091,1.092-1.091h30.078c0.603,0,1.091,0.488,1.091,1.091v7.52c0,0.603-0.488,1.092-1.091,1.092
	H23.412c-0.372,0-0.725,0.076-1.044,0.213c-0.338,0.146-0.639,0.355-0.885,0.613c-0.096,0.101-0.18,0.21-0.265,0.319l0.003,0.002
	c-0.05,0.075-0.097,0.144-0.142,0.222h0.002l-0.072,0.136c-0.044,0.091-0.085,0.191-0.123,0.301c-0.044,0.128-0.077,0.25-0.1,0.365
	l-0.009,0.044h0.003c-0.013,0.068-0.021,0.144-0.029,0.225c-0.005,0.072-0.009,0.149-0.009,0.229v15.039
	c0,0.079,0.004,0.156,0.01,0.231c0.007,0.081,0.018,0.159,0.03,0.231l0.013,0.08c0.026,0.123,0.063,0.248,0.109,0.374
	c0.056,0.151,0.119,0.288,0.188,0.409c0.053,0.092,0.12,0.19,0.199,0.294c0.063,0.083,0.142,0.171,0.235,0.264l0.067,0.068
	l0.065,0.061c0.095,0.079,0.176,0.138,0.274,0.21l0.128,0.078c0.045,0.026,0.102,0.058,0.167,0.09l0.103,0.053
	c0.161,0.071,0.329,0.128,0.502,0.166c0.174,0.038,0.366,0.059,0.577,0.059h18.799c0.603,0,1.091,0.489,1.091,1.091v7.521
	c0,0.603-0.488,1.091-1.091,1.091H20.718H15.872z"/>
</svg>
