<?xml version="1.0" encoding="utf-8"?>
<!-- Generator: Adobe Illustrator 16.0.0, SVG Export Plug-In . SVG Version: 6.00 Build 0)  -->
<!DOCTYPE svg PUBLIC "-//W3C//DTD SVG 1.1//EN" "http://www.w3.org/Graphics/SVG/1.1/DTD/svg11.dtd">
<svg version="1.1" id="Layer_1" xmlns="http://www.w3.org/2000/svg" xmlns:xlink="http://www.w3.org/1999/xlink" x="0px" y="0px"
	 width="60.191px" height="53.157px" viewBox="0 0 60.191 53.157" enable-background="new 0 0 60.191 53.157" xml:space="preserve">
<g>
	<polygon fill-rule="evenodd" clip-rule="evenodd" fill="#FEFEFE" points="52.527,45.179 53.462,44.606 32.769,8.389 32.173,8.274 
		31.634,8.589 	"/>
	<polygon fill-rule="evenodd" clip-rule="evenodd" fill="#FEFEFE" points="52.667,44.205 32.117,8.274 30.444,9.248 50.996,45.179 	
		"/>
	<path fill-rule="evenodd" clip-rule="evenodd" fill="#FEFEFE" d="M48.019,39.682c-0.652-1.317-1.531-3.206-2.637-5.097
		c-1.502-2.634-2.324-3.722-2.324-3.722L48.019,39.682L48.019,39.682z M33.761,14.573c0.766,1.145,6.52,11.167,7.143,12.397
		c0,0-0.227-0.344-0.594-0.916c-0.766-1.117-0.738-1.174-1.561-2.691c0,0-2.408-3.979-3.883-6.556
		C34.187,15.575,33.761,14.573,33.761,14.573L33.761,14.573z M40.138,25.31c-2.664-4.696-3.996-7.874-7.256-12.226
		c-0.17-0.229-0.906-1.546-1.475-2.634c-0.396-0.773-0.765-1.289-0.765-1.317l0.312-0.171c0,0.114,1.785,3.665,2.07,4.008
		c1.389,1.861,3.373,5.096,5.045,8.045C39.089,22.818,38.41,21.959,40.138,25.31L40.138,25.31z M32.06,8.303
		c2.664,4.695,4.705,9.706,7.965,14.086c0.17,0.201,0.879,1.518,1.447,2.605c0.396,0.745,1.076,1.947,1.529,2.663
		c0.652,1.03,1.418,2.318,1.531,2.576c2.098,5.039,5.387,9.334,8.051,14.029l-0.313,0.172c-2.693-4.695-6.406-9.906-8.504-14.945
		c-0.227-0.486-3.713-6.241-4.025-6.671c-3.287-4.352-5.328-9.62-8.021-14.315L32.06,8.303z M48.757,38.938
		c-1.957-2.978-5.104-8.218-7.342-12.14c-2.24-3.922-5.643-10.393-6.039-11.337C40.082,24.078,43.683,30.491,48.757,38.938
		L48.757,38.938z M34.923,14.63c-0.906-1.574-1.814-3.121-2.75-4.609c-0.367-0.544-0.482-0.802-0.652-1.059
		C31.947,9.305,33.308,11.681,34.923,14.63L34.923,14.63z M47.962,37.821c0.908,1.545,2.41,3.922,3.232,5.468
		c0.283,0.573,0.453,0.83,0.566,1.116C51.675,43.862,49.664,40.684,47.962,37.821L47.962,37.821z M32.089,10.335
		c0.453,0.945,3.43,5.841,4.053,7.072c0,0-1.332-2.062-1.729-2.634c-0.738-1.117-2.494-4.266-3.316-5.784
		c0,0,0.17-0.143,0.227-0.057C31.607,9.333,32.089,10.335,32.089,10.335L32.089,10.335z M39.855,24.479
		c2.666,4.696,6.945,11.624,9.072,16.663c0.113,0.258,0.85,1.547,1.502,2.577c0.482,0.744,0.736,1.345,0.766,1.345l0.283-0.171
		c-0.113-0.058-2.24-3.407-2.41-3.837c-0.879-2.118-2.664-5.497-4.365-8.417C43.683,30.835,40.763,25.481,39.855,24.479
		L39.855,24.479z M50.882,43.203c-0.566-0.858-3.289-5.927-4.025-7.071c0,0,1.078,2.204,1.389,2.806
		c0.568,1.202,2.268,3.808,3.176,5.268c0,0,0.34,0.458,0.283,0.372C51.505,44.119,50.882,43.203,50.882,43.203L50.882,43.203z"/>
	<path fill-rule="evenodd" clip-rule="evenodd" fill="#FEFEFE" d="M54.681,49.187c2.438-1.402-0.738-4.896-1.645-5.354
		c0,0-0.51,0.029-0.539,0.057l-1.672,0.975C50.74,44.921,51.818,50.876,54.681,49.187L54.681,49.187z"/>
	<path fill-rule="evenodd" clip-rule="evenodd" fill="#FEFEFE" d="M52.47,43.89l-1.645,0.975c-0.057,0.028,0.652,4.122,2.523,4.58
		c0.197-0.028,0.424-0.114,0.65-0.258C56.326,47.841,53.519,44.577,52.47,43.89L52.47,43.89z"/>
	<path fill-rule="evenodd" clip-rule="evenodd" fill="#FEFEFE" d="M51.279,44.606l-0.453,0.258c-0.057,0.028,0.539,3.406,2.041,4.38
		c1.502-0.487,1.191-1.774,0.426-3.149C52.867,45.379,51.761,44.405,51.279,44.606L51.279,44.606z"/>
	<path fill-rule="evenodd" clip-rule="evenodd" fill="#FEFEFE" d="M51.449,45.837c-0.027,1.117,0.879,3.149,1.814,2.777
		C52.583,48.214,51.705,46.639,51.449,45.837L51.449,45.837z"/>
	<polygon fill-rule="evenodd" clip-rule="evenodd" fill="#FEFEFE" points="31.578,4.38 32.542,4.953 11.821,41.171 11.226,41.285 
		10.688,40.97 	"/>
	<polygon fill-rule="evenodd" clip-rule="evenodd" fill="#FEFEFE" points="31.748,5.354 11.197,41.285 9.524,40.312 30.048,4.38 	
		"/>
	<path fill-rule="evenodd" clip-rule="evenodd" fill="#FEFEFE" d="M27.071,9.877c-0.624,1.317-1.53,3.207-2.636,5.096
		c-1.503,2.605-2.325,3.722-2.325,3.722L27.071,9.877L27.071,9.877z M12.813,34.986c0.765-1.146,6.52-11.166,7.143-12.397
		c0,0-0.227,0.343-0.595,0.916c-0.737,1.117-0.737,1.174-1.56,2.691c0,0-2.381,3.98-3.883,6.557
		C13.238,33.984,12.813,34.986,12.813,34.986L12.813,34.986z M19.22,24.25c-2.693,4.695-4.025,7.873-7.285,12.226
		c-0.17,0.229-0.907,1.545-1.446,2.633c-0.396,0.773-0.793,1.289-0.793,1.317l0.312,0.172c0-0.114,1.786-3.665,2.069-4.036
		c1.389-1.833,3.373-5.068,5.074-8.018C18.171,26.741,17.462,27.6,19.22,24.25L19.22,24.25z M11.112,41.257
		c2.693-4.695,4.705-9.706,7.965-14.087c0.171-0.229,0.907-1.517,1.475-2.605c0.368-0.773,1.049-1.947,1.502-2.663
		c0.652-1.031,1.418-2.319,1.531-2.577c2.098-5.039,5.386-9.333,8.079-14.028l-0.34-0.201c-2.694,4.724-6.407,9.906-8.504,14.945
		c-0.198,0.516-3.713,6.271-4.025,6.7c-3.26,4.352-5.329,9.619-8.021,14.314L11.112,41.257z M27.809,10.593
		c-1.928,3.006-5.074,8.217-7.342,12.168c-2.239,3.922-5.642,10.392-6.038,11.337C19.163,25.481,22.763,19.068,27.809,10.593
		L27.809,10.593z M13.976,34.929c-0.879,1.575-1.814,3.121-2.75,4.609c-0.34,0.545-0.453,0.803-0.652,1.06
		C10.999,40.255,12.359,37.878,13.976,34.929L13.976,34.929z M27.015,11.738c0.907-1.546,2.438-3.922,3.231-5.468
		c0.283-0.573,0.453-0.83,0.596-1.117C30.757,5.697,28.744,8.875,27.015,11.738L27.015,11.738z M11.169,39.224
		c0.453-0.945,3.401-5.841,4.025-7.072c0,0-1.332,2.063-1.701,2.635c-0.736,1.116-2.522,4.236-3.316,5.783
		c0,0,0.17,0.143,0.227,0.057C10.659,40.226,11.141,39.224,11.169,39.224L11.169,39.224z M18.907,25.08
		c2.693-4.695,6.974-11.624,9.071-16.663c0.113-0.258,0.879-1.546,1.53-2.577c0.454-0.745,0.709-1.346,0.737-1.346l0.312,0.172
		c-0.113,0.057-2.239,3.407-2.409,3.808c-0.907,2.147-2.692,5.497-4.365,8.446C22.734,18.724,19.843,24.078,18.907,25.08
		L18.907,25.08z M29.935,6.356c-0.567,0.859-3.288,5.898-4.025,7.072c0,0,1.105-2.205,1.389-2.806
		c0.596-1.203,2.296-3.808,3.203-5.268c0,0,0.313-0.458,0.284-0.373C30.558,5.411,29.935,6.356,29.935,6.356L29.935,6.356z"/>
	<path fill-rule="evenodd" clip-rule="evenodd" fill="#FEFEFE" d="M33.761,0.344c2.41,1.431-0.766,4.924-1.672,5.382
		c0,0-0.512-0.029-0.539-0.057l-1.672-0.974C29.821,4.638,30.898-1.317,33.761,0.344L33.761,0.344z"/>
	<path fill-rule="evenodd" clip-rule="evenodd" fill="#FEFEFE" d="M31.55,5.669l-1.672-0.974c-0.057-0.028,0.68-4.123,2.551-4.581
		c0.197,0.029,0.396,0.115,0.623,0.258C35.376,1.718,32.599,4.981,31.55,5.669L31.55,5.669z"/>
	<path fill-rule="evenodd" clip-rule="evenodd" fill="#FEFEFE" d="M30.331,4.953l-0.453-0.258c-0.057-0.028,0.538-3.407,2.069-4.38
		c1.502,0.487,1.162,1.775,0.396,3.149C31.947,4.18,30.842,5.153,30.331,4.953L30.331,4.953z"/>
	<path fill-rule="evenodd" clip-rule="evenodd" fill="#FEFEFE" d="M30.501,3.722c0-1.116,0.907-3.149,1.842-2.806
		C31.664,1.346,30.757,2.92,30.501,3.722L30.501,3.722z"/>
	<polygon fill-rule="evenodd" clip-rule="evenodd" fill="#FEFEFE" points="6.832,43.317 6.832,44.435 48.275,44.435 48.642,43.948 
		48.642,43.317 	"/>
	<rect x="7.598" y="41.972" fill-rule="evenodd" clip-rule="evenodd" fill="#FEFEFE" width="41.101" height="1.947"/>
	<path fill-rule="evenodd" clip-rule="evenodd" fill="#FEFEFE" d="M13.806,42.115c1.474,0.114,3.515,0.258,5.697,0.258
		c3.005-0.028,4.337-0.2,4.337-0.2L13.806,42.115L13.806,42.115z M42.464,42.201c-1.361,0.114-12.842,0.114-14.203,0.058
		c0,0,0.426-0.029,1.077-0.086c1.332-0.086,1.389-0.029,3.09,0c0,0,4.619-0.115,7.568-0.115
		C41.386,42.058,42.464,42.201,42.464,42.201L42.464,42.201z M30.076,42.431c5.357,0,8.73,0.429,14.117-0.258
		c0.283-0.029,1.758-0.029,2.977,0.028c0.85,0.058,1.473-0.028,1.529,0v0.344c-0.113-0.058-4.053-0.258-4.506-0.2
		c-2.268,0.285-6.037,0.4-9.412,0.4C32.712,42.745,33.818,42.573,30.076,42.431L30.076,42.431z M48.699,43.833
		c-5.385,0-10.686-0.744-16.072-0.057c-0.254,0.028-1.756,0.028-2.948-0.029c-0.85-0.057-2.211-0.057-3.061,0
		c-1.22,0.058-2.693,0.058-2.977,0.029c-5.357-0.688-10.687,0.057-16.044,0.057v-0.372c5.357,0,11.679-0.659,17.064,0.028
		c0.538,0.058,7.201-0.114,7.738-0.2c5.387-0.659,10.914,0.172,16.299,0.172V43.833z M14.061,43.117
		c3.543-0.172,9.609-0.344,14.116-0.344c4.45,0,11.708,0.258,12.727,0.401C31.154,42.974,23.868,42.945,14.061,43.117L14.061,43.117
		z M41.839,43.175c1.787,0.028,3.572,0,5.33-0.086c0.623-0.029,0.906,0,1.246-0.029C47.906,43.231,45.156,43.261,41.839,43.175
		L41.839,43.175z M15.449,43.003c-1.814,0-4.592,0.172-6.321,0.086c-0.652-0.029-0.936,0-1.247-0.029
		C8.391,43.231,12.133,43.06,15.449,43.003L15.449,43.003z M46.943,42.859c-1.049-0.058-6.719,0.086-8.08,0.028
		c0,0,2.438-0.172,3.09-0.199c1.332-0.086,4.904-0.059,6.633-0.029c0,0,0.029,0.229-0.057,0.229
		C48.048,42.945,46.943,42.859,46.943,42.859L46.943,42.859z M30.927,42.573c-5.358,0-13.465,0.286-18.823-0.4
		c-0.283-0.029-1.758-0.029-2.977,0.028c-0.879,0.058-1.502-0.028-1.53,0v0.344c0.113-0.058,4.024-0.258,4.479-0.2
		c2.296,0.285,6.066,0.4,9.439,0.4C23.557,42.745,29.594,42.888,30.927,42.573L30.927,42.573z M9.354,42.859
		c1.021-0.058,6.719,0.086,8.079,0.028c0,0-2.438-0.172-3.118-0.199c-1.304-0.086-4.394,0.085-6.095,0.143
		c0,0-0.566,0.057-0.453,0.057C8.249,42.945,9.354,42.859,9.354,42.859L9.354,42.859z"/>
	<path fill-rule="evenodd" clip-rule="evenodd" fill="#FEFEFE" d="M2.325,43.203c0,2.835,4.563,1.804,5.414,1.231
		c0,0,0.227-0.459,0.227-0.516v-1.947C7.966,41.886,2.325,39.854,2.325,43.203L2.325,43.203z"/>
	<path fill-rule="evenodd" clip-rule="evenodd" fill="#FEFEFE" d="M7.966,43.919v-1.947c0-0.057-3.855-1.46-5.216-0.057
		c-0.057,0.2-0.085,0.43-0.085,0.688C2.665,45.321,6.86,44.491,7.966,43.919L7.966,43.919z"/>
	<path fill-rule="evenodd" clip-rule="evenodd" fill="#FEFEFE" d="M7.966,42.517v-0.545c0-0.057-3.175-1.202-4.763-0.372
		c-0.368,1.546,0.907,1.919,2.467,1.919C6.492,43.519,7.881,43.06,7.966,42.517L7.966,42.517z"/>
	<path fill-rule="evenodd" clip-rule="evenodd" fill="#FEFEFE" d="M6.832,42.029c-0.964-0.544-3.175-0.772-3.316,0.2
		C4.195,41.857,5.981,41.857,6.832,42.029L6.832,42.029z"/>
	<polygon fill-rule="evenodd" clip-rule="evenodd" fill="#FEFEFE" points="57.119,36.904 58.082,36.332 37.361,0.114 36.765,0 
		36.228,0.315 	"/>
	<polygon fill-rule="evenodd" clip-rule="evenodd" fill="#FEFEFE" points="57.289,35.931 36.738,0 35.066,0.974 55.587,36.904 	"/>
	<path fill-rule="evenodd" clip-rule="evenodd" fill="#FEFEFE" d="M52.611,31.407c-0.623-1.316-1.529-3.207-2.635-5.096
		c-1.504-2.634-2.326-3.722-2.326-3.722L52.611,31.407L52.611,31.407z M38.353,6.299c0.766,1.116,6.52,11.166,7.143,12.396
		c0,0-0.227-0.343-0.594-0.916c-0.738-1.116-0.738-1.174-1.561-2.72c0,0-2.381-3.951-3.883-6.557
		C38.779,7.301,38.353,6.299,38.353,6.299L38.353,6.299z M44.759,17.035c-2.693-4.695-4.025-7.874-7.285-12.225
		c-0.17-0.229-0.906-1.546-1.445-2.634c-0.396-0.773-0.793-1.288-0.793-1.317l0.311-0.172c0,0.115,1.787,3.636,2.07,4.008
		c1.389,1.861,3.373,5.096,5.074,8.045C43.71,14.544,43.031,13.686,44.759,17.035L44.759,17.035z M36.652,0.029
		c2.693,4.695,4.707,9.706,7.967,14.057c0.17,0.229,0.906,1.546,1.473,2.634c0.369,0.744,1.049,1.947,1.502,2.663
		c0.682,1.031,1.418,2.319,1.531,2.577c2.098,5.04,5.387,9.333,8.078,14.029l-0.34,0.172c-2.691-4.695-6.406-9.906-8.504-14.945
		c-0.197-0.486-3.713-6.241-4.025-6.671c-3.26-4.352-5.328-9.62-8.021-14.315L36.652,0.029z M53.349,30.663
		c-1.928-2.978-5.074-8.217-7.342-12.139c-2.24-3.922-5.641-10.393-6.039-11.338C44.703,15.804,48.302,22.188,53.349,30.663
		L53.349,30.663z M39.515,6.356c-0.879-1.575-1.814-3.121-2.75-4.609c-0.34-0.544-0.453-0.802-0.65-1.06
		C36.539,1.031,37.927,3.407,39.515,6.356L39.515,6.356z M52.554,29.519c0.908,1.574,2.438,3.95,3.232,5.496
		c0.283,0.572,0.453,0.802,0.596,1.117C56.296,35.587,54.285,32.409,52.554,29.519L52.554,29.519z M36.708,2.062
		c0.455,0.916,3.402,5.84,4.055,7.071c0,0-1.361-2.09-1.73-2.634c-0.736-1.117-2.494-4.266-3.316-5.783c0,0,0.17-0.143,0.227-0.058
		C36.199,1.06,36.708,2.062,36.708,2.062L36.708,2.062z M44.447,16.205c2.693,4.696,6.975,11.625,9.072,16.664
		c0.113,0.258,0.879,1.545,1.529,2.576c0.455,0.744,0.709,1.346,0.738,1.346l0.311-0.172c-0.113-0.057-2.238-3.407-2.408-3.836
		c-0.908-2.119-2.693-5.498-4.365-8.418C48.275,22.561,45.382,17.207,44.447,16.205L44.447,16.205z M55.474,34.929
		c-0.566-0.858-3.287-5.926-4.025-7.071c0,0,1.105,2.204,1.389,2.806c0.596,1.203,2.297,3.808,3.203,5.268
		c0,0,0.313,0.459,0.285,0.373C56.097,35.845,55.474,34.929,55.474,34.929L55.474,34.929z"/>
	<path fill-rule="evenodd" clip-rule="evenodd" fill="#FEFEFE" d="M59.3,40.913c2.41-1.403-0.736-4.925-1.672-5.354
		c0,0-0.51,0.028-0.539,0.058l-1.672,0.974C55.361,36.618,56.439,42.573,59.3,40.913L59.3,40.913z"/>
	<path fill-rule="evenodd" clip-rule="evenodd" fill="#FEFEFE" d="M57.089,35.616l-1.672,0.974c-0.057,0.028,0.68,4.094,2.551,4.581
		c0.199-0.058,0.398-0.115,0.625-0.258C60.917,39.567,58.138,36.274,57.089,35.616L57.089,35.616z"/>
	<path fill-rule="evenodd" clip-rule="evenodd" fill="#FEFEFE" d="M55.871,36.332l-0.453,0.258c-0.057,0.028,0.539,3.407,2.07,4.352
		c1.502-0.458,1.162-1.747,0.396-3.12C57.488,37.104,56.382,36.132,55.871,36.332L55.871,36.332z"/>
	<path fill-rule="evenodd" clip-rule="evenodd" fill="#FEFEFE" d="M56.041,37.563c0,1.116,0.908,3.148,1.844,2.777
		C57.203,39.939,56.296,38.364,56.041,37.563L56.041,37.563z"/>
	<polygon fill-rule="evenodd" clip-rule="evenodd" fill="#FEFEFE" points="22.082,4.752 23.046,5.297 2.325,41.542 1.729,41.628 
		1.191,41.313 	"/>
	<polygon fill-rule="evenodd" clip-rule="evenodd" fill="#FEFEFE" points="22.224,5.697 1.673,41.657 0,40.684 20.552,4.724 	"/>
	<path fill-rule="evenodd" clip-rule="evenodd" fill="#FEFEFE" d="M17.575,10.221c-0.652,1.345-1.53,3.207-2.636,5.125
		c-1.503,2.605-2.325,3.693-2.325,3.693L17.575,10.221L17.575,10.221z M3.317,35.33c0.765-1.116,6.52-11.138,7.143-12.369
		c0,0-0.227,0.344-0.595,0.888c-0.766,1.117-0.737,1.203-1.56,2.72c0,0-2.409,3.951-3.883,6.557
		C3.742,34.327,3.317,35.33,3.317,35.33L3.317,35.33z M9.695,24.622c-2.665,4.695-3.997,7.845-7.257,12.225
		c-0.17,0.229-0.907,1.518-1.475,2.605c-0.396,0.773-0.765,1.289-0.765,1.346l0.312,0.172c0-0.143,1.786-3.664,2.069-4.037
		c1.389-1.832,3.373-5.096,5.046-8.045C8.646,27.112,7.966,27.972,9.695,24.622L9.695,24.622z M1.616,41.6
		c2.664-4.695,4.705-9.706,7.965-14.058c0.171-0.229,0.879-1.546,1.446-2.634c0.396-0.744,1.077-1.947,1.53-2.663
		c0.652-1.031,1.418-2.319,1.531-2.577c2.098-5.039,5.386-9.305,8.05-14l-0.312-0.201c-2.692,4.695-6.406,9.906-8.504,14.945
		c-0.227,0.487-3.713,6.242-4.025,6.671c-3.288,4.352-5.329,9.619-8.021,14.344L1.616,41.6z M18.313,10.965
		c-1.956,3.006-5.103,8.217-7.342,12.168c-2.239,3.893-5.642,10.393-6.038,11.309C9.639,25.825,13.238,19.44,18.313,10.965
		L18.313,10.965z M4.479,35.302c-0.907,1.574-1.814,3.092-2.75,4.609c-0.368,0.515-0.481,0.801-0.652,1.059
		C1.503,40.626,2.863,38.222,4.479,35.302L4.479,35.302z M17.519,12.11c0.907-1.574,2.409-3.922,3.231-5.497
		c0.283-0.573,0.453-0.802,0.567-1.088C21.231,6.069,19.22,9.248,17.519,12.11L17.519,12.11z M1.645,39.567
		c0.453-0.916,3.43-5.813,4.054-7.043c0,0-1.332,2.061-1.729,2.605c-0.737,1.116-2.494,4.266-3.316,5.783
		c0,0,0.17,0.172,0.227,0.086C1.163,40.598,1.645,39.567,1.645,39.567L1.645,39.567z M9.411,25.452
		c2.665-4.695,6.945-11.652,9.071-16.691c0.113-0.258,0.851-1.546,1.502-2.577c0.482-0.744,0.737-1.317,0.766-1.346l0.283,0.172
		c-0.113,0.086-2.239,3.407-2.409,3.836c-0.879,2.147-2.664,5.497-4.365,8.446C13.238,19.097,10.318,24.422,9.411,25.452
		L9.411,25.452z M20.438,6.728c-0.567,0.859-3.288,5.898-4.025,7.072c0,0,1.077-2.233,1.389-2.834
		c0.567-1.203,2.268-3.779,3.175-5.268c0,0,0.341-0.458,0.284-0.343C21.062,5.783,20.438,6.728,20.438,6.728L20.438,6.728z"/>
	<path fill-rule="evenodd" clip-rule="evenodd" fill="#FEFEFE" d="M24.236,0.716c2.438,1.432-0.736,4.924-1.644,5.354
		c0,0-0.511-0.028-0.539-0.028l-1.672-1.002C20.297,5.01,21.402-0.945,24.236,0.716L24.236,0.716z"/>
	<path fill-rule="evenodd" clip-rule="evenodd" fill="#FEFEFE" d="M22.025,6.012l-1.644-0.973c-0.057-0.029,0.651-4.094,2.522-4.581
		c0.198,0.058,0.425,0.143,0.652,0.258C25.881,2.09,23.074,5.354,22.025,6.012L22.025,6.012z"/>
	<path fill-rule="evenodd" clip-rule="evenodd" fill="#FEFEFE" d="M20.835,5.325l-0.453-0.286c-0.057-0.029,0.538-3.378,2.041-4.352
		c1.502,0.458,1.19,1.775,0.425,3.121C22.423,4.552,21.317,5.525,20.835,5.325L20.835,5.325z"/>
	<path fill-rule="evenodd" clip-rule="evenodd" fill="#FEFEFE" d="M21.005,4.094c-0.028-1.117,0.879-3.149,1.814-2.806
		C22.139,1.718,21.261,3.264,21.005,4.094L21.005,4.094z"/>
	<polygon fill-rule="evenodd" clip-rule="evenodd" fill="#FEFEFE" points="11.65,51.392 11.65,52.508 53.093,52.508 53.462,52.021 
		53.462,51.392 	"/>
	<rect x="12.416" y="50.046" fill-rule="evenodd" clip-rule="evenodd" fill="#FEFEFE" width="41.103" height="1.947"/>
	<path fill-rule="evenodd" clip-rule="evenodd" fill="#FEFEFE" d="M18.624,50.16c1.445,0.144,3.515,0.286,5.697,0.286
		c2.977-0.028,4.338-0.2,4.338-0.2L18.624,50.16L18.624,50.16z M47.283,50.274c-1.361,0.086-12.842,0.115-14.201,0.058
		c0,0,0.424-0.028,1.076-0.086c1.332-0.086,1.389-0.058,3.09,0c0,0,4.621-0.114,7.568-0.114
		C46.205,50.132,47.283,50.274,47.283,50.274L47.283,50.274z M34.894,50.504c5.357,0,8.732,0.401,14.117-0.258
		c0.283-0.028,1.758-0.028,2.977,0.028c0.85,0.058,1.475-0.028,1.531,0v0.344c-0.143-0.057-4.055-0.258-4.508-0.2
		c-2.268,0.286-6.037,0.401-9.41,0.401C37.531,50.819,38.636,50.647,34.894,50.504L34.894,50.504z M53.519,51.907
		c-5.387,0-10.688-0.744-16.072-0.058c-0.256,0.028-1.758,0.028-2.949-0.028c-0.85-0.058-2.211-0.058-3.061,0
		c-1.219,0.057-2.693,0.057-2.977,0.028c-5.357-0.687-10.687,0.058-16.044,0.058v-0.401c5.357,0,11.679-0.63,17.064,0.058
		c0.539,0.057,7.201-0.144,7.74-0.201c5.357-0.687,10.912,0.144,16.299,0.144V51.907z M18.879,51.19
		c3.544-0.199,9.581-0.343,14.089-0.343c4.479,0,11.734,0.257,12.756,0.4C35.943,51.048,28.688,50.991,18.879,51.19L18.879,51.19z
		 M46.66,51.248c1.785,0,3.57-0.028,5.328-0.085c0.623-0.029,0.906-0.029,1.248-0.059C52.724,51.306,49.976,51.334,46.66,51.248
		L46.66,51.248z M20.269,51.077c-1.814,0-4.593,0.143-6.321,0.086c-0.652-0.029-0.936-0.029-1.248-0.059
		C13.21,51.306,16.951,51.134,20.269,51.077L20.269,51.077z M51.732,50.934c-1.02-0.058-6.689,0.058-8.078,0
		c0,0,2.467-0.144,3.119-0.172c1.332-0.114,4.902-0.086,6.604-0.028c0,0,0.057,0.229-0.027,0.229
		C52.867,51.02,51.732,50.934,51.732,50.934L51.732,50.934z M35.746,50.647c-5.358,0-13.465,0.258-18.823-0.401
		c-0.283-0.028-1.785-0.028-2.976,0.028c-0.879,0.058-1.503-0.028-1.531,0v0.344c0.113-0.057,4.025-0.258,4.479-0.2
		c2.297,0.286,6.066,0.401,9.439,0.401C28.375,50.819,34.414,50.934,35.746,50.647L35.746,50.647z M14.174,50.934
		c1.021-0.058,6.718,0.058,8.078,0c0,0-2.438-0.144-3.117-0.172c-1.333-0.114-4.395,0.086-6.095,0.144c0,0-0.567,0.057-0.454,0.057
		C13.068,51.02,14.174,50.934,14.174,50.934L14.174,50.934z"/>
	<path fill-rule="evenodd" clip-rule="evenodd" fill="#FEFEFE" d="M7.115,51.248c0,2.835,4.593,1.833,5.442,1.26
		c0,0,0.228-0.486,0.228-0.515v-1.947C12.785,49.96,7.115,47.927,7.115,51.248L7.115,51.248z"/>
	<path fill-rule="evenodd" clip-rule="evenodd" fill="#FEFEFE" d="M12.785,51.964v-1.918c0-0.086-3.855-1.46-5.216-0.058
		c-0.057,0.172-0.085,0.401-0.085,0.688C7.484,53.367,11.679,52.565,12.785,51.964L12.785,51.964z"/>
	<path fill-rule="evenodd" clip-rule="evenodd" fill="#FEFEFE" d="M12.785,50.59v-0.544c0-0.058-3.204-1.231-4.791-0.4
		c-0.34,1.574,0.936,1.946,2.494,1.946C11.311,51.592,12.699,51.104,12.785,50.59L12.785,50.59z"/>
	<path fill-rule="evenodd" clip-rule="evenodd" fill="#FEFEFE" d="M11.65,50.103c-0.963-0.572-3.175-0.801-3.316,0.201
		C9.015,49.931,10.801,49.931,11.65,50.103L11.65,50.103z"/>
</g>
</svg>
