<svg xmlns="http://www.w3.org/2000/svg" xmlns:xlink="http://www.w3.org/1999/xlink" version="1.1" id="_x31_" x="0px" y="0px" viewBox="-77.3 221.7 394.1 344.7" style="enable-background:new -77.3 221.7 394.1 344.7;" xml:space="preserve">
<style type="text/css">
	.st0{fill:#C37640;}
	.st1{fill:#FED89C;}
	.st2{fill:#F5B26D;}
	.st3{fill:#793000;}
	.st4{fill:#A14E00;}
	.st5{fill:#C05B01;}
	.st6{fill:#F5A275;}
</style>
<g>
	<g>
		<polygon class="st0" points="266.6,514.6 272.8,511 137.2,276.1 133.3,275.5 129.7,277.5   "/>
		<rect x="60.2" y="388.7" transform="matrix(-0.5 -0.866 0.866 -0.5 -49.8971 761.194)" class="st1" width="269.1" height="12.7"/>
		<path class="st2" d="M237,479.1c-4.1-8.7-10-20.8-17.2-33.2c-9.9-16.9-15.3-24-15.3-24C204.5,421.9,237,479.1,237,479.1L237,479.1    z M143.6,316.2c5,7.3,42.7,72.4,46.8,80.3c0,0-1.5-2.2-3.9-5.9c-4.9-7.2-4.8-7.7-10.2-17.5c0,0-15.7-25.7-25.4-42.5    C146.4,322.8,143.6,316.2,143.6,316.2L143.6,316.2z M185.6,385.8c-11.4-21.8-6.9-16.1-13.6-27.8c-11-19.1-24-40.1-33.1-52.1    c-1.8-2.4-13.6-25.3-13.6-26.1l-2,1.2c0,0.3,2.5,3.6,5.1,8.6c3.6,7.1,8.4,15.5,9.5,17C159.3,334.8,168,355.4,185.6,385.8    L185.6,385.8z M132.5,275.6c17.6,30.4,30.8,62.9,52.2,91.2c1.1,1.5,5.9,9.9,9.5,17c2.5,4.9,7,12.7,10,17.3    c4.3,6.7,9.2,15,9.9,16.7c13.8,32.7,35.3,60.4,52.9,90.8l-2.2,1.3c-17.6-30.5-41.9-64.2-55.7-96.9c-1.4-3.2-24.3-40.5-26.4-43.3    c-21.4-28.3-34.9-62.4-52.5-92.9L132.5,275.6L132.5,275.6z M241.9,474.3c-12.7-19.4-33.4-53.3-48.1-78.8    c-14.6-25.3-36.9-67.4-39.5-73.5C185.1,377.9,208.7,419.3,241.9,474.3L241.9,474.3z M151.2,316.5c-10.5-19-19.5-34.5-22.3-36.8    c1.2,1.7,2,3.4,4.3,6.9C139.4,296.4,145.4,306.4,151.2,316.5L151.2,316.5z M236.7,466.9c11.2,18.6,24.4,39.2,25,42.8    c-0.9-1.9-1.9-3.5-3.9-7.2C252.6,492.3,242.6,477,236.7,466.9L236.7,466.9z M132.8,288.8c0,0-3.2-6.6-5-9.2    c-0.4-0.5-1.5,0.5-1.5,0.5c5.3,9.9,16.9,30.2,21.7,37.5c2.4,3.6,11.3,17,11.3,17C155.2,326.6,135.8,294.8,132.8,288.8L132.8,288.8    z M183.5,380.4c6.1,6.5,25.1,41.2,31.9,52.8c11,19.1,22.7,40.9,28.6,54.7c1.2,2.8,15.1,24.4,15.8,24.8l-2,1.2    c-0.2-0.1-1.8-3.9-4.9-8.7c-4.3-6.7-9.2-15-9.9-16.7C229.2,455.9,201.1,410.9,183.5,380.4L183.5,380.4z M255.8,501.8    c0,0,4.1,6,5.4,8.9c0.3,0.6-1.9-2.3-1.9-2.3c-5.9-9.6-17-26.3-20.9-34.2c-1.9-3.9-9.1-18.3-9.1-18.3    C234.2,463.5,252.1,496.2,255.8,501.8z"/>
		<path class="st3" d="M280.7,540.7c15.9-9.2-4.8-31.9-10.8-34.8c0,0-3.3,0.2-3.5,0.4l-11,6.3C254.9,512.9,262,551.5,280.7,540.7z"/>
		<path class="st4" d="M266.2,506.4l-10.9,6.3c-0.4,0.2,4.4,26.6,16.6,29.7c1.3-0.3,2.7-0.8,4.2-1.7    C291.5,531.9,273.1,510.7,266.2,506.4z"/>
		<path class="st5" d="M258.4,510.9l-3,1.7c-0.4,0.2,3.6,22,13.5,28.3c9.9-3.1,7.8-11.5,2.7-20.3    C268.9,515.9,261.7,509.6,258.4,510.9z"/>
		<path class="st6" d="M259.5,518.9c-0.1,7.3,5.9,20.5,12,18.2C267,534.3,261.1,524.2,259.5,518.9z"/>
	</g>
	<g>
		<polygon class="st0" points="129.5,250.2 135.7,253.8 0.1,488.7 -3.8,489.3 -7.4,487.3   "/>
		
			<rect x="-76.9" y="363.4" transform="matrix(-0.5 0.866 -0.866 -0.5 406.7578 504.7145)" class="st1" width="269.1" height="12.7"/>
		<path class="st2" d="M99.9,285.7c-4.1,8.7-10,20.8-17.2,33.2c-9.9,16.9-15.3,24-15.3,24C67.4,342.9,99.9,285.7,99.9,285.7    L99.9,285.7z M6.5,448.6c5-7.3,42.7-72.4,46.8-80.3c0,0-1.5,2.2-3.9,5.9c-4.9,7.2-4.8,7.7-10.2,17.5c0,0-15.7,25.7-25.4,42.5    C9.3,442,6.5,448.6,6.5,448.6L6.5,448.6z M48.5,379c-11.4,21.8-6.9,16.1-13.6,27.8c-11,19.1-24,40.1-33.1,52.1    c-1.8,2.4-13.6,25.3-13.6,26.1l-2-1.2c0-0.3,2.5-3.6,5.1-8.6c3.6-7.1,8.4-15.5,9.5-17C22.2,430,30.9,409.4,48.5,379L48.5,379z     M-4.6,489.2C13,458.7,26.2,426.2,47.6,398c1.1-1.5,5.9-9.9,9.5-17c2.5-4.9,7-12.7,10-17.3c4.3-6.7,9.2-15,9.9-16.7    c13.8-32.7,35.3-60.4,52.9-90.8l-2.2-1.3c-17.6,30.4-41.9,64.2-55.7,96.9c-1.4,3.2-24.3,40.5-26.4,43.3    c-21.4,28.3-34.9,62.4-52.5,92.9L-4.6,489.2L-4.6,489.2z M104.8,290.5c-12.7,19.4-33.3,53.3-48.1,78.8    c-14.6,25.3-36.9,67.4-39.5,73.5C48,386.9,71.6,345.4,104.8,290.5L104.8,290.5z M14.2,448.2C3.7,467.3-5.3,482.8-8.1,485    c1.2-1.7,2-3.4,4.3-6.9C2.3,468.4,8.3,458.4,14.2,448.2L14.2,448.2z M99.6,297.9c11.2-18.6,24.4-39.2,25-42.8    c-0.9,1.9-1.9,3.5-3.9,7.2C115.5,272.5,105.5,287.7,99.6,297.9L99.6,297.9z M-4.3,476c0,0-3.2,6.6-5,9.2c-0.4,0.5-1.5-0.5-1.5-0.5    c5.3-9.9,16.9-30.2,21.7-37.5c2.4-3.6,11.3-17,11.3-17C18.1,438.2-1.3,470-4.3,476L-4.3,476z M46.4,384.3    c6.1-6.5,25.1-41.2,31.9-52.8c11-19.1,22.7-40.9,28.6-54.7c1.2-2.8,15.1-24.4,15.8-24.8l-2-1.2c-0.2,0.1-1.8,3.9-4.9,8.7    c-4.3,6.7-9.2,15-9.9,16.7C92.1,308.9,64,353.9,46.4,384.3L46.4,384.3z M118.7,263c0,0,4.1-6,5.4-8.9c0.3-0.6-1.9,2.3-1.9,2.3    c-5.9,9.6-17,26.3-20.9,34.2c-1.9,3.9-9.1,18.3-9.1,18.3C97.1,301.3,115,268.6,118.7,263z"/>
		<path class="st3" d="M143.6,224.1c15.9,9.2-4.8,31.9-10.8,34.8c0,0-3.3-0.2-3.5-0.4l-11-6.3C117.8,251.9,124.9,213.3,143.6,224.1z    "/>
		<path class="st4" d="M129.1,258.4l-10.9-6.3c-0.4-0.2,4.4-26.6,16.6-29.7c1.3,0.3,2.7,0.8,4.2,1.7    C154.4,232.9,136,254.1,129.1,258.4z"/>
		<path class="st5" d="M121.3,253.9l-3-1.7c-0.4-0.2,3.6-22,13.5-28.3c9.9,3.1,7.8,11.5,2.7,20.3    C131.8,248.9,124.6,255.2,121.3,253.9z"/>
		<path class="st6" d="M122.4,245.9c-0.1-7.3,5.9-20.5,12-18.2C129.9,230.5,124,240.6,122.4,245.9z"/>
	</g>
	<g>
		<polygon class="st0" points="-32.5,502.6 -32.5,509.8 238.7,509.8 241.2,506.7 241.2,502.6   "/>
		<rect x="-27.6" y="493.9" class="st1" width="269.1" height="12.7"/>
		<path class="st2" d="M13,494.7c9.6,0.7,23,1.8,37.3,1.7c19.6-0.1,28.4-1.2,28.4-1.2C78.8,495.2,13,494.7,13,494.7L13,494.7z     M200.7,495.3c-8.9,0.7-84,0.8-93,0.4c0,0,2.7-0.2,7-0.5c8.7-0.6,9-0.3,20.3,0c0,0,30.1-0.8,49.5-0.8    C193.7,494.5,200.7,495.3,200.7,495.3L200.7,495.3z M119.5,496.8c24.5,1,17.4,2.1,30.9,2.1c22.1,0,46.8-0.8,61.7-2.6    c3-0.4,28.7,0.9,29.4,1.3v-2.3c-0.2-0.1-4.3,0.4-10,0.1c-7.9-0.4-17.6-0.5-19.5-0.3C176.8,499.6,154.7,496.8,119.5,496.8    L119.5,496.8z M241.5,506c-35.1,0-69.9-4.8-105.1-0.4c-1.8,0.2-11.5,0.1-19.5-0.3c-5.5-0.3-14.5-0.3-20,0    c-7.9,0.4-17.6,0.5-19.5,0.3C42.3,501.2,7.5,506-27.6,506v-2.5c35.2,0,76.6-4.2,111.8,0.2c3.5,0.4,47.2-0.8,50.7-1.2    c35.2-4.4,71.5,1,106.7,1L241.5,506L241.5,506z M14.7,501.4c23.2-1.3,62.8-2.2,92.3-2.3c29.3,0,76.8,1.7,83.4,2.5    C126.6,500.4,78.9,500.1,14.7,501.4L14.7,501.4z M196.6,501.7c21.7,0.4,39.6,0.4,43-0.9c-2.1,0.2-4,0-8.1,0.2    C220,501.6,208.4,501.8,196.6,501.7L196.6,501.7z M23.7,500.6c-11.8,0-30,1-41.4,0.5c-4.2-0.2-6,0-8.1-0.2    C-22.4,502.1,2,501,23.7,500.6L23.7,500.6z M229.9,499.6c-6.7-0.4-44,0.5-52.9,0.1c0,0,16-1,20.3-1.3c8.7-0.6,32.1-0.4,43.3-0.1    c0,0,0.3,1.5-0.3,1.5C237.2,500.2,230,499.6,229.9,499.6L229.9,499.6z M125.2,497.8c-8.7,2-48.2,1.2-61.7,1.2    c-22.1,0-46.8-0.8-61.7-2.6c-3-0.4-28.7,0.9-29.4,1.3v-2.3c0.2-0.1,4.3,0.4,10,0.1c7.9-0.4,17.6-0.5,19.5-0.3    C37,499.6,90,497.8,125.2,497.8L125.2,497.8z M-16.1,499.6c6.7-0.4,44,0.5,52.9,0.1c0,0-16-1-20.3-1.3c-8.7-0.6-28.8,0.7-40,1    c0,0-3.6,0.4-2.9,0.4C-23.4,500.2-16.1,499.6-16.1,499.6z"/>
		<path class="st3" d="M-62.2,501.8c0,18.4,30.1,11.8,35.5,8c0,0,1.5-3,1.5-3.2v-12.7C-25.2,493.3-62.2,480.2-62.2,501.8z"/>
		<path class="st4" d="M-25.2,506.4v-12.5c0-0.4-25.3-9.5-34-0.4c-0.4,1.3-0.7,2.8-0.7,4.5C-59.9,515.5-32.4,510.2-25.2,506.4z"/>
		<path class="st5" d="M-25.2,497.3v-3.5c0-0.4-20.9-7.9-31.2-2.5c-2.3,10.1,6.1,12.4,16.2,12.5C-34.8,503.9-25.8,500.8-25.2,497.3z    "/>
		<path class="st6" d="M-32.7,494.3c-6.3-3.7-20.7-5.2-21.7,1.3C-49.8,493.1-38.1,493.1-32.7,494.3z"/>
	</g>
	<g>
		<polygon class="st0" points="296.8,460.9 303,457.3 167.3,222.4 163.4,221.8 159.9,223.8   "/>
		<rect x="90.4" y="335" transform="matrix(-0.5 -0.866 0.866 -0.5 41.8165 706.8151)" class="st1" width="269.1" height="12.7"/>
		<path class="st2" d="M267.1,425.4c-4.1-8.7-10-20.8-17.2-33.2c-9.9-16.9-15.3-24-15.3-24C234.7,368.2,267.2,425.4,267.1,425.4    L267.1,425.4z M173.8,262.6c5,7.3,42.7,72.4,46.8,80.3c0,0-1.5-2.2-4-5.9c-4.9-7.2-4.8-7.7-10.2-17.5c0,0-15.7-25.7-25.4-42.5    C176.6,269.1,173.8,262.6,173.8,262.6L173.8,262.6z M215.7,332.1c-11.4-21.8-6.9-16.1-13.6-27.8c-11-19.1-24-40.1-33.1-52.1    c-1.8-2.4-13.6-25.3-13.6-26.1l-2,1.2c0,0.3,2.5,3.6,5.1,8.6c3.6,7.1,8.4,15.5,9.5,17C189.4,281.1,198.1,301.7,215.7,332.1    L215.7,332.1z M162.7,221.9c17.6,30.4,30.8,62.9,52.2,91.2c1.1,1.5,5.9,9.9,9.5,17c2.5,4.9,7,12.7,10,17.3    c4.3,6.7,9.2,15,9.9,16.7c13.8,32.7,35.3,60.4,52.9,90.8l-2.2,1.3c-17.6-30.5-41.9-64.2-55.7-96.9c-1.4-3.2-24.3-40.5-26.4-43.3    c-21.4-28.3-34.9-62.4-52.5-92.9L162.7,221.9L162.7,221.9z M272,420.6c-12.7-19.4-33.4-53.3-48.1-78.8    c-14.6-25.3-36.9-67.4-39.5-73.4C215.3,324.3,238.9,365.7,272,420.6L272,420.6z M181.4,262.9c-10.5-19-19.5-34.5-22.3-36.8    c1.2,1.7,2,3.4,4.3,6.9C169.6,242.7,175.6,252.7,181.4,262.9L181.4,262.9z M266.8,413.2c11.2,18.6,24.4,39.2,25,42.8    c-0.9-1.9-1.9-3.5-3.9-7.2C282.7,438.7,272.7,423.4,266.8,413.2L266.8,413.2z M162.9,235.1c0,0-3.2-6.6-5-9.2    c-0.4-0.5-1.5,0.5-1.5,0.5c5.3,9.9,16.9,30.2,21.7,37.5c2.4,3.6,11.3,17,11.3,17C185.3,272.9,165.9,241.1,162.9,235.1L162.9,235.1    z M213.7,326.8c6.1,6.5,25.1,41.2,31.9,52.8c11,19.1,22.7,40.9,28.6,54.7c1.2,2.8,15.1,24.4,15.8,24.8l-2,1.2    c-0.2-0.1-1.8-3.9-4.9-8.7c-4.3-6.7-9.2-15-9.9-16.7C259.3,402.2,231.3,357.2,213.7,326.8L213.7,326.8z M285.9,448.2    c0,0,4.1,6,5.4,8.9c0.3,0.6-1.9-2.3-1.9-2.3c-5.9-9.6-17-26.3-20.9-34.2c-1.9-3.9-9.1-18.3-9.1-18.3    C264.4,409.8,282.2,442.6,285.9,448.2z"/>
		<path class="st3" d="M310.9,487.1c15.9-9.2-4.8-31.9-10.8-34.8c0,0-3.3,0.2-3.5,0.4l-11,6.3C285.1,459.2,292.2,497.8,310.9,487.1z    "/>
		<path class="st4" d="M296.4,452.7l-10.9,6.3c-0.4,0.2,4.4,26.6,16.6,29.7c1.3-0.3,2.7-0.8,4.2-1.7    C321.6,478.2,303.3,457,296.4,452.7z"/>
		<path class="st5" d="M288.5,457.2l-3,1.7c-0.4,0.2,3.6,22,13.5,28.3c9.9-3.1,7.8-11.5,2.7-20.3C299,462.2,291.8,456,288.5,457.2z"/>
		<path class="st6" d="M289.6,465.2c-0.1,7.3,5.9,20.5,12,18.2C297.2,480.6,291.3,470.5,289.6,465.2z"/>
	</g>
	<g>
		<polygon class="st0" points="67.2,252.5 73.5,256.1 -62.2,491 -66.1,491.7 -69.6,489.6   "/>
		
			<rect x="-139.1" y="365.8" transform="matrix(-0.5 0.866 -0.866 -0.5 315.3941 562.1315)" class="st1" width="269.1" height="12.7"/>
		<path class="st2" d="M37.6,288.1c-4.1,8.7-10,20.8-17.2,33.2c-9.9,16.9-15.3,24-15.3,24C5.2,345.2,37.6,288,37.6,288.1L37.6,288.1    z M-55.7,450.9c5-7.3,42.7-72.4,46.8-80.3c0,0-1.5,2.2-3.9,5.9c-4.9,7.2-4.8,7.7-10.2,17.5c0,0-15.7,25.7-25.4,42.5    C-52.9,444.4-55.7,450.9-55.7,450.9L-55.7,450.9z M-13.8,381.3c-11.4,21.8-6.9,16.1-13.6,27.8c-11,19.1-24,40.1-33.1,52.1    c-1.8,2.4-13.6,25.3-13.6,26.1l-2-1.2c0-0.3,2.5-3.6,5.1-8.6c3.6-7.1,8.4-15.5,9.5-17C-40.1,432.3-31.4,411.8-13.8,381.3    L-13.8,381.3z M-66.8,491.5c17.6-30.4,30.8-62.9,52.2-91.2c1.1-1.5,5.9-9.9,9.5-17c2.5-4.9,7-12.7,10-17.3    c4.3-6.7,9.2-15,9.9-16.7c13.8-32.7,35.3-60.4,52.9-90.8l-2.2-1.3c-17.6,30.5-41.9,64.2-55.7,96.9c-1.4,3.2-24.3,40.5-26.4,43.3    C-38,425.6-51.5,459.8-69,490.2L-66.8,491.5L-66.8,491.5z M42.5,292.8c-12.7,19.4-33.3,53.3-48.1,78.8    c-14.6,25.3-36.9,67.4-39.5,73.5C-14.2,389.2,9.4,347.8,42.5,292.8L42.5,292.8z M-48.1,450.6c-10.5,19-19.5,34.5-22.3,36.8    c1.2-1.7,2-3.4,4.3-6.9C-59.9,470.8-53.9,460.8-48.1,450.6L-48.1,450.6z M37.3,300.3c11.2-18.6,24.4-39.2,25-42.8    c-0.9,1.9-1.9,3.5-3.9,7.2C53.2,274.8,43.2,290.1,37.3,300.3L37.3,300.3z M-66.6,478.4c0,0-3.2,6.6-5,9.2    c-0.4,0.5-1.5-0.5-1.5-0.5c5.3-9.9,16.9-30.2,21.7-37.5c2.4-3.6,11.3-17,11.3-17C-44.2,440.5-63.6,472.3-66.6,478.4L-66.6,478.4z     M-15.8,386.7c6.1-6.5,25.1-41.2,31.9-52.8c11-19.1,22.7-40.9,28.6-54.7c1.2-2.8,15.1-24.4,15.8-24.8l-2-1.2    c-0.2,0.1-1.8,3.9-4.9,8.7c-4.3,6.7-9.2,15-9.9,16.7C29.8,311.2,1.8,356.2-15.8,386.7L-15.8,386.7z M56.4,265.3c0,0,4.1-6,5.4-8.9    c0.3-0.6-1.9,2.3-1.9,2.3c-5.9,9.6-17,26.3-20.9,34.2c-1.9,3.9-9.1,18.3-9.1,18.3C34.9,303.6,52.7,270.9,56.4,265.3z"/>
		<path class="st3" d="M81.4,226.4c15.9,9.2-4.8,31.9-10.8,34.8c0,0-3.3-0.2-3.5-0.4l-11-6.3C55.6,254.2,62.7,215.6,81.4,226.4z"/>
		<path class="st4" d="M66.9,260.8L56,254.5c-0.4-0.2,4.4-26.6,16.6-29.7c1.3,0.3,2.7,0.8,4.2,1.7C92.1,235.2,73.8,256.4,66.9,260.8    z"/>
		<path class="st5" d="M59,256.2l-3-1.7c-0.4-0.2,3.6-22,13.5-28.3c9.9,3.1,7.8,11.5,2.7,20.3C69.5,251.2,62.3,257.5,59,256.2z"/>
		<path class="st6" d="M60.1,248.3c-0.1-7.3,5.9-20.5,12-18.2C67.7,232.8,61.8,242.9,60.1,248.3z"/>
	</g>
	<g>
		<polygon class="st0" points="-1,554.9 -1,562.1 270.3,562.1 272.8,559 272.8,554.9   "/>
		<rect x="3.9" y="546.2" class="st1" width="269.1" height="12.7"/>
		<path class="st2" d="M44.6,547c9.6,0.7,23,1.8,37.3,1.7c19.6-0.1,28.4-1.2,28.4-1.2C110.3,547.5,44.6,547,44.6,547L44.6,547z     M232.3,547.6c-8.9,0.7-84,0.8-93,0.4c0,0,2.7-0.2,7-0.5c8.7-0.6,9-0.3,20.3,0c0,0,30.1-0.8,49.5-0.8    C225.2,546.8,232.3,547.6,232.3,547.6L232.3,547.6z M151.1,549.1c24.5,1,17.4,2.1,30.9,2.1c22.1,0,46.8-0.8,61.7-2.6    c3-0.4,28.7,0.9,29.4,1.3v-2.3c-0.2-0.1-4.3,0.4-10,0.1c-7.9-0.4-17.6-0.5-19.5-0.3C208.4,551.9,186.2,549.1,151.1,549.1    L151.1,549.1z M273,558.3c-35.1,0-69.9-4.8-105.1-0.4c-1.8,0.2-11.5,0.1-19.5-0.3c-5.5-0.3-14.5-0.3-20,0    c-7.9,0.4-17.6,0.5-19.5,0.3c-35.2-4.4-69.9,0.4-105.1,0.4v-2.5c35.2,0,76.6-4.2,111.8,0.2c3.5,0.4,47.2-0.8,50.7-1.2    c35.2-4.4,71.5,1,106.7,1L273,558.3L273,558.3z M46.3,553.7c23.2-1.3,62.8-2.2,92.3-2.3c29.3,0,76.8,1.7,83.4,2.5    C158.1,552.7,110.4,552.4,46.3,553.7L46.3,553.7z M228.2,554.1c21.7,0.4,39.6,0.4,43-0.9c-2.1,0.2-4,0-8.1,0.2    C251.6,553.9,239.9,554.1,228.2,554.1L228.2,554.1z M55.3,552.9c-11.8,0-30,1-41.4,0.5c-4.2-0.2-6,0-8.1-0.2    C9.1,554.4,33.6,553.3,55.3,552.9L55.3,552.9z M261.5,551.9c-6.7-0.4-44,0.5-52.9,0.1c0,0,16-1,20.3-1.3    c8.7-0.6,32.1-0.4,43.3-0.1c0,0,0.3,1.5-0.3,1.5C268.7,552.5,261.5,551.9,261.5,551.9L261.5,551.9z M156.7,550.1    c-8.7,2-48.2,1.2-61.7,1.2c-22.1,0-46.8-0.8-61.7-2.6c-3-0.4-28.7,0.9-29.4,1.3v-2.3c0.2-0.1,4.3,0.4,10,0.1    c7.9-0.4,17.6-0.5,19.5-0.3C68.6,551.9,121.6,550.1,156.7,550.1L156.7,550.1z M15.5,551.9c6.7-0.4,44,0.5,52.9,0.1    c0,0-16-1-20.3-1.3c-8.7-0.6-28.8,0.7-40,1c0,0-3.6,0.4-2.9,0.4C8.2,552.5,15.4,551.9,15.5,551.9z"/>
		<path class="st3" d="M-30.7,554.1c0,18.4,30.1,11.8,35.5,8c0,0,1.5-3,1.5-3.2v-12.7C6.3,545.6-30.7,532.5-30.7,554.1z"/>
		<path class="st4" d="M6.3,558.7v-12.5c0-0.4-25.3-9.5-34-0.4c-0.4,1.3-0.7,2.8-0.7,4.5C-28.4,567.8-0.9,562.5,6.3,558.7z"/>
		<path class="st5" d="M6.3,549.6v-3.5c0-0.4-20.8-7.9-31.2-2.5c-2.3,10.1,6.1,12.4,16.2,12.5C-3.3,556.3,5.8,553.1,6.3,549.6z"/>
		<path class="st6" d="M-1.1,546.6c-6.3-3.7-20.7-5.2-21.7,1.3C-18.3,545.4-6.6,545.4-1.1,546.6z"/>
	</g>
</g>
<deepl-alert xmlns=""/><deepl-alert xmlns=""/><deepl-alert xmlns=""/></svg>