<svg width="10" height="16" viewBox="0 0 10 16" fill="none" xmlns="http://www.w3.org/2000/svg">
<path d="M7.92512 9.30649L4.95287 5.23605C4.94676 5.22996 4.94191 5.22271 4.9386 5.21474C4.93529 5.20677 4.93359 5.19824 4.93359 5.18961C4.93359 5.18098 4.93529 5.17244 4.9386 5.16447C4.94191 5.1565 4.94676 5.14925 4.95287 5.14316C4.97218 5.13555 4.99367 5.13555 5.01298 5.14316L9.93031 5.88076C9.97402 5.88076 9.9904 5.92448 9.9904 5.95726C9.9904 5.99004 9.9904 5.99004 9.95762 6.00643C9.44342 6.40079 9.00788 6.88823 8.67365 7.44339C8.35144 8.01512 8.13663 8.641 8.03985 9.2901C8.03985 9.32289 7.99069 9.35021 7.96337 9.35021C7.93605 9.35021 7.93059 9.3502 7.9142 9.32288L7.92512 9.30649ZM5.19327 5.28522L7.96337 9.10981C8.07615 8.50451 8.29043 7.92263 8.59716 7.38875C8.90165 6.85097 9.30809 6.37771 9.79371 5.99549L5.19327 5.28522Z" fill="white"/>
<path fill-rule="evenodd" clip-rule="evenodd" d="M7.96892 9.26299L4.99121 5.198L8.6191 7.38348C8.28309 7.95624 8.06222 8.58914 7.96892 9.2466V9.26299Z" fill="white"/>
<path d="M9.79386 3.85921L5.00765 5.26885C4.98033 5.26885 4.93115 5.26885 4.93115 5.21968C4.93115 5.17051 4.93115 5.17596 4.93115 5.15957L7.34611 0.733988C7.35525 0.718459 7.36959 0.706654 7.38658 0.700657C7.40357 0.69466 7.42212 0.694839 7.43899 0.701191C7.43899 0.701191 7.47178 0.733987 7.47178 0.750379C7.64946 1.37736 7.94423 1.96503 8.34051 2.48236C8.74081 2.99448 9.2408 3.42013 9.81025 3.73355C9.81722 3.73971 9.82281 3.74727 9.82664 3.75575C9.83046 3.76422 9.83244 3.77342 9.83244 3.78272C9.83244 3.79203 9.83046 3.80122 9.82664 3.8097C9.82281 3.81818 9.81722 3.82574 9.81025 3.8319C9.80894 3.83961 9.80492 3.84661 9.79891 3.85162C9.7929 3.85663 9.78529 3.85932 9.77747 3.85921H9.79386ZM5.13332 5.08309L9.59169 3.78272C9.07261 3.45638 8.61261 3.0444 8.23123 2.56431C7.85769 2.07178 7.57464 1.51678 7.39529 0.925204L5.13332 5.08309Z" fill="white"/>
<path fill-rule="evenodd" clip-rule="evenodd" d="M9.77741 3.79911L4.99121 5.19234L8.26943 2.51514C8.66907 3.0428 9.17546 3.48031 9.75555 3.79911H9.77741Z" fill="white"/>
<path d="M5.05708 0.122117V5.19243C5.05783 5.20176 5.05673 5.21115 5.05383 5.22006C5.05094 5.22896 5.0463 5.23721 5.04021 5.24432C5.03412 5.25143 5.02667 5.25725 5.01832 5.26147C5.00996 5.2657 5.00086 5.26824 4.99152 5.26893C4.99152 5.26893 4.96419 5.26893 4.9478 5.23615L1.42918 1.65741C1.40186 1.65741 1.40186 1.59185 1.42918 1.55907C1.44518 1.55404 1.46236 1.55404 1.47837 1.55907C2.1217 1.55721 2.75841 1.42912 3.35241 1.18208C3.94495 0.915584 4.4852 0.545543 4.9478 0.0893365C4.9478 0.062018 5.00791 0.062018 5.04069 0.0893365C5.04416 0.0970696 5.04595 0.105456 5.04595 0.11393C5.04595 0.122405 5.04416 0.130775 5.04069 0.138508L5.05708 0.122117ZM4.93141 5.03945V0.29696C4.48706 0.717385 3.97314 1.05753 3.41251 1.30228C2.85185 1.53278 2.25374 1.6587 1.64774 1.67381L4.93141 5.03945Z" fill="white"/>
<path fill-rule="evenodd" clip-rule="evenodd" d="M4.99109 0.12207V5.19238L3.38477 1.2312C3.98459 0.971996 4.52971 0.601172 4.99109 0.138461V0.12207Z" fill="white"/>
<path d="M0.685952 7.37799L4.82197 5.19251L0.390908 3.73918C0.650603 4.30274 0.809638 4.90741 0.860794 5.52581C0.904663 6.14501 0.845579 6.76719 0.685952 7.36707V7.37799ZM5.02413 5.25262L0.593062 7.56922C0.586417 7.57306 0.578892 7.57508 0.571219 7.57508C0.563547 7.57508 0.556004 7.57306 0.54936 7.56922C0.531761 7.5602 0.517503 7.5458 0.508659 7.52811C0.499814 7.51042 0.496847 7.49037 0.500188 7.47088C0.70383 6.84586 0.778184 6.18594 0.718733 5.53128C0.663678 4.87636 0.477895 4.23911 0.172363 3.65722V3.60804C0.172363 3.56433 0.21608 3.54795 0.265253 3.56434L4.98588 5.11056C4.98588 5.11056 5.01866 5.11056 5.03505 5.14334C5.04265 5.16006 5.0435 5.17908 5.03738 5.1964C5.03127 5.21372 5.01868 5.22799 5.00227 5.23623L5.02413 5.25262Z" fill="white"/>
<path fill-rule="evenodd" clip-rule="evenodd" d="M0.565918 7.50353L4.99152 5.19238L0.795401 5.54754C0.845805 6.20824 0.767873 6.87244 0.565918 7.50353V7.50353Z" fill="white"/>
<path fill-rule="evenodd" clip-rule="evenodd" d="M5.04063 5.46021L5.37938 10.5251L5.08435 10.5414L4.74561 5.48752L5.04063 5.46021Z" fill="white"/>
<path fill-rule="evenodd" clip-rule="evenodd" d="M5.08429 10.9185L3.396 15.6883L3.67465 15.7811L5.36291 11.0113L5.08429 10.9185Z" fill="white"/>
<path fill-rule="evenodd" clip-rule="evenodd" d="M5.19366 10.7273C4.54111 10.6894 3.88755 10.7819 3.27119 10.9996C2.65484 11.2172 2.08806 11.5556 1.604 11.9949C2.25684 12.0359 2.91124 11.9447 3.52804 11.7269C4.14483 11.5091 4.71134 11.1691 5.19366 10.7273Z" fill="white"/>
<path d="M5.02424 10.7928C4.43437 10.7736 3.84632 10.8682 3.29224 11.0714C2.73605 11.2609 2.22069 11.5538 1.77333 11.9347C2.96018 11.9646 4.11682 11.5583 5.02424 10.7928V10.7928ZM3.25946 10.9294C3.88018 10.7136 4.53785 10.6244 5.19361 10.6671C5.19361 10.6671 5.22639 10.6671 5.24278 10.6944C5.25918 10.7218 5.2701 10.76 5.24278 10.7928C4.74136 11.2328 4.16361 11.5772 3.53811 11.809C2.90964 12.0159 2.24835 12.1048 1.58757 12.0713C1.58757 12.0713 1.55479 12.0713 1.5384 12.044C1.52684 12.0302 1.52051 12.0128 1.52051 11.9948C1.52051 11.9768 1.52684 11.9594 1.5384 11.9456C2.03273 11.496 2.61245 11.1504 3.24307 10.9294H3.25946Z" fill="white"/>
<path d="M1.74016 9.03896C2.40133 9.06272 3.05049 9.2227 3.64701 9.50884C4.253 9.78811 4.7958 10.1878 5.2424 10.6835C5.25583 10.6986 5.26327 10.718 5.26327 10.7382C5.26327 10.7583 5.25583 10.7778 5.2424 10.7928H5.19322C4.53031 10.761 3.87949 10.6034 3.27546 10.3284C2.67084 10.0475 2.13267 9.6415 1.69646 9.1373C1.66368 9.1373 1.66368 9.07721 1.69646 9.04443C1.70311 9.04059 1.71065 9.03857 1.71832 9.03857C1.72599 9.03857 1.73352 9.04059 1.74016 9.04443V9.03896ZM3.59782 9.6345C3.06815 9.37967 2.4956 9.22588 1.90954 9.18102C2.3171 9.61026 2.80059 9.96036 3.33557 10.2136C3.86747 10.4597 4.43939 10.6077 5.02385 10.6508C4.61361 10.2289 4.13049 9.88458 3.59782 9.6345V9.6345Z" fill="white"/>
<path d="M8.63571 9.55245C8.04539 9.53995 7.45743 9.63055 6.89826 9.82016C6.33755 10.0106 5.81699 10.3033 5.36296 10.6834C5.95328 10.6959 6.54124 10.6053 7.10041 10.4157C7.65948 10.2216 8.1794 9.92928 8.63571 9.55245V9.55245ZM6.85456 9.67812C7.48234 9.46913 8.14507 9.38559 8.80508 9.43224C8.80508 9.43224 8.83241 9.43224 8.8488 9.45956C8.85671 9.46446 8.86323 9.4713 8.86776 9.47943C8.87228 9.48756 8.87466 9.49671 8.87466 9.50601C8.87466 9.51531 8.87228 9.52446 8.86776 9.53259C8.86323 9.54071 8.85671 9.54755 8.8488 9.55245C8.35699 9.99913 7.77904 10.3405 7.15047 10.5557C6.52189 10.7709 5.85596 10.8552 5.19359 10.8036C5.19359 10.8036 5.14988 10.8036 5.14988 10.7763C5.14198 10.7714 5.13545 10.7646 5.13093 10.7565C5.1264 10.7483 5.12402 10.7392 5.12402 10.7299C5.12402 10.7206 5.1264 10.7114 5.13093 10.7033C5.13545 10.6952 5.14198 10.6883 5.14988 10.6834C5.64664 10.2397 6.22587 9.89813 6.85456 9.67812V9.67812Z" fill="white"/>
<path fill-rule="evenodd" clip-rule="evenodd" d="M5.19336 10.7271C5.84935 10.7634 6.49154 10.9299 7.08251 11.2169C7.67348 11.504 8.20139 11.9058 8.63548 12.3989C7.97912 12.3645 7.33633 12.1987 6.74511 11.9116C6.1539 11.6244 5.62625 11.2216 5.19336 10.7271V10.7271Z" fill="white"/>
<path d="M5.19359 10.667C5.85551 10.6943 6.50466 10.858 7.10041 11.1478C7.70157 11.4417 8.23831 11.8521 8.67943 12.3553C8.68733 12.3602 8.69386 12.367 8.69839 12.3751C8.70291 12.3833 8.70527 12.3924 8.70527 12.4017C8.70527 12.411 8.70291 12.4202 8.69839 12.4283C8.69386 12.4364 8.68733 12.4433 8.67943 12.4482C8.67253 12.4512 8.66509 12.4527 8.65757 12.4527C8.65005 12.4527 8.6426 12.4512 8.63571 12.4482C7.97342 12.4189 7.32428 12.2534 6.72888 11.9619C6.12712 11.6714 5.5901 11.2626 5.14988 10.7599C5.14198 10.755 5.13545 10.7481 5.13093 10.74C5.1264 10.7319 5.12402 10.7227 5.12402 10.7134C5.12402 10.7041 5.1264 10.695 5.13093 10.6869C5.13545 10.6787 5.14198 10.6719 5.14988 10.667C5.15668 10.6636 5.16414 10.6619 5.17173 10.6619C5.17931 10.6619 5.18679 10.6636 5.19359 10.667V10.667ZM7.04032 11.2735C6.51317 11.0223 5.94487 10.8686 5.36296 10.82C5.76631 11.2469 6.24398 11.5968 6.7726 11.8526C7.30463 12.1039 7.87554 12.2628 8.46088 12.3225C8.05704 11.8872 7.57521 11.5313 7.04032 11.2735V11.2735Z" fill="white"/>
</svg>
