<!-- Generated by IcoMoon.io -->
<svg version="1.1" xmlns="http://www.w3.org/2000/svg" width="20" height="32" viewBox="0 0 20 32">
<title>puzzleclassicsrgb</title>
<path fill="#aab1b1" d="M15.655 18.824l-6.044-8.255 9.991 1.474c-2.162 1.648-3.582 4.087-3.947 6.781v0z"></path>
<path fill="#939c9c" d="M15.655 18.824l-6.044-8.255 7.346 4.464c-0.667 1.171-1.108 2.457-1.301 3.791v0z"></path>
<path fill="#ffc00c" d="M19.327 7.734l-9.716 2.835 4.896-8.962c0.744 2.597 2.473 4.801 4.82 6.141v-0.013z"></path>
<path fill="#f90" d="M19.327 7.734l-9.716 2.835 6.715-5.427c0.809 1.058 1.826 1.94 2.987 2.592h0.013z"></path>
<path fill="#aab1b1" d="M9.611 0.276v10.29l-7.147-7.259c1.334 0.002 2.655-0.265 3.883-0.786s2.338-1.284 3.264-2.245v0z"></path>
<path fill="#939c9c" d="M9.611 0.276v10.29l-3.276-8.059c1.234-0.512 2.349-1.272 3.276-2.234v0.003z"></path>
<path fill="#ffc00c" d="M0.649 15.272l8.962-4.704-9.596-3.153c1.223 2.438 1.45 5.255 0.634 7.857v0z"></path>
<path fill="#f90" d="M0.649 15.272l8.962-4.704-8.527 0.717c0.113 1.343-0.035 2.696-0.435 3.983v0.003z"></path>
<path fill="#7dbd0d" d="M9.731 10.884l0.71 10.25-0.634 0.040-0.67-10.25 0.594-0.040z"></path>
<path fill="#7dbd0d" d="M9.847 21.934l-3.436 9.653 0.554 0.239 3.436-9.692-0.554-0.199z"></path>
<path fill="#68a303" d="M10.046 21.576c-1.326-0.082-2.655 0.102-3.909 0.54s-2.408 1.123-3.394 2.013c1.327 0.095 2.659-0.083 3.915-0.522s2.409-1.13 3.388-2.031z"></path>
<path fill="#7dbd0d" d="M3.055 18.266c1.329 0.055 2.632 0.377 3.833 0.947s2.275 1.377 3.157 2.372c-1.327-0.065-2.627-0.392-3.827-0.961s-2.275-1.371-3.164-2.358v0z"></path>
<path fill="#7dbd0d" d="M17.392 19.063c-1.331-0.099-2.668 0.073-3.93 0.504s-2.424 1.115-3.416 2.008c1.33 0.096 2.666-0.077 3.928-0.509s2.424-1.113 3.417-2.004v0z"></path>
<path fill="#68a303" d="M10.046 21.576c1.331 0.058 2.636 0.384 3.838 0.96s2.274 1.388 3.153 2.389c-1.331-0.057-2.637-0.383-3.838-0.959s-2.274-1.389-3.152-2.39z"></path>
</svg>
