<?xml version="1.0" encoding="utf-8"?>
<!-- Generator: Adobe Illustrator 16.0.0, SVG Export Plug-In . SVG Version: 6.00 Build 0)  -->
<!DOCTYPE svg PUBLIC "-//W3C//DTD SVG 1.0//EN" "http://www.w3.org/TR/2001/REC-SVG-20010904/DTD/svg10.dtd">
<svg version="1.0" id="Layer_1" xmlns="http://www.w3.org/2000/svg" xmlns:xlink="http://www.w3.org/1999/xlink" x="0px" y="0px"
	 width="557.6px" height="564.855px" viewBox="0 0 557.6 564.855" enable-background="new 0 0 557.6 564.855" xml:space="preserve">
<g>
	<path fill-rule="evenodd" clip-rule="evenodd" fill="#F2F7FF" d="M336.816,559.376c-54.964,10.307-114.463,6.27-167.896-13.799
		c-225.184-73.15-225.269-453.162,0-526.312c53.461-20.07,112.933-24.078,167.896-13.8
		C631.194,60.579,631.194,504.263,336.816,559.376L336.816,559.376z"/>
	<path fill-rule="evenodd" clip-rule="evenodd" fill="#E5EEFC" d="M71.125,481.931C26.564,432.488,2.952,364.576,0.287,295.519
		l2.409-6.729l7.2,20.156H7.005l3.515,8.246c15.194-10.852,24.293-14.688,33.959-14.373c0.709,0.029,1.417,0.059,2.154,0.145
		l5.329-25.052l5.925,27.8c1.502,0.543,3.004,1.115,4.563,1.775l2.721-12.77l3.289,15.432c1.984,0.945,3.997,1.975,6.066,3.035
		l2.806-8.619l3.997,12.313c1.587,0.916,3.203,1.832,4.847,2.777l5.357-24.537l6.406,29.404h-3.6
		c19.247,11.652,40.224,25.652,59.754,35.586l0.907-2.49h-2.919l3.288-12.168h-2.211l5.499-24.363l5.471,24.363h-2.211l3.288,12.168
		h-2.919l2.834,7.701c1.105,0.486,2.183,0.916,3.231,1.346l0.567-1.174h-2.012l2.268-6.557h-1.502l3.798-13.084l3.77,13.084h-1.502
		l2.268,6.557h-2.013l1.871,3.951c11.565,3.779,22.025,4.838,30.5,1.518c39.43-15.518,40.394-27.543,71.32-48.5
		c34.725-23.533,75.09,14.803,102.586,34.213l1.247-2.605h-2.92l7.257-23.504l7.229,23.504h-2.892l5.499,11.568
		c0.992,0.371,1.956,0.658,2.892,0.887l0.851-1.346h-1.814l2.154-5.096h-1.813l2.353-5.525h-1.19l2.976-10.736l2.977,10.736h-1.19
		l2.353,5.525h-1.785l2.126,5.096h-1.786l0.737,1.174c3.883-0.973,7.795-3.234,11.792-6.328h-3.118l3.571-6.898h-1.813l4.507-13.457
		l4.507,13.457h-1.786l0.652,1.316c13.663-12.826,28.006-31.865,43.002-38.537l4.053-7.988h-3.288l3.686-10.076h-2.467l6.18-20.157
		l6.18,20.157h-2.494l3.713,10.076h-3.288l3.118,6.186c0.567,0.143,1.105,0.285,1.673,0.486c0.992,0.314,1.984,0.658,2.948,1.031
		l0.85-1.26h-2.834l3.175-6.527h-2.126l5.301-13.086l5.329,13.086h-2.154l3.175,6.527h-2.807l3.855,5.811h-0.851
		c2.522,1.203,4.989,2.434,7.427,3.752l1.615-3.293h-2.126l5.301-16.807l5.329,16.807h-2.154l4.224,8.646h-2.834
		c11.962,7.158,23.386,15.174,35.433,22.045c-11.509,50.99-36.028,98.775-73.53,136.195c-20.892-0.373-40.593-1.174-56.382-1.174
		c-49.549,0-96.293-3.637-146.636-3.637C210.561,482.705,134.025,484.595,71.125,481.931L71.125,481.931z M8.025,318.996
		l-0.368,0.287l-0.17-0.287H8.025z"/>
	<path fill-rule="evenodd" clip-rule="evenodd" fill="#D6E5FC" d="M336.816,559.376c-8.334,1.574-16.753,2.807-25.257,3.693h-67.946
		c-25.484-2.691-50.712-8.475-74.693-17.492c-49.351-16.033-87.874-46.811-115.597-85.834c21.6-18.84,49.861-30.178,78.435-27.629
		c121.04,10.707,98.646-23.275,180-29.346c83.509-6.27,101.565,52.021,151.966,39.137c12.671-3.234,29.565,1.117,43.54,8.475
		C470.555,504.005,413.748,544.976,336.816,559.376L336.816,559.376z"/>
	<path fill="#407AE6" d="M71.097,115.578c0.822,0.802,1.219,2.147,1.219,4.667l0,0l0.113,72.606l0,0
		c0,0.687,0.028,1.088,0.142,1.174c0.085,0.086,0.482,0.115,1.163,0.115h1.616c1.36,0,2.381,0.028,3.345,0.916
		c0.822,0.802,1.247,2.119,1.247,4.581c0,5.611-1.587,5.611-4.592,5.611H57.887c-1.361,0-2.41,0-3.345-0.945l-3.175-2.176
		l2.013-1.002c-0.057-0.429-0.057-0.944-0.057-1.488c0-5.497,1.559-5.497,4.564-5.497h1.729c0.68,0,1.077-0.029,1.162-0.115
		c0.113-0.086,0.142-0.487,0.142-1.174v-65.707c0-1.317-0.68-1.317-1.332-1.346c-1.077,0-2.098,0-2.778-0.573l-3.487-2.605
		l2.608-0.859v-0.773c0-2.061,1.105-2.348,1.899-2.548c0.028,0,0.028,0,0,0l0.113-0.029c0.878-0.229,1.587-0.515,2.126-0.859
		c0.425-0.286,0.737-0.601,0.878-0.916c0.397-0.773,0.709-1.231,1.191-1.575c0.567-0.372,1.049-0.43,1.814-0.43h3.798
		C69.112,114.633,70.161,114.633,71.097,115.578L71.097,115.578z"/>
	<path fill="#FF9500" d="M389.569,204.074L389.569,204.074l-3.203-2.405l2.494-1.403v-6.872c0-0.458,0-0.716-0.028-0.744
		c-0.028-0.029-0.227-0.029-0.624-0.029h-19.105c-0.907,0-1.559-0.143-2.069-0.516l-3.741-2.605l2.664-1.489v-4.925
		c0-1.918,0.681-4.323,1.475-7.043c0.028-0.086-0.113,0.373,0.312-1.145l15.761-55.944c0.34-1.317,0.851-2.376,1.928-3.178
		c0.992-0.745,2.409-1.146,4.535-1.146h4.563c5.868,0,5.868,1.604,5.868,4.61v61.641v0.658c1.304,0,2.296,0.029,3.203,0.917
		c0.822,0.801,1.247,2.147,1.247,4.695c0,5.411-1.53,5.468-4.45,5.468v0.659v7.358c0,1.374,0,2.434-1.021,3.407
		c-0.822,0.802-2.211,1.203-4.848,1.203C391.695,205.248,390.277,204.847,389.569,204.074L389.569,204.074z M400.397,181.8
		c0.085,0.114,0.057,0.057,0-0.029V181.8z M400.397,192.364v0.029C400.454,192.307,400.482,192.278,400.397,192.364L400.397,192.364
		z M388.889,181.485c0,0-0.028-0.172-0.028-0.601v-25.539c0-6.957-0.057-10.793-0.255-12.855
		c-2.892,9.935-5.783,19.841-8.675,29.775c-0.142,0.487-0.34,1.146-0.566,1.918c-0.539,1.775-1.247,4.008-1.247,4.838v1.747
		c0,0.487,0.028,0.745,0.057,0.773c0,0,0.17,0,0.481,0h9.354C388.549,181.542,388.832,181.542,388.889,181.485L388.889,181.485z
		 M388.974,141.202l-0.028,0.114C389.059,141.23,389.115,141.202,388.974,141.202L388.974,141.202z"/>
	<path fill="#5F628C" d="M475.742,166.683L475.742,166.683l-3.373-2.348l2.381-1.833v-42.258c0-5.612,1.445-5.612,4.479-5.612
		h27.468c1.361,0,2.381,0,3.345,0.945c0.794,0.802,1.22,2.147,1.22,4.667c0,5.468-1.588,5.468-4.564,5.468h-19.105
		c-0.708,0-1.077,0.057-1.19,0.143c-0.085,0.086-0.113,0.487-0.113,1.174v24.995c1.645-1.06,4.45-2.634,8.362-2.634
		c5.98,0,10.517,1.89,13.635,4.982c3.458,3.378,5.159,8.188,5.159,13.571v19.869c0,5.354-1.701,10.192-5.244,13.6
		c-3.175,3.063-7.796,4.924-14.004,4.924c-6.264,0-10.941-1.832-14.173-4.896c-3.571-3.378-5.272-8.188-5.272-13.628
		c0-2.09,0.539-3.235,1.786-3.922c1.021-0.544,2.296-0.601,4.195-0.601c1.474,0,2.692,0.143,3.6,0.544
		c1.275,0.544,1.956,1.432,1.956,2.863c0,2.892,0.652,5.068,1.984,6.471c1.275,1.374,3.26,2.09,5.924,2.09
		c2.608,0,4.508-0.716,5.755-2.09c1.304-1.432,1.956-3.607,1.956-6.471v-17.665c0-2.863-0.652-5.039-1.984-6.442
		c-1.275-1.374-3.26-2.09-5.925-2.09c-2.183,0-3.826,0.486-5.045,1.174c-1.701,0.973-2.523,2.262-2.722,2.949
		c-0.312,1.088-0.737,1.918-1.786,2.52c-0.851,0.487-2.041,0.687-3.911,0.687c-1.871,0-3.175-0.2-4.054-0.658
		C476.195,167.026,475.969,166.854,475.742,166.683L475.742,166.683z"/>
	<path fill="#3A9E85" d="M258.211,135.733L258.211,135.733l-3.401-2.376l2.012-1.117v-0.172c0-5.44,1.701-10.25,5.244-13.657
		c3.231-3.035,7.909-4.867,14.202-4.867c6.179,0,10.8,1.861,13.975,4.896c3.571,3.436,5.244,8.274,5.244,13.628v10.965
		c0,2.863-0.482,5.555-1.475,7.959c-0.765,1.89-1.842,3.607-3.231,5.096c1.39,1.432,2.438,3.149,3.203,5.01
		c1.021,2.405,1.503,5.125,1.503,7.931v18.781c0,5.354-1.673,10.192-5.244,13.6c-3.175,3.063-7.796,4.924-13.975,4.924
		c-6.293,0-10.97-1.832-14.202-4.896c-3.543-3.378-5.244-8.188-5.244-13.628c0-2.09,0.51-3.235,1.758-3.922
		c1.021-0.544,2.324-0.601,4.224-0.601c1.474,0,2.665,0.143,3.571,0.544c1.276,0.544,1.956,1.432,1.956,2.863
		c0,2.892,0.681,5.068,1.984,6.471c1.304,1.374,3.26,2.09,5.953,2.09c2.58,0,4.507-0.716,5.754-2.09
		c1.304-1.432,1.956-3.607,1.956-6.471v-16.548c0-2.806-0.652-5.039-1.984-6.471c-1.275-1.346-3.203-2.09-5.953-2.09h-1.417
		c-1.077,0-1.956,0-2.75-0.487l0,0l0,0c-0.113-0.057-0.227-0.143-0.34-0.229l-3.742-2.605l2.325-0.916
		c-0.028-0.372-0.057-0.802-0.057-1.26c0-5.583,1.587-5.583,4.564-5.583h1.417c2.665,0,4.649-0.716,5.924-2.09
		c1.332-1.403,2.013-3.579,2.013-6.471v-8.761c0-2.863-0.652-5.039-1.956-6.471c-1.247-1.374-3.175-2.09-5.754-2.09
		c-2.693,0-4.649,0.716-5.953,2.09c-1.304,1.403-1.984,3.579-1.984,6.471c0,1.432-0.68,2.319-1.956,2.863
		c-0.907,0.401-2.097,0.544-3.571,0.544c-1.899,0-3.203-0.057-4.224-0.601C258.438,135.905,258.325,135.819,258.211,135.733
		L258.211,135.733z"/>
	<path fill="#5F628C" d="M150.835,135.819L150.835,135.819h-0.028c-0.028-0.028-0.085-0.057-0.142-0.086l-3.628-2.548l2.268-0.716
		c0-0.114,0-0.258,0-0.401c0-5.382,1.672-10.192,5.018-13.542c3.062-3.121,7.54-4.982,13.351-4.982c5.726,0,10.12,1.89,13.153,5.01
		c3.316,3.407,4.989,8.217,4.989,13.514v13.6c0,5.668-6.548,11.337-13.039,16.978c-5.981,5.182-11.934,10.364-11.934,14.63v15.575
		c0,0.687,0.028,1.088,0.113,1.174c0.114,0.086,0.482,0.115,1.163,0.115h19.134c1.332,0,2.381,0.028,3.316,0.916
		c0.822,0.802,1.247,2.119,1.247,4.581c0,5.611-1.587,5.611-4.563,5.611h-27.496c-1.361,0-2.353,0-3.26-0.945l0,0l-3.203-2.176
		l2.069-1.031c-0.028-0.43-0.057-0.916-0.057-1.46v-25.109c0-7.272,7.625-13.686,14.599-19.555
		c5.386-4.552,10.375-8.732,10.375-12.025v-9.763c0-2.834-0.624-5.01-1.786-6.442c-1.105-1.375-2.75-2.119-4.819-2.119
		c-2.154,0-3.855,0.716-5.017,2.119c-1.163,1.432-1.814,3.579-1.814,6.442c0,1.432-0.708,2.319-1.956,2.863
		c-0.907,0.401-2.126,0.544-3.6,0.544c-1.899,0-3.203-0.057-4.224-0.601C150.977,135.934,150.892,135.877,150.835,135.819
		L150.835,135.819z"/>
	<path fill-rule="evenodd" clip-rule="evenodd" fill="#5F628C" d="M70.048,292.886c-1.304,1.432-1.956,3.607-1.956,6.471v23.246
		c1.644-1.059,4.45-2.633,8.362-2.633c5.981,0,10.517,1.861,13.634,4.953c3.458,3.406,5.159,8.217,5.159,13.6v15.459
		c0,5.412-1.701,10.223-5.301,13.629c-3.203,3.063-7.88,4.896-14.145,4.896c-6.208,0-10.828-1.861-14.003-4.896
		c-3.543-3.436-5.216-8.273-5.216-13.629v-55.715c0-5.354,1.672-10.221,5.216-13.627c3.175-3.063,7.795-4.924,14.003-4.924
		c6.265,0,10.97,1.832,14.173,4.895c3.572,3.379,5.272,8.189,5.272,13.656c0,2.063-0.51,3.207-1.757,3.895
		c-1.021,0.572-2.324,0.602-4.224,0.602c-1.474,0-2.693-0.143-3.6-0.516c-0.227-0.115-0.425-0.201-0.595-0.344l0,0l0,0
		c-0.085-0.027-0.17-0.086-0.227-0.143l-3.6-2.49l2.466-0.574c-0.113-2.547-0.765-4.494-1.984-5.811
		c-1.276-1.375-3.26-2.09-5.925-2.09C73.194,290.796,71.295,291.541,70.048,292.886L70.048,292.886z M70.048,333.14
		c-1.304,1.432-1.956,3.607-1.956,6.471v13.283c0,2.836,0.652,5.039,1.956,6.443c1.247,1.373,3.146,2.09,5.754,2.09
		c2.665,0,4.649-0.717,5.925-2.09c1.332-1.404,1.984-3.58,1.984-6.443v-13.283c0-2.893-0.652-5.068-1.984-6.471
		c-1.276-1.375-3.26-2.09-5.925-2.09C73.194,331.05,71.295,331.794,70.048,333.14L70.048,333.14z"/>
	<path fill="#FF9500" d="M175.922,293.402c-0.879,1.145-1.701,2.203-3.685,2.232l0,0h-2.183c-1.758,0-2.835,0-3.657-0.773
		l-3.543-2.463l2.41-0.457c-0.085-0.744-0.114-1.66-0.114-2.777v-2.748c0-5.612,1.587-5.612,4.592-5.612h28.771
		c1.361,0,2.381,0,3.288,0.973c0.794,0.802,1.163,2.146,1.163,4.639v4.18c0,2.377-1.105,6.441-1.843,9.248l-0.368,1.373
		l-16.526,65.736c-0.51,2.033-1.077,3.121-2.126,3.779c-0.992,0.658-2.126,0.688-3.912,0.688s-2.948-0.258-3.77-0.803l-0.028-0.029
		l-3.912-2.719l2.495-0.545c0-0.113,0-0.258,0-0.4c0-1.031,0.142-1.545,4.791-19.898c2.58-10.191,6.577-25.996,12.756-50.561l0,0
		c0.085-0.373,0.142-0.658,0.227-0.916c0.227-0.83,0.482-1.805,0.482-2.576c0-0.373-0.057-0.688-0.17-0.859
		c-0.113-0.115-0.397-0.201-0.907-0.201h-11.735C177.056,291.912,176.46,292.685,175.922,293.402L175.922,293.402z"/>
	<path fill-rule="evenodd" clip-rule="evenodd" fill="#5F628C" d="M312.863,314.931c0,5.496-1.559,5.496-4.563,5.496h-38.126
		c-1.134,0-2.069,0-2.892-0.572h-0.028l-3.912-2.719l2.353-0.516c-0.057-0.516-0.085-1.061-0.085-1.689
		c0-5.611,1.587-5.611,4.564-5.611H308.3c1.36,0,2.381,0,3.345,0.945C312.438,311.066,312.863,312.412,312.863,314.931
		L312.863,314.931z M267.197,341.07l-3.968-2.777l2.466-0.457c-0.057-0.486-0.085-1.031-0.085-1.633
		c0-5.582,1.587-5.582,4.564-5.582H308.3c1.36,0,2.381,0,3.345,0.916c0.794,0.801,1.219,2.146,1.219,4.666
		c0,5.498-1.559,5.498-4.563,5.498h-38.126C268.983,341.701,268.048,341.701,267.197,341.07L267.197,341.07z"/>
	<path fill-rule="evenodd" clip-rule="evenodd" fill="#407AE6" d="M384.438,255.151c0.964,0.973,1.474,2.634,1.474,5.783l0,0
		l0.142,94.737l0,0c0,1.061,0.085,1.633,0.284,1.861l0,0c0.227,0.229,0.821,0.287,1.842,0.287h2.126c1.673,0,2.948,0,4.025,1.059
		c0.992,0.945,1.503,2.576,1.503,5.668c0,6.873-1.899,6.873-5.528,6.873h-22.818c-1.418,0-2.552,0-3.544-0.688h-0.028l-3.939-2.748
		l2.126-1.031c-0.085-0.688-0.142-1.488-0.142-2.406c0-6.727,1.927-6.727,5.527-6.727h2.268c1.021,0,1.615-0.059,1.843-0.287
		c0.227-0.229,0.283-0.83,0.283-1.861v-85.719c0-2.147-1.105-2.147-2.154-2.176c-1.304,0-2.522,0-3.345-0.716l-3.373-2.548
		l2.353-0.572v-2.004c0-2.348,1.275-2.663,2.154-2.892l0,0l0.198-0.057c1.19-0.315,2.126-0.716,2.863-1.174
		c0.623-0.43,1.077-0.888,1.332-1.375c0.453-0.945,0.822-1.489,1.389-1.861l0,0c0.624-0.43,1.219-0.516,2.126-0.516h4.961
		C382.058,254.063,383.333,254.063,384.438,255.151L384.438,255.151z M448.955,365.292c-2.92,4.121-7.909,6.127-16.413,6.127h-9.638
		c-8.532,0-13.521-2.006-16.44-6.127c-2.863-4.01-3.544-9.82-3.544-17.637v-69.83c0-7.788,0.737-13.628,3.629-17.637
		c2.947-4.094,7.993-6.127,16.497-6.127h9.354c8.504,0,13.521,2.033,16.47,6.127c2.919,4.008,3.628,9.849,3.628,17.637v69.83
		C452.498,355.472,451.817,361.283,448.955,365.292L448.955,365.292z M418.313,355.5c0.964,1.689,3.033,2.32,7.001,2.32h4.819
		c3.94,0,6.01-0.631,6.974-2.32c1.105-1.918,1.219-5.354,1.219-10.707v-64.104c0-5.354-0.113-8.79-1.219-10.679
		c-0.964-1.718-3.033-2.348-6.974-2.348h-4.819c-3.968,0-6.037,0.63-7.001,2.348c-1.105,1.89-1.219,5.325-1.219,10.679v64.104
		C417.094,350.146,417.207,353.582,418.313,355.5L418.313,355.5z M509.871,365.292c-2.919,4.121-7.908,6.127-16.412,6.127h-9.638
		c-8.504,0-13.493-2.006-16.441-6.127c-2.835-4.01-3.543-9.82-3.543-17.637v-69.83c0-7.788,0.736-13.628,3.628-17.637
		c2.948-4.094,7.994-6.127,16.498-6.127h9.354c8.504,0,13.521,2.033,16.497,6.127c2.892,4.008,3.629,9.849,3.629,17.637v69.83
		C513.443,355.472,512.734,361.283,509.871,365.292L509.871,365.292z M479.229,355.5c0.992,1.689,3.033,2.32,7.002,2.32h4.818
		c3.969,0,6.01-0.631,7.002-2.32c1.077-1.918,1.219-5.354,1.219-10.707v-64.104c0-5.354-0.142-8.79-1.219-10.679
		c-0.992-1.718-3.033-2.348-7.002-2.348h-4.818c-3.969,0-6.01,0.63-7.002,2.348c-1.105,1.89-1.219,5.325-1.219,10.679v64.104
		C478.01,350.146,478.123,353.582,479.229,355.5L479.229,355.5z"/>
	<path fill-rule="evenodd" clip-rule="evenodd" fill="#A3C5FF" d="M131.021,482.734c-17.32,0-31.379-11.539-31.379-25.738
		c0-5.383,2.012-10.365,5.442-14.516l0,0c4.394-4.725,7.143-11.568,7.143-19.154c0-8.045-5.301-8.332-5.301-16.979
		c0-4.123,1.531-7.959,4.167-11.137l0,0c0.085-0.115,0.17-0.201,0.255-0.287c1.021-2.691,2.438-5.152,4.11-7.242
		c0.737-2.234,1.134-4.668,1.134-7.188c0-1.889-0.227-3.75-0.652-5.467c-0.935-2.52-1.474-5.297-1.474-8.217
		c0-10.908,7.398-19.785,16.554-19.785s16.583,8.877,16.583,19.785c0,2.92-0.539,5.697-1.502,8.217
		c-0.425,1.717-0.652,3.578-0.652,5.467c0,2.52,0.425,4.953,1.134,7.188c1.701,2.09,3.09,4.551,4.11,7.242
		c0.085,0.086,0.17,0.172,0.255,0.287l0,0c2.636,3.178,4.195,7.014,4.195,11.137c0,8.646-5.329,8.934-5.329,16.979
		c0,7.586,2.778,14.43,7.172,19.154l0,0c3.43,4.15,5.442,9.133,5.442,14.516C162.429,471.195,148.369,482.734,131.021,482.734
		L131.021,482.734z"/>
	<path fill-rule="evenodd" clip-rule="evenodd" fill="#B5D0FF" d="M131.021,347.025c9.156,0,16.583,8.877,16.583,19.785
		c0,2.92-0.539,5.697-1.502,8.217c-0.425,1.717-0.652,3.578-0.652,5.467c0,2.52,0.425,4.953,1.134,7.188
		c1.701,2.09,3.09,4.551,4.11,7.242c0.085,0.086,0.17,0.172,0.255,0.287l0,0c2.636,3.178,4.195,7.014,4.195,11.137
		c0,8.646-5.329,8.934-5.329,16.979c0,7.586,2.778,14.43,7.172,19.154l0,0c3.43,4.15,5.442,9.133,5.442,14.516
		c0,14.199-14.06,25.738-31.408,25.738V347.025z"/>
	<rect x="130.454" y="347.025" fill="#85B2FF" width="1.162" height="160.531"/>
	<path fill="#85B2FF" d="M114.41,389.054l17.008,16.605l-0.794,0.859l-16.866-16.463
		C113.985,389.712,114.211,389.398,114.41,389.054L114.41,389.054z M109.676,435.521c0.17-0.371,0.312-0.771,0.482-1.145
		l21.26,20.758l-0.794,0.857L109.676,435.521z M117.584,355.242c0.199-0.344,0.425-0.686,0.652-1.002l13.181,12.885l-0.794,0.859
		L117.584,355.242z M147.462,364.175c0.057,0.516,0.085,1.002,0.113,1.518l-16.157,15.746l-0.794-0.83L147.462,364.175z
		 M154.775,402.884c0.085,0.457,0.17,0.943,0.227,1.402l-23.584,23.018l-0.794-0.83L154.775,402.884z M157.667,443.337
		c0.227,0.316,0.454,0.631,0.68,0.975l-26.929,26.281l-0.794-0.857L157.667,443.337z"/>
	<path fill="#85B2FF" d="M131.021,405.289l0.397,0.371l-0.397,0.43V405.289z M147.462,364.175c0.057,0.516,0.085,1.002,0.113,1.518
		l-16.157,15.746l-0.397-0.4v-0.83L147.462,364.175z M154.775,402.884c0.085,0.457,0.17,0.943,0.227,1.402l-23.584,23.018
		l-0.397-0.428v-0.803L154.775,402.884z M157.667,443.337c0.227,0.316,0.454,0.631,0.68,0.975l-26.929,26.281l-0.397-0.428v-0.803
		L157.667,443.337z M131.021,455.564v-0.832l0.397,0.402L131.021,455.564z M131.021,367.554v-0.83l0.397,0.4L131.021,367.554z"/>
	<path fill="#7DABFF" d="M66.334,118.784c0-4.151-1.077-4.151-3.146-4.151h-3.799c-0.963,0-1.19,0.086-1.729,1.203
		c-0.539,1.088-1.842,1.976-3.912,2.52c-0.34,0.115-0.992,0.115-0.992,1.203v1.546c0,3.922,5.017-0.573,5.017,4.581v65.707
		c0,2.205-0.539,2.749-2.721,2.749h-1.729c-2.069,0-3.146,0-3.146,4.065c0,4.151,1.077,4.151,3.146,4.151h17.461
		c2.069,0,3.146,0,3.146-4.151c0-4.065-1.077-4.065-3.146-4.065h-1.616c-2.183,0-2.721-0.544-2.721-2.749L66.334,118.784z"/>
	<path fill="#FFC00C" d="M395.72,189.759c2.041,0,3.146,0,3.146-4.065c0-4.18-1.105-4.18-3.146-4.18
		c-0.992,0-1.304-0.201-1.304-2.062v-61.641c0-2.09,0-3.178-4.479-3.178h-4.535c-3.601,0-4.564,1.203-5.103,3.264l-15.761,55.944
		c-0.879,3.063-1.729,5.812-1.729,7.787v5.927c0,1.746,0.199,2.204,1.729,2.204h19.105c1.645,0,2.069,0.544,2.069,2.176v7.243
		c0,2.09,0,3.178,4.224,3.178c4.479,0,4.479-1.088,4.479-3.178v-7.358C394.416,189.959,394.728,189.759,395.72,189.759
		L395.72,189.759z M385.714,179.452c0,1.747-0.539,2.062-2.268,2.062h-9.354c-1.502,0-1.956-0.544-1.956-2.176v-1.775
		c0-1.403,1.418-5.468,1.843-7.129l4.904-16.663c3.911-13.485,4.45-15.46,5.527-15.46c0.992,0,1.304,1.431,1.304,15.575V179.452z"/>
	<path fill="#8A8FD4" d="M489.632,195.228c-6.18,0-9.326-3.493-9.326-9.963c0-1.546-1.53-1.976-4.139-1.976
		c-3.373,0-4.563,0.115-4.563,3.063c0,9.648,5.669,17.121,18.028,17.121c12.274,0,17.83-7.702,17.83-17.121v-19.841
		c0-9.563-5.669-17.121-17.376-17.121c-5.329,0-8.476,3.292-9.128,3.292c-0.453,0-0.652-0.229-0.652-2.52v-24.564
		c0-2.205,0.539-2.749,2.722-2.749h19.105c2.069,0,3.146,0,3.146-4.066c0-4.151-1.077-4.151-3.146-4.151h-27.468
		c-2.069,0-3.062,0-3.062,4.151v43.977c0,1.546,1.105,2.205,4.365,2.205s3.884-0.659,4.337-2.205
		c0.426-1.518,3.033-5.153,9.128-5.153c6.18,0,9.326,3.521,9.326,9.992v17.665C498.76,191.62,495.727,195.228,489.632,195.228
		L489.632,195.228z"/>
	<path fill="#57CFB1" d="M289.506,130.637c0-9.448-5.556-17.121-17.801-17.121c-12.388,0-18.029,7.472-18.029,17.121
		c0,2.949,1.191,3.063,4.564,3.063c2.608,0,4.11-0.429,4.11-1.975c0-6.471,3.146-9.964,9.354-9.964c6.066,0,9.099,3.607,9.099,9.964
		v8.789c0,6.471-3.146,9.963-9.326,9.963h-1.417c-2.069,0-3.146,0-3.146,4.18c0,4.065,1.077,4.065,3.146,4.065h1.417
		c6.52,0,9.326,3.836,9.326,9.963v16.577c0,6.356-3.033,9.963-9.099,9.963c-6.208,0-9.354-3.493-9.354-9.963
		c0-1.546-1.502-1.976-4.11-1.976c-3.373,0-4.564,0.115-4.564,3.063c0,9.648,5.641,17.121,18.029,17.121
		c12.246,0,17.801-7.702,17.801-17.121v-18.753c0-5.153-1.729-9.877-5.329-12.941c3.6-3.178,5.329-7.788,5.329-13.056V130.637z"/>
	<path fill="#8A8FD4" d="M154.86,191.391v-15.575c0-9.877,24.973-21.616,24.973-31.579v-13.6c0-9.448-5.556-17.121-16.725-17.121
		c-11.31,0-16.951,7.472-16.951,17.121c0,2.949,1.191,3.063,4.564,3.063c2.608,0,4.139-0.429,4.139-1.975
		c0-6.471,3.146-9.964,8.249-9.964c4.989,0,8.022,3.607,8.022,9.964v9.763c0,8.675-24.974,19.411-24.974,31.579v25.138
		c0,4.151,0.992,4.151,3.033,4.151h27.496c2.041,0,3.146,0,3.146-4.151c0-4.065-1.105-4.065-3.146-4.065h-19.134
		C155.399,194.14,154.86,193.596,154.86,191.391L154.86,191.391z"/>
	<path fill="#8A8FD4" d="M62.111,297.896c0-6.355,3.033-9.963,9.127-9.963c6.18,0,9.326,3.492,9.326,9.963
		c0,1.547,1.531,1.975,4.139,1.975c3.345,0,4.564-0.086,4.564-3.063c0-9.648-5.669-17.092-18.028-17.092
		c-12.274,0-17.83,7.672-17.83,17.092v55.715c0,9.447,5.556,17.121,17.83,17.121c12.359,0,18.028-7.559,18.028-17.121v-15.461
		c0-9.533-5.669-17.092-17.376-17.092c-5.329,0-8.476,3.264-9.127,3.264c-0.425,0-0.652-0.201-0.652-2.52V297.896z M62.111,338.15
		c0-6.355,3.033-9.963,9.127-9.963c6.18,0,9.326,3.492,9.326,9.963v13.285c0,6.471-3.146,9.992-9.326,9.992
		c-6.095,0-9.127-3.637-9.127-9.992V338.15z"/>
	<path fill="#FFC00C" d="M167.673,292.742c2.806,0,2.381-3.721,6.18-3.721h11.735c1.956,0,2.495,1.088,2.495,2.52
		c0,1.316-0.539,2.834-0.766,3.836c-17.149,68.227-17.49,68.77-17.49,70.088c0,2.203,0.454,3.092,3.798,3.092
		c3.062,0,3.798-0.115,4.677-3.408l16.498-65.734c0.652-2.52,2.183-7.674,2.183-10.279v-4.18c0-4.151-0.992-4.151-3.033-4.151h-28.8
		c-2.041,0-3.146,0-3.146,4.151v2.748c0,5.039,0.34,5.039,3.487,5.039H167.673z"/>
	<path fill="#8A8FD4" d="M303.736,317.537c2.069,0,3.146,0,3.146-4.066c0-4.15-1.076-4.15-3.146-4.15H265.61
		c-2.069,0-3.146,0-3.146,4.15c0,4.066,1.077,4.066,3.146,4.066H303.736z M303.736,338.808c2.069,0,3.146,0,3.146-4.037
		c0-4.18-1.076-4.18-3.146-4.18H265.61c-2.069,0-3.146,0-3.146,4.18c0,4.037,1.077,4.037,3.146,4.037H303.736z"/>
	<path fill="#7DABFF" d="M379.931,259.502c0-5.44-1.417-5.44-4.109-5.44h-4.961c-1.275,0-1.56,0.144-2.268,1.575
		c-0.709,1.431-2.409,2.577-5.103,3.292c-0.425,0.144-1.275,0.144-1.275,1.575v2.004c0,5.153,6.52-0.716,6.52,6.012v85.719
		c0,2.863-0.709,3.58-3.543,3.58h-2.269c-2.692,0-4.109,0-4.109,5.297c0,5.439,1.417,5.439,4.109,5.439h22.819
		c2.693,0,4.11,0,4.11-5.439c0-5.297-1.417-5.297-4.11-5.297h-2.126c-2.835,0-3.543-0.717-3.543-3.58L379.931,259.502z
		 M427.95,368.556c16.016,0,18.566-7.301,18.566-22.332v-69.83c0-15.031-2.692-22.332-18.708-22.332h-9.326
		c-16.016,0-18.709,7.301-18.709,22.332v69.83c0,15.031,2.552,22.332,18.567,22.332H427.95z M420.75,357.82
		c-9.071,0-9.638-3.293-9.638-14.459v-64.104c0-11.166,0.566-14.458,9.638-14.458h4.791c9.07,0,9.638,3.292,9.638,14.458v64.104
		c0,11.166-0.567,14.459-9.638,14.459H420.75z M488.895,368.556c16.017,0,18.567-7.301,18.567-22.332v-69.83
		c0-15.031-2.693-22.332-18.709-22.332h-9.354c-16.016,0-18.708,7.301-18.708,22.332v69.83c0,15.031,2.551,22.332,18.566,22.332
		H488.895z M481.667,357.82c-9.071,0-9.639-3.293-9.639-14.459v-64.104c0-11.166,0.567-14.458,9.639-14.458h4.818
		c9.071,0,9.638,3.292,9.638,14.458v64.104c0,11.166-0.566,14.459-9.638,14.459H481.667z"/>
	<path fill-rule="evenodd" clip-rule="evenodd" fill="#A3C5FF" d="M367.317,502.546c-17.292,0-31.295-10.566-31.295-23.564
		c0-4.895,2.013-9.477,5.442-13.256h-0.028c4.394-4.322,7.144-10.564,7.144-17.521c0-2.262-0.283-4.465-0.822-6.527
		c-1.247-2.977-1.956-6.299-1.956-9.764c0-13.025,9.638-23.563,21.516-23.563c11.877,0,21.486,10.537,21.486,23.563
		c0,3.465-0.681,6.787-1.928,9.764c-0.538,2.063-0.851,4.266-0.851,6.527c0,6.957,2.778,13.199,7.144,17.521l0,0
		c3.43,3.779,5.414,8.361,5.414,13.256C398.583,491.98,384.58,502.546,367.317,502.546L367.317,502.546z"/>
	<path fill-rule="evenodd" clip-rule="evenodd" fill="#B5D0FF" d="M367.317,408.351c11.877,0,21.486,10.537,21.486,23.563
		c0,3.465-0.681,6.787-1.928,9.764c-0.538,2.063-0.851,4.266-0.851,6.527c0,6.957,2.778,13.199,7.144,17.521l0,0
		c3.43,3.779,5.414,8.361,5.414,13.256c0,12.998-14.003,23.564-31.266,23.564V408.351z"/>
	<path fill="#85B2FF" d="M368.025,408.38v119.475h-1.445V408.38c0.255-0.029,0.481-0.029,0.737-0.029
		C367.544,408.351,367.799,408.351,368.025,408.38L368.025,408.38z"/>
	<path fill="#85B2FF" d="M348.325,420.863l19.474,19.039l-0.992,1.031l-19.105-18.668
		C347.871,421.779,348.098,421.322,348.325,420.863L348.325,420.863z"/>
	<path fill="#85B2FF" d="M343.308,463.636l24.491,23.906l-0.992,1.031l-24.435-23.85
		C342.712,464.38,343.024,464.009,343.308,463.636L343.308,463.636z"/>
	<path fill="#85B2FF" d="M387.896,438.757l-20.098,19.582l-0.992-1.029l21.657-21.129
		C388.293,437.068,388.123,437.927,387.896,438.757L387.896,438.757z"/>
	<path fill="#85B2FF" d="M395.976,469.535l-28.177,27.514l-0.992-1.059l28.375-27.686
		C395.465,468.705,395.72,469.105,395.976,469.535L395.976,469.535z"/>
	<polygon fill="#85B2FF" points="367.317,439.416 367.799,439.902 367.317,440.417 	"/>
	<polygon fill="#85B2FF" points="367.317,487.056 367.799,487.542 367.317,488.058 	"/>
	<path fill="#85B2FF" d="M387.896,438.757l-20.098,19.582l-0.481-0.514v-1.002l21.146-20.643
		C388.293,437.068,388.123,437.927,387.896,438.757L387.896,438.757z"/>
	<path fill="#85B2FF" d="M395.976,469.535l-28.177,27.514l-0.481-0.543v-1.002l27.864-27.199
		C395.465,468.705,395.72,469.105,395.976,469.535L395.976,469.535z"/>
	<path fill-rule="evenodd" clip-rule="evenodd" fill="#C2DAFF" d="M336.816,559.376c-8.334,1.574-16.753,2.807-25.257,3.693h-67.946
		c-25.484-2.691-50.712-8.475-74.693-17.492c-23.953-7.789-45.326-19.012-64.176-33.012c41.5-8.531,50.57-27.17,108.227-30.205
		c85.266-4.494,98.589,49.73,150.038,40.455c18.142-3.264,38.777-3.32,55.36,8.016C394.303,543.916,367.118,553.708,336.816,559.376
		L336.816,559.376z"/>
	<path fill-rule="evenodd" clip-rule="evenodd" fill="#C3D7FA" d="M264.249,466.414c-0.85-6.643-7.086-11.824-14.683-11.824
		c-7.597,0-13.861,5.182-14.684,11.824H264.249z"/>
	<path fill-rule="evenodd" clip-rule="evenodd" fill="#B6D0FC" d="M283.298,520.64c-0.822-6.643-7.086-11.797-14.683-11.797
		c-7.597,0-13.862,5.154-14.684,11.797H283.298z"/>
	<path fill-rule="evenodd" clip-rule="evenodd" fill="#B6D0FC" d="M229.241,542.484c-0.595-4.695-4.989-8.33-10.346-8.33
		s-9.751,3.635-10.347,8.33H229.241z"/>
	<path fill-rule="evenodd" clip-rule="evenodd" fill="#B6D0FC" d="M194.8,509.445c-0.34-2.662-2.863-4.752-5.953-4.752
		c-3.062,0-5.584,2.09-5.924,4.752H194.8z"/>
	<path fill-rule="evenodd" clip-rule="evenodd" fill="#B6D0FC" d="M345.207,546.58c-0.596-4.695-4.989-8.332-10.347-8.332
		s-9.751,3.637-10.347,8.332H345.207z"/>
	<path fill-rule="evenodd" clip-rule="evenodd" fill="#C3D7FA" d="M318.136,433.232c-0.566-4.695-4.989-8.332-10.347-8.332
		c-5.329,0-9.751,3.637-10.346,8.332H318.136z"/>
	<path fill-rule="evenodd" clip-rule="evenodd" fill="#C3D7FA" d="M320.347,489.232c-0.566-4.666-4.988-8.303-10.318-8.303
		c-5.357,0-9.779,3.637-10.346,8.303H320.347z"/>
	<path fill-rule="evenodd" clip-rule="evenodd" fill="#C3D7FA" d="M423.387,461.146c-0.426-3.436-3.657-6.098-7.569-6.098
		c-3.911,0-7.143,2.662-7.568,6.098H423.387z"/>
	<path fill-rule="evenodd" clip-rule="evenodd" fill="#C3D7FA" d="M440.989,502.947c-0.595-4.781-5.103-8.504-10.545-8.504
		c-5.471,0-9.978,3.723-10.573,8.504H440.989z"/>
	<path fill-rule="evenodd" clip-rule="evenodd" fill="#C3D7FA" d="M196.359,461.117c-0.283-2.348-2.494-4.15-5.159-4.15
		c-2.693,0-4.904,1.803-5.187,4.15H196.359z"/>
	<path fill-rule="evenodd" clip-rule="evenodd" fill="#C3D7FA" d="M272.923,430.826c-0.312-2.348-2.495-4.15-5.188-4.15
		c-2.665,0-4.875,1.803-5.159,4.15H272.923z"/>
	<path fill-rule="evenodd" clip-rule="evenodd" fill="#C3D7FA" d="M288.4,484.623c-0.283-2.348-2.494-4.18-5.159-4.18
		c-2.664,0-4.875,1.832-5.159,4.18H288.4z"/>
	<path fill-rule="evenodd" clip-rule="evenodd" fill="#C3D7FA" d="M171.67,481.074c-0.312-2.348-2.495-4.152-5.188-4.152
		c-2.665,0-4.875,1.805-5.159,4.152H171.67z"/>
	<path fill-rule="evenodd" clip-rule="evenodd" fill="#C3D7FA" d="M79.034,469.822c-0.284-2.348-2.495-4.152-5.188-4.152
		c-2.665,0-4.875,1.805-5.159,4.152H79.034z"/>
	<path fill-rule="evenodd" clip-rule="evenodd" fill="#B6D0FC" d="M397.534,536.988c-0.34-2.691-2.863-4.781-5.924-4.781
		c-3.062,0-5.585,2.09-5.925,4.781H397.534z"/>
	<path fill-rule="evenodd" clip-rule="evenodd" fill="#B6D0FC" d="M288.032,553.136c-0.313-2.691-2.863-4.781-5.925-4.781
		s-5.584,2.09-5.924,4.781H288.032z"/>
	<path fill-rule="evenodd" clip-rule="evenodd" fill="#B6D0FC" d="M146.526,518.435c-0.312-2.691-2.834-4.781-5.924-4.781
		c-3.062,0-5.584,2.09-5.924,4.781H146.526z"/>
	<path fill-rule="evenodd" clip-rule="evenodd" fill="#A3C5FF" d="M223.289,79.36c5.726,2.09,8.249,6.013,9.241,11.194
		c3.6-2.863,8.589-4.695,14.258-2.634c2.551,0.945,4.62,2.605,6.038,4.695c-1.049-0.687,0.51-0.258-3.402-1.689
		c-3.883-1.403-13.918,0.229-18.68,4.724c-0.85-6.757-5.045-13.342-11.395-15.661c-1.219-0.458-2.438-0.744-3.657-0.916
		C218.101,78.387,220.737,78.444,223.289,79.36L223.289,79.36z"/>
	<path fill-rule="evenodd" clip-rule="evenodd" fill="#A3C5FF" d="M339.65,204.446c-4.45,1.632-6.406,4.695-7.199,8.704
		c-2.778-2.233-6.662-3.665-11.084-2.033c-1.956,0.716-3.571,2.004-4.677,3.636c0.822-0.516-0.397-0.201,2.636-1.317
		c3.033-1.088,10.829,0.171,14.514,3.693c0.652-5.268,3.912-10.393,8.872-12.197c0.936-0.344,1.871-0.573,2.835-0.716
		C343.676,203.702,341.606,203.73,339.65,204.446L339.65,204.446z"/>
	<path fill-rule="evenodd" clip-rule="evenodd" fill="#A3C5FF" d="M214.841,363.031c4.451,1.631,6.406,4.666,7.2,8.703
		c2.778-2.234,6.661-3.666,11.083-2.063c1.956,0.746,3.571,2.033,4.677,3.637c-0.822-0.516,0.369-0.172-2.636-1.289
		c-3.033-1.088-10.829,0.172-14.514,3.666c-0.652-5.24-3.912-10.365-8.873-12.168c-0.935-0.344-1.899-0.572-2.834-0.717
		C210.816,362.285,212.857,362.314,214.841,363.031L214.841,363.031z"/>
	<path fill-rule="evenodd" clip-rule="evenodd" fill="#D2E3FC" d="M383.843,69.569c-0.085-0.286-0.113-0.544-0.113-0.831
		c0-1.804,1.417-3.235,3.175-3.235c1.389,0,1.474-0.687,2.409-1.718c1.134-1.317,2.835-2.119,4.479-2.119
		c6.094,0,5.669-6.27,14.484-6.385c7.087-0.086,7.54,6.241,15.591,0.115c2.637-2.004,4.563-2.062,7.313-2.033
		c1.814,0.028,5.018,1.288,7.285,1.546c4.054,0.458,4.818-3.636,12.019-3.55c11.226,0.143,10.687,8.131,18.426,8.131
		c2.126,0,4.28,1.059,5.754,2.691c1.19,1.346,1.275,2.205,3.033,2.205c2.239,0,4.082,1.833,4.082,4.123
		c0,0.343-0.057,0.716-0.142,1.059h-29.226h-58.195H383.843z"/>
	<path fill-rule="evenodd" clip-rule="evenodd" fill="#D2E3FC" d="M159.764,50.959c-0.142-0.544-0.227-1.116-0.227-1.718
		c0-3.693,2.976-6.671,6.604-6.671c2.834,0,3.005-1.403,4.932-3.55c2.381-2.691,5.896-4.381,9.298-4.381
		c12.558,0,11.65-12.94,29.877-13.141c11.679-0.143,12.898,6.47,19.474,5.754c3.685-0.429,8.873-2.462,11.792-2.519
		c4.45-0.057,7.568,0.057,11.849,3.292c24.123,18.295,27.326,9.591,41.074,15.088c4.62,1.861,8.106,4.467,7.001,7.845H159.764z"/>
	<path fill-rule="evenodd" clip-rule="evenodd" fill="#D2E3FC" d="M46.095,97.684c-0.113-0.515-0.198-1.059-0.198-1.603
		c0-3.407,2.721-6.156,6.095-6.156c2.607,0,2.778-1.317,4.563-3.292c2.211-2.462,5.442-4.037,8.589-4.037
		c3.657,0,6.095-1.203,8.221-2.834c1.956-1.518,4.054-3.436,5.556-5.039c2.183-2.262,6.066-3.951,10.46-3.55
		c3.316,0.287,7.313,1.918,9.099,4.524c14.258,20.757,18.936,9.648,31.635,14.716c4.28,1.718,7.483,4.151,6.463,7.272H46.095z"/>
	<path fill-rule="evenodd" clip-rule="evenodd" fill="#D2E3FC" d="M188.111,251.744c-0.369-1.174,8.22-14.802,12.472-6.012
		c2.013,4.237,8.136-5.182,9.411-6.242c4.252-3.55,10.46-2.691,14.599,1.46c6.009,6.012,7.823,2.119,13.351-3.407
		c5.471-5.439,13.606-6.585,19.219-1.918c1.644,1.403,9.694,13.771,12.359,8.217c5.584-11.567,16.895,6.356,16.413,7.902h-36.964
		h-43.059H188.111z"/>
</g>
</svg>
